<svg viewBox="0 0 64 64" xmlns="http://www.w3.org/2000/svg" xmlns:xlink="http://www.w3.org/1999/xlink" width="64.000000" height="64.000000" fill="none" customFrame="#000000">
	<rect id="curved / user-1" width="64.000000" height="64.000000" x="0.000000" y="0.000000" />
	<path id="shape" d="M46.667 56.0003C50.3489 56.0003 53.3337 53.0155 53.3337 49.3336C53.3337 38.4516 37.3337 38.667 32.0003 38.667C26.667 38.667 10.667 38.4516 10.667 49.3336C10.667 53.0155 13.6518 56.0003 17.3337 56.0003L46.667 56.0003ZM32.0003 29.3333C26.1093 29.3333 21.3337 24.5577 21.3337 18.6667C21.3337 12.7756 26.1093 8 32.0003 8C37.8914 8 42.667 12.7756 42.667 18.6667C42.667 24.5577 37.8914 29.3333 32.0003 29.3333Z" fill-rule="evenodd" stroke="rgb(255,132,80)" stroke-linecap="round" stroke-linejoin="round" stroke-width="3" />
</svg>
