<svg width="42" height="77" viewBox="0 0 42 77" fill="none" xmlns="http://www.w3.org/2000/svg">
<path d="M21.0249 50.4153L6.93923 40.9018C6.46085 40.5701 5.92113 40.3393 5.35237 40.2232C4.7836 40.1071 4.19749 40.1081 3.62911 40.2261C3.05769 40.3376 2.5141 40.5634 2.03032 40.8901C1.54653 41.2169 1.1323 41.638 0.811982 42.1288C0.484868 42.6159 0.257216 43.1641 0.142335 43.7411C0.0274538 44.3182 0.0276538 44.9126 0.142919 45.4896C0.251686 46.0717 0.47828 46.6249 0.808516 47.1145C1.13875 47.604 1.56552 48.0195 2.06209 48.3348L16.6583 58.1861V68.073H4.42143C3.84437 68.0632 3.27148 68.1734 2.73838 68.3967C2.20528 68.62 1.72336 68.9517 1.32259 69.3711C0.894347 69.7714 0.555174 70.259 0.327524 70.8016C0.0998733 71.3442 -0.0110623 71.9294 0.00205984 72.5186C-0.0113226 73.1104 0.0994173 73.6983 0.327007 74.2438C0.554596 74.7894 0.893886 75.2801 1.32259 75.6838C1.72249 76.1056 2.20385 76.44 2.73687 76.6663C3.2699 76.8927 3.84324 77.0061 4.42143 76.9997H37.5755C38.1616 77.0071 38.7432 76.8944 39.285 76.6682C39.8267 76.442 40.3173 76.1071 40.7272 75.6838C41.1419 75.2721 41.4685 74.7787 41.6866 74.2342C41.9047 73.6897 42.0096 73.1057 41.9949 72.5186C42.0103 71.9339 41.9057 71.3524 41.6875 70.8107C41.4693 70.269 41.1423 69.7788 40.7272 69.3711C40.3165 68.9502 39.8253 68.618 39.2834 68.3948C38.7416 68.1717 38.1605 68.0622 37.5755 68.073H25.4266V58.1861L40.0405 48.3348C40.6601 47.9426 41.1668 47.3928 41.5098 46.7405C41.8528 46.0882 42.0201 45.3564 41.9949 44.6183C42.0079 43.734 41.7563 42.8663 41.273 42.1288C40.9492 41.6375 40.5318 41.2162 40.0451 40.8895C39.5584 40.5628 39.0121 40.3373 38.4382 40.2261C37.8699 40.1081 37.2837 40.1071 36.715 40.2232C36.1462 40.3393 35.6065 40.5701 35.1281 40.9018L21.0249 50.4153Z" fill="#F08153"/>
<path d="M6.16519 6.2977C4.17514 8.23605 2.60113 10.5671 1.54099 13.1459C0.480848 15.7247 -0.0427536 18.4962 0.00272831 21.2881C-0.0409803 24.0823 0.483362 26.856 1.54332 29.4374C2.60329 32.0189 4.17633 34.3533 6.16519 36.2963C8.0859 38.3066 10.3934 39.899 12.946 40.9754C15.4985 42.0518 18.242 42.5896 21.0079 42.5556C23.7724 42.5947 26.5158 42.0646 29.0707 40.9976C31.6256 39.9306 33.9385 38.3491 35.8683 36.3496C37.861 34.3853 39.4331 32.0286 40.4871 29.4256C41.541 26.8225 42.0545 24.0286 41.9955 21.217C42.0393 18.4285 41.5184 15.6605 40.4647 13.0827C39.4111 10.5049 37.8469 8.17184 35.8683 6.22659C33.9444 4.21794 31.633 2.62924 29.077 1.55873C26.521 0.488226 23.7747 -0.0413253 21.0079 0.00281813C18.2436 -0.0431162 15.4994 0.485687 12.9459 1.55637C10.3925 2.62706 8.08445 4.21674 6.16519 6.22659M29.6002 12.5215C30.7409 13.6535 31.6414 15.0083 32.2468 16.5033C32.8522 17.9982 33.1498 19.6021 33.1216 21.217C33.1526 22.8296 32.8562 24.4316 32.2505 25.9241C31.6449 27.4165 30.7429 28.7679 29.6002 29.8947C28.4838 31.0479 27.1457 31.9583 25.6681 32.5699C24.1904 33.1815 22.6046 33.4814 21.0079 33.4511C19.4141 33.48 17.8313 33.1794 16.3567 32.5678C14.8821 31.9563 13.547 31.0466 12.4333 29.8947C11.2855 28.7717 10.3801 27.4211 9.7741 25.9277C9.16808 24.4343 8.87453 22.8305 8.9119 21.217C8.87739 19.6012 9.17218 17.9955 9.77795 16.4997C10.3837 15.0038 11.2876 13.6497 12.4333 12.5215C13.5463 11.3687 14.8814 10.4585 16.3561 9.84684C17.8308 9.23519 19.414 8.93508 21.0079 8.96503C22.6047 8.93369 24.1909 9.23309 25.6687 9.84476C27.1464 10.4564 28.4845 11.3674 29.6002 12.5215Z" fill="#F08153"/>
</svg>
