<svg width="42" height="77" viewBox="0 0 42 77" fill="none" xmlns="http://www.w3.org/2000/svg">
<path d="M11.9766 17.1342C11.9763 16.9016 12.0305 16.6719 12.135 16.4618C12.9271 14.8451 14.1865 13.4782 15.765 12.5221C17.3434 11.566 19.1752 11.0606 21.0445 11.0652C22.9195 11.0556 24.7586 11.5565 26.346 12.5094C27.9333 13.4622 29.2033 14.8274 30.0068 16.4449C30.1736 16.8271 30.1867 17.2547 30.0437 17.6455C29.9008 18.0364 29.6118 18.3632 29.2321 18.5632C28.8297 18.721 28.3804 18.7311 27.9708 18.5914C27.5611 18.4517 27.2202 18.1722 27.0135 17.8067C26.4763 16.7311 25.6299 15.8234 24.5731 15.1895C23.5163 14.5555 22.2926 14.2213 21.0445 14.2258C19.8076 14.2204 18.5949 14.5531 17.5496 15.1846C16.5044 15.8162 15.6703 16.7202 15.1459 17.7899C15.0549 17.9789 14.9258 18.1489 14.7658 18.2902C14.6058 18.4314 14.4182 18.5411 14.2137 18.613C14.0092 18.6848 13.7918 18.7174 13.5741 18.7089C13.3564 18.7003 13.1426 18.6508 12.945 18.5632C12.6562 18.4398 12.4111 18.2392 12.2393 17.9856C12.0674 17.732 11.9762 17.4363 11.9766 17.1342Z" fill="#F08153"/>
<path d="M1.324 43.3934C0.897912 43.777 0.56038 44.2413 0.332985 44.7566C0.10559 45.2719 -0.00666034 45.8268 0.00341852 46.3859C-0.00970407 46.9429 0.101236 47.4962 0.328895 48.0091C0.556554 48.5221 0.895739 48.9831 1.324 49.3615C1.72391 49.7603 2.20529 50.0764 2.73833 50.2904C3.27138 50.5044 3.84475 50.6117 4.42295 50.6056H16.5899V68.5603H4.42295C3.84588 68.551 3.27297 68.6552 2.73984 68.8663C2.20672 69.0775 1.72479 69.391 1.324 69.7876C0.895739 70.166 0.556554 70.6269 0.328895 71.1399C0.101236 71.6529 -0.00970407 72.2062 0.00341852 72.7632C-0.0122223 73.323 0.0974958 73.8796 0.325234 74.3956C0.552972 74.9117 0.893482 75.3753 1.324 75.7557C1.72391 76.1544 2.20529 76.4706 2.73833 76.6846C3.27138 76.8986 3.84475 77.0059 4.42295 76.9997H37.5782C38.1621 77.0085 38.7415 76.9025 39.2807 76.6885C39.8198 76.4745 40.3071 76.157 40.7124 75.7557C41.1348 75.371 41.4675 74.9058 41.689 74.3902C41.9104 73.8746 42.0157 73.3202 41.9978 72.7632C42.0143 72.2089 41.9083 71.6574 41.6869 71.1447C41.4654 70.6321 41.1334 70.1696 40.7124 69.7876C40.3063 69.3885 39.8184 69.0735 39.2792 68.8624C38.7399 68.6512 38.1609 68.5484 37.5782 68.5603H25.4289V50.6056H37.5782C38.1621 50.6143 38.7415 50.5084 39.2807 50.2944C39.8198 50.0803 40.3071 49.7628 40.7124 49.3615C41.1334 48.9794 41.4654 48.517 41.6869 48.0043C41.9083 47.4917 42.0143 46.9402 41.9978 46.3859C42.0102 45.8295 41.9026 45.2767 41.6814 44.7619C41.4603 44.247 41.1304 43.7812 40.7124 43.3934C40.3071 42.9921 39.8198 42.6746 39.2807 42.4606C38.7415 42.2466 38.1621 42.1406 37.5782 42.1494H4.42295C3.84475 42.1433 3.27138 42.2505 2.73833 42.4645C2.20529 42.6785 1.72391 42.9946 1.324 43.3934Z" fill="#F08153"/>
<path d="M6.16555 5.90316C4.17458 7.73509 2.59994 9.93875 1.5397 12.377C0.479457 14.8152 -0.0436833 17.4357 0.00285339 20.0753C-0.0384392 22.7142 0.487097 25.3332 1.54703 27.7707C2.60696 30.2082 4.17879 32.4125 6.16555 34.2475C8.08831 36.1421 10.3975 37.6403 12.9505 38.6495C15.5035 39.6586 18.2461 40.1573 21.0088 40.1147C23.774 40.1556 26.5187 39.6562 29.0743 38.6473C31.6299 37.6383 33.9424 36.141 35.8697 34.2475C37.8451 32.406 39.4071 30.1998 40.4606 27.7633C41.514 25.3268 42.0368 22.711 41.9972 20.0753C42.042 17.4389 41.5215 14.8217 40.4678 12.3845C39.414 9.94726 37.8493 7.74163 35.8697 5.90316C33.9467 4.00191 31.6357 2.49733 29.0797 1.4824C26.5237 0.467464 23.7768 -0.0362834 21.0088 0.00228055C18.2432 -0.0379737 15.4985 0.465089 12.945 1.48019C10.3916 2.4953 8.084 4.00078 6.16555 5.90316ZM29.6014 11.8376C30.741 12.9122 31.6406 14.1962 32.2459 15.6121C32.8511 17.0279 33.1495 18.5462 33.1229 20.0753C33.1547 21.5975 32.8585 23.1097 32.2527 24.5181C31.6469 25.9265 30.7445 27.201 29.6014 28.2625C28.4875 29.356 27.1498 30.2189 25.6715 30.7973C24.1933 31.3758 22.6061 31.6575 21.0088 31.6248C19.4144 31.6562 17.8303 31.3738 16.355 30.7954C14.8798 30.2169 13.5451 29.3547 12.4339 28.2625C11.2865 27.204 10.3813 25.9301 9.77516 24.521C9.16907 23.1119 8.8753 21.5982 8.91235 20.0753C8.87961 18.5455 9.17514 17.0254 9.78077 15.6087C10.3864 14.192 11.2893 12.9087 12.4339 11.8376C13.5495 10.751 14.885 9.89256 16.3592 9.31452C17.8334 8.73647 19.4154 8.45096 21.0088 8.47532C22.6052 8.44866 24.1906 8.73307 25.668 9.31118C27.1453 9.88929 28.4837 10.749 29.6014 11.8376Z" fill="#F08153"/>
</svg>
