<svg viewBox="0 0 44 44" xmlns="http://www.w3.org/2000/svg" xmlns:xlink="http://www.w3.org/1999/xlink" width="44.000000" height="44.000000" fill="none" customFrame="#000000">
	<defs>
		<linearGradient id="paint_linear_0" x1="43.1543274" x2="-0.845687866" y1="44" y2="-3.81469727e-06" gradientUnits="userSpaceOnUse">
			<stop stop-color="rgb(251,225,138)" offset="0" stop-opacity="1" />
			<stop stop-color="rgb(252,187,69)" offset="0.209999993" stop-opacity="1" />
			<stop stop-color="rgb(247,82,116)" offset="0.379999995" stop-opacity="1" />
			<stop stop-color="rgb(213,54,146)" offset="0.519999981" stop-opacity="1" />
			<stop stop-color="rgb(143,57,206)" offset="0.74000001" stop-opacity="1" />
			<stop stop-color="rgb(91,79,233)" offset="1" stop-opacity="1" />
		</linearGradient>
	</defs>
	<rect id="Social Media / Instagram" width="44.000000" height="44.000000" x="0.000000" y="0.000000" />
	<rect id="Logo Container" width="44.000000" height="44.000000" x="0.000000" y="0.000000" rx="10.000000" fill="url(#paint_linear_0)" />
	<g id="Group 15">
		<path id="Vector" d="M18.3383 22.0562C18.3383 20.0294 19.9804 18.3859 22.0066 18.3859C24.0328 18.3859 25.6758 20.0294 25.6758 22.0562C25.6758 24.0829 24.0328 25.7264 22.0066 25.7264C19.9804 25.7264 18.3383 24.0829 18.3383 22.0562ZM16.3548 22.0562C16.3548 25.1785 18.8851 27.7096 22.0066 27.7096C25.1281 27.7096 27.6584 25.1785 27.6584 22.0562C27.6584 18.9338 25.1281 16.4028 22.0066 16.4028C18.8851 16.4028 16.3548 18.9338 16.3548 22.0562ZM26.5613 16.1786C26.5612 16.4399 26.6386 16.6954 26.7836 16.9127C26.9287 17.13 27.1349 17.2995 27.3762 17.3995C27.6175 17.4996 27.883 17.5259 28.1393 17.475C28.3955 17.4242 28.6309 17.2984 28.8157 17.1137C29.0005 16.929 29.1263 16.6937 29.1774 16.4374C29.2285 16.1811 29.2024 15.9155 29.1026 15.674C29.0027 15.4326 28.8335 15.2262 28.6163 15.0809C28.3992 14.9357 28.1439 14.8581 27.8826 14.858L27.8821 14.858C27.5319 14.8581 27.1962 14.9973 26.9485 15.2449C26.7009 15.4925 26.5616 15.8284 26.5613 16.1786ZM17.5599 31.0179C16.4868 30.969 15.9036 30.7902 15.516 30.6391C15.0021 30.439 14.6354 30.2007 14.2499 29.8156C13.8644 29.4305 13.6258 29.0641 13.4266 28.5501C13.2755 28.1625 13.0968 27.5789 13.048 26.5055C12.9947 25.345 12.984 24.9964 12.984 22.0563C12.984 19.1161 12.9955 18.7685 13.048 17.607C13.0969 16.5336 13.277 15.9511 13.4266 15.5624C13.6267 15.0484 13.865 14.6816 14.2499 14.296C14.6349 13.9104 15.0012 13.6717 15.516 13.4725C15.9034 13.3214 16.4868 13.1426 17.5599 13.0938C18.7201 13.0404 19.0686 13.0297 22.0066 13.0297C24.9446 13.0297 25.2934 13.0413 26.4546 13.0938C27.5277 13.1426 28.11 13.3228 28.4986 13.4725C29.0124 13.6717 29.3791 13.911 29.7646 14.296C30.1501 14.6811 30.3878 15.0484 30.5879 15.5624C30.739 15.95 30.9177 16.5336 30.9665 17.607C31.0199 18.7685 31.0305 19.1161 31.0305 22.0563C31.0305 24.9964 31.0199 25.344 30.9665 26.5055C30.9176 27.5789 30.738 28.1624 30.5879 28.5501C30.3878 29.0641 30.1495 29.4309 29.7646 29.8156C29.3796 30.2003 29.0124 30.439 28.4986 30.6391C28.1111 30.7903 27.5277 30.9691 26.4546 31.0179C25.2944 31.0712 24.9459 31.0819 22.0066 31.0819C19.0673 31.0819 18.7198 31.0712 17.5599 31.0179ZM17.4688 11.1131C16.2971 11.1664 15.4964 11.3523 14.7972 11.6244C14.073 11.9055 13.46 12.2826 12.8474 12.8944C12.2349 13.5061 11.8589 14.1203 11.5779 14.8447C11.3058 15.5445 11.12 16.345 11.0667 17.5171C11.0124 18.691 11 19.0663 11 22.0562C11 25.0461 11.0124 25.4214 11.0667 26.5953C11.12 27.7674 11.3058 28.5678 11.5779 29.2677C11.8589 29.9916 12.2349 30.6064 12.8474 31.218C13.4599 31.8295 14.073 32.206 14.7972 32.4879C15.4977 32.76 16.2971 32.9459 17.4688 32.9993C18.643 33.0526 19.0176 33.0659 22.0066 33.0659C24.9956 33.0659 25.3708 33.0535 26.5444 32.9993C27.7162 32.9459 28.5163 32.76 29.216 32.4879C29.9397 32.206 30.5532 31.8298 31.1658 31.218C31.7783 30.6062 32.1535 29.9916 32.4353 29.2677C32.7074 28.5678 32.8941 27.7673 32.9465 26.5953C32.9999 25.4205 33.0123 25.0461 33.0123 22.0562C33.0123 19.0663 32.9999 18.691 32.9465 17.5171C32.8932 16.3449 32.7074 15.5441 32.4353 14.8447C32.1535 14.1208 31.7774 13.5071 31.1658 12.8944C30.5542 12.2816 29.9397 11.9055 29.2169 11.6244C28.5163 11.3523 27.7161 11.1656 26.5453 11.1131C25.3717 11.0597 24.9965 11.0464 22.0075 11.0464C19.0184 11.0464 18.643 11.0588 17.4688 11.1131Z" fill="rgb(255,255,255)" fill-rule="nonzero" />
		<path id="Vector" d="M18.3383 22.0562C18.3383 20.0294 19.9804 18.3859 22.0066 18.3859C24.0328 18.3859 25.6758 20.0294 25.6758 22.0562C25.6758 24.0829 24.0328 25.7264 22.0066 25.7264C19.9804 25.7264 18.3383 24.0829 18.3383 22.0562ZM16.3548 22.0562C16.3548 25.1785 18.8851 27.7096 22.0066 27.7096C25.1281 27.7096 27.6584 25.1785 27.6584 22.0562C27.6584 18.9338 25.1281 16.4028 22.0066 16.4028C18.8851 16.4028 16.3548 18.9338 16.3548 22.0562ZM26.5613 16.1786C26.5612 16.4399 26.6386 16.6954 26.7836 16.9127C26.9287 17.13 27.1349 17.2995 27.3762 17.3995C27.6175 17.4996 27.883 17.5259 28.1393 17.475C28.3955 17.4242 28.6309 17.2984 28.8157 17.1137C29.0005 16.929 29.1263 16.6937 29.1774 16.4374C29.2285 16.1811 29.2024 15.9155 29.1026 15.674C29.0027 15.4326 28.8335 15.2262 28.6163 15.0809C28.3992 14.9357 28.1439 14.8581 27.8826 14.858L27.8821 14.858C27.5319 14.8581 27.1962 14.9973 26.9485 15.2449C26.7009 15.4925 26.5616 15.8284 26.5613 16.1786ZM17.5599 31.0179C16.4868 30.969 15.9036 30.7902 15.516 30.6391C15.0021 30.439 14.6354 30.2007 14.2499 29.8156C13.8644 29.4305 13.6258 29.0641 13.4266 28.5501C13.2755 28.1625 13.0968 27.5789 13.048 26.5055C12.9947 25.345 12.984 24.9964 12.984 22.0563C12.984 19.1161 12.9955 18.7685 13.048 17.607C13.0969 16.5336 13.277 15.9511 13.4266 15.5624C13.6267 15.0484 13.865 14.6816 14.2499 14.296C14.6349 13.9104 15.0012 13.6717 15.516 13.4725C15.9034 13.3214 16.4868 13.1426 17.5599 13.0938C18.7201 13.0404 19.0686 13.0297 22.0066 13.0297C24.9446 13.0297 25.2934 13.0413 26.4546 13.0938C27.5277 13.1426 28.11 13.3228 28.4986 13.4725C29.0124 13.6717 29.3791 13.911 29.7646 14.296C30.1501 14.6811 30.3878 15.0484 30.5879 15.5624C30.739 15.95 30.9177 16.5336 30.9665 17.607C31.0199 18.7685 31.0305 19.1161 31.0305 22.0563C31.0305 24.9964 31.0199 25.344 30.9665 26.5055C30.9176 27.5789 30.738 28.1624 30.5879 28.5501C30.3878 29.0641 30.1495 29.4309 29.7646 29.8156C29.3796 30.2003 29.0124 30.439 28.4986 30.6391C28.1111 30.7903 27.5277 30.9691 26.4546 31.0179C25.2944 31.0712 24.9459 31.0819 22.0066 31.0819C19.0673 31.0819 18.7198 31.0712 17.5599 31.0179ZM17.4688 11.1131C16.2971 11.1664 15.4964 11.3523 14.7972 11.6244C14.073 11.9055 13.46 12.2826 12.8474 12.8944C12.2349 13.5061 11.8589 14.1203 11.5779 14.8447C11.3058 15.5445 11.12 16.345 11.0667 17.5171C11.0124 18.691 11 19.0663 11 22.0562C11 25.0461 11.0124 25.4214 11.0667 26.5953C11.12 27.7674 11.3058 28.5678 11.5779 29.2677C11.8589 29.9916 12.2349 30.6064 12.8474 31.218C13.4599 31.8295 14.073 32.206 14.7972 32.4879C15.4977 32.76 16.2971 32.9459 17.4688 32.9993C18.643 33.0526 19.0176 33.0659 22.0066 33.0659C24.9956 33.0659 25.3708 33.0535 26.5444 32.9993C27.7162 32.9459 28.5163 32.76 29.216 32.4879C29.9397 32.206 30.5532 31.8298 31.1658 31.218C31.7783 30.6062 32.1535 29.9916 32.4353 29.2677C32.7074 28.5678 32.8941 27.7673 32.9465 26.5953C32.9999 25.4205 33.0123 25.0461 33.0123 22.0562C33.0123 19.0663 32.9999 18.691 32.9465 17.5171C32.8932 16.3449 32.7074 15.5441 32.4353 14.8447C32.1535 14.1208 31.7774 13.5071 31.1658 12.8944C30.5542 12.2816 29.9397 11.9055 29.2169 11.6244C28.5163 11.3523 27.7161 11.1656 26.5453 11.1131C25.3717 11.0597 24.9965 11.0464 22.0075 11.0464C19.0184 11.0464 18.643 11.0588 17.4688 11.1131Z" fill-rule="nonzero" />
	</g>
</svg>
