<svg viewBox="0 0 44 44" xmlns="http://www.w3.org/2000/svg" xmlns:xlink="http://www.w3.org/1999/xlink" width="44.000000" height="44.000000" fill="none" customFrame="url(#clipPath_0)">
	<defs>
		<clipPath id="clipPath_0">
			<rect width="44.000000" height="44.000000" x="0.000000" y="0.000000" rx="10.000000" fill="rgb(255,255,255)" />
		</clipPath>
	</defs>
	<rect id="Social Media / Telegram" width="44.000000" height="44.000000" x="0.000000" y="0.000000" rx="10.000000" />
	<rect id="Logo Container" width="44.000000" height="44.000000" x="0.000000" y="0.000000" rx="10.000000" fill="rgb(52,170,223)" />
	<path id="Vector" d="M12.2409 21.2206C12.2409 21.2206 21.1925 17.4503 24.2971 16.1227C25.4873 15.5917 29.5233 13.8923 29.5233 13.8923C29.5233 13.8923 31.3861 13.1489 31.2308 14.9544C31.179 15.6979 30.7651 18.2999 30.3512 21.1144C29.7302 25.0971 29.0576 29.4516 29.0576 29.4516C29.0576 29.4516 28.9541 30.673 28.0744 30.8854C27.1948 31.0978 25.7459 30.142 25.4873 29.9295C25.2802 29.7702 21.6065 27.3806 20.2611 26.2123C19.8989 25.8937 19.485 25.2565 20.3129 24.513C22.1757 22.7606 24.4006 20.5834 25.7459 19.2027C26.3669 18.5654 26.9878 17.0786 24.4006 18.884C20.7268 21.4861 17.1048 23.9289 17.1048 23.9289C17.1048 23.9289 16.2769 24.4599 14.7246 23.9819C13.1722 23.5041 11.3612 22.8668 11.3612 22.8668C11.3612 22.8668 10.1194 22.0703 12.2409 21.2206Z" fill="rgb(255,255,255)" fill-rule="nonzero" />
</svg>
