<svg width="246.000000" height="44.000000" viewBox="0 0 246 44" fill="none" xmlns="http://www.w3.org/2000/svg" xmlns:xlink="http://www.w3.org/1999/xlink">
	<desc>
			Created with Pixso.
	</desc>
	<defs/>
	<path id="6" d="M57.08 34.68Q58.96 32.81 58.96 29.05L58.96 25.46Q58.96 21.97 57.21 20.16Q55.35 18.23 51.49 18.23L6.49 18.23L6.47 14.52Q6.46 13.3 7.06 12.69Q7.67 12.08 8.89 12.08L58.33 12.08L58.33 5.95L7.59 6Q3.94 6 2.13 7.83Q0.34 9.63 0.34 13.2L0.34 29.12Q0.34 32.94 2.25 34.8Q4.05 36.54 7.54 36.54L51.49 36.54Q55.21 36.54 57.08 34.68ZM7.07 29.8Q6.45 29.18 6.45 27.93L6.45 24.39L50.39 24.36Q51.76 24.36 52.39 25.04Q52.93 25.63 52.93 26.71L52.93 27.93Q52.93 29.13 52.33 29.75Q51.7 30.39 50.42 30.39L8.86 30.39Q7.68 30.39 7.07 29.8Z" fill="#FFFFFF" fill-opacity="1.000000" fill-rule="evenodd"/>
	<path id="Строй" d="M168.78 4.81L164.6 4.8L164.6 6.48L168.78 6.47L168.78 4.81ZM99.04 16.01L101.53 16.01L101.53 7.69L111.89 7.69L111.89 5.61L88.65 5.61L88.65 7.72L99.04 7.72L99.04 16.01ZM156.71 16.01L158.81 15.99L174.54 8.02L174.54 16.01L176.64 16.01L176.64 5.62L174.55 5.62L158.82 13.51L158.81 5.64L156.71 5.64L156.71 16.01ZM115.65 16.01L115.65 12.7L130.96 12.71Q132.2 12.71 132.83 12.09Q133.48 11.45 133.48 10.14L133.48 8.1Q133.48 6.91 132.88 6.29Q132.25 5.64 130.93 5.64L113.55 5.64L113.55 16.01L115.65 16.01ZM69.53 16.01L87 16.01L87 13.95L69.96 13.95Q69.6 13.95 69.4 13.77Q69.17 13.56 69.17 13.11L69.17 8.5Q69.17 8.11 69.37 7.91Q69.57 7.7 70 7.7L87 7.7L87 5.64L69.53 5.64Q68.31 5.64 67.7 6.25Q67.08 6.87 67.08 8.1L67.08 13.49Q67.08 14.79 67.73 15.42Q68.34 16.01 69.53 16.01ZM135.76 15.39Q136.38 16.01 137.62 16.01L152.61 15.99Q153.85 15.99 154.46 15.37Q155.06 14.76 155.06 13.56L155.06 8.19Q155.06 6.91 154.42 6.27Q153.79 5.64 152.53 5.64L137.6 5.64Q136.38 5.64 135.76 6.25Q135.13 6.88 135.13 8.13L135.13 13.51Q135.13 14.77 135.76 15.39ZM115.65 7.71L130.57 7.71Q130.98 7.71 131.18 7.91Q131.38 8.11 131.37 8.52L131.37 9.79Q131.36 10.23 131.14 10.44Q130.94 10.61 130.6 10.61L115.64 10.61L115.65 7.71ZM152.99 8.58L152.99 13.12Q152.99 13.54 152.78 13.74Q152.58 13.94 152.17 13.94L138.06 13.94Q137.66 13.94 137.45 13.74Q137.23 13.53 137.23 13.1L137.23 8.52Q137.23 8.13 137.43 7.92Q137.64 7.71 138.06 7.71L152.16 7.71Q152.55 7.71 152.76 7.91Q152.99 8.13 152.99 8.58Z" fill="#1F353E" fill-opacity="1.000000" fill-rule="evenodd"/>
	<path id="Метр" d="M141.69 38.01L144.18 38.01L144.18 29.69L154.54 29.69L154.54 27.61L131.3 27.61L131.3 29.72L141.69 29.72L141.69 38.01ZM109.74 38.01L129.66 38.01L129.66 35.94L111.85 35.94L111.85 33.87L129.66 33.87L129.66 31.79L111.85 31.79L111.85 29.7L129.66 29.7L129.66 27.62L109.74 27.62L109.74 38.01ZM158.3 38.01L158.3 34.7L173.61 34.71Q174.85 34.71 175.48 34.09Q176.13 33.45 176.13 32.14L176.13 30.1Q176.13 28.91 175.53 28.29Q174.9 27.64 173.58 27.64L156.2 27.64L156.2 38.01L158.3 38.01ZM81.94 30.09L94.17 34.71L106 30.11L105.99 38.01L108.09 38.01L108.08 27.64L105.99 27.64L94.12 32.21L81.91 27.64L79.83 27.64L79.83 38.01L81.94 38.01L81.94 30.09ZM158.3 29.71L173.22 29.71Q173.63 29.71 173.83 29.91Q174.02 30.11 174.02 30.52L174.02 31.79Q174.01 32.23 173.78 32.44Q173.59 32.61 173.25 32.61L158.29 32.61L158.3 29.71Z" fill="#1F353E" fill-opacity="1.000000" fill-rule="evenodd"/>
	<line id="Line 13" x1="68.000000" y1="23.500000" x2="178.000000" y2="23.500000" stroke="#1F353E" stroke-opacity="1.000000" stroke-width="1.000000"/>
	<path id="3" d="M182.25 36.54L233.44 36.5Q237.18 36.5 239.03 34.63Q240.84 32.81 240.86 29.22L240.89 25.39Q240.9 23.77 240.12 22.77Q239.2 21.6 237.2 21.29Q239.1 20.92 240.02 19.77Q240.89 18.69 240.89 16.91L240.89 12.72Q240.89 9.67 239.37 8.02Q237.57 6.05 233.61 6.05L182.25 6.05L182.25 12.15L232.32 12.15Q233.5 12.15 234.09 12.75Q234.69 13.34 234.69 14.52L234.69 15.67Q234.69 17.05 234 17.69Q233.41 18.23 232.32 18.23L187.08 18.21L187.08 24.39L232.32 24.39Q233.61 24.39 234.22 25.03Q234.76 25.6 234.76 26.68L234.76 28.02Q234.76 29.2 234.17 29.79Q233.56 30.42 232.32 30.42L182.25 30.42L182.25 36.54Z" fill="#FFFFFF" fill-opacity="1.000000" fill-rule="evenodd"/>
</svg>
