<svg viewBox="0 0 44 44" xmlns="http://www.w3.org/2000/svg" xmlns:xlink="http://www.w3.org/1999/xlink" width="44.000000" height="44.000000" fill="none" customFrame="#000000">
	<rect id="Social Media / Tik Tok" width="44.000000" height="44.000000" x="0.000000" y="0.000000" />
	<rect id="Logo Container" width="44.000000" height="44.000000" x="0.000000" y="0.000000" rx="10.000000" fill="rgb(0,0,0)" />
	<g id="Capa 2">
		<g id="ELEMENTS">
			<path id="Vector" d="M26.7518 19.0095C28.2255 20.0581 29.9903 20.6183 31.7983 20.6115L31.7983 17.025C31.4429 17.026 31.0884 16.9879 30.7413 16.9114L30.7413 19.7687C28.9291 19.7719 27.1618 19.2052 25.6888 18.1488L25.6888 25.525C25.6843 26.7354 25.3527 27.922 24.729 28.9591C24.1054 29.9961 23.213 30.8448 22.1464 31.4154C21.0799 31.9859 19.8789 32.2569 18.671 32.1996C17.463 32.1423 16.2931 31.759 15.2852 31.0901C16.2174 32.0342 17.4087 32.6802 18.708 32.9463C20.0074 33.2123 21.3563 33.0865 22.5842 32.5847C23.812 32.0829 24.8634 31.2277 25.6054 30.1274C26.3473 29.0271 26.7463 27.7311 26.7518 26.4037L26.7518 19.0095ZM28.0597 15.3513C27.3103 14.5383 26.8505 13.5001 26.7518 12.3984L26.7518 11.9321L25.7485 11.9321C25.8725 12.6324 26.1424 13.2988 26.5406 13.8879C26.9388 14.4769 27.4564 14.9755 28.0597 15.3513ZM17.6084 28.2508C17.2606 27.7956 17.0475 27.2519 16.9933 26.6815C16.9391 26.1111 17.0459 25.5369 17.3017 25.0243C17.5574 24.5117 17.9519 24.0812 18.44 23.7819C18.9282 23.4826 19.4905 23.3265 20.0629 23.3313C20.379 23.3312 20.6932 23.3796 20.9946 23.4747L20.9946 19.7687C20.6423 19.722 20.2869 19.702 19.9315 19.7089L19.9315 22.5901C19.1976 22.3579 18.4033 22.4107 17.7065 22.738C17.0097 23.0653 16.4615 23.6431 16.171 24.3565C15.8805 25.0699 15.8689 25.8666 16.1385 26.5882C16.4082 27.3098 16.9393 27.9033 17.6263 28.2508L17.6084 28.2508Z" fill="rgb(238,29,82)" fill-rule="evenodd" />
			<path id="Vector" d="M25.6882 18.1249C27.1612 19.1813 28.9286 19.748 30.7407 19.7448L30.7407 16.8875C29.7083 16.669 28.7704 16.1317 28.0592 15.3513C27.4559 14.9755 26.9383 14.4769 26.5401 13.8879C26.1419 13.2988 25.872 12.6324 25.748 11.9321L23.1082 11.9321L23.1082 26.4037C23.1058 27.0443 22.903 27.668 22.5283 28.1873C22.1536 28.7066 21.6258 29.0954 21.019 29.2992C20.4123 29.5029 19.757 29.5114 19.1452 29.3233C18.5334 29.1353 17.9958 28.7602 17.6078 28.2508C16.993 27.9403 16.5006 27.4315 16.2101 26.8066C15.9196 26.1817 15.848 25.477 16.0067 24.8063C16.1654 24.1356 16.5453 23.5379 17.085 23.1098C17.6247 22.6817 18.2928 22.4481 18.9814 22.4466C19.2974 22.4476 19.6114 22.496 19.9131 22.5901L19.9131 19.7089C18.6097 19.7402 17.3438 20.1517 16.2708 20.893C15.1978 21.6342 14.3644 22.6729 13.8729 23.8815C13.3814 25.0902 13.2531 26.4162 13.5039 27.6967C13.7547 28.9773 14.3736 30.1566 15.2846 31.0901C16.2927 31.7638 17.4646 32.1511 18.6752 32.2109C19.8859 32.2706 21.0901 32.0006 22.1596 31.4295C23.229 30.8584 24.1237 30.0077 24.7482 28.9679C25.3728 27.9281 25.7038 26.7383 25.7062 25.525L25.6882 18.1249Z" fill="rgb(255,255,255)" fill-rule="evenodd" />
			<path id="Vector" d="M30.7421 16.8869L30.7421 16.1158C29.7939 16.1199 28.864 15.8545 28.0605 15.3507C28.7699 16.1333 29.7086 16.6711 30.7421 16.8869ZM25.7493 11.9315C25.7493 11.7941 25.7075 11.6506 25.6896 11.5131L25.6896 11.0469L22.0465 11.0469L22.0465 25.5245C22.0433 26.3351 21.719 27.1114 21.1446 27.6829C20.5702 28.2545 19.7927 28.5746 18.9828 28.573C18.5058 28.5754 18.0352 28.4648 17.6091 28.2502C17.9971 28.7597 18.5347 29.1347 19.1465 29.3228C19.7583 29.5108 20.4136 29.5023 21.0203 29.2986C21.6271 29.0948 22.1549 28.706 22.5296 28.1867C22.9043 27.6674 23.1071 27.0437 23.1096 26.4031L23.1096 11.9315L25.7493 11.9315ZM19.9144 19.7023L19.9144 18.8834C18.4153 18.6796 16.8915 18.99 15.5912 19.7639C14.2909 20.5379 13.2908 21.7299 12.754 23.1456C12.2172 24.5612 12.1753 26.1172 12.635 27.5597C13.0948 29.0023 14.0292 30.2465 15.2859 31.0895C14.3818 30.1539 13.7695 28.975 13.5239 27.6968C13.2782 26.4185 13.4098 25.0964 13.9026 23.8918C14.3954 22.6872 15.2281 21.6524 16.2989 20.9137C17.3697 20.175 18.6322 19.7645 19.9323 19.7322L19.9144 19.7023Z" fill="rgb(105,201,208)" fill-rule="evenodd" />
		</g>
	</g>
</svg>
