<svg viewBox="0 0 44 44" xmlns="http://www.w3.org/2000/svg" xmlns:xlink="http://www.w3.org/1999/xlink" width="44.000000" height="44.000000" fill="none" customFrame="#000000">
	<rect id="Social Media / Vkontakte" width="44.000000" height="44.000000" x="0.000000" y="0.000000" />
	<rect id="Logo Container" width="44.000000" height="44.000000" x="0.000000" y="0.000000" rx="10.000000" fill="rgb(39,135,245)" />
	<path id="path4" d="M34.8382 15.6648C35.0242 15.0832 34.8383 14.6558 33.9533 14.6558L31.027 14.6558C30.2829 14.6558 29.9399 15.025 29.7538 15.4321C29.7538 15.4321 28.2657 18.8348 26.1575 21.045C25.4755 21.6848 25.1654 21.8884 24.7934 21.8884C24.6074 21.8884 24.3381 21.6848 24.3381 21.1032L24.3381 15.6648C24.3381 14.9668 24.1222 14.6558 23.5021 14.6558L18.9035 14.6558C18.4385 14.6558 18.1589 14.9797 18.1589 15.2867C18.1589 15.9484 19.2129 16.101 19.3216 17.9623L19.3216 22.0048C19.3216 22.8911 19.151 23.0518 18.7789 23.0518C17.7869 23.0518 15.3737 19.6339 13.9425 15.723C13.662 14.9628 13.3807 14.6558 12.6328 14.6558L9.70645 14.6558C8.87035 14.6558 8.70312 15.025 8.70312 15.4321C8.70312 16.1592 9.69522 19.7654 13.3225 24.5349C15.7406 27.7921 19.1477 29.5577 22.2479 29.5577C24.108 29.5577 24.3382 29.1656 24.3382 28.4901L24.3382 26.0283C24.3382 25.244 24.5144 25.0875 25.1034 25.0875C25.5374 25.0875 26.2815 25.2911 28.0177 26.8615C30.0018 28.7228 30.3289 29.5577 31.445 29.5577L34.3713 29.5577C35.2074 29.5577 35.6255 29.1656 35.3843 28.3917C35.1204 27.6204 34.1731 26.5013 32.9161 25.1747C32.234 24.4186 31.2109 23.6043 30.9009 23.1971C30.4669 22.6737 30.5909 22.441 30.9009 21.9757C30.9009 21.9757 34.4662 17.2643 34.8382 15.6648Z" fill="rgb(255,255,255)" fill-rule="evenodd" />
</svg>
