<svg width="23" height="23" viewBox="0 0 23 23" fill="none" xmlns="http://www.w3.org/2000/svg">
<rect width="22.0606" height="22.0606" rx="11.0303" transform="matrix(-1 0 0 1 23 0)" fill="#898989"/>
<path fill-rule="evenodd" clip-rule="evenodd" d="M12.9682 13.3098C12.8563 13.4221 12.6749 13.4221 12.563 13.3098C12.4511 13.1976 12.4511 13.0156 12.563 12.9033L14.1431 11.3179L9.10473 11.3179C8.94651 11.3179 8.81824 11.1892 8.81824 11.0304C8.81824 10.8716 8.94651 10.7429 9.10473 10.7429L14.1431 10.7429L12.563 9.1575C12.4511 9.04526 12.4511 8.86326 12.563 8.75095C12.6749 8.63871 12.8563 8.63871 12.9682 8.75095L15.0374 10.8271C15.1492 10.9394 15.1492 11.1214 15.0374 11.2337L12.9682 13.3098Z" fill="white"/>
</svg>
