<svg width="21" height="22" viewBox="0 0 21 22" fill="none" xmlns="http://www.w3.org/2000/svg">
<circle cx="10.5" cy="10.5605" r="10" fill="#1C1919" stroke="#F4D782"/>
<path d="M15.7249 7.54813C15.8087 7.26683 15.7249 7.06055 15.3284 7.06055H14.0151C13.681 7.06055 13.5283 7.239 13.4444 7.43501C13.4444 7.43501 12.7767 9.07984 11.8305 10.1463C11.5251 10.4567 11.3856 10.5547 11.2191 10.5547C11.1359 10.5547 11.0149 10.4567 11.0149 10.1754V7.54813C11.0149 7.21057 10.9185 7.06055 10.64 7.06055H8.5764C8.368 7.06055 8.24225 7.21662 8.24225 7.36544C8.24225 7.68485 8.71534 7.75865 8.76384 8.6588V10.6115C8.76384 11.0392 8.68779 11.1173 8.52011 11.1173C8.07517 11.1173 6.99245 9.46639 6.34988 7.57656C6.22472 7.20936 6.09837 7.06115 5.76301 7.06115H4.45033C4.07486 7.06115 4 7.23961 4 7.43561C4 7.78769 4.44494 9.52991 6.07262 11.8341C7.15773 13.4076 8.68539 14.2605 10.0771 14.2605C10.9113 14.2605 11.0143 14.0712 11.0143 13.7445V12.5552C11.0143 12.1765 11.094 12.1003 11.3581 12.1003C11.5521 12.1003 11.8862 12.1995 12.6653 12.9575C13.5552 13.8564 13.7025 14.2599 14.2026 14.2599H15.5153C15.8901 14.2599 16.0776 14.0706 15.9698 13.6967C15.8518 13.3247 15.4266 12.7833 14.8625 12.1427C14.5559 11.7773 14.0978 11.3841 13.9583 11.1875C13.7636 10.934 13.8199 10.8221 13.9583 10.597C13.9589 10.5976 15.5584 8.32185 15.7249 7.54813V7.54813Z" fill="#F4D782"/>
</svg>
