<svg width="38" height="38" viewBox="0 0 38 38" fill="none" xmlns="http://www.w3.org/2000/svg">
<path d="M37.49 18.7452C37.4899 22.4568 36.3881 26.0847 34.3241 29.1694C32.26 32.254 29.3267 34.6565 25.8959 36.0724C22.4651 37.4883 18.6911 37.8538 15.0523 37.1227C11.4136 36.3915 8.07373 34.5966 5.45608 31.9654C2.83844 29.3342 1.06082 25.9851 0.348485 22.3426C-0.363846 18.7001 0.0211804 14.9281 1.45477 11.5046C2.88836 8.08117 5.30599 5.16033 8.40127 3.11227C11.4966 1.06421 15.1302 -0.0188824 18.8416 0.000249142C23.7963 0.0257893 28.5394 2.01197 32.0339 5.52458C35.5284 9.03718 37.4901 13.7905 37.49 18.7452ZM18.745 34.7123C21.903 34.7123 24.9901 33.7758 27.6158 32.0214C30.2416 30.2669 32.2881 27.7732 33.4966 24.8556C34.7051 21.938 35.0213 18.7275 34.4053 15.6302C33.7892 12.5329 32.2684 9.68786 30.0354 7.45482C27.8024 5.22179 24.9573 3.70107 21.86 3.08498C18.7627 2.46889 15.5523 2.78509 12.6347 3.9936C9.71707 5.20211 7.22336 7.24865 5.46887 9.87442C3.71439 12.5002 2.77794 15.5873 2.77794 18.7452C2.78433 22.978 4.46862 27.0356 7.46164 30.0286C10.4547 33.0216 14.5122 34.7059 18.745 34.7123V34.7123Z" fill="white"/>
<path d="M18.818 16.9093C18.8927 16.7926 18.9733 16.6797 19.0595 16.5711L23.625 11.8849C23.8082 11.6639 24.053 11.5022 24.3282 11.4205C24.6035 11.3388 24.8968 11.3407 25.171 11.4259C25.3837 11.4942 25.5766 11.6132 25.7331 11.7727C25.8896 11.9322 26.0049 12.1273 26.0691 12.3413C26.1333 12.5553 26.1445 12.7817 26.1016 13.001C26.0588 13.2203 25.9632 13.4259 25.8232 13.6C25.7236 13.7397 25.6103 13.8692 25.485 13.9865L21.0403 18.4311L20.7504 18.7452L21.0161 19.035L25.5816 23.6005C25.8003 23.7751 25.9627 24.0103 26.0486 24.2766C26.1345 24.5429 26.1401 24.8287 26.0647 25.0982C26.0056 25.3233 25.8905 25.5297 25.73 25.6982C25.5695 25.8667 25.3689 25.9918 25.1469 26.0618C24.9249 26.1318 24.6889 26.1443 24.4607 26.0983C24.2326 26.0523 24.0199 25.9492 23.8424 25.7987L23.5042 25.4847L19.0595 21.04L18.7455 20.7501L18.4315 21.04L13.8901 25.5813C13.7098 25.8066 13.4664 25.9729 13.1909 26.059C12.9155 26.145 12.6207 26.1469 12.3442 26.0644C12.129 25.9956 11.9337 25.8758 11.7748 25.7152C11.6159 25.5545 11.4983 25.3579 11.4318 25.142C11.3654 24.9261 11.3522 24.6973 11.3933 24.4751C11.4343 24.253 11.5285 24.0441 11.6678 23.8662C11.8889 23.613 12.1227 23.3711 12.3683 23.1415L16.7647 18.7693L16.4748 18.4553L11.9094 13.8898C11.6866 13.7075 11.5222 13.4639 11.4363 13.1892C11.3505 12.9144 11.347 12.6206 11.4262 12.3438C11.4936 12.1307 11.611 11.9367 11.7687 11.7781C11.9264 11.6196 12.1197 11.5011 12.3325 11.4325C12.5453 11.3639 12.7714 11.3473 12.992 11.384C13.2125 11.4206 13.4211 11.5096 13.6003 11.6433L13.9868 12.0781L18.4315 16.4504C18.5176 16.5589 18.5983 16.6718 18.673 16.7885L18.818 16.9093Z" fill="white"/>
</svg>
