<svg width="21" height="21" viewBox="0 0 21 21" fill="none" xmlns="http://www.w3.org/2000/svg">
<circle cx="10.5" cy="10.5" r="10.5" fill="#F4D782"/>
<path d="M5 10.4975C5 9.68605 5 8.87404 5 8.06146C5 7.00322 5.42433 6.15586 6.28544 5.53912C6.79179 5.17664 7.3673 5.00828 7.98876 5.00742C9.65987 5.00485 11.3314 4.98982 13.0021 5.01172C14.2867 5.02847 15.207 5.65208 15.7508 6.81339C15.9299 7.19048 15.9947 7.59719 15.9947 8.01336C15.9947 9.67416 16.0093 11.3345 15.99 12.9953C15.975 14.2838 15.3548 15.2089 14.19 15.7582C13.8138 15.9356 13.4067 16.0017 12.9905 16.0017C11.3297 16.0017 9.66932 16.0163 8.00851 15.9974C6.72007 15.9828 5.79411 15.3639 5.24395 14.2C5.06442 13.8165 5 13.4021 5 12.9786C5 12.152 5 11.3249 5 10.4975ZM10.4974 7.49841C8.84343 7.50099 7.49099 8.85557 7.49357 10.5048C7.49614 12.154 8.85116 13.5111 10.4999 13.5086C12.1487 13.506 13.5063 12.151 13.5037 10.5022C13.5011 8.85343 12.1457 7.49541 10.4974 7.49841ZM13.5621 8.20534C13.6789 8.20767 13.795 8.18685 13.9037 8.14407C14.0124 8.10129 14.1115 8.03741 14.1953 7.95611C14.2792 7.87481 14.3461 7.7777 14.3922 7.67039C14.4384 7.56309 14.4628 7.44771 14.464 7.33092C14.4722 6.85849 14.1205 6.4522 13.5896 6.42901C13.1172 6.41011 12.7088 6.80996 12.6924 7.29742C12.6735 7.77929 13.0704 8.19203 13.5608 8.20534H13.5621Z" fill="black"/>
<path d="M10.4974 7.49878C12.147 7.49578 13.5037 8.8495 13.5037 10.5026C13.5037 12.1556 12.153 13.5089 10.5 13.5089C8.84689 13.5089 7.49359 12.1582 7.49359 10.5052C7.49359 8.85208 8.84216 7.50136 10.4974 7.49878ZM10.5 12.8673C10.9671 12.8673 11.4238 12.7288 11.8123 12.4692C12.2007 12.2096 12.5035 11.8407 12.6823 11.4091C12.8611 10.9775 12.9079 10.5025 12.8167 10.0443C12.7256 9.58611 12.5006 9.16521 12.1702 8.83486C11.8399 8.50451 11.419 8.27954 10.9608 8.18839C10.5026 8.09725 10.0276 8.14403 9.596 8.32281C9.16438 8.5016 8.79546 8.80436 8.53591 9.19281C8.27635 9.58127 8.13781 10.038 8.13781 10.5052C8.14019 11.1303 8.3895 11.7293 8.83146 12.1715C9.27341 12.6136 9.8722 12.8633 10.4974 12.866L10.5 12.8673Z" fill="#F4D782"/>
<path d="M13.5608 8.20549C13.0704 8.19218 12.6735 7.77945 12.6894 7.29972C12.7057 6.81226 13.1163 6.41241 13.5866 6.43131C14.1166 6.45235 14.4692 6.86079 14.461 7.33322C14.4595 7.44968 14.4349 7.56468 14.3888 7.67163C14.3426 7.77857 14.2758 7.87535 14.1922 7.9564C14.1085 8.03745 14.0097 8.10118 13.9014 8.14393C13.793 8.18667 13.6773 8.2076 13.5608 8.20549ZM13.5712 7.56127C13.6188 7.56224 13.6657 7.54912 13.706 7.52356C13.7462 7.498 13.778 7.46113 13.7974 7.41757C13.8168 7.37401 13.8229 7.3257 13.8149 7.27869C13.807 7.23168 13.7853 7.18807 13.7527 7.15331C13.7201 7.11855 13.6779 7.09419 13.6315 7.08329C13.5851 7.07238 13.5365 7.07542 13.4918 7.09202C13.4471 7.10861 13.4083 7.13803 13.3802 7.17658C13.3522 7.21513 13.3361 7.2611 13.3341 7.30874C13.3327 7.37344 13.3567 7.43611 13.4011 7.48326C13.4454 7.53041 13.5065 7.55827 13.5712 7.56084V7.56127Z" fill="#F4D782"/>
<path d="M10.4973 12.8659C10.0303 12.8659 9.5737 12.7274 9.18531 12.468C8.79693 12.2086 8.49416 11.8398 8.31529 11.4084C8.13642 10.9769 8.08946 10.5021 8.18036 10.044C8.27126 9.58589 8.49594 9.16499 8.82599 8.83452C9.15604 8.50405 9.57665 8.27884 10.0347 8.18736C10.4927 8.09587 10.9675 8.14222 11.3992 8.32055C11.8309 8.49887 12.2 8.80117 12.4599 9.18922C12.7198 9.57728 12.8589 10.0337 12.8595 10.5007C12.8584 11.1272 12.6092 11.7276 12.1666 12.1708C11.7239 12.6141 11.1237 12.864 10.4973 12.8659V12.8659Z" fill="black"/>
<path d="M13.5712 7.56108C13.523 7.56027 13.4762 7.54511 13.4366 7.51755C13.3971 7.48999 13.3667 7.45128 13.3494 7.40636C13.332 7.36143 13.3284 7.31235 13.339 7.26537C13.3496 7.21838 13.374 7.17564 13.4091 7.14261C13.4442 7.10957 13.4883 7.08773 13.5358 7.07989C13.5833 7.07205 13.6321 7.07856 13.6759 7.09858C13.7197 7.11861 13.7566 7.15124 13.7818 7.19232C13.8069 7.23339 13.8193 7.28103 13.8172 7.32916C13.813 7.39172 13.7853 7.45038 13.7397 7.49339C13.6941 7.53639 13.6339 7.56057 13.5712 7.56108V7.56108Z" fill="black"/>
</svg>
