<svg width="213" height="61" viewBox="0 0 213 61" fill="none" xmlns="http://www.w3.org/2000/svg">
<rect x="0.75" y="0.75" width="211.5" height="59.5" rx="9.25" fill="#1C1919" stroke="#F4D782" stroke-width="1.5"/>
<path d="M44.8615 36.179C43.9411 36.179 43.1229 36.0213 42.407 35.706C41.6953 35.3906 41.1328 34.9517 40.7195 34.3892C40.3061 33.8267 40.0866 33.1768 40.0611 32.4396H42.4645C42.4858 32.7933 42.603 33.1023 42.8161 33.3665C43.0291 33.6264 43.3125 33.8288 43.6662 33.9737C44.0199 34.1186 44.4162 34.1911 44.8551 34.1911C45.3239 34.1911 45.7393 34.1101 46.1016 33.9482C46.4638 33.782 46.7472 33.5518 46.9517 33.2578C47.1563 32.9638 47.2564 32.625 47.2521 32.2415C47.2564 31.8452 47.1541 31.4957 46.9453 31.1932C46.7365 30.8906 46.4339 30.6541 46.0376 30.4837C45.6456 30.3132 45.1726 30.228 44.6186 30.228H43.4616V28.3999H44.6186C45.0746 28.3999 45.473 28.321 45.8139 28.1634C46.1591 28.0057 46.4297 27.7841 46.6257 27.4986C46.8217 27.2088 46.9176 26.8743 46.9134 26.495C46.9176 26.1243 46.8345 25.8026 46.6641 25.5298C46.4979 25.2528 46.2614 25.0376 45.9545 24.8842C45.652 24.7308 45.2962 24.6541 44.8871 24.6541C44.4865 24.6541 44.1158 24.7266 43.7749 24.8714C43.4339 25.0163 43.1591 25.223 42.9503 25.4915C42.7415 25.7557 42.6307 26.071 42.6179 26.4375H40.3359C40.353 25.7045 40.5639 25.0611 40.9688 24.5071C41.3778 23.9489 41.9233 23.5142 42.6051 23.2031C43.2869 22.8878 44.0518 22.7301 44.8999 22.7301C45.7734 22.7301 46.532 22.8942 47.1754 23.2223C47.8232 23.5462 48.3239 23.983 48.6776 24.5327C49.0313 25.0824 49.2081 25.6896 49.2081 26.3544C49.2124 27.0916 48.995 27.7095 48.5561 28.2081C48.1214 28.7067 47.5504 29.0327 46.843 29.1861V29.2884C47.7635 29.4162 48.4688 29.7571 48.9588 30.3111C49.4531 30.8608 49.6982 31.5447 49.6939 32.3629C49.6939 33.0959 49.4851 33.7521 49.0675 34.3317C48.6541 34.907 48.0831 35.3587 47.3544 35.6868C46.63 36.0149 45.799 36.179 44.8615 36.179ZM54.7388 36.1982C54.1167 36.1982 53.5563 36.0874 53.0577 35.8658C52.5634 35.6399 52.1713 35.3075 51.8816 34.8686C51.5961 34.4297 51.4533 33.8885 51.4533 33.245C51.4533 32.6911 51.5556 32.233 51.7601 31.8707C51.9647 31.5085 52.2438 31.2188 52.5975 31.0014C52.9512 30.7841 53.3496 30.62 53.7928 30.5092C54.2402 30.3942 54.7026 30.3111 55.1799 30.2599C55.7551 30.2003 56.2218 30.147 56.5797 30.1001C56.9377 30.049 57.1976 29.9723 57.3596 29.87C57.5257 29.7635 57.6088 29.5994 57.6088 29.3778V29.3395C57.6088 28.858 57.4661 28.4851 57.1806 28.2209C56.8951 27.9567 56.4838 27.8246 55.9469 27.8246C55.3801 27.8246 54.9306 27.9482 54.5982 28.1953C54.2701 28.4425 54.0485 28.7344 53.9334 29.071L51.7729 28.7642C51.9434 28.1676 52.2246 27.669 52.6167 27.2685C53.0087 26.8636 53.4881 26.5611 54.0549 26.3608C54.6216 26.1562 55.248 26.054 55.9341 26.054C56.4071 26.054 56.878 26.1094 57.3468 26.2202C57.8155 26.331 58.2438 26.5142 58.6316 26.7699C59.0194 27.0213 59.3304 27.3643 59.5648 27.799C59.8034 28.2337 59.9228 28.777 59.9228 29.429V36H57.6983V34.6513H57.6216C57.481 34.924 57.2828 35.1797 57.0272 35.4183C56.7757 35.6527 56.4583 35.8423 56.0748 35.9872C55.6955 36.1278 55.2502 36.1982 54.7388 36.1982ZM55.3397 34.4979C55.8042 34.4979 56.2069 34.4062 56.5478 34.223C56.8887 34.0355 57.1507 33.7884 57.334 33.4815C57.5215 33.1747 57.6152 32.8402 57.6152 32.478V31.321C57.5428 31.3807 57.4192 31.4361 57.2445 31.4872C57.074 31.5384 56.8823 31.5831 56.6692 31.6214C56.4561 31.6598 56.2452 31.6939 56.0364 31.7237C55.8276 31.7536 55.6465 31.7791 55.4931 31.8004C55.1479 31.8473 54.839 31.924 54.5662 32.0305C54.2935 32.1371 54.0783 32.2862 53.9206 32.478C53.763 32.6655 53.6841 32.9084 53.6841 33.2067C53.6841 33.6328 53.8397 33.9545 54.1507 34.1719C54.4618 34.3892 54.8581 34.4979 55.3397 34.4979ZM62.2495 36V26.1818H70.54V36H68.3091V28.0803H64.4611V36H62.2495ZM75.1502 32.8679L79.0813 26.1818H81.4592V36H79.2219V29.3075L75.3036 36H72.9194V26.1818H75.1502V32.8679ZM88.1181 36.1918C87.138 36.1918 86.2963 35.9766 85.5932 35.5462C84.8944 35.1158 84.3553 34.5213 83.976 33.7628C83.601 33 83.4135 32.1222 83.4135 31.1293C83.4135 30.1321 83.6053 29.2521 83.9888 28.4893C84.3723 27.7223 84.9135 27.1257 85.6124 26.6996C86.3155 26.2692 87.1465 26.054 88.1053 26.054C88.9022 26.054 89.6074 26.201 90.2211 26.495C90.839 26.7848 91.3311 27.196 91.6976 27.7287C92.0641 28.2571 92.2729 28.875 92.324 29.5824H90.1124C90.0229 29.1094 89.8098 28.7152 89.4732 28.3999C89.1408 28.0803 88.6955 27.9205 88.1373 27.9205C87.6642 27.9205 87.2488 28.0483 86.8908 28.304C86.5328 28.5554 86.2537 28.9176 86.0534 29.3906C85.8574 29.8636 85.7594 30.4304 85.7594 31.0909C85.7594 31.7599 85.8574 32.3352 86.0534 32.8168C86.2495 33.294 86.5243 33.6626 86.878 33.9226C87.236 34.1783 87.6557 34.3061 88.1373 34.3061C88.4782 34.3061 88.7828 34.2422 89.0513 34.1143C89.324 33.9822 89.552 33.7926 89.7353 33.5455C89.9185 33.2983 90.0442 32.9979 90.1124 32.6442H92.324C92.2686 33.3388 92.0641 33.9545 91.7104 34.4915C91.3567 35.0241 90.8752 35.4418 90.2658 35.7443C89.6564 36.0426 88.9405 36.1918 88.1181 36.1918ZM97.0494 36.1982C96.4272 36.1982 95.8668 36.0874 95.3683 35.8658C94.8739 35.6399 94.4819 35.3075 94.1921 34.8686C93.9066 34.4297 93.7638 33.8885 93.7638 33.245C93.7638 32.6911 93.8661 32.233 94.0707 31.8707C94.2752 31.5085 94.5543 31.2188 94.908 31.0014C95.2617 30.7841 95.6602 30.62 96.1033 30.5092C96.5508 30.3942 97.0131 30.3111 97.4904 30.2599C98.0657 30.2003 98.5323 30.147 98.8903 30.1001C99.2482 30.049 99.5082 29.9723 99.6701 29.87C99.8363 29.7635 99.9194 29.5994 99.9194 29.3778V29.3395C99.9194 28.858 99.7766 28.4851 99.4911 28.2209C99.2056 27.9567 98.7944 27.8246 98.2575 27.8246C97.6907 27.8246 97.2411 27.9482 96.9087 28.1953C96.5806 28.4425 96.359 28.7344 96.244 29.071L94.0835 28.7642C94.2539 28.1676 94.5352 27.669 94.9272 27.2685C95.3192 26.8636 95.7987 26.5611 96.3654 26.3608C96.9322 26.1562 97.5586 26.054 98.2447 26.054C98.7177 26.054 99.1886 26.1094 99.6573 26.2202C100.126 26.331 100.554 26.5142 100.942 26.7699C101.33 27.0213 101.641 27.3643 101.875 27.799C102.114 28.2337 102.233 28.777 102.233 29.429V36H100.009V34.6513H99.9322C99.7915 34.924 99.5934 35.1797 99.3377 35.4183C99.0863 35.6527 98.7688 35.8423 98.3853 35.9872C98.006 36.1278 97.5607 36.1982 97.0494 36.1982ZM97.6502 34.4979C98.1147 34.4979 98.5174 34.4062 98.8583 34.223C99.1992 34.0355 99.4613 33.7884 99.6445 33.4815C99.832 33.1747 99.9258 32.8402 99.9258 32.478V31.321C99.8533 31.3807 99.7298 31.4361 99.555 31.4872C99.3846 31.5384 99.1928 31.5831 98.9798 31.6214C98.7667 31.6598 98.5558 31.6939 98.3469 31.7237C98.1381 31.7536 97.957 31.7791 97.8036 31.8004C97.4585 31.8473 97.1495 31.924 96.8768 32.0305C96.604 32.1371 96.3888 32.2862 96.2312 32.478C96.0735 32.6655 95.9947 32.9084 95.9947 33.2067C95.9947 33.6328 96.1502 33.9545 96.4613 34.1719C96.7724 34.3892 97.1687 34.4979 97.6502 34.4979ZM103.461 28.0803V26.1818H112.051V28.0803H108.875V36H106.637V28.0803H103.461ZM115.46 29.3778H118.356C119.608 29.3778 120.578 29.6825 121.264 30.2919C121.95 30.9013 122.295 31.7003 122.3 32.6889C122.295 33.3324 122.138 33.9034 121.827 34.402C121.52 34.9006 121.072 35.2926 120.484 35.5781C119.9 35.8594 119.191 36 118.356 36H113.894V26.1818H116.125V34.1016H118.356C118.858 34.1016 119.272 33.9737 119.596 33.718C119.92 33.4581 120.081 33.1257 120.081 32.7209C120.081 32.2947 119.92 31.9474 119.596 31.679C119.272 31.4105 118.858 31.2763 118.356 31.2763H115.46V29.3778ZM128.565 36.1918C127.585 36.1918 126.744 35.9766 126.04 35.5462C125.342 35.1158 124.803 34.5213 124.423 33.7628C124.048 33 123.861 32.1222 123.861 31.1293C123.861 30.1321 124.053 29.2521 124.436 28.4893C124.82 27.7223 125.361 27.1257 126.06 26.6996C126.763 26.2692 127.594 26.054 128.553 26.054C129.349 26.054 130.055 26.201 130.668 26.495C131.286 26.7848 131.778 27.196 132.145 27.7287C132.511 28.2571 132.72 28.875 132.771 29.5824H130.56C130.47 29.1094 130.257 28.7152 129.92 28.3999C129.588 28.0803 129.143 27.9205 128.585 27.9205C128.112 27.9205 127.696 28.0483 127.338 28.304C126.98 28.5554 126.701 28.9176 126.501 29.3906C126.305 29.8636 126.207 30.4304 126.207 31.0909C126.207 31.7599 126.305 32.3352 126.501 32.8168C126.697 33.294 126.972 33.6626 127.325 33.9226C127.683 34.1783 128.103 34.3061 128.585 34.3061C128.925 34.3061 129.23 34.2422 129.499 34.1143C129.771 33.9822 129.999 33.7926 130.183 33.5455C130.366 33.2983 130.491 32.9979 130.56 32.6442H132.771C132.716 33.3388 132.511 33.9545 132.158 34.4915C131.804 35.0241 131.322 35.4418 130.713 35.7443C130.104 36.0426 129.388 36.1918 128.565 36.1918ZM140.475 36V28.0611H138.379C137.846 28.0611 137.437 28.1847 137.151 28.4318C136.866 28.679 136.725 28.9858 136.73 29.3523C136.725 29.7188 136.86 30.0213 137.132 30.2599C137.405 30.4986 137.795 30.6179 138.302 30.6179H141.204V32.3054H138.302C137.518 32.3054 136.84 32.1818 136.269 31.9347C135.698 31.6875 135.259 31.3381 134.953 30.8864C134.646 30.4347 134.492 29.9062 134.492 29.3011C134.492 28.6705 134.648 28.1229 134.959 27.6584C135.274 27.1896 135.722 26.8274 136.301 26.5717C136.885 26.3118 137.578 26.1818 138.379 26.1818H142.642V36H140.475ZM134.134 36L136.877 30.9631H139.159L136.41 36H134.134Z" fill="#F4D782"/>
<path d="M174 31.5C174.276 31.2239 174.276 30.7761 174 30.5L169.5 26C169.224 25.7239 168.776 25.7239 168.5 26C168.224 26.2761 168.224 26.7239 168.5 27L172.5 31L168.5 35C168.224 35.2761 168.224 35.7239 168.5 36C168.776 36.2761 169.224 36.2761 169.5 36L174 31.5ZM157 31.7071L173.5 31.7071L173.5 30.2929L157 30.2929L157 31.7071Z" fill="#F4D782"/>
</svg>
