<svg width="21" height="21" viewBox="0 0 21 21" fill="none" xmlns="http://www.w3.org/2000/svg">
<circle cx="10.5" cy="10.5" r="10.5" fill="#F4D782"/>
<path d="M15.7249 8.48758C15.8087 8.20628 15.7249 8 15.3284 8H14.0151C13.681 8 13.5283 8.17846 13.4444 8.37446C13.4444 8.37446 12.7767 10.0193 11.8305 11.0858C11.5251 11.3961 11.3856 11.4941 11.2191 11.4941C11.1359 11.4941 11.0149 11.3961 11.0149 11.1148V8.48758C11.0149 8.15003 10.9185 8 10.64 8H8.5764C8.368 8 8.24225 8.15607 8.24225 8.30489C8.24225 8.6243 8.71534 8.6981 8.76384 9.59825V11.551C8.76384 11.9787 8.68779 12.0567 8.52011 12.0567C8.07517 12.0567 6.99245 10.4058 6.34988 8.51601C6.22472 8.14882 6.09837 8.00061 5.76301 8.00061H4.45033C4.07486 8.00061 4 8.17906 4 8.37506C4 8.72714 4.44494 10.4694 6.07262 12.7736C7.15773 14.347 8.68539 15.2 10.0771 15.2C10.9113 15.2 11.0143 15.0107 11.0143 14.684V13.4947C11.0143 13.116 11.094 13.0398 11.3581 13.0398C11.5521 13.0398 11.8862 13.139 12.6653 13.897C13.5552 14.7959 13.7025 15.1994 14.2026 15.1994H15.5153C15.8901 15.1994 16.0776 15.01 15.9698 14.6362C15.8518 14.2642 15.4266 13.7227 14.8625 13.0821C14.5559 12.7167 14.0978 12.3235 13.9583 12.1269C13.7636 11.8734 13.8199 11.7615 13.9583 11.5365C13.9589 11.5371 15.5584 9.2613 15.7249 8.48758V8.48758Z" fill="black"/>
</svg>
