<svg width="253" height="101" viewBox="0 0 253 101" fill="none" xmlns="http://www.w3.org/2000/svg">
<g filter="url(#filter0_d_2_915)">
<rect x="20" y="19" width="213" height="61" rx="10" fill="url(#paint0_linear_2_915)"/>
<path d="M64.8615 55.179C63.9411 55.179 63.1229 55.0213 62.407 54.706C61.6953 54.3906 61.1328 53.9517 60.7195 53.3892C60.3061 52.8267 60.0866 52.1768 60.0611 51.4396H62.4645C62.4858 51.7933 62.603 52.1023 62.8161 52.3665C63.0291 52.6264 63.3125 52.8288 63.6662 52.9737C64.0199 53.1186 64.4162 53.1911 64.8551 53.1911C65.3239 53.1911 65.7393 53.1101 66.1016 52.9482C66.4638 52.782 66.7472 52.5518 66.9517 52.2578C67.1563 51.9638 67.2564 51.625 67.2521 51.2415C67.2564 50.8452 67.1541 50.4957 66.9453 50.1932C66.7365 49.8906 66.4339 49.6541 66.0376 49.4837C65.6456 49.3132 65.1726 49.228 64.6186 49.228H63.4616V47.3999H64.6186C65.0746 47.3999 65.473 47.321 65.8139 47.1634C66.1591 47.0057 66.4297 46.7841 66.6257 46.4986C66.8217 46.2088 66.9176 45.8743 66.9134 45.495C66.9176 45.1243 66.8345 44.8026 66.6641 44.5298C66.4979 44.2528 66.2614 44.0376 65.9545 43.8842C65.652 43.7308 65.2962 43.6541 64.8871 43.6541C64.4865 43.6541 64.1158 43.7266 63.7749 43.8714C63.4339 44.0163 63.1591 44.223 62.9503 44.4915C62.7415 44.7557 62.6307 45.071 62.6179 45.4375H60.3359C60.353 44.7045 60.5639 44.0611 60.9688 43.5071C61.3778 42.9489 61.9233 42.5142 62.6051 42.2031C63.2869 41.8878 64.0518 41.7301 64.8999 41.7301C65.7734 41.7301 66.532 41.8942 67.1754 42.2223C67.8232 42.5462 68.3239 42.983 68.6776 43.5327C69.0313 44.0824 69.2081 44.6896 69.2081 45.3544C69.2124 46.0916 68.995 46.7095 68.5561 47.2081C68.1214 47.7067 67.5504 48.0327 66.843 48.1861V48.2884C67.7635 48.4162 68.4688 48.7571 68.9588 49.3111C69.4531 49.8608 69.6982 50.5447 69.6939 51.3629C69.6939 52.0959 69.4851 52.7521 69.0675 53.3317C68.6541 53.907 68.0831 54.3587 67.3544 54.6868C66.63 55.0149 65.799 55.179 64.8615 55.179ZM74.7388 55.1982C74.1167 55.1982 73.5563 55.0874 73.0577 54.8658C72.5634 54.6399 72.1713 54.3075 71.8816 53.8686C71.5961 53.4297 71.4533 52.8885 71.4533 52.245C71.4533 51.6911 71.5556 51.233 71.7601 50.8707C71.9647 50.5085 72.2438 50.2188 72.5975 50.0014C72.9512 49.7841 73.3496 49.62 73.7928 49.5092C74.2402 49.3942 74.7026 49.3111 75.1799 49.2599C75.7551 49.2003 76.2218 49.147 76.5797 49.1001C76.9377 49.049 77.1976 48.9723 77.3596 48.87C77.5257 48.7635 77.6088 48.5994 77.6088 48.3778V48.3395C77.6088 47.858 77.4661 47.4851 77.1806 47.2209C76.8951 46.9567 76.4838 46.8246 75.9469 46.8246C75.3801 46.8246 74.9306 46.9482 74.5982 47.1953C74.2701 47.4425 74.0485 47.7344 73.9334 48.071L71.7729 47.7642C71.9434 47.1676 72.2246 46.669 72.6167 46.2685C73.0087 45.8636 73.4881 45.5611 74.0549 45.3608C74.6216 45.1562 75.248 45.054 75.9341 45.054C76.4071 45.054 76.878 45.1094 77.3468 45.2202C77.8155 45.331 78.2438 45.5142 78.6316 45.7699C79.0194 46.0213 79.3304 46.3643 79.5648 46.799C79.8034 47.2337 79.9228 47.777 79.9228 48.429V55H77.6983V53.6513H77.6216C77.481 53.924 77.2828 54.1797 77.0272 54.4183C76.7757 54.6527 76.4583 54.8423 76.0748 54.9872C75.6955 55.1278 75.2502 55.1982 74.7388 55.1982ZM75.3397 53.4979C75.8042 53.4979 76.2069 53.4062 76.5478 53.223C76.8887 53.0355 77.1507 52.7884 77.334 52.4815C77.5215 52.1747 77.6152 51.8402 77.6152 51.478V50.321C77.5428 50.3807 77.4192 50.4361 77.2445 50.4872C77.074 50.5384 76.8823 50.5831 76.6692 50.6214C76.4561 50.6598 76.2452 50.6939 76.0364 50.7237C75.8276 50.7536 75.6465 50.7791 75.4931 50.8004C75.1479 50.8473 74.839 50.924 74.5662 51.0305C74.2935 51.1371 74.0783 51.2862 73.9206 51.478C73.763 51.6655 73.6841 51.9084 73.6841 52.2067C73.6841 52.6328 73.8397 52.9545 74.1507 53.1719C74.4618 53.3892 74.8581 53.4979 75.3397 53.4979ZM82.2495 55V45.1818H90.54V55H88.3091V47.0803H84.4611V55H82.2495ZM95.1502 51.8679L99.0813 45.1818H101.459V55H99.2219V48.3075L95.3036 55H92.9194V45.1818H95.1502V51.8679ZM108.118 55.1918C107.138 55.1918 106.296 54.9766 105.593 54.5462C104.894 54.1158 104.355 53.5213 103.976 52.7628C103.601 52 103.414 51.1222 103.414 50.1293C103.414 49.1321 103.605 48.2521 103.989 47.4893C104.372 46.7223 104.914 46.1257 105.612 45.6996C106.316 45.2692 107.146 45.054 108.105 45.054C108.902 45.054 109.607 45.201 110.221 45.495C110.839 45.7848 111.331 46.196 111.698 46.7287C112.064 47.2571 112.273 47.875 112.324 48.5824H110.112C110.023 48.1094 109.81 47.7152 109.473 47.3999C109.141 47.0803 108.695 46.9205 108.137 46.9205C107.664 46.9205 107.249 47.0483 106.891 47.304C106.533 47.5554 106.254 47.9176 106.053 48.3906C105.857 48.8636 105.759 49.4304 105.759 50.0909C105.759 50.7599 105.857 51.3352 106.053 51.8168C106.249 52.294 106.524 52.6626 106.878 52.9226C107.236 53.1783 107.656 53.3061 108.137 53.3061C108.478 53.3061 108.783 53.2422 109.051 53.1143C109.324 52.9822 109.552 52.7926 109.735 52.5455C109.919 52.2983 110.044 51.9979 110.112 51.6442H112.324C112.269 52.3388 112.064 52.9545 111.71 53.4915C111.357 54.0241 110.875 54.4418 110.266 54.7443C109.656 55.0426 108.941 55.1918 108.118 55.1918ZM117.049 55.1982C116.427 55.1982 115.867 55.0874 115.368 54.8658C114.874 54.6399 114.482 54.3075 114.192 53.8686C113.907 53.4297 113.764 52.8885 113.764 52.245C113.764 51.6911 113.866 51.233 114.071 50.8707C114.275 50.5085 114.554 50.2188 114.908 50.0014C115.262 49.7841 115.66 49.62 116.103 49.5092C116.551 49.3942 117.013 49.3111 117.49 49.2599C118.066 49.2003 118.532 49.147 118.89 49.1001C119.248 49.049 119.508 48.9723 119.67 48.87C119.836 48.7635 119.919 48.5994 119.919 48.3778V48.3395C119.919 47.858 119.777 47.4851 119.491 47.2209C119.206 46.9567 118.794 46.8246 118.257 46.8246C117.691 46.8246 117.241 46.9482 116.909 47.1953C116.581 47.4425 116.359 47.7344 116.244 48.071L114.083 47.7642C114.254 47.1676 114.535 46.669 114.927 46.2685C115.319 45.8636 115.799 45.5611 116.365 45.3608C116.932 45.1562 117.559 45.054 118.245 45.054C118.718 45.054 119.189 45.1094 119.657 45.2202C120.126 45.331 120.554 45.5142 120.942 45.7699C121.33 46.0213 121.641 46.3643 121.875 46.799C122.114 47.2337 122.233 47.777 122.233 48.429V55H120.009V53.6513H119.932C119.792 53.924 119.593 54.1797 119.338 54.4183C119.086 54.6527 118.769 54.8423 118.385 54.9872C118.006 55.1278 117.561 55.1982 117.049 55.1982ZM117.65 53.4979C118.115 53.4979 118.517 53.4062 118.858 53.223C119.199 53.0355 119.461 52.7884 119.645 52.4815C119.832 52.1747 119.926 51.8402 119.926 51.478V50.321C119.853 50.3807 119.73 50.4361 119.555 50.4872C119.385 50.5384 119.193 50.5831 118.98 50.6214C118.767 50.6598 118.556 50.6939 118.347 50.7237C118.138 50.7536 117.957 50.7791 117.804 50.8004C117.458 50.8473 117.15 50.924 116.877 51.0305C116.604 51.1371 116.389 51.2862 116.231 51.478C116.074 51.6655 115.995 51.9084 115.995 52.2067C115.995 52.6328 116.15 52.9545 116.461 53.1719C116.772 53.3892 117.169 53.4979 117.65 53.4979ZM123.461 47.0803V45.1818H132.051V47.0803H128.875V55H126.637V47.0803H123.461ZM135.46 48.3778H138.356C139.608 48.3778 140.578 48.6825 141.264 49.2919C141.95 49.9013 142.295 50.7003 142.3 51.6889C142.295 52.3324 142.138 52.9034 141.827 53.402C141.52 53.9006 141.072 54.2926 140.484 54.5781C139.9 54.8594 139.191 55 138.356 55H133.894V45.1818H136.125V53.1016H138.356C138.858 53.1016 139.272 52.9737 139.596 52.718C139.92 52.4581 140.081 52.1257 140.081 51.7209C140.081 51.2947 139.92 50.9474 139.596 50.679C139.272 50.4105 138.858 50.2763 138.356 50.2763H135.46V48.3778ZM148.565 55.1918C147.585 55.1918 146.744 54.9766 146.04 54.5462C145.342 54.1158 144.803 53.5213 144.423 52.7628C144.048 52 143.861 51.1222 143.861 50.1293C143.861 49.1321 144.053 48.2521 144.436 47.4893C144.82 46.7223 145.361 46.1257 146.06 45.6996C146.763 45.2692 147.594 45.054 148.553 45.054C149.349 45.054 150.055 45.201 150.668 45.495C151.286 45.7848 151.778 46.196 152.145 46.7287C152.511 47.2571 152.72 47.875 152.771 48.5824H150.56C150.47 48.1094 150.257 47.7152 149.92 47.3999C149.588 47.0803 149.143 46.9205 148.585 46.9205C148.112 46.9205 147.696 47.0483 147.338 47.304C146.98 47.5554 146.701 47.9176 146.501 48.3906C146.305 48.8636 146.207 49.4304 146.207 50.0909C146.207 50.7599 146.305 51.3352 146.501 51.8168C146.697 52.294 146.972 52.6626 147.325 52.9226C147.683 53.1783 148.103 53.3061 148.585 53.3061C148.925 53.3061 149.23 53.2422 149.499 53.1143C149.771 52.9822 149.999 52.7926 150.183 52.5455C150.366 52.2983 150.491 51.9979 150.56 51.6442H152.771C152.716 52.3388 152.511 52.9545 152.158 53.4915C151.804 54.0241 151.322 54.4418 150.713 54.7443C150.104 55.0426 149.388 55.1918 148.565 55.1918ZM160.475 55V47.0611H158.379C157.846 47.0611 157.437 47.1847 157.151 47.4318C156.866 47.679 156.725 47.9858 156.73 48.3523C156.725 48.7188 156.86 49.0213 157.132 49.2599C157.405 49.4986 157.795 49.6179 158.302 49.6179H161.204V51.3054H158.302C157.518 51.3054 156.84 51.1818 156.269 50.9347C155.698 50.6875 155.259 50.3381 154.953 49.8864C154.646 49.4347 154.492 48.9062 154.492 48.3011C154.492 47.6705 154.648 47.1229 154.959 46.6584C155.274 46.1896 155.722 45.8274 156.301 45.5717C156.885 45.3118 157.578 45.1818 158.379 45.1818H162.642V55H160.475ZM154.134 55L156.877 49.9631H159.159L156.41 55H154.134Z" fill="#1C1919"/>
<path d="M194 50.5C194.276 50.2239 194.276 49.7761 194 49.5L189.5 45C189.224 44.7239 188.776 44.7239 188.5 45C188.224 45.2761 188.224 45.7239 188.5 46L192.5 50L188.5 54C188.224 54.2761 188.224 54.7239 188.5 55C188.776 55.2761 189.224 55.2761 189.5 55L194 50.5ZM177 50.7071L193.5 50.7071L193.5 49.2929L177 49.2929L177 50.7071Z" fill="black"/>
</g>
<defs>
<filter id="filter0_d_2_915" x="0" y="0" width="253" height="101" filterUnits="userSpaceOnUse" color-interpolation-filters="sRGB">
<feFlood flood-opacity="0" result="BackgroundImageFix"/>
<feColorMatrix in="SourceAlpha" type="matrix" values="0 0 0 0 0 0 0 0 0 0 0 0 0 0 0 0 0 0 127 0" result="hardAlpha"/>
<feOffset dy="1"/>
<feGaussianBlur stdDeviation="10"/>
<feComposite in2="hardAlpha" operator="out"/>
<feColorMatrix type="matrix" values="0 0 0 0 1 0 0 0 0 0.905665 0 0 0 0 0.629167 0 0 0 0.6 0"/>
<feBlend mode="normal" in2="BackgroundImageFix" result="effect1_dropShadow_2_915"/>
<feBlend mode="normal" in="SourceGraphic" in2="effect1_dropShadow_2_915" result="shape"/>
</filter>
<linearGradient id="paint0_linear_2_915" x1="126.5" y1="19" x2="126.5" y2="80" gradientUnits="userSpaceOnUse">
<stop stop-color="#F5D884"/>
<stop offset="1" stop-color="#E1B665"/>
</linearGradient>
</defs>
</svg>
