<svg width="22" height="22" viewBox="0 0 22 22" fill="none" xmlns="http://www.w3.org/2000/svg">
<path d="M21.3953 18.4796L16.3482 13.4321C15.5962 14.6017 14.601 15.5964 13.4314 16.3485L18.4789 21.396C19.2847 22.2016 20.5912 22.2016 21.3953 21.396C22.2011 20.5917 22.2011 19.2852 21.3953 18.4796Z" fill="white"/>
<path d="M16.4999 8.24999C16.4999 3.69405 12.806 0 8.24999 0C3.69405 0 0 3.69405 0 8.24999C0 12.8059 3.69405 16.4998 8.24999 16.4998C12.806 16.4998 16.4999 12.8059 16.4999 8.24999ZM8.24999 14.4372C4.838 14.4372 2.06255 11.662 2.06255 8.25003C2.06255 4.83805 4.838 2.0626 8.24999 2.0626C11.6619 2.0626 14.4376 4.83805 14.4376 8.25003C14.4376 11.662 11.6619 14.4372 8.24999 14.4372Z" fill="white"/>
<path d="M3.4375 8.25017H4.81232C4.81232 6.35479 6.35455 4.8127 8.24988 4.8127V3.43774C5.59668 3.43774 3.4375 5.59692 3.4375 8.25017Z" fill="white"/>
</svg>
