<svg width="21" height="22" viewBox="0 0 21 22" fill="none" xmlns="http://www.w3.org/2000/svg">
<circle cx="10.5" cy="10.5605" r="10.5" fill="#F4D782"/>
<path d="M5 10.558C5 9.74659 5 8.93459 5 8.12201C5 7.06377 5.42433 6.2164 6.28544 5.59967C6.79179 5.23719 7.3673 5.06883 7.98876 5.06797C9.65987 5.06539 11.3314 5.05036 13.0021 5.07227C14.2867 5.08902 15.207 5.71262 15.7508 6.87394C15.9299 7.25102 15.9947 7.65774 15.9947 8.07391C15.9947 9.73471 16.0093 11.3951 15.99 13.0559C15.975 14.3443 15.3548 15.2694 14.19 15.8187C13.8138 15.9961 13.4067 16.0623 12.9905 16.0623C11.3297 16.0623 9.66932 16.0769 8.00851 16.058C6.72007 16.0434 5.79411 15.4245 5.24395 14.2606C5.06442 13.8771 5 13.4626 5 13.0391C5 12.2125 5 11.3855 5 10.558ZM10.4974 7.55896C8.84343 7.56154 7.49099 8.91612 7.49357 10.5653C7.49614 12.2145 8.85116 13.5717 10.4999 13.5691C12.1487 13.5665 13.5063 12.2115 13.5037 10.5628C13.5011 8.91397 12.1457 7.55595 10.4974 7.55896ZM13.5621 8.26589C13.6789 8.26822 13.795 8.2474 13.9037 8.20462C14.0124 8.16184 14.1115 8.09796 14.1953 8.01666C14.2792 7.93536 14.3461 7.83825 14.3922 7.73094C14.4384 7.62363 14.4628 7.50825 14.464 7.39146C14.4722 6.91903 14.1205 6.51275 13.5896 6.48955C13.1172 6.47066 12.7088 6.8705 12.6924 7.35796C12.6735 7.83984 13.0704 8.25257 13.5608 8.26589H13.5621Z" fill="black"/>
<path d="M10.4973 7.55933C12.147 7.55632 13.5037 8.91005 13.5037 10.5631C13.5037 12.2162 12.153 13.5695 10.4999 13.5695C8.84682 13.5695 7.49353 12.2188 7.49353 10.5657C7.49353 8.91263 8.8421 7.56191 10.4973 7.55933ZM10.4999 12.9278C10.9671 12.9278 11.4238 12.7893 11.8122 12.5298C12.2007 12.2702 12.5034 11.9013 12.6822 11.4697C12.861 11.038 12.9078 10.5631 12.8167 10.1049C12.7255 9.64666 12.5005 9.22576 12.1702 8.89541C11.8398 8.56506 11.4189 8.34008 10.9607 8.24894C10.5025 8.1578 10.0276 8.20458 9.59594 8.38336C9.16432 8.56215 8.7954 8.86491 8.53584 9.25336C8.27629 9.64181 8.13775 10.0985 8.13775 10.5657C8.14013 11.1909 8.38944 11.7898 8.8314 12.232C9.27335 12.6742 9.87214 12.9238 10.4973 12.9266L10.4999 12.9278Z" fill="#F4D782"/>
<path d="M13.5608 8.26604C13.0704 8.25273 12.6735 7.84 12.6894 7.36026C12.7057 6.8728 13.1163 6.47296 13.5866 6.49185C14.1166 6.5129 14.4692 6.92134 14.461 7.39376C14.4595 7.51023 14.4349 7.62523 14.3888 7.73218C14.3426 7.83912 14.2758 7.9359 14.1922 8.01695C14.1085 8.098 14.0097 8.16173 13.9014 8.20447C13.793 8.24722 13.6773 8.26814 13.5608 8.26604ZM13.5712 7.62182C13.6188 7.62279 13.6657 7.60967 13.706 7.58411C13.7462 7.55855 13.778 7.52168 13.7974 7.47812C13.8168 7.43456 13.8229 7.38625 13.8149 7.33924C13.807 7.29223 13.7853 7.24861 13.7527 7.21385C13.7201 7.17909 13.6779 7.15474 13.6315 7.14383C13.5851 7.13293 13.5365 7.13597 13.4918 7.15256C13.4471 7.16916 13.4083 7.19857 13.3802 7.23713C13.3522 7.27568 13.3361 7.32165 13.3341 7.36928C13.3327 7.43399 13.3567 7.49666 13.4011 7.54381C13.4454 7.59096 13.5065 7.61882 13.5712 7.62139V7.62182Z" fill="#F4D782"/>
<path d="M10.4974 12.9264C10.0303 12.9264 9.57376 12.788 9.18537 12.5286C8.79699 12.2691 8.49422 11.9004 8.31535 11.4689C8.13648 11.0375 8.08952 10.5627 8.18042 10.1046C8.27132 9.64644 8.496 9.22554 8.82605 8.89507C9.1561 8.5646 9.57671 8.33939 10.0347 8.2479C10.4927 8.15642 10.9676 8.20277 11.3993 8.3811C11.8309 8.55942 12.2001 8.86171 12.46 9.24977C12.7199 9.63783 12.8589 10.0942 12.8595 10.5613C12.8584 11.1877 12.6093 11.7882 12.1666 12.2314C11.724 12.6746 11.1238 12.9245 10.4974 12.9264V12.9264Z" fill="black"/>
<path d="M13.5712 7.62163C13.523 7.62082 13.4762 7.60566 13.4366 7.5781C13.3971 7.55054 13.3667 7.51182 13.3494 7.4669C13.332 7.42198 13.3284 7.37289 13.339 7.32591C13.3496 7.27893 13.374 7.23619 13.4091 7.20315C13.4442 7.17011 13.4883 7.14828 13.5358 7.14044C13.5833 7.1326 13.6321 7.1391 13.6759 7.15913C13.7197 7.17916 13.7566 7.21179 13.7818 7.25286C13.8069 7.29393 13.8193 7.34158 13.8172 7.38971C13.813 7.45227 13.7853 7.51093 13.7397 7.55394C13.6941 7.59694 13.6339 7.62112 13.5712 7.62163V7.62163Z" fill="black"/>
</svg>
