<svg width="21" height="22" viewBox="0 0 21 22" fill="none" xmlns="http://www.w3.org/2000/svg">
<circle cx="10.5" cy="10.5605" r="10.5" fill="#F4D782"/>
<path d="M15.7249 8.54813C15.8087 8.26683 15.7249 8.06055 15.3284 8.06055H14.0151C13.681 8.06055 13.5283 8.239 13.4444 8.43501C13.4444 8.43501 12.7767 10.0798 11.8305 11.1463C11.5251 11.4567 11.3856 11.5547 11.2191 11.5547C11.1359 11.5547 11.0149 11.4567 11.0149 11.1754V8.54813C11.0149 8.21057 10.9185 8.06055 10.64 8.06055H8.5764C8.368 8.06055 8.24225 8.21662 8.24225 8.36544C8.24225 8.68485 8.71534 8.75865 8.76384 9.6588V11.6115C8.76384 12.0392 8.68779 12.1173 8.52011 12.1173C8.07517 12.1173 6.99245 10.4664 6.34988 8.57656C6.22472 8.20936 6.09837 8.06115 5.76301 8.06115H4.45033C4.07486 8.06115 4 8.23961 4 8.43561C4 8.78769 4.44494 10.5299 6.07262 12.8341C7.15773 14.4076 8.68539 15.2605 10.0771 15.2605C10.9113 15.2605 11.0143 15.0712 11.0143 14.7445V13.5552C11.0143 13.1765 11.094 13.1003 11.3581 13.1003C11.5521 13.1003 11.8862 13.1995 12.6653 13.9575C13.5552 14.8564 13.7025 15.2599 14.2026 15.2599H15.5153C15.8901 15.2599 16.0776 15.0706 15.9698 14.6967C15.8518 14.3247 15.4266 13.7833 14.8625 13.1427C14.5559 12.7773 14.0978 12.3841 13.9583 12.1875C13.7636 11.934 13.8199 11.8221 13.9583 11.597C13.9589 11.5976 15.5584 9.32185 15.7249 8.54813V8.54813Z" fill="black"/>
</svg>
