<svg width="24" height="24" viewBox="0 0 24 24" fill="none" xmlns="http://www.w3.org/2000/svg">
<path d="M2 4.29289C2 3.68478 2.23412 3.10157 2.65088 2.67157C3.06762 2.24157 3.63286 2 4.22223 2H7.86667C8.09977 2.00018 8.32691 2.076 8.51595 2.21673C8.70499 2.35746 8.84634 2.55598 8.92 2.78417L10.5844 7.93513C10.6688 8.19692 10.6588 8.48129 10.5563 8.7361C10.4539 8.99089 10.2658 9.19904 10.0267 9.32233L7.51889 10.6178C8.74813 13.4249 10.9272 15.6732 13.6478 16.9416L14.9033 14.3541C15.0228 14.1073 15.2246 13.9132 15.4715 13.8075C15.7185 13.7019 15.9941 13.6916 16.2478 13.7785L21.24 15.4959C21.4613 15.572 21.6539 15.718 21.7903 15.9133C21.9267 16.1085 22 16.3431 22 16.584V20.343C22 20.9512 21.7659 21.5344 21.3491 21.9644C20.9324 22.3944 20.3672 22.636 19.7777 22.636H18.6667C9.46223 22.636 2 14.9364 2 5.43933V4.29289Z" stroke="#F4D782" stroke-width="2.31885" stroke-linecap="round" stroke-linejoin="round"/>
</svg>
