<svg width="80" height="80" viewBox="0 0 80 80" fill="none" xmlns="http://www.w3.org/2000/svg">
<g clip-path="url(#clip0_30_1061)">
<path d="M40 79C39.3578 79 38.7192 78.9845 38.0848 78.9538L38.0365 79.9527C36.716 79.8888 35.4124 79.761 34.1286 79.5721L34.2741 78.5828C33.0015 78.3956 31.7489 78.1469 30.5196 77.8399L30.2773 78.8101C28.9995 78.4911 27.746 78.1105 26.5202 77.6718L26.8572 76.7303C25.6502 76.2984 24.4708 75.8087 23.3221 75.2644L22.8939 76.1681C21.7071 75.6058 20.5524 74.9868 19.4333 74.3146L19.9482 73.4574C18.8517 72.7988 17.7903 72.0878 16.7673 71.3279L16.171 72.1307C15.119 71.3492 14.1067 70.5172 13.1376 69.6384L13.8094 68.8977C12.8636 68.0399 11.9601 67.1364 11.1023 66.1906L10.3616 66.8624C9.48277 65.8933 8.65083 64.881 7.86934 63.829L8.67208 63.2327C7.91216 62.2097 7.20119 61.1483 6.54263 60.0518L5.68538 60.5667C5.01319 59.4476 4.39418 58.2929 3.83188 57.1061L4.73558 56.6779C4.19134 55.5292 3.7016 54.3498 3.26969 53.1428L2.32816 53.4798C1.88949 52.254 1.50895 51.0005 1.18986 49.7227L2.16007 49.4804C1.85308 48.2511 1.60443 46.9985 1.41723 45.7259L0.427873 45.8714C0.23903 44.5876 0.111177 43.284 0.0473504 41.9635L1.04618 41.9152C1.01552 41.2808 1 40.6422 1 40C1 39.3578 1.01552 38.7192 1.04618 38.0848L0.0473505 38.0365C0.111177 36.716 0.239031 35.4124 0.427874 34.1286L1.41723 34.2741C1.60443 33.0015 1.85308 31.7489 2.16007 30.5196L1.18986 30.2773C1.50895 28.9995 1.88949 27.746 2.32816 26.5202L3.26969 26.8572C3.7016 25.6502 4.19134 24.4708 4.73558 23.3221L3.83188 22.8939C4.39419 21.7071 5.01319 20.5524 5.68538 19.4333L6.54263 19.9482C7.2012 18.8517 7.91216 17.7903 8.67209 16.7673L7.86934 16.171C8.65083 15.119 9.48277 14.1067 10.3616 13.1376L11.1023 13.8094C11.9601 12.8636 12.8636 11.9601 13.8094 11.1023L13.1376 10.3616C14.1067 9.48277 15.119 8.65083 16.171 7.86934L16.7673 8.67209C17.7903 7.91216 18.8517 7.20119 19.9482 6.54263L19.4333 5.68538C20.5524 5.01319 21.7071 4.39418 22.8939 3.83188L23.3221 4.73558C24.4708 4.19134 25.6502 3.7016 26.8572 3.26969L26.5202 2.32816C27.746 1.88949 28.9995 1.50895 30.2773 1.18986L30.5196 2.16007C31.7489 1.85308 33.0015 1.60443 34.2741 1.41723L34.1286 0.427873C35.4124 0.239031 36.716 0.111177 38.0365 0.0473505L38.0848 1.04618C38.7192 1.01552 39.3578 1 40 1C40.6422 1 41.2808 1.01552 41.9152 1.04618L41.9635 0.0473504C43.284 0.111177 44.5876 0.239031 45.8714 0.427873L45.7259 1.41723C46.9985 1.60443 48.2511 1.85308 49.4804 2.16007L49.7227 1.18986C51.0005 1.50895 52.254 1.88949 53.4798 2.32816L53.1428 3.26969C54.3498 3.7016 55.5292 4.19134 56.6779 4.73558L57.1061 3.83188C58.2929 4.39419 59.4476 5.01319 60.5667 5.68538L60.0518 6.54263C61.1483 7.20119 62.2097 7.91216 63.2327 8.67209L63.829 7.86934C64.881 8.65083 65.8933 9.48277 66.8624 10.3616L66.1906 11.1023C67.1364 11.9601 68.0399 12.8636 68.8977 13.8094L69.6384 13.1376C70.5172 14.1067 71.3492 15.119 72.1307 16.171L71.3279 16.7673C72.0878 17.7903 72.7988 18.8517 73.4574 19.9482L74.3146 19.4333C74.9868 20.5524 75.6058 21.7071 76.1681 22.8939L75.2644 23.3221C75.8087 24.4708 76.2984 25.6502 76.7303 26.8572L77.6718 26.5202C78.1105 27.746 78.4911 28.9995 78.8101 30.2773L77.8399 30.5196C78.1469 31.7489 78.3956 33.0015 78.5828 34.2741L79.5721 34.1286C79.761 35.4124 79.8888 36.716 79.9527 38.0365L78.9538 38.0848C78.9845 38.7192 79 39.3578 79 40C79 40.6422 78.9845 41.2808 78.9538 41.9152L79.9527 41.9635C79.8888 43.284 79.761 44.5876 79.5721 45.8714L78.5828 45.7259C78.3956 46.9985 78.1469 48.2511 77.8399 49.4804L78.8101 49.7227C78.4911 51.0005 78.1105 52.254 77.6718 53.4798L76.7303 53.1428C76.2984 54.3498 75.8087 55.5292 75.2644 56.6779L76.1681 57.1061C75.6058 58.2929 74.9868 59.4476 74.3146 60.5667L73.4574 60.0518C72.7988 61.1483 72.0878 62.2097 71.3279 63.2327L72.1307 63.829C71.3492 64.881 70.5172 65.8933 69.6384 66.8624L68.8977 66.1906C68.0399 67.1364 67.1364 68.0399 66.1906 68.8977L66.8624 69.6384C65.8933 70.5172 64.881 71.3492 63.829 72.1307L63.2327 71.3279C62.2097 72.0878 61.1483 72.7988 60.0518 73.4574L60.5667 74.3146C59.4476 74.9868 58.2929 75.6058 57.1061 76.1681L56.6779 75.2644C55.5292 75.8087 54.3498 76.2984 53.1428 76.7303L53.4798 77.6718C52.254 78.1105 51.0005 78.4911 49.7227 78.8101L49.4804 77.8399C48.2511 78.1469 46.9985 78.3956 45.7259 78.5828L45.8714 79.5721C44.5876 79.761 43.284 79.8888 41.9635 79.9527L41.9152 78.9538C41.2808 78.9845 40.6422 79 40 79Z" fill="#68C8F2" stroke="white" stroke-width="2" stroke-dasharray="4 4"/>
<path fill-rule="evenodd" clip-rule="evenodd" d="M52.8955 63.9017C49.9143 63.9017 47.55 61.4706 47.55 58.5111C47.55 55.5515 49.9143 53.1204 52.8955 53.1204C55.7738 53.1204 58.1382 55.5515 58.1382 58.5111C58.1382 61.4706 55.7738 63.9017 52.8955 63.9017ZM52.8955 54.6002C50.7367 54.6002 48.9891 56.3971 48.9891 58.5111C48.9891 60.7307 50.7367 62.4219 52.8955 62.4219C54.9515 62.4219 56.699 60.7307 56.699 58.5111C56.699 56.3971 54.9515 54.6002 52.8955 54.6002Z" fill="white"/>
<path fill-rule="evenodd" clip-rule="evenodd" d="M52.8955 68.2353C52.6899 68.2353 52.4843 68.1296 52.3815 68.0239L50.8395 66.3327L48.6808 66.9669C48.4752 67.0726 48.2696 67.0726 48.1668 66.9669C47.9612 66.8612 47.8584 66.6498 47.7556 66.4384L47.3444 64.2188L45.1856 63.6903C44.98 63.6903 44.7744 63.5846 44.6716 63.3732C44.5688 63.1618 44.5688 62.9504 44.5688 62.739L45.2884 60.625L43.6436 59.0396C43.5408 58.9339 43.438 58.7225 43.438 58.5111C43.438 58.2997 43.5408 58.0883 43.6436 57.9826L45.2884 56.3971L44.6716 54.2831C44.5688 54.0717 44.5688 53.8603 44.6716 53.6489C44.7744 53.5432 44.98 53.3318 45.1856 53.3318L47.3444 52.8033L47.7556 50.5837C47.8584 50.3723 47.9612 50.2666 48.1668 50.1609C48.2696 50.0552 48.4752 50.0552 48.6808 50.0552L50.8395 50.6894L52.3815 49.1039C52.4843 48.8925 52.6899 48.7868 52.8955 48.7868C53.1011 48.7868 53.3067 48.8925 53.4095 49.1039L54.9515 50.6894L57.0074 50.0552C57.213 50.0552 57.4186 50.0552 57.6242 50.1609C57.727 50.2666 57.9326 50.3723 57.9326 50.5837L58.4466 52.8033L60.6054 53.3318C60.811 53.3318 60.9138 53.5432 61.0166 53.6489C61.1194 53.8603 61.2222 54.0717 61.1194 54.2831L60.5026 56.3971L62.0445 57.9826C62.2501 58.0883 62.3529 58.2997 62.3529 58.5111C62.3529 58.7225 62.2501 58.9339 62.0445 59.0396L60.3998 60.625L61.1194 62.8447C61.1194 62.9504 61.1194 63.1618 61.0166 63.3732C60.9138 63.5846 60.811 63.6903 60.6054 63.6903L58.4466 64.2188L57.9326 66.4384C57.8298 66.6498 57.727 66.8612 57.6242 66.9669C57.4186 67.0726 57.213 67.0726 57.0074 66.9669L54.8487 66.3327L53.4095 68.0239C53.2039 68.1296 53.1011 68.2353 52.8955 68.2353ZM51.0451 64.7473C51.2507 64.7473 51.4563 64.853 51.5591 64.9587L52.8955 66.4384L54.1291 64.9587C54.3347 64.7473 54.6431 64.6416 54.8487 64.7473L56.699 65.3815L57.1102 63.4789C57.213 63.1618 57.4186 62.9504 57.6242 62.8447L59.4746 62.4219L58.9606 60.625C58.8578 60.3079 58.9606 59.9908 59.1662 59.8851L60.5026 58.5111L59.1662 57.2427C58.9606 57.0313 58.8578 56.7142 58.9606 56.3971L59.4746 54.6002L57.6242 54.1774C57.4186 54.0717 57.213 53.8603 57.1102 53.5432L56.699 51.7464L54.8487 52.2748C54.6431 52.3805 54.3347 52.2748 54.1291 52.0634L52.8955 50.6894L51.5591 52.0634C51.3535 52.2748 51.0451 52.3805 50.8395 52.2748L48.9891 51.7464L48.578 53.5432C48.578 53.8603 48.3724 54.0717 48.064 54.1774L46.2136 54.6002L46.7276 56.3971C46.8304 56.7142 46.7276 57.0313 46.522 57.2427L45.1856 58.5111L46.522 59.8851C46.7276 59.9908 46.8304 60.3079 46.7276 60.625L46.2136 62.4219L48.064 62.8447C48.2696 62.9504 48.578 63.1618 48.578 63.4789L48.9891 65.3815L50.8395 64.7473C50.9423 64.7473 50.9423 64.7473 51.0451 64.7473Z" fill="white"/>
<path fill-rule="evenodd" clip-rule="evenodd" d="M45.494 63.2675H20.7196C20.3084 63.2675 20 62.8447 20 62.5276V14.8576C20 14.4348 20.3084 14.1177 20.7196 14.1177H56.699C57.1102 14.1177 57.4186 14.4348 57.4186 14.8576V50.9008C57.4186 51.3236 57.1102 51.6407 56.699 51.6407C56.2878 51.6407 55.9794 51.3236 55.9794 50.9008V15.5975H21.4392V61.7877H45.494C45.9052 61.7877 46.2136 62.1048 46.2136 62.5276C46.2136 62.9504 45.9052 63.2675 45.494 63.2675Z" fill="white"/>
<path fill-rule="evenodd" clip-rule="evenodd" d="M44.1576 59.2509H24.6259C24.2147 59.2509 23.9063 58.9339 23.9063 58.5111V18.7684C23.9063 18.4513 24.2147 18.0285 24.6259 18.0285H52.8955C53.3067 18.0285 53.6151 18.4513 53.6151 18.7684V49.5267C53.6151 49.9495 53.3067 50.2666 52.8955 50.2666C52.4843 50.2666 52.1759 49.9495 52.1759 49.5267V19.5083H25.3455V57.7712H44.1576C44.5688 57.7712 44.8772 58.0883 44.8772 58.5111C44.8772 58.9339 44.5688 59.2509 44.1576 59.2509Z" fill="white"/>
<path fill-rule="evenodd" clip-rule="evenodd" d="M48.8864 23.5248H28.5323C28.1211 23.5248 27.8127 23.2077 27.8127 22.785C27.8127 22.3622 28.1211 22.0451 28.5323 22.0451H48.8864C49.2975 22.0451 49.6059 22.3622 49.6059 22.785C49.6059 23.2077 49.2975 23.5248 48.8864 23.5248Z" fill="white"/>
<path fill-rule="evenodd" clip-rule="evenodd" d="M48.8864 29.444H44.3632C43.952 29.444 43.6436 29.1269 43.6436 28.7041C43.6436 28.2813 43.952 27.9642 44.3632 27.9642H48.8864C49.2975 27.9642 49.6059 28.2813 49.6059 28.7041C49.6059 29.1269 49.2975 29.444 48.8864 29.444Z" fill="white"/>
<path fill-rule="evenodd" clip-rule="evenodd" d="M40.7653 29.444H28.5323C28.1211 29.444 27.8127 29.1269 27.8127 28.7041C27.8127 28.2813 28.1211 27.9642 28.5323 27.9642H40.7653C41.1765 27.9642 41.4849 28.2813 41.4849 28.7041C41.4849 29.1269 41.1765 29.444 40.7653 29.444Z" fill="white"/>
<path fill-rule="evenodd" clip-rule="evenodd" d="M48.8864 35.3631H42.924C42.6156 35.3631 42.2045 35.046 42.2045 34.6232C42.2045 34.3061 42.6156 33.8833 42.924 33.8833H48.8864C49.2975 33.8833 49.6059 34.3061 49.6059 34.6232C49.6059 35.046 49.2975 35.3631 48.8864 35.3631Z" fill="white"/>
<path fill-rule="evenodd" clip-rule="evenodd" d="M39.1205 35.3631H28.5323C28.1211 35.3631 27.8127 35.046 27.8127 34.6232C27.8127 34.3061 28.1211 33.8833 28.5323 33.8833H39.1205C39.5317 33.8833 39.8401 34.3061 39.8401 34.6232C39.8401 35.046 39.5317 35.3631 39.1205 35.3631Z" fill="white"/>
<path fill-rule="evenodd" clip-rule="evenodd" d="M48.8864 41.3879H45.3912C44.98 41.3879 44.6716 41.0708 44.6716 40.648C44.6716 40.2252 44.98 39.9081 45.3912 39.9081H48.8864C49.2975 39.9081 49.6059 40.2252 49.6059 40.648C49.6059 41.0708 49.2975 41.3879 48.8864 41.3879Z" fill="white"/>
<path fill-rule="evenodd" clip-rule="evenodd" d="M41.9989 41.3879H28.5323C28.1211 41.3879 27.8127 41.0708 27.8127 40.648C27.8127 40.2252 28.1211 39.9081 28.5323 39.9081H41.9989C42.4101 39.9081 42.7184 40.2252 42.7184 40.648C42.7184 41.0708 42.4101 41.3879 41.9989 41.3879Z" fill="white"/>
<path fill-rule="evenodd" clip-rule="evenodd" d="M44.466 47.307H37.5785C37.1673 47.307 36.8589 46.9899 36.8589 46.5671C36.8589 46.1443 37.1673 45.8272 37.5785 45.8272H44.466C44.8772 45.8272 45.1856 46.1443 45.1856 46.5671C45.1856 46.9899 44.8772 47.307 44.466 47.307Z" fill="white"/>
<path fill-rule="evenodd" clip-rule="evenodd" d="M33.3638 47.307H28.5323C28.1211 47.307 27.8127 46.9899 27.8127 46.5671C27.8127 46.1443 28.1211 45.8272 28.5323 45.8272H33.3638C33.775 45.8272 34.0834 46.1443 34.0834 46.5671C34.0834 46.9899 33.775 47.307 33.3638 47.307Z" fill="white"/>
<path fill-rule="evenodd" clip-rule="evenodd" d="M38.0925 55.3401H28.5323C28.1211 55.3401 27.8127 55.023 27.8127 54.6002V51.4293C27.8127 51.0065 28.1211 50.6894 28.5323 50.6894H38.0925C38.4009 50.6894 38.8121 51.0065 38.8121 51.4293V54.6002C38.8121 55.023 38.4009 55.3401 38.0925 55.3401ZM29.2519 53.8603H37.3729V52.1691H29.2519V53.8603Z" fill="white"/>
<path fill-rule="evenodd" clip-rule="evenodd" d="M65.6 25.9C65.6 25.4029 66.0029 25 66.5 25C66.9971 25 67.4 25.4029 67.4 25.9V27.218L68.782 28.6H70.1C70.5971 28.6 71 29.0029 71 29.5C71 29.9971 70.5971 30.4 70.1 30.4H68.782L67.4 31.782V33.1C67.4 33.5971 66.9971 34 66.5 34C66.0029 34 65.6 33.5971 65.6 33.1V31.782L64.218 30.4H62.9C62.4029 30.4 62 29.9971 62 29.5C62 29.0029 62.4029 28.6 62.9 28.6H64.218L65.6 27.218V25.9Z" fill="white"/>
<circle cx="10.5" cy="31.5" r="2.5" fill="white"/>
<circle cx="35" cy="70" r="2" fill="white"/>
</g>
<defs>
<clipPath id="clip0_30_1061">
<rect width="80" height="80" fill="white"/>
</clipPath>
</defs>
</svg>
