<svg width="160" height="96" viewBox="0 0 160 96" fill="none" xmlns="http://www.w3.org/2000/svg">
<path d="M159.289 16.2268C158.483 14.3119 156.569 11.7417 151.936 10.5323C149.265 9.82678 124.838 3.67874 97.4887 0.251973C97.0858 0.201578 96.7333 0.201578 96.3303 0.201578C93.4594 0.201578 90.941 1.5622 89.3798 3.72913C89.0775 3.07402 88.6745 2.46928 88.0702 1.91496C86.2065 -1.90835e-07 83.8897 0 82.8823 0H82.1772C77.342 0 60.3683 0.352762 45.9129 4.7874C45.8121 4.8378 45.7115 4.8378 45.6107 4.88819C44.6033 5.14015 42.2361 5.79528 40.8257 8.01259C39.9192 7.55905 38.9118 7.30708 37.8038 7.30708C37.0483 7.30708 36.2928 7.40787 35.4869 7.65984C24.8595 10.8851 11.2099 17.2851 3.15121 21.9716L2.94977 22.0724L2.79873 22.1733C1.18689 23.3323 -1.18036 26.0031 0.683211 31.3448C1.23729 33.0078 1.84161 34.6205 2.44609 36.233L3.10081 38.0472C4.05777 40.7181 6.52577 42.4315 9.296 42.4315C10.5048 42.4315 11.7136 42.0788 12.6706 41.5244C13.1238 41.2725 14.5342 40.567 15.8941 39.9117L18.4125 47.5716C16.8006 48.4787 14.9371 49.4865 14.0306 50.0409C9.85008 52.4094 9.90048 55.8866 10.3034 57.7512C10.404 58.2047 10.4544 58.3559 11.8144 61.8835C12.2677 63.0425 12.721 64.2519 12.9728 65.0078C14.0306 67.8802 16.4482 69.644 19.2686 69.644C20.125 69.644 20.9309 69.4929 21.787 69.1905C19.3694 74.4315 19.0168 81.1842 22.7944 89.2472L25.9675 96L30.0976 89.7511C31.3568 87.8866 34.2781 84.7118 39.8185 84.7118C39.9696 84.7118 40.1206 84.7118 40.2718 84.7118C42.3368 84.7622 45.5099 85.0142 49.1364 85.3165C55.3819 85.8204 63.1383 86.4756 69.8876 86.4756C72.9599 86.4756 75.5287 86.3243 77.7449 86.0724C87.6169 84.8629 95.1215 78.9165 98.2946 69.7449C99.8561 65.2094 100.259 60.2205 99.5538 55.3322L102.828 50.3433C103.885 48.7306 104.943 46.3118 105.648 43.7418C108.721 44.2961 111.541 44.7999 114.16 45.3543C120.003 46.5133 127.054 48.4284 133.249 50.192C135.919 50.948 138.437 51.6032 140.704 52.2078C141.61 52.4598 142.517 52.5606 143.424 52.5606C145.237 52.5606 146.899 52.0567 148.309 51.1497C150.576 49.6378 151.582 47.2189 151.936 46.4126C152.942 44.0944 154.555 39.0047 156.217 33.5622C157.123 30.6393 158.03 27.8676 158.685 25.9023L158.785 25.6503C159.641 23.2819 160.75 19.7542 159.289 16.2268Z" fill="white"/>
<path fill-rule="evenodd" clip-rule="evenodd" d="M87.1639 38.701C86.9624 33.9135 85.8543 9.97662 85.9047 8.01123C86.0055 6.14666 85.7536 5.59232 85.0987 4.88681C84.3936 4.13091 83.336 4.2317 82.2279 4.2317C77.5941 4.2317 60.973 4.58445 47.1724 8.81752C46.2154 9.11989 44.6036 9.32145 44.2007 10.8837C43.9992 11.7404 44.2511 12.7986 44.7548 14.7639C46.0642 19.8034 52.1084 48.9813 53.3172 51.8033C53.8712 52.8616 54.7778 53.4664 55.9362 53.3151C64.3475 51.9546 76.889 49.8884 77.8459 49.7877C78.1482 45.7057 74.6728 41.0191 70.4419 39.0537C66.7147 39.5576 62.6855 39.9105 62.5343 39.9105C61.124 39.9609 60.57 39.5576 60.3685 38.1467C59.9656 35.5262 57.2962 21.7183 57.2962 20.9624C57.2458 19.8538 57.9509 19.2994 58.5554 19.0979C60.6707 18.342 70.5427 16.9813 72.2048 17.0317C73.5647 16.9813 74.2698 17.7876 74.421 19.0979C74.6728 21.0128 75.5794 27.6144 76.0831 31.4442C74.2195 30.89 71.1471 30.5372 69.0821 30.5876C68.6791 32.1497 68.1754 34.7199 67.9235 35.5262C75.4787 38.3986 82.8826 44.6978 80.3643 52.912C78.0474 60.4206 67.2688 60.975 59.5628 59.8663C50.3455 58.5561 39.0129 58.9592 31.6089 63.8474C25.1116 68.1309 21.3844 76.2948 26.5218 87.2301C27.5796 85.6679 31.6593 80.0742 40.3225 80.3262C47.6256 80.5277 66.6141 83.0474 77.1408 81.7371C98.849 79.2176 100.713 52.2568 87.1639 38.701ZM26.8241 85.0632C23.1473 75.9419 27.5292 65.7121 36.7967 63.1419C36.3938 64.3513 35.7391 65.8632 35.3361 67.1735C36.8471 67.4254 38.4589 67.627 40.0202 67.879C38.7106 69.0884 38.0559 69.945 36.7463 71.5577C38.3077 72.1623 39.7684 72.5656 41.3802 73.1702C40.0202 74.0774 38.5596 74.8333 37.3004 75.69C38.6604 76.597 41.9341 78.3608 42.2364 78.8143C38.0559 78.5624 30.1986 79.0663 26.8241 85.0632Z" fill="#E84C13"/>
<path fill-rule="evenodd" clip-rule="evenodd" d="M32.5137 27.9155C34.0752 33.5596 35.6366 39.103 37.1475 44.7975C38.1549 44.5455 45.3574 42.3785 45.7603 42.3785C46.8685 42.4289 47.7246 42.8824 48.0269 44.0416C48.2283 44.7471 48.4297 45.4526 48.5809 46.1581C48.9838 48.1234 49.3867 50.0384 49.7897 52.0037C50.1422 53.7675 49.3364 55.0274 47.4224 55.4809C40.5222 57.0432 26.369 62.536 20.6272 65.1061C18.965 65.862 17.5547 65.2573 16.9504 63.5439C16.2955 61.7298 14.5328 57.1943 14.432 56.8919C14.0794 55.3298 14.7342 54.5234 16.0941 53.7171C17.9074 52.7092 23.0952 49.8368 23.4981 49.5848C21.7352 44.2431 20.1739 39.4557 18.411 33.9629C17.3533 34.5675 11.8632 37.1881 10.6042 37.8936C9.34497 38.6495 7.68273 38.1958 7.07841 36.6337C6.27249 34.4164 5.41633 32.199 4.66081 29.9817C4.10673 28.4699 3.80449 26.6556 5.26513 25.6479C13.6765 20.7597 27.0741 14.662 36.7446 11.7391C38.2557 11.2352 39.6155 11.7896 40.1192 13.4023C40.9251 16.0227 42.4361 21.8683 42.4865 22.0699C42.688 23.1786 42.2849 24.4887 40.7237 24.9423C38.1045 25.7486 35.3848 26.8069 32.5137 27.9155Z" fill="#E84C13"/>
<path fill-rule="evenodd" clip-rule="evenodd" d="M46.4688 77.8575C47.7782 79.0165 77.6962 81.889 85.4529 76.245C92.8065 70.9031 94.8212 65.1079 91.7991 53.7188C92.3028 58.9598 90.4391 69.5425 79.8622 74.4307C69.4865 79.1678 46.4688 77.8575 46.4688 77.8575Z" fill="#BD3A13"/>
<path d="M118.947 31.747L126.2 33.5106L130.33 18.7957L121.767 16.8807L118.947 31.747Z" fill="#4384A9"/>
<path d="M100.812 28.7249L107.864 29.8336L110.483 14.917L102.173 13.6571L100.812 28.7249Z" fill="#4384A9"/>
<path d="M155.409 17.8885C154.755 16.2759 153.142 15.268 150.877 14.6632C145.638 13.3027 122.268 7.65856 96.9837 4.48377C94.3645 4.1814 92.2492 5.89479 91.9469 8.41447C91.6447 11.0854 91.5441 24.0365 91.4937 33.6617C91.5945 34.5183 91.8965 35.7782 93.0549 36.7357C98.8976 42.5815 99.0991 46.6633 99.3509 48.0743C100.66 46.0585 102.222 41.9767 102.222 38.9027C105.798 39.5074 110.381 40.3137 115.065 41.2208C123.577 42.8837 134.205 46.1089 141.81 48.1247C143.472 48.5782 144.933 48.3263 145.99 47.6208C147.048 46.9153 147.704 45.6554 148.107 44.7484C149.517 41.4223 152.891 29.983 154.755 24.5404C155.409 22.5751 156.317 20.0051 155.409 17.8885ZM114.411 14.109L111.288 31.7972C111.086 32.9058 110.129 33.7122 109.021 33.7122C108.87 33.7122 108.77 33.7122 108.618 33.6617L98.8472 32.1499C97.6888 31.8979 96.8325 30.7893 96.9837 29.5799L98.5954 11.7909C98.7464 10.5814 99.7034 9.72464 100.912 9.72464H101.214L112.497 11.438C113.101 11.4885 113.655 11.8413 114.008 12.3452C114.36 12.8492 114.511 13.5042 114.411 14.109ZM127.204 37.542C127.002 37.542 126.801 37.4916 126.6 37.4413L116.828 35.0727C115.62 34.72 114.864 33.5609 115.116 32.3514L118.39 14.7641C118.641 13.5042 119.8 12.6979 121.109 12.8996L132.644 15.52C133.198 15.6207 133.752 16.024 134.104 16.5279C134.457 17.0821 134.557 17.7373 134.356 18.342L129.47 35.8286C129.168 36.8365 128.211 37.542 127.204 37.542ZM151.027 22.5247L149.315 27.0602C149.113 27.5641 148.761 28.1183 148.358 28.4712L135.464 40.4144L132.946 37.6931L145.84 25.7499L146.897 22.8775L137.076 20.6097L137.932 16.9814L149.365 19.6523C150.021 19.8034 150.525 20.2066 150.825 20.7609C151.179 21.2145 151.229 21.92 151.027 22.5247Z" fill="#4384A9"/>
</svg>
