<svg width="275" height="93" fill="none" xmlns="http://www.w3.org/2000/svg"><path d="M0 93h275V20c0-11.046-8.954-20-20-20H20C8.954 0 0 8.954 0 20v73z" fill="#0ABAB5"/><path d="M249 32c0-6.627 5.373-12 12-12 0 6.627-5.373 12-12 12zM43 32c0-6.627 5.373-12 12-12 0 6.627-5.373 12-12 12zm-7.648 4.6c1.984 0 3.701.33 5.152.992 1.472.661 2.603 1.6 3.392 2.816.79 1.216 1.184 2.656 1.184 4.32 0 1.643-.395 3.083-1.184 4.32-.79 1.216-1.92 2.155-3.392 2.816-1.45.64-3.168.96-5.152.96H30.84V59h-5.184V36.6h9.696zm-.288 12c1.557 0 2.741-.33 3.552-.992.81-.683 1.216-1.643 1.216-2.88 0-1.259-.405-2.219-1.216-2.88-.81-.683-1.995-1.024-3.552-1.024H30.84V48.6h4.224zm31.021-6.816V59H61.35v-2.048a6.793 6.793 0 01-2.369 1.728 7.629 7.629 0 01-2.976.576c-2.26 0-4.053-.65-5.376-1.952-1.322-1.301-1.983-3.232-1.983-5.792v-9.728h4.992v8.992c0 2.773 1.162 4.16 3.488 4.16 1.194 0 2.154-.384 2.88-1.152.725-.79 1.087-1.952 1.087-3.488v-8.512h4.992zm9.393 2.272c.598-.832 1.398-1.461 2.4-1.888 1.024-.427 2.198-.64 3.52-.64v4.608a17.99 17.99 0 00-1.12-.064c-1.43 0-2.55.405-3.36 1.216-.81.79-1.216 1.984-1.216 3.584V59H70.71V41.784h4.768v2.272zm16.924 15.2c-1.813 0-3.445-.373-4.896-1.12-1.43-.768-2.55-1.824-3.36-3.168s-1.216-2.87-1.216-4.576c0-1.707.406-3.232 1.216-4.576.81-1.344 1.93-2.39 3.36-3.136 1.45-.768 3.083-1.152 4.896-1.152 1.814 0 3.435.384 4.864 1.152 1.43.747 2.55 1.792 3.36 3.136.811 1.344 1.216 2.87 1.216 4.576 0 1.707-.405 3.232-1.216 4.576-.81 1.344-1.93 2.4-3.36 3.168-1.43.747-3.05 1.12-4.864 1.12zm0-4.096c1.28 0 2.326-.427 3.136-1.28.832-.875 1.248-2.037 1.248-3.488 0-1.45-.416-2.603-1.248-3.456-.81-.875-1.856-1.312-3.136-1.312s-2.336.437-3.168 1.312c-.832.853-1.248 2.005-1.248 3.456 0 1.45.416 2.613 1.248 3.488.832.853 1.888 1.28 3.168 1.28zm30.537-13.376V56.12c0 3.157-.821 5.504-2.464 7.04-1.643 1.536-4.043 2.304-7.2 2.304a18.02 18.02 0 01-4.736-.608c-1.493-.405-2.731-.992-3.712-1.76l1.984-3.584c.725.597 1.643 1.067 2.752 1.408 1.109.363 2.219.544 3.328.544 1.728 0 2.997-.395 3.808-1.184.832-.768 1.248-1.941 1.248-3.52v-.736c-1.301 1.43-3.115 2.144-5.44 2.144-1.579 0-3.029-.341-4.352-1.024a8.075 8.075 0 01-3.104-2.944c-.768-1.259-1.152-2.71-1.152-4.352 0-1.643.384-3.093 1.152-4.352a7.842 7.842 0 013.104-2.912c1.323-.704 2.773-1.056 4.352-1.056 2.496 0 4.395.821 5.696 2.464v-2.208h4.736zm-9.44 12.288c1.323 0 2.4-.384 3.232-1.152.853-.79 1.28-1.813 1.28-3.072 0-1.259-.427-2.272-1.28-3.04-.832-.79-1.909-1.184-3.232-1.184-1.323 0-2.411.395-3.264 1.184-.853.768-1.28 1.781-1.28 3.04 0 1.259.427 2.283 1.28 3.072.853.768 1.941 1.152 3.264 1.152zm30.95-3.616c0 .064-.032.512-.096 1.344h-13.024c.235 1.067.79 1.91 1.664 2.528.875.619 1.963.928 3.264.928.896 0 1.686-.128 2.368-.384a5.943 5.943 0 001.952-1.28l2.656 2.88c-1.621 1.856-3.989 2.784-7.104 2.784-1.941 0-3.658-.373-5.152-1.12-1.493-.768-2.645-1.824-3.456-3.168-.81-1.344-1.216-2.87-1.216-4.576 0-1.685.395-3.2 1.184-4.544a8.408 8.408 0 013.296-3.168c1.408-.768 2.976-1.152 4.704-1.152 1.686 0 3.211.363 4.576 1.088a7.806 7.806 0 013.2 3.136c.79 1.344 1.184 2.912 1.184 4.704zm-8.928-5.152c-1.13 0-2.08.32-2.848.96-.768.64-1.237 1.515-1.408 2.624h8.48c-.17-1.088-.64-1.952-1.408-2.592-.768-.661-1.706-.992-2.816-.992zm22.716-3.776c2.133 0 3.85.64 5.152 1.92 1.322 1.28 1.984 3.179 1.984 5.696V59h-4.992v-9.088c0-1.365-.299-2.379-.896-3.04-.598-.683-1.462-1.024-2.592-1.024-1.259 0-2.262.395-3.008 1.184-.747.768-1.12 1.92-1.12 3.456V59h-4.992V41.784h4.768V43.8c.661-.725 1.482-1.28 2.464-1.664.981-.405 2.058-.608 3.232-.608zm28.712 8.928c0 .064-.032.512-.096 1.344h-13.024c.235 1.067.79 1.91 1.664 2.528.875.619 1.963.928 3.264.928.896 0 1.686-.128 2.368-.384a5.943 5.943 0 001.952-1.28l2.656 2.88c-1.621 1.856-3.989 2.784-7.104 2.784-1.941 0-3.658-.373-5.152-1.12-1.493-.768-2.645-1.824-3.456-3.168-.81-1.344-1.216-2.87-1.216-4.576 0-1.685.395-3.2 1.184-4.544a8.408 8.408 0 013.296-3.168c1.408-.768 2.976-1.152 4.704-1.152 1.686 0 3.211.363 4.576 1.088a7.806 7.806 0 013.2 3.136c.79 1.344 1.184 2.912 1.184 4.704zm-8.928-5.152c-1.13 0-2.08.32-2.848.96-.768.64-1.237 1.515-1.408 2.624h8.48c-.17-1.088-.64-1.952-1.408-2.592-.768-.661-1.706-.992-2.816-.992zm38.114 2.048c1.28.405 2.283 1.088 3.008 2.048.726.939 1.088 2.101 1.088 3.488 0 1.963-.768 3.477-2.304 4.544-1.514 1.045-3.733 1.568-6.656 1.568h-11.584V36.6h10.944c2.731 0 4.822.523 6.272 1.568 1.472 1.045 2.208 2.464 2.208 4.256 0 1.088-.266 2.059-.8 2.912-.512.853-1.237 1.525-2.176 2.016zm-11.296-6.848v5.28h5.152c1.28 0 2.251-.224 2.912-.672.662-.448.992-1.11.992-1.984 0-.875-.33-1.525-.992-1.952-.661-.448-1.632-.672-2.912-.672h-5.152zm6.048 14.592c1.366 0 2.39-.224 3.072-.672.704-.448 1.056-1.141 1.056-2.08 0-1.856-1.376-2.784-4.128-2.784h-6.048v5.536h6.048zM244.54 59l-.032-13.44-6.592 11.072h-2.336l-6.56-10.784V59h-4.864V36.6h4.288l8.384 13.92 8.256-13.92h4.256l.064 22.4h-4.864z" fill="#fff"/></svg>