<svg width="10" height="392" viewBox="0 0 10 392" fill="none" xmlns="http://www.w3.org/2000/svg">
<path d="M4.64646 391.354C4.84172 391.549 5.1583 391.549 5.35356 391.354L8.53555 388.172C8.73081 387.976 8.73081 387.66 8.53555 387.464C8.34028 387.269 8.0237 387.269 7.82844 387.464L5.00001 390.293L2.17158 387.464C1.97632 387.269 1.65974 387.269 1.46448 387.464C1.26922 387.66 1.26922 387.976 1.46448 388.172L4.64646 391.354ZM4.5 127L4.50001 391L5.50001 391L5.5 127L4.5 127Z" fill="#F4D782"/>
<circle cx="5" cy="103" r="5" fill="#F4D782"/>
<line x1="5.5" y1="2.18557e-08" x2="5.5" y2="78" stroke="#F4D782"/>
</svg>
