<svg width="3459" height="2409" viewBox="0 0 3459 2409" fill="none" xmlns="http://www.w3.org/2000/svg">
<rect x="454" y="283.684" width="1920" height="2109" fill="#101010"/>
<g clip-path="url(#clip0_2_723)">
<path d="M454 497.684L2374 497.684V252.843L2364.07 249.6L2337.64 252.122L2316.61 261.924L2289.88 264.303L2265.64 267.907L2239.79 260.267L2216.28 263.294L2191.74 268.844L2168.52 260.555L2143.99 264.519L2120.18 265.384L2096.23 264.88L2075.64 270.718L2051.83 269.997L2030.95 276.34L2006.12 268.051L1984.07 271.799L1957.78 271.871L1934.56 266.105L1916.02 257.023L1891.92 253.131L1866.95 249.672L1840.95 249.167L1814.81 251.113L1788.23 253.347L1761.94 248.446L1737.85 254.501L1710.54 251.834L1686.73 257.312L1663.07 262.501L1638.98 266.681L1614.59 270.862L1589.76 274.105L1561.43 269.276L1537.77 274.61L1515.13 278.718L1491.47 278.934L1468.98 283.187L1444.89 282.178L1421.67 283.763L1397.86 279.511L1375.08 280.952L1351.71 282.754L1327.32 277.493L1299.72 274.538L1276.06 266.898L1247.88 270.862L1223.34 259.474L1196.76 261.132L1172.38 263.87L1149.3 260.483L1125.06 264.663L1101.55 265.528L1078.18 263.726L1054.52 259.113L1030.42 255.366L1007.64 264.375L983.252 259.474L959.01 258.609L936.665 264.88L914.613 271.006L888.618 264.663H864.521L848.311 279.439L823.338 277.421L799.533 271.583L778.211 273.529L752.216 277.997L733.96 267.474L712.931 261.348L685.767 262.429L665.905 254.501L638.012 257.528L619.026 247.437L595.076 244.987L569.811 246.716L546.444 242.752L521.325 245.491L495.476 242.68L470.211 241.239L454 242.248V478.944V479.088V479.16V497.684Z" fill="#101010"/>
</g>
<g filter="url(#filter0_f_2_723)">
<circle cx="623" cy="644.684" r="267" fill="#FFE8A5" fill-opacity="0.23"/>
</g>
<g filter="url(#filter1_f_2_723)">
<circle cx="2283" cy="1176.68" r="504" fill="#FFE8A5" fill-opacity="0.23"/>
</g>
<g clip-path="url(#clip1_2_723)">
<path d="M454 2216.68L2374 2216.68V2399.63L2364.07 2402.05L2337.64 2400.17L2316.61 2392.85L2289.88 2391.07L2265.64 2388.38L2239.79 2394.08L2216.28 2391.82L2191.74 2387.68L2168.52 2393.87L2143.99 2390.91L2120.18 2390.26L2096.23 2390.64L2075.64 2386.28L2051.83 2386.81L2030.95 2382.07L2006.12 2388.27L1984.07 2385.47L1957.78 2385.41L1934.56 2389.72L1916.02 2396.51L1891.92 2399.42L1866.95 2402L1840.95 2402.38L1814.81 2400.92L1788.23 2399.25L1761.94 2402.92L1737.85 2398.39L1710.54 2400.39L1686.73 2396.29L1663.07 2392.41L1638.98 2389.29L1614.59 2386.17L1589.76 2383.74L1561.43 2387.35L1537.77 2383.37L1515.13 2380.3L1491.47 2380.14L1468.98 2376.96L1444.89 2377.71L1421.67 2376.53L1397.86 2379.7L1375.08 2378.63L1351.71 2377.28L1327.32 2381.21L1299.72 2383.42L1276.06 2389.13L1247.88 2386.17L1223.34 2394.68L1196.76 2393.44L1172.38 2391.39L1149.3 2393.92L1125.06 2390.8L1101.55 2390.15L1078.18 2391.5L1054.52 2394.95L1030.42 2397.75L1007.64 2391.01L983.252 2394.68L959.01 2395.32L936.665 2390.64L914.613 2386.06L888.618 2390.8H864.521L848.311 2379.76L823.338 2381.27L799.533 2385.63L778.211 2384.17L752.216 2380.84L733.96 2388.7L712.931 2393.28L685.767 2392.47L665.905 2398.39L638.012 2396.13L619.026 2403.67L595.076 2405.5L569.811 2404.21L546.444 2407.17L521.325 2405.12L495.476 2407.23L470.211 2408.3L454 2407.55V2230.69V2230.58V2230.52V2216.68Z" fill="#101010"/>
</g>
<defs>
<filter id="filter0_f_2_723" x="3.05176e-05" y="21.6836" width="1246" height="1246" filterUnits="userSpaceOnUse" color-interpolation-filters="sRGB">
<feFlood flood-opacity="0" result="BackgroundImageFix"/>
<feBlend mode="normal" in="SourceGraphic" in2="BackgroundImageFix" result="shape"/>
<feGaussianBlur stdDeviation="178" result="effect1_foregroundBlur_2_723"/>
</filter>
<filter id="filter1_f_2_723" x="1107" y="0.683655" width="2352" height="2352" filterUnits="userSpaceOnUse" color-interpolation-filters="sRGB">
<feFlood flood-opacity="0" result="BackgroundImageFix"/>
<feBlend mode="normal" in="SourceGraphic" in2="BackgroundImageFix" result="shape"/>
<feGaussianBlur stdDeviation="336" result="effect1_foregroundBlur_2_723"/>
</filter>
<clipPath id="clip0_2_723">
<rect width="1920" height="256.445" fill="white" transform="translate(2374 497.684) rotate(-180)"/>
</clipPath>
<clipPath id="clip1_2_723">
<rect width="1920" height="191.619" fill="white" transform="matrix(-1 0 0 1 2374 2216.68)"/>
</clipPath>
</defs>
</svg>
