<svg width="98" height="62" viewBox="0 0 98 62" fill="none" xmlns="http://www.w3.org/2000/svg">
<g opacity="0.27">
<path d="M37.888 54.7949L37.2014 54.0679C36.748 54.4961 36.3994 55.0049 36.2591 55.6072C36.1165 56.2197 36.2149 56.8187 36.4639 57.3722C37.0121 58.5902 38.2099 59.1974 39.5366 58.9748C40.2644 58.8744 40.9555 58.5923 41.4965 58.3607C43.4203 57.6147 45.3536 56.8649 47.2882 56.0753L49.3307 55.2416L47.5243 54.3385L47.4519 54.1935L47.0327 54.0713L47.0276 54.0698C45.1397 53.5192 43.241 52.9654 41.3407 52.4507L41.2123 52.4159H41.0958C41.0953 52.4159 41.0948 52.4158 41.0943 52.4158L41.0936 52.4157C41.0864 52.4149 41.0243 52.4079 40.9851 52.4046C40.8788 52.3958 40.6593 52.3837 40.4085 52.4673L40.4085 52.4672L40.3976 52.471C40.2839 52.5103 40.1644 52.5501 40.0404 52.5914C39.1637 52.8832 38.0625 53.2498 37.1993 54.0699L37.888 54.7949ZM37.888 54.7949C38.5776 54.1398 39.4483 53.8468 40.3415 53.5461C40.469 53.5033 40.5968 53.4602 40.7247 53.4159L41.1187 57.4346C40.5671 57.671 39.9762 57.9074 39.3852 57.9862C38.479 58.1438 37.7305 57.7498 37.3759 56.9618C37.0213 56.1738 37.1789 55.4647 37.888 54.7949ZM40.1094 55.9768C40.1094 56.0133 40.0955 56.0833 40.0313 56.1528C39.9615 56.2284 39.8632 56.2677 39.7792 56.2677C39.6561 56.2677 39.571 56.2143 39.5262 56.1676C39.4791 56.1186 39.4489 56.0508 39.4489 55.9768C39.4489 55.8454 39.5097 55.7446 39.57 55.6891C39.6265 55.637 39.6991 55.6072 39.7792 55.6072C39.8593 55.6072 39.9318 55.637 39.9884 55.6891C40.0487 55.7446 40.1094 55.8454 40.1094 55.9768Z" fill="black" stroke="white" stroke-width="2"/>
<path d="M48.4271 50.0348L44.9028 50.818L48.3278 51.9597C50.3449 52.632 52.2425 53.2251 54.1302 53.815C54.6055 53.97 55.0575 53.8923 55.2715 53.8555C55.285 53.8532 55.2976 53.8511 55.3092 53.8491L55.321 53.8472L55.3329 53.8449C56.0787 53.7021 56.8021 53.5516 57.5188 53.4025C58.6434 53.1685 59.7516 52.938 60.9038 52.746L60.9122 52.7446L60.9205 52.743C61.8082 52.5795 62.6548 52.464 63.5266 52.3452C64.1275 52.2632 64.7404 52.1796 65.3867 52.0776L65.3868 52.0776L65.3952 52.0762C65.8733 51.9965 66.355 51.8177 66.7309 51.4519C67.1217 51.0717 67.2977 50.5878 67.3314 50.0976C67.3657 49.637 67.2601 49.1201 66.8652 48.7005C66.499 48.3114 66.0013 48.1333 65.5171 48.0553C64.593 47.8879 63.6308 47.8047 62.7093 47.8047H62.6988L62.6882 47.8049C58.8515 47.8857 55.0759 48.5312 51.3887 49.3242L51.3725 49.3277L51.3564 49.3317C50.4098 49.5683 49.4763 49.8017 48.4271 50.0348Z" fill="black" stroke="white" stroke-width="2"/>
<rect x="58.6924" y="31.1289" width="39.3076" height="14" rx="4" fill="white"/>
<rect y="31.1289" width="35" height="14" rx="4" fill="white"/>
<circle cx="47.3845" cy="22.5144" r="22.0769" fill="white"/>
<mask id="path-6-outside-1_2_751" maskUnits="userSpaceOnUse" x="32.1401" y="18.3691" width="30" height="33" fill="black">
<rect fill="white" x="32.1401" y="18.3691" width="30" height="33"/>
<path d="M57.4296 31.7854C57.075 32.0612 56.7992 32.3369 56.484 32.4945C54.8687 33.3613 53.2139 33.4007 51.6774 32.3369C50.1014 31.2732 49.7469 29.6185 50.0226 27.8061C50.062 27.4121 49.9832 27.2545 49.6681 27.097C48.9983 26.7424 48.3285 26.7424 47.6193 27.0576C47.383 27.1758 47.2648 27.2939 47.3042 27.6091C47.6587 30.367 45.216 33.0461 42.5763 32.7309C40.5276 32.4945 39.1093 31.352 38.3607 29.4215C38.1637 28.9487 38.0849 28.4365 38.0061 27.9243C37.8485 26.7424 38.3607 25.8362 39.4639 25.324C40.8822 24.6542 42.34 24.4573 43.9159 24.7724C43.7583 24.6937 43.6401 24.6149 43.4825 24.5361C43.3249 24.4573 43.1673 24.3785 43.0491 24.2603C42.9309 24.1815 42.7733 24.1421 42.6945 24.0239C41.9066 23.1571 41.0398 23.1571 40.0942 23.7875C40.173 23.1571 40.9216 22.4085 41.4732 22.3691C41.5914 22.3691 41.749 22.3691 41.8278 22.4479C42.6551 23.1571 43.7189 23.2753 44.7433 23.4329C45.4918 23.5511 46.201 23.7481 46.792 24.2209C47.1072 24.4967 47.186 24.8118 47.1466 25.1664C47.1072 25.5604 46.8314 25.7574 46.4374 25.6392C46.1616 25.5604 45.8858 25.4816 45.61 25.4028C46.1222 25.8756 46.6344 26.3484 47.1466 26.7818C47.6587 26.703 48.2103 26.4666 48.7225 26.506C49.2347 26.5454 49.7469 26.7818 50.259 26.9C49.5499 26.5454 49.3529 25.8756 49.1165 25.2452C48.9983 24.93 49.2347 24.6542 49.5893 24.6149C49.8651 24.6149 50.1802 24.6543 50.456 24.7724C51.244 25.0876 51.9926 25.0876 52.7805 24.6543C53.3321 24.3391 53.9231 24.4573 54.4747 24.733C55.1838 25.0876 55.893 25.2452 56.6416 25.4816C58.2963 25.9544 59.1237 27.1757 58.8085 28.6729C58.6903 29.2245 58.5327 29.8154 58.2963 30.3276C58.1387 30.7216 58.0993 31.0368 58.1387 31.4702C58.3751 33.0067 58.1387 34.5039 57.8629 36.001C57.469 38.1679 56.7204 40.256 55.8536 42.2654C53.1745 48.4509 46.6738 48.4903 43.0491 45.9688C39.976 43.8019 37.7303 40.9652 36.4696 37.3799C36.0362 36.1586 36.115 34.8978 36.2332 33.6371C36.3908 31.7066 36.706 29.8154 36.9424 27.8849C36.9424 27.7667 37.0606 27.6485 37.1394 27.4909C37.2576 27.6091 37.4151 27.7273 37.4151 27.8455C37.4545 28.4365 37.4939 29.0275 37.4545 29.6185C37.3757 31.2338 37.4151 32.8491 37.9667 34.4251C38.4789 35.8828 39.3851 36.986 40.764 37.7345C40.8034 37.7739 40.8822 37.8133 40.9216 37.8133C41.2762 37.8527 41.6702 37.9709 41.946 37.8133C42.1036 37.7345 42.0642 37.183 42.0248 36.8678C41.946 36.4344 41.749 36.0404 41.6308 35.607C41.5126 35.0948 41.6702 34.6615 42.0642 34.2675C42.4582 33.8735 42.8521 33.4795 43.2461 33.0855C43.3249 33.0067 43.4431 32.8885 43.5613 32.8885C44.5463 32.6915 45.5706 32.6521 46.4768 33.2431C46.595 33.3219 46.7526 33.4007 46.8708 33.5189C47.5011 33.9917 48.0921 34.3069 48.9195 33.9129C49.7863 33.5189 50.5742 33.7553 51.3622 34.3069C52.1896 34.8978 52.7805 35.6464 52.9775 36.6708C53.0563 37.1042 53.0169 37.5375 53.0563 37.9709C53.0563 38.2073 53.0563 38.4043 53.1351 38.6407C53.2927 39.0741 53.6867 39.1923 54.0807 38.9559C55.6172 37.8921 56.5234 36.4344 57.0356 34.6615C57.272 33.8735 57.3902 33.0461 57.5477 32.2581C57.4296 32.1793 57.4296 32.0218 57.4296 31.7854ZM48.8013 39.3499C48.8013 39.4681 48.7619 39.5863 48.7619 39.7045C48.7619 40.3348 48.6831 40.9652 48.7619 41.5956C48.8407 42.3441 49.4317 42.5805 50.062 42.226C50.2984 42.0684 50.5742 41.8714 50.7318 41.6744C51.1652 41.1622 51.4804 40.6106 51.9138 40.0984C52.6229 39.1923 52.4654 38.2073 52.1108 37.2617C51.7956 36.4738 51.2834 36.1586 50.4166 36.198C49.4317 36.2374 48.4467 36.0798 47.6587 35.4494C47.4223 35.2524 47.2254 35.2524 46.989 35.3312C46.201 35.607 45.413 35.7252 44.6645 35.3312C44.0735 35.016 43.5219 35.0554 43.0097 35.3706C42.4581 35.7252 42.34 36.3162 42.4581 36.8678C42.6551 37.7739 42.8521 38.7195 43.2067 39.5863C43.7583 40.8864 44.6645 41.832 45.9646 42.4229C46.6738 42.7381 47.0678 42.4623 47.1072 41.7138C47.1466 41.3198 47.1072 40.9258 47.0678 40.5318C47.0284 40.1378 46.9496 39.7832 46.8708 39.4287C47.5011 39.3499 48.1315 39.3499 48.8013 39.3499ZM42.3793 25.0088C41.3156 25.0088 40.37 25.2452 39.4639 25.6786C38.6759 26.0726 38.2819 26.703 38.2819 27.5697C38.3213 29.0669 38.8335 30.3276 39.976 31.3126C41.946 33.0067 44.5463 32.8097 45.9646 30.8004C46.3586 30.2488 46.6344 29.6185 46.8314 28.9881C47.186 27.8455 46.8708 26.7818 46.004 26.1908C44.9403 25.4422 43.7189 25.0088 42.3793 25.0088ZM57.9417 30.1306C57.9811 30.1306 58.0599 30.1306 58.0993 30.1306C58.2569 29.4609 58.4539 28.7517 58.4933 28.0819C58.5327 27.0182 57.7447 26.1908 56.5234 25.7968C55.0262 25.324 53.5291 25.4028 52.0714 25.915C51.047 26.2696 50.3378 27.0182 50.259 28.1607C50.2196 28.3971 50.259 28.6335 50.259 28.8699C50.2984 30.6034 51.2046 31.9824 52.6623 32.5339C54.2777 33.1249 56.09 32.7309 57.1932 31.4702C57.3902 31.2732 57.4295 30.958 57.5083 30.6822C57.5871 30.4064 57.6265 30.1306 57.7053 29.8942C57.7447 29.8942 57.7841 29.8942 57.8235 29.9336C57.8629 29.973 57.9023 30.0518 57.9417 30.1306Z"/>
</mask>
<path d="M57.4296 31.7854C57.075 32.0612 56.7992 32.3369 56.484 32.4945C54.8687 33.3613 53.2139 33.4007 51.6774 32.3369C50.1014 31.2732 49.7469 29.6185 50.0226 27.8061C50.062 27.4121 49.9832 27.2545 49.6681 27.097C48.9983 26.7424 48.3285 26.7424 47.6193 27.0576C47.383 27.1758 47.2648 27.2939 47.3042 27.6091C47.6587 30.367 45.216 33.0461 42.5763 32.7309C40.5276 32.4945 39.1093 31.352 38.3607 29.4215C38.1637 28.9487 38.0849 28.4365 38.0061 27.9243C37.8485 26.7424 38.3607 25.8362 39.4639 25.324C40.8822 24.6542 42.34 24.4573 43.9159 24.7724C43.7583 24.6937 43.6401 24.6149 43.4825 24.5361C43.3249 24.4573 43.1673 24.3785 43.0491 24.2603C42.9309 24.1815 42.7733 24.1421 42.6945 24.0239C41.9066 23.1571 41.0398 23.1571 40.0942 23.7875C40.173 23.1571 40.9216 22.4085 41.4732 22.3691C41.5914 22.3691 41.749 22.3691 41.8278 22.4479C42.6551 23.1571 43.7189 23.2753 44.7433 23.4329C45.4918 23.5511 46.201 23.7481 46.792 24.2209C47.1072 24.4967 47.186 24.8118 47.1466 25.1664C47.1072 25.5604 46.8314 25.7574 46.4374 25.6392C46.1616 25.5604 45.8858 25.4816 45.61 25.4028C46.1222 25.8756 46.6344 26.3484 47.1466 26.7818C47.6587 26.703 48.2103 26.4666 48.7225 26.506C49.2347 26.5454 49.7469 26.7818 50.259 26.9C49.5499 26.5454 49.3529 25.8756 49.1165 25.2452C48.9983 24.93 49.2347 24.6542 49.5893 24.6149C49.8651 24.6149 50.1802 24.6543 50.456 24.7724C51.244 25.0876 51.9926 25.0876 52.7805 24.6543C53.3321 24.3391 53.9231 24.4573 54.4747 24.733C55.1838 25.0876 55.893 25.2452 56.6416 25.4816C58.2963 25.9544 59.1237 27.1757 58.8085 28.6729C58.6903 29.2245 58.5327 29.8154 58.2963 30.3276C58.1387 30.7216 58.0993 31.0368 58.1387 31.4702C58.3751 33.0067 58.1387 34.5039 57.8629 36.001C57.469 38.1679 56.7204 40.256 55.8536 42.2654C53.1745 48.4509 46.6738 48.4903 43.0491 45.9688C39.976 43.8019 37.7303 40.9652 36.4696 37.3799C36.0362 36.1586 36.115 34.8978 36.2332 33.6371C36.3908 31.7066 36.706 29.8154 36.9424 27.8849C36.9424 27.7667 37.0606 27.6485 37.1394 27.4909C37.2576 27.6091 37.4151 27.7273 37.4151 27.8455C37.4545 28.4365 37.4939 29.0275 37.4545 29.6185C37.3757 31.2338 37.4151 32.8491 37.9667 34.4251C38.4789 35.8828 39.3851 36.986 40.764 37.7345C40.8034 37.7739 40.8822 37.8133 40.9216 37.8133C41.2762 37.8527 41.6702 37.9709 41.946 37.8133C42.1036 37.7345 42.0642 37.183 42.0248 36.8678C41.946 36.4344 41.749 36.0404 41.6308 35.607C41.5126 35.0948 41.6702 34.6615 42.0642 34.2675C42.4582 33.8735 42.8521 33.4795 43.2461 33.0855C43.3249 33.0067 43.4431 32.8885 43.5613 32.8885C44.5463 32.6915 45.5706 32.6521 46.4768 33.2431C46.595 33.3219 46.7526 33.4007 46.8708 33.5189C47.5011 33.9917 48.0921 34.3069 48.9195 33.9129C49.7863 33.5189 50.5742 33.7553 51.3622 34.3069C52.1896 34.8978 52.7805 35.6464 52.9775 36.6708C53.0563 37.1042 53.0169 37.5375 53.0563 37.9709C53.0563 38.2073 53.0563 38.4043 53.1351 38.6407C53.2927 39.0741 53.6867 39.1923 54.0807 38.9559C55.6172 37.8921 56.5234 36.4344 57.0356 34.6615C57.272 33.8735 57.3902 33.0461 57.5477 32.2581C57.4296 32.1793 57.4296 32.0218 57.4296 31.7854ZM48.8013 39.3499C48.8013 39.4681 48.7619 39.5863 48.7619 39.7045C48.7619 40.3348 48.6831 40.9652 48.7619 41.5956C48.8407 42.3441 49.4317 42.5805 50.062 42.226C50.2984 42.0684 50.5742 41.8714 50.7318 41.6744C51.1652 41.1622 51.4804 40.6106 51.9138 40.0984C52.6229 39.1923 52.4654 38.2073 52.1108 37.2617C51.7956 36.4738 51.2834 36.1586 50.4166 36.198C49.4317 36.2374 48.4467 36.0798 47.6587 35.4494C47.4223 35.2524 47.2254 35.2524 46.989 35.3312C46.201 35.607 45.413 35.7252 44.6645 35.3312C44.0735 35.016 43.5219 35.0554 43.0097 35.3706C42.4581 35.7252 42.34 36.3162 42.4581 36.8678C42.6551 37.7739 42.8521 38.7195 43.2067 39.5863C43.7583 40.8864 44.6645 41.832 45.9646 42.4229C46.6738 42.7381 47.0678 42.4623 47.1072 41.7138C47.1466 41.3198 47.1072 40.9258 47.0678 40.5318C47.0284 40.1378 46.9496 39.7832 46.8708 39.4287C47.5011 39.3499 48.1315 39.3499 48.8013 39.3499ZM42.3793 25.0088C41.3156 25.0088 40.37 25.2452 39.4639 25.6786C38.6759 26.0726 38.2819 26.703 38.2819 27.5697C38.3213 29.0669 38.8335 30.3276 39.976 31.3126C41.946 33.0067 44.5463 32.8097 45.9646 30.8004C46.3586 30.2488 46.6344 29.6185 46.8314 28.9881C47.186 27.8455 46.8708 26.7818 46.004 26.1908C44.9403 25.4422 43.7189 25.0088 42.3793 25.0088ZM57.9417 30.1306C57.9811 30.1306 58.0599 30.1306 58.0993 30.1306C58.2569 29.4609 58.4539 28.7517 58.4933 28.0819C58.5327 27.0182 57.7447 26.1908 56.5234 25.7968C55.0262 25.324 53.5291 25.4028 52.0714 25.915C51.047 26.2696 50.3378 27.0182 50.259 28.1607C50.2196 28.3971 50.259 28.6335 50.259 28.8699C50.2984 30.6034 51.2046 31.9824 52.6623 32.5339C54.2777 33.1249 56.09 32.7309 57.1932 31.4702C57.3902 31.2732 57.4295 30.958 57.5083 30.6822C57.5871 30.4064 57.6265 30.1306 57.7053 29.8942C57.7447 29.8942 57.7841 29.8942 57.8235 29.9336C57.8629 29.973 57.9023 30.0518 57.9417 30.1306Z" fill="black"/>
<path d="M57.4296 31.7854C57.075 32.0612 56.7992 32.3369 56.484 32.4945C54.8687 33.3613 53.2139 33.4007 51.6774 32.3369C50.1014 31.2732 49.7469 29.6185 50.0226 27.8061C50.062 27.4121 49.9832 27.2545 49.6681 27.097C48.9983 26.7424 48.3285 26.7424 47.6193 27.0576C47.383 27.1758 47.2648 27.2939 47.3042 27.6091C47.6587 30.367 45.216 33.0461 42.5763 32.7309C40.5276 32.4945 39.1093 31.352 38.3607 29.4215C38.1637 28.9487 38.0849 28.4365 38.0061 27.9243C37.8485 26.7424 38.3607 25.8362 39.4639 25.324C40.8822 24.6542 42.34 24.4573 43.9159 24.7724C43.7583 24.6937 43.6401 24.6149 43.4825 24.5361C43.3249 24.4573 43.1673 24.3785 43.0491 24.2603C42.9309 24.1815 42.7733 24.1421 42.6945 24.0239C41.9066 23.1571 41.0398 23.1571 40.0942 23.7875C40.173 23.1571 40.9216 22.4085 41.4732 22.3691C41.5914 22.3691 41.749 22.3691 41.8278 22.4479C42.6551 23.1571 43.7189 23.2753 44.7433 23.4329C45.4918 23.5511 46.201 23.7481 46.792 24.2209C47.1072 24.4967 47.186 24.8118 47.1466 25.1664C47.1072 25.5604 46.8314 25.7574 46.4374 25.6392C46.1616 25.5604 45.8858 25.4816 45.61 25.4028C46.1222 25.8756 46.6344 26.3484 47.1466 26.7818C47.6587 26.703 48.2103 26.4666 48.7225 26.506C49.2347 26.5454 49.7469 26.7818 50.259 26.9C49.5499 26.5454 49.3529 25.8756 49.1165 25.2452C48.9983 24.93 49.2347 24.6542 49.5893 24.6149C49.8651 24.6149 50.1802 24.6543 50.456 24.7724C51.244 25.0876 51.9926 25.0876 52.7805 24.6543C53.3321 24.3391 53.9231 24.4573 54.4747 24.733C55.1838 25.0876 55.893 25.2452 56.6416 25.4816C58.2963 25.9544 59.1237 27.1757 58.8085 28.6729C58.6903 29.2245 58.5327 29.8154 58.2963 30.3276C58.1387 30.7216 58.0993 31.0368 58.1387 31.4702C58.3751 33.0067 58.1387 34.5039 57.8629 36.001C57.469 38.1679 56.7204 40.256 55.8536 42.2654C53.1745 48.4509 46.6738 48.4903 43.0491 45.9688C39.976 43.8019 37.7303 40.9652 36.4696 37.3799C36.0362 36.1586 36.115 34.8978 36.2332 33.6371C36.3908 31.7066 36.706 29.8154 36.9424 27.8849C36.9424 27.7667 37.0606 27.6485 37.1394 27.4909C37.2576 27.6091 37.4151 27.7273 37.4151 27.8455C37.4545 28.4365 37.4939 29.0275 37.4545 29.6185C37.3757 31.2338 37.4151 32.8491 37.9667 34.4251C38.4789 35.8828 39.3851 36.986 40.764 37.7345C40.8034 37.7739 40.8822 37.8133 40.9216 37.8133C41.2762 37.8527 41.6702 37.9709 41.946 37.8133C42.1036 37.7345 42.0642 37.183 42.0248 36.8678C41.946 36.4344 41.749 36.0404 41.6308 35.607C41.5126 35.0948 41.6702 34.6615 42.0642 34.2675C42.4582 33.8735 42.8521 33.4795 43.2461 33.0855C43.3249 33.0067 43.4431 32.8885 43.5613 32.8885C44.5463 32.6915 45.5706 32.6521 46.4768 33.2431C46.595 33.3219 46.7526 33.4007 46.8708 33.5189C47.5011 33.9917 48.0921 34.3069 48.9195 33.9129C49.7863 33.5189 50.5742 33.7553 51.3622 34.3069C52.1896 34.8978 52.7805 35.6464 52.9775 36.6708C53.0563 37.1042 53.0169 37.5375 53.0563 37.9709C53.0563 38.2073 53.0563 38.4043 53.1351 38.6407C53.2927 39.0741 53.6867 39.1923 54.0807 38.9559C55.6172 37.8921 56.5234 36.4344 57.0356 34.6615C57.272 33.8735 57.3902 33.0461 57.5477 32.2581C57.4296 32.1793 57.4296 32.0218 57.4296 31.7854ZM48.8013 39.3499C48.8013 39.4681 48.7619 39.5863 48.7619 39.7045C48.7619 40.3348 48.6831 40.9652 48.7619 41.5956C48.8407 42.3441 49.4317 42.5805 50.062 42.226C50.2984 42.0684 50.5742 41.8714 50.7318 41.6744C51.1652 41.1622 51.4804 40.6106 51.9138 40.0984C52.6229 39.1923 52.4654 38.2073 52.1108 37.2617C51.7956 36.4738 51.2834 36.1586 50.4166 36.198C49.4317 36.2374 48.4467 36.0798 47.6587 35.4494C47.4223 35.2524 47.2254 35.2524 46.989 35.3312C46.201 35.607 45.413 35.7252 44.6645 35.3312C44.0735 35.016 43.5219 35.0554 43.0097 35.3706C42.4581 35.7252 42.34 36.3162 42.4581 36.8678C42.6551 37.7739 42.8521 38.7195 43.2067 39.5863C43.7583 40.8864 44.6645 41.832 45.9646 42.4229C46.6738 42.7381 47.0678 42.4623 47.1072 41.7138C47.1466 41.3198 47.1072 40.9258 47.0678 40.5318C47.0284 40.1378 46.9496 39.7832 46.8708 39.4287C47.5011 39.3499 48.1315 39.3499 48.8013 39.3499ZM42.3793 25.0088C41.3156 25.0088 40.37 25.2452 39.4639 25.6786C38.6759 26.0726 38.2819 26.703 38.2819 27.5697C38.3213 29.0669 38.8335 30.3276 39.976 31.3126C41.946 33.0067 44.5463 32.8097 45.9646 30.8004C46.3586 30.2488 46.6344 29.6185 46.8314 28.9881C47.186 27.8455 46.8708 26.7818 46.004 26.1908C44.9403 25.4422 43.7189 25.0088 42.3793 25.0088ZM57.9417 30.1306C57.9811 30.1306 58.0599 30.1306 58.0993 30.1306C58.2569 29.4609 58.4539 28.7517 58.4933 28.0819C58.5327 27.0182 57.7447 26.1908 56.5234 25.7968C55.0262 25.324 53.5291 25.4028 52.0714 25.915C51.047 26.2696 50.3378 27.0182 50.259 28.1607C50.2196 28.3971 50.259 28.6335 50.259 28.8699C50.2984 30.6034 51.2046 31.9824 52.6623 32.5339C54.2777 33.1249 56.09 32.7309 57.1932 31.4702C57.3902 31.2732 57.4295 30.958 57.5083 30.6822C57.5871 30.4064 57.6265 30.1306 57.7053 29.8942C57.7447 29.8942 57.7841 29.8942 57.8235 29.9336C57.8629 29.973 57.9023 30.0518 57.9417 30.1306Z" stroke="white" stroke-width="6" mask="url(#path-6-outside-1_2_751)"/>
<path d="M57.6266 24.6154C57.3508 23.3153 57.075 22.0545 56.8386 20.7544C56.6416 19.4936 56.5234 18.1935 56.3264 16.9327C56.2476 16.4599 55.9324 16.0266 55.6961 15.6326C55.5385 15.3962 55.3415 15.3174 55.0657 15.5144C54.1595 16.1054 53.1746 16.1842 52.1108 16.0266C51.3622 15.9084 50.5743 15.9478 49.8257 15.8296C47.5406 15.5144 45.4919 14.6082 43.5613 13.3081C43.0492 12.9535 42.537 12.6777 41.9066 12.7565C41.2762 12.7959 40.764 13.0323 40.4489 13.6233C39.0699 16.1054 38.2425 18.7844 37.8486 21.6211C37.691 22.6455 37.6122 23.6305 37.494 24.7336C36.9424 24.2608 36.5878 23.7093 36.509 23.0395C36.3908 22.0545 36.2726 21.0302 36.1938 20.0452C36.0756 18.8238 35.9968 17.6419 35.918 16.4205C35.8392 14.884 36.5484 13.7808 37.888 13.1111C38.5971 12.7565 39.3457 12.5595 40.0943 12.2443C39.9761 11.9291 39.8185 11.5351 39.6609 11.1412C39.2275 9.72281 39.5427 8.50146 40.7246 7.63469C41.7884 6.88612 42.6158 5.90116 43.5219 4.995C43.6007 4.9162 43.7189 4.79801 43.8765 4.56161C43.9553 5.0344 43.9947 5.38898 44.0341 5.78297C44.3493 5.58598 44.6251 5.42838 45.0191 5.19199C44.9403 5.54658 44.9009 5.78297 44.8615 6.13755C45.6495 5.90116 46.3586 5.66477 47.1466 5.42838C47.1072 5.74357 47.0678 5.97996 47.0284 6.37394C47.8558 5.58598 48.6043 4.8768 49.3529 4.20703C49.3923 4.20703 49.4317 4.24643 49.4317 4.24643C49.3529 4.71921 49.2347 5.19199 49.1559 5.66477C49.5105 5.74357 49.9439 5.70417 50.1409 5.90116C50.4561 6.21635 50.0621 6.49214 49.8257 6.80732C50.8894 7.00432 51.9532 6.29514 53.017 7.00432C52.623 7.24071 52.3078 7.3983 51.9926 7.59529C51.9926 7.63469 51.9926 7.67409 51.9926 7.71349C52.426 7.71349 52.8594 7.75289 53.2927 7.71349C53.5685 7.67409 53.8049 7.59529 54.0807 7.4771C55.0657 7.00432 55.6566 7.71349 56.3264 8.18627C56.4052 8.26507 56.4446 8.38327 56.5628 8.54086C56.2476 8.61966 55.9718 8.65905 55.7354 8.73785C55.7354 8.77725 55.7354 8.77725 55.7354 8.81665C55.9324 8.85604 56.1688 8.89544 56.3658 8.89544C56.9174 8.97424 56.9962 9.13183 56.681 9.64401C56.9568 9.60461 57.2326 9.60461 57.469 9.56521C57.7448 10.1562 57.7448 10.1562 56.9962 10.6684C57.3902 11.4563 57.3902 11.4563 58.0994 11.6533C57.7842 11.9291 57.5084 12.1655 57.1538 12.4807C57.5872 12.8353 58.0206 13.1899 58.4539 13.5445C58.3358 13.6627 58.2569 13.7808 58.1782 13.899C58.1782 13.9384 58.1782 13.9778 58.1782 13.9778C58.7297 14.6082 58.6509 15.3962 58.6509 16.1842C58.6115 17.0903 58.6903 17.9965 58.6903 18.9026C58.6903 20.0452 58.4933 21.1878 58.0994 22.2909C57.8236 23.0789 57.8236 23.9456 57.7054 24.7336C57.7054 24.6154 57.666 24.6154 57.6266 24.6154Z" fill="black"/>
<path d="M32.8669 47.8049L32.8559 47.8047H32.8449C32.5693 47.8047 32.311 47.8319 32.0517 47.8592C31.958 47.8691 31.8642 47.879 31.7694 47.8876L31.7594 47.8885L31.7495 47.8896L31.7265 47.8922C31.032 47.9693 30.2776 48.0531 29.5155 48.2225C29.1502 48.3037 28.7852 48.4967 28.5115 48.8299C28.2338 49.1681 28.1021 49.5874 28.1021 50.026V50.0676L28.1055 50.1091C28.1321 50.4286 28.2055 50.7958 28.4143 51.1402C28.6336 51.5021 28.9499 51.7538 29.3186 51.9214L29.3396 51.9309L29.361 51.9395C29.6446 52.0529 29.9192 52.1077 30.1047 52.1447C30.1124 52.1462 30.1199 52.1477 30.1273 52.1492L30.1486 52.1534L30.1701 52.1568C30.9559 52.2787 31.7295 52.3898 32.4965 52.5C34.0059 52.7167 35.49 52.9299 36.9924 53.2148L36.996 53.2155C43.0585 54.3425 48.9331 56.2088 54.5813 58.6622C55.1442 58.9165 55.8332 59.0633 56.4446 59.0633C57.0397 59.0633 57.5984 58.9048 58.0741 58.5742C58.5433 58.2482 58.8779 57.7924 59.096 57.2783C59.3317 56.7433 59.3917 56.1893 59.265 55.6485C59.1422 55.1248 58.8611 54.6832 58.527 54.3207C57.7937 53.489 56.8287 53.106 56.0811 52.8305L56.0811 52.8305L56.0735 52.8278C51.9813 51.3578 47.8414 50.1233 43.6157 49.2064L43.6157 49.2063L43.6041 49.2039C40.1195 48.4912 36.5431 47.8857 32.8669 47.8049ZM56.102 55.9281C56.1019 55.9307 56.1018 55.9333 56.1017 55.9358C56.1011 55.9493 56.0998 55.9625 56.0979 55.9752C56.084 56.0698 56.0382 56.141 55.9993 56.18C55.9616 56.2177 55.9023 56.2553 55.8142 56.2641C55.8022 56.2653 55.7896 56.266 55.7765 56.266C55.7759 56.266 55.7753 56.266 55.7748 56.266C55.6541 56.266 55.5755 56.215 55.5355 56.1751C55.5002 56.1397 55.456 56.0738 55.4464 55.9752C55.4454 55.9643 55.4448 55.953 55.4446 55.9412C55.4446 55.9394 55.4446 55.9376 55.4446 55.9358C55.4446 55.8557 55.4744 55.7832 55.5264 55.7266C55.5653 55.6844 55.6264 55.6419 55.7047 55.6203C55.7215 55.6156 55.7392 55.6119 55.7575 55.6094C55.7634 55.6096 55.7691 55.6099 55.7748 55.6103C55.7883 55.6113 55.8014 55.613 55.8142 55.6154C55.8782 55.6273 55.9329 55.6557 55.9751 55.6917C56.0264 55.7354 56.0704 55.8002 56.0915 55.8766C56.0962 55.8932 56.0997 55.9105 56.102 55.9281Z" fill="black" stroke="white" stroke-width="2"/>
<path d="M29.8819 49.3387L30.1401 48.1768L28.9512 48.1228C28.0847 48.0834 27.2281 48.044 26.3712 48.0046L26.3711 48.0046C25.5142 47.9652 24.657 47.9258 23.79 47.8864L23.7673 47.8853H23.7446C23.6584 47.8853 23.5562 47.8883 23.4757 47.8907C23.4432 47.8916 23.4143 47.8925 23.3914 47.893C23.291 47.8952 23.2204 47.8942 23.1614 47.8891C23.0792 47.8819 23.0396 47.8685 23.0123 47.8528C22.7666 47.6574 22.5021 47.6076 22.379 47.59C22.2419 47.5705 22.1037 47.57 22.033 47.5701C21.6065 47.5507 21.1708 47.5314 20.7357 47.512L20.7356 47.512C20.2944 47.4924 19.8538 47.4728 19.423 47.4533C18.0697 47.3748 16.7061 47.2865 15.3385 47.1979L15.3368 47.1978C13.9737 47.1096 12.6065 47.0211 11.2486 46.9423C10.3253 46.8624 9.36254 46.8189 8.38227 46.9032C7.88898 46.9365 7.36297 47.1129 7.00514 47.5946C6.6826 48.0288 6.63059 48.5422 6.63059 48.9247C6.63059 49.1128 6.63354 49.2798 6.63622 49.432C6.64286 49.8086 6.6479 50.095 6.60283 50.388L6.6003 50.4044L6.59832 50.4209C6.52756 51.0106 6.56002 51.7088 7.00732 52.2679C7.46683 52.8423 8.15263 53.0111 8.76921 53.0363C13.0273 53.2334 17.2846 53.3911 21.5365 53.5485L21.5377 53.5486C22.1427 53.5743 22.7885 53.4499 23.2834 52.9765C23.7707 52.5104 23.9302 51.8777 23.9556 51.2927L23.9566 51.271V51.2675C25.5798 51.3965 27.16 51.5255 28.7414 51.6546L28.7456 51.6549L29.994 51.7569L29.8169 50.5168C29.8103 50.4708 29.8042 50.4286 29.7986 50.3897C29.7645 50.1528 29.7482 50.0394 29.7482 49.9491C29.7482 49.9397 29.7495 49.905 29.7736 49.7967C29.785 49.7454 29.7984 49.6902 29.8163 49.6169L29.8194 49.6043C29.838 49.5282 29.8598 49.4382 29.8819 49.3387Z" fill="black" stroke="white" stroke-width="2"/>
<path d="M88.3879 47.5665C87.9344 47.0533 87.2756 46.9291 86.7606 46.8685C86.555 46.8369 86.3775 46.8394 86.2466 46.8457C86.1605 46.8498 86.1155 46.8531 86.0838 46.8554C86.0498 46.8579 86.0311 46.8593 85.9937 46.8593H85.9654L85.9372 46.8609C83.8466 46.9792 81.7662 47.1074 79.6888 47.2354L79.6876 47.2355C77.6089 47.3636 75.5331 47.4914 73.4479 47.6095L73.3535 47.6148L73.2629 47.6375C73.2629 47.6375 73.2531 47.6396 73.2232 47.6444C73.2187 47.6451 73.2113 47.6462 73.202 47.6476C73.1712 47.6524 73.119 47.6604 73.0794 47.6674C73.0195 47.678 72.9317 47.6953 72.8358 47.7252C72.7402 47.7549 72.6104 47.805 72.4769 47.894L72.4675 47.9003L72.4582 47.9068C72.423 47.9315 72.3908 47.9458 72.3147 47.955C72.2683 47.9607 72.2092 47.9638 72.1226 47.9643C72.0795 47.9646 72.0343 47.9642 71.9812 47.9637L71.9648 47.9635C71.9211 47.9631 71.872 47.9625 71.822 47.9625C70.0692 47.923 68.2565 47.961 66.5014 48.2953L65.6172 48.4637L65.6919 49.3607C65.7097 49.574 65.7188 49.7812 65.7288 50.0146L65.7297 50.0352C65.7392 50.2587 65.7496 50.5051 65.7702 50.7727L65.8475 51.7779L66.8521 51.6924C68.3838 51.562 69.9417 51.4317 71.5708 51.3015C71.5809 51.3533 71.5927 51.4055 71.6064 51.4578C71.6452 51.997 71.7956 52.5885 72.257 53.0294C72.7643 53.5141 73.4291 53.6108 74.0188 53.5863L74.0194 53.5862C75.4139 53.5273 76.8091 53.4782 78.2083 53.4289L78.21 53.4288C79.6075 53.3796 81.0091 53.3303 82.4113 53.271L82.4113 53.2711L82.4216 53.2706C83.1625 53.2316 83.9045 53.2023 84.6542 53.1727L84.6576 53.1725C85.4035 53.1431 86.1571 53.1133 86.9117 53.0736C87.5093 53.0435 88.1076 52.8232 88.5214 52.3245C88.9376 51.8229 89.043 51.1898 88.9526 50.5871L88.9514 50.579L88.95 50.571C88.8872 50.1943 88.8848 49.767 88.8848 49.2777C88.8848 48.7636 88.8458 48.0846 88.3879 47.5665Z" fill="black" stroke="white" stroke-width="2"/>
<path d="M32.8455 38.1286C32.8455 39.3893 32.8455 40.6107 32.8455 41.8714C32.8455 43.1716 32.2939 43.8807 31.0332 44.1171C30.2452 44.2747 29.4573 44.2747 28.7087 43.9595C27.8025 43.6444 27.3691 43.014 27.3691 42.0684C27.3691 39.4287 27.3691 36.7496 27.3691 34.1099C27.3691 33.1644 27.8419 32.534 28.7087 32.2188C29.6148 31.9036 30.521 31.9036 31.4272 32.2188C32.3727 32.534 32.8455 33.2038 32.8455 34.1887C32.8455 35.4495 32.8455 36.789 32.8455 38.1286ZM30.521 38.0498C30.4816 38.0498 30.4816 38.0498 30.521 38.0498C30.521 36.8678 30.521 35.7253 30.521 34.5433C30.521 34.3857 30.5604 34.2281 30.4816 34.0705C30.4028 33.9129 30.2452 33.7159 30.127 33.7159C30.0088 33.7159 29.8512 33.9129 29.7724 34.0311C29.6936 34.1099 29.733 34.2675 29.733 34.3857C29.733 36.789 29.733 39.1923 29.733 41.5956C29.733 41.9108 29.6936 42.3048 30.127 42.3442C30.5604 42.3442 30.521 41.9502 30.521 41.635C30.521 41.5562 30.521 41.5168 30.521 41.438C30.521 40.3349 30.521 39.1923 30.521 38.0498Z" fill="black"/>
<path d="M10.7029 43.9211C9.87556 43.9211 9.16639 43.9211 8.37842 43.9211C8.37842 40.0206 8.37842 36.1202 8.37842 32.1016C9.63917 32.1804 10.8999 32.141 12.1607 32.2986C13.2638 32.4561 13.8154 33.2835 13.8548 34.4261C13.8548 34.8595 13.8548 35.2928 13.8548 35.6868C13.8154 36.593 13.4214 37.1446 12.5153 37.4204C12.4759 37.4204 12.3971 37.4598 12.3183 37.4992C13.579 37.8537 13.8154 38.1295 13.8154 39.4691C13.8154 40.5722 13.8548 41.6754 13.8942 42.7785C13.8942 43.1331 14.0518 43.5271 14.1306 43.9211C13.4214 43.9211 12.7122 43.9211 12.0031 43.9211C11.8849 43.9211 11.7273 43.7635 11.6879 43.6453C11.6091 43.1725 11.4909 42.6997 11.4909 42.1876C11.4515 41.2026 11.4909 40.2176 11.4515 39.2327C11.4515 38.6417 11.2545 38.4841 10.6635 38.4447C10.7029 40.2964 10.7029 42.0694 10.7029 43.9211ZM10.7423 37.0658C11.3727 37.1052 11.4909 37.0264 11.5303 36.4748C11.5697 35.805 11.5697 35.1746 11.5303 34.5049C11.5303 33.9533 11.3333 33.8351 10.7423 33.9533C10.7423 34.9777 10.7423 36.002 10.7423 37.0658Z" fill="black"/>
<path d="M66.9637 32.2191C68.1457 32.2191 69.2882 32.1403 70.3914 32.2585C71.7309 32.3767 72.4007 33.2435 72.4007 34.583C72.4007 34.977 72.4007 35.3316 72.4007 35.7256C72.3613 36.6317 71.9673 37.1833 71.0612 37.4591C71.0218 37.4591 70.943 37.4985 70.9824 37.4985C71.3369 37.7349 71.8097 37.8925 72.0461 38.2076C72.2825 38.5622 72.3219 39.0744 72.3613 39.5078C72.4401 40.611 72.4007 41.7535 72.4401 42.8567C72.4401 43.2113 72.5977 43.5658 72.6765 43.9598C71.9279 43.9598 71.2187 43.9598 70.549 43.9598C70.4308 43.9598 70.2732 43.8022 70.2338 43.684C70.155 43.2112 70.0762 42.7385 70.0368 42.3051C69.9974 41.3201 70.0368 40.3352 69.9974 39.3502C69.9974 38.7592 69.8004 38.6016 69.2488 38.5228C69.2488 40.3352 69.2488 42.1081 69.2488 43.9598C68.4609 43.9598 67.7123 43.9598 66.9243 43.9598C66.9637 40.02 66.9637 36.1195 66.9637 32.2191ZM69.3276 33.9132C69.3276 34.977 69.3276 36.0013 69.3276 37.0651C69.958 37.1045 70.0762 36.9863 70.1156 36.4347C70.1156 35.8043 70.1156 35.1346 70.1156 34.5042C70.0762 33.9526 69.9186 33.8344 69.3276 33.9132Z" fill="black"/>
<path d="M89.7369 36.3167C88.9884 36.3167 88.2398 36.3167 87.4518 36.3167C87.4518 35.7257 87.4518 35.1741 87.4518 34.5831C87.4518 34.4649 87.4912 34.3073 87.4518 34.2285C87.3336 34.0316 87.2154 33.874 87.0578 33.7164C86.9396 33.874 86.6639 34.0316 86.6639 34.1892C86.6245 35.1741 86.6639 36.1985 86.6639 37.144C87.176 37.0652 87.6488 36.9076 88.1216 36.9076C89.0278 36.9076 89.6187 37.4198 89.7369 38.326C89.8157 39.0352 89.8157 39.7837 89.8157 40.5323C89.8157 41.0445 89.8157 41.5567 89.8157 42.0294C89.8157 42.9356 89.3824 43.6054 88.5156 43.9206C87.57 44.2751 86.5457 44.2751 85.6001 43.9206C84.7727 43.6054 84.3394 43.0144 84.3394 42.1082C84.3394 39.4291 84.3394 36.7106 84.3394 34.0316C84.3394 33.0466 84.8121 32.4556 85.7577 32.1404C86.6639 31.8646 87.57 31.8646 88.4368 32.1404C89.146 32.3768 89.6975 32.8496 89.7763 33.6376C89.8157 34.5437 89.7369 35.4105 89.7369 36.3167ZM87.4518 40.6899C87.4518 40.2959 87.4912 39.9019 87.4518 39.5079C87.4124 39.311 87.2548 38.9958 87.0972 38.9564C86.7821 38.8776 86.7033 39.1928 86.6639 39.4685C86.6639 40.2959 86.6245 41.0839 86.6639 41.9112C86.6639 42.0688 86.9003 42.2658 87.0578 42.4234C87.176 42.2264 87.4124 42.0688 87.4518 41.8719C87.4912 41.4779 87.4518 41.0839 87.4518 40.6899Z" fill="black"/>
<path d="M21.1045 43.8819C21.1045 39.9814 21.1045 36.1204 21.1045 32.2593C22.3258 32.2593 23.5472 32.1412 24.7685 32.2987C25.9899 32.4169 26.5809 33.2443 26.5809 34.5051C26.5809 36.8296 26.5809 39.1541 26.5809 41.4786C26.5809 42.9757 26.0293 43.7243 24.5716 43.8819C23.429 44.0001 22.2864 43.8819 21.1045 43.8819ZM23.429 33.9141C23.429 36.7114 23.429 39.4693 23.429 42.2272C24.0594 42.306 24.217 42.1878 24.217 41.6756C24.217 39.2723 24.217 36.9084 24.217 34.5051C24.217 33.9535 24.0594 33.8353 23.429 33.9141Z" fill="black"/>
<path d="M2.15381 43.9594C2.15381 40.0195 2.15381 36.1585 2.15381 32.1792C3.49336 32.258 4.8723 31.9822 6.17245 32.4156C6.99981 32.652 7.4726 33.2824 7.59079 34.1491C7.66959 34.7795 7.63019 35.4099 7.59079 36.0403C7.512 36.9858 6.92102 37.498 6.01486 37.695C6.05425 37.7344 6.05425 37.7738 6.05425 37.7738C7.15741 37.9708 7.5514 38.7194 7.59079 39.7043C7.63019 40.4529 7.66959 41.2409 7.55139 42.0288C7.3938 43.329 6.72403 43.92 5.42388 43.9988C5.18749 43.9988 4.99049 43.9988 4.7541 43.9988C3.92673 43.9594 3.05997 43.9594 2.15381 43.9594ZM4.47831 42.1864C5.14809 42.2652 5.26628 42.1864 5.26628 41.556C5.26628 40.7681 5.26628 39.9407 5.26628 39.1527C5.26628 38.5618 5.06929 38.4436 4.47831 38.6012C4.47831 39.8225 4.47831 41.0045 4.47831 42.1864ZM4.47831 37.0252C5.10869 37.104 5.26628 36.9858 5.26628 36.4343C5.26628 35.7645 5.26628 35.1341 5.26628 34.4643C5.26628 33.9522 4.99049 33.7946 4.47831 33.9522C4.47831 34.9371 4.47831 35.9615 4.47831 37.0252Z" fill="black"/>
<path d="M64.5609 37.6564C64.6003 37.6958 64.6003 37.6958 64.6397 37.7352C65.7823 37.9322 66.1368 38.7596 66.1762 39.7445C66.2156 40.4537 66.2156 41.2023 66.1368 41.9114C66.0187 43.1722 65.3883 43.7632 64.1669 43.9208C63.9305 43.9602 63.7335 43.9602 63.4971 43.9602C62.591 43.9602 61.6848 43.9602 60.7393 43.9602C60.7393 40.0203 60.7393 36.1593 60.7393 32.1406C62 32.2194 63.2608 32.18 64.4821 32.3376C65.5853 32.4952 66.1368 33.3226 66.1762 34.4651C66.1762 34.7803 66.1762 35.0561 66.1762 35.3713C66.1762 36.7502 65.8611 37.1836 64.5609 37.6564ZM63.0638 38.602C63.0638 39.8233 63.0638 41.0053 63.0638 42.2266C63.7335 42.3054 63.8517 42.2266 63.8517 41.5962C63.8517 40.8083 63.8517 40.0203 63.8517 39.2323C63.8517 38.5626 63.7335 38.4838 63.0638 38.602ZM63.0638 33.9136C63.0638 34.9379 63.0638 36.0017 63.0638 37.026C63.6941 37.0654 63.8123 36.9472 63.8517 36.3957C63.8517 35.7653 63.8517 35.0955 63.8517 34.4651C63.8123 33.953 63.6153 33.8348 63.0638 33.9136Z" fill="black"/>
<path d="M92.1398 38.7189C92.1398 38.0885 92.1398 37.537 92.1398 36.946C92.4156 36.946 92.6914 36.946 92.9671 36.946C93.3611 36.946 93.5975 36.749 93.5975 36.355C93.5975 35.6458 93.6369 34.9367 93.5975 34.2275C93.5975 34.0699 93.3611 33.8729 93.2035 33.7153C93.0853 33.8729 92.849 34.0305 92.8096 34.2275C92.7308 34.6609 92.7702 35.1337 92.7702 35.6064C92.7702 35.8428 92.7702 36.1186 92.7702 36.3944C91.9822 36.3944 91.273 36.3944 90.4062 36.3944C90.4456 35.4094 90.4457 34.3851 90.5639 33.4001C90.6427 32.8092 91.1548 32.4152 91.7458 32.2182C92.6914 31.903 93.6369 31.8636 94.5825 32.2182C95.4099 32.494 95.8826 33.1243 95.922 34.0305C95.9614 34.6609 95.922 35.2913 95.922 35.9216C95.8826 36.9066 95.4887 37.6158 94.3067 37.8127C94.5037 37.8915 94.5825 37.9309 94.6613 37.9703C95.3705 38.1673 95.8038 38.6401 95.8432 39.3493C95.922 40.3736 95.922 41.398 95.8826 42.4224C95.8432 43.2103 95.3705 43.7619 94.6219 44.0377C93.6369 44.3923 92.6914 44.3923 91.7064 44.0377C91.0366 43.8013 90.5245 43.2891 90.4851 42.5406C90.4063 41.5162 90.4851 40.4918 90.4851 39.4281C91.2336 39.4281 91.9822 39.4281 92.7702 39.4281C92.7702 40.1373 92.7702 40.8464 92.7702 41.5556C92.7702 41.7526 92.7702 41.989 92.849 42.1466C92.8884 42.2648 93.0853 42.4618 93.1641 42.4618C93.3217 42.4224 93.4399 42.2648 93.5581 42.1072C93.6369 42.0284 93.5975 41.8708 93.5975 41.7526C93.5975 41.0434 93.5975 40.3343 93.5975 39.6251C93.5975 38.9947 93.4005 38.8371 92.7702 38.7977C92.5732 38.7189 92.3762 38.7189 92.1398 38.7189Z" fill="black"/>
<path d="M19.2532 32.2188C19.726 36.1192 20.1988 40.0196 20.6716 43.9201C19.8442 43.9201 19.0956 43.9201 18.2289 43.9201C18.1501 42.8563 18.0319 41.832 17.9531 40.8076C17.8743 40.7682 17.8743 40.7288 17.8349 40.7288C16.8893 40.65 16.8893 40.65 16.7711 41.5956C16.6529 42.3441 16.5741 43.1321 16.4953 43.9201C15.7862 43.9201 15.1164 43.9201 14.4072 43.9201C14.9982 40.0196 15.5498 36.1192 16.1408 32.2188C17.1651 32.2188 18.1501 32.2188 19.2532 32.2188ZM17.7955 38.9953C17.6773 37.4587 17.5985 36.001 17.5197 34.5039C17.4803 34.5039 17.4409 34.5039 17.4015 34.5039C17.2833 36.001 17.1651 37.4587 17.0469 38.9953C17.2439 38.9953 17.3621 39.0347 17.4803 39.0347C17.5591 39.0347 17.6379 39.0347 17.7955 38.9953Z" fill="black"/>
<path d="M75.6316 42.2653C76.3014 42.2653 76.9318 42.2653 77.6016 42.2653C77.6016 42.8169 77.6016 43.3685 77.6016 43.9201C76.1832 43.9201 74.7649 43.9201 73.3071 43.9201C73.3071 40.059 73.3071 36.1586 73.3071 32.2188C74.7255 32.2188 76.1438 32.2188 77.6016 32.2188C77.6016 32.7703 77.6016 33.2825 77.6016 33.8735C76.9318 33.8735 76.3014 33.8735 75.6316 33.8735C75.6316 34.7796 75.6316 35.6464 75.6316 36.592C76.262 36.592 76.8924 36.592 77.5228 36.592C77.5228 37.1829 77.5228 37.6951 77.5228 38.2861C76.8924 38.2861 76.3014 38.2861 75.6316 38.2861C75.6316 39.5863 75.6316 40.8864 75.6316 42.2653Z" fill="black"/>
<path d="M81.148 36.6316C81.3056 35.6467 81.4632 34.7011 81.6208 33.7162C81.6996 33.3222 81.739 32.8888 81.8178 32.4948C81.8572 32.3766 82.0148 32.1796 82.133 32.1796C82.6845 32.1402 83.2755 32.1796 83.9059 32.1796C83.8665 32.3766 83.8271 32.4948 83.7877 32.6524C83.2755 34.3071 82.8027 35.9225 82.2906 37.5772C82.2118 37.8924 82.1724 38.2076 82.1724 38.4834C82.1724 40.2563 82.1724 42.0686 82.1724 43.8809C81.3844 43.8809 80.6358 43.8809 79.8085 43.8809C79.8085 43.7628 79.8085 43.6052 79.8085 43.4476C79.8085 42.3838 79.7691 41.3201 79.8085 40.2563C79.8872 38.7198 79.6509 37.262 79.0993 35.8437C78.6659 34.6617 78.3113 33.4798 77.8779 32.1796C78.6659 32.1796 79.4539 32.1796 80.2024 32.1796C80.2812 32.1796 80.36 32.3766 80.36 32.4948C80.5964 33.8737 80.7934 35.2133 81.0298 36.5922C81.0692 36.6316 81.1086 36.6316 81.148 36.6316Z" fill="black"/>
<path d="M56.445 55.9373C56.445 56.2919 56.1692 56.6071 55.8146 56.6071C55.4207 56.6465 55.1055 56.3313 55.1055 55.9767C55.1055 55.6222 55.4206 55.2676 55.7752 55.2676C56.0904 55.2676 56.4056 55.5828 56.445 55.9373Z" fill="white"/>
<path d="M21.3803 49.1212C21.4591 49.594 21.3015 49.6728 20.9469 49.6728C16.7313 49.4364 12.5156 49.2394 8.33939 49.0424C8.29999 49.0424 8.29999 49.003 8.22119 49.003C8.37879 48.5302 8.73337 48.3726 9.20615 48.412C10.9397 48.5302 12.6732 48.609 14.4461 48.7272C16.5343 48.8454 18.6618 48.9636 20.7499 49.1212C20.9075 49.0818 21.1439 49.0818 21.3803 49.1212Z" fill="white"/>
<path d="M87.2544 48.923C82.96 49.1594 78.7443 49.3958 74.5287 49.6322C74.1347 49.6716 74.0165 49.514 74.0953 49.0806C74.8439 49.0412 75.6318 48.9624 76.4198 48.923C79.5717 48.726 82.6842 48.5684 85.836 48.3714C86.033 48.3714 86.23 48.332 86.4664 48.332C86.821 48.3714 87.0968 48.5684 87.2544 48.923Z" fill="white"/>
<path d="M39.7795 55.2676C40.1735 55.2676 40.4493 55.5828 40.4493 55.9767C40.4493 56.3313 40.1341 56.6071 39.7795 56.6071C39.425 56.6071 39.1098 56.3313 39.1098 55.9767C39.0704 55.5828 39.3856 55.2676 39.7795 55.2676Z" fill="white"/>
<path d="M20.0801 58.2207V55.6992H20.5135L21.065 57.0782L21.6166 55.6992H22.05V58.2207H21.5772V56.8418L21.1438 57.9055H20.9862L20.5529 56.8418V58.2207H20.0801Z" fill="white"/>
<path d="M22.4835 58.9315L22.4441 58.4981C22.5229 58.4981 22.5623 58.4981 22.6017 58.4981C22.6411 58.4981 22.6805 58.4981 22.7199 58.4587C22.7592 58.4587 22.7986 58.4193 22.7986 58.4193C22.7986 58.4193 22.838 58.3799 22.838 58.3405C22.838 58.3011 22.838 58.2617 22.838 58.2223C22.838 58.1829 22.838 58.1435 22.7986 58.0647L22.2471 55.7402H22.7593L22.9956 56.8828L23.1532 57.6708L23.2714 56.8828L23.4684 55.7402H24.02L23.429 58.2617C23.3896 58.3799 23.3896 58.4981 23.3502 58.5769C23.3108 58.6557 23.2714 58.7345 23.232 58.7739C23.1926 58.8133 23.1138 58.8527 23.035 58.8921C22.9562 58.9315 22.8774 58.9315 22.7986 58.9315C22.7198 58.9315 22.6411 58.9315 22.4835 58.9315Z" fill="white"/>
<path d="M24.1382 58.2223L24.6898 56.9616L24.1776 55.7402H24.7292L25.2019 56.9222H25.2413V55.7402H25.7141V56.9222H25.7535L26.2263 55.7402H26.7779L26.2263 56.9616L26.8173 58.2223H26.2657L25.7535 57.001H25.7141V58.2223H25.2413V57.001H25.2019L24.6898 58.2223H24.1382Z" fill="white"/>
<path d="M27.8025 58.2604C27.5267 58.2604 27.3297 58.1817 27.1721 58.0241C27.0145 57.8665 26.9751 57.6301 26.9751 57.3149V56.6057C26.9751 56.2905 27.0539 56.0541 27.1721 55.8965C27.2903 55.7389 27.4873 55.6602 27.8025 55.6602C28.0783 55.6602 28.2752 55.739 28.3934 55.8571C28.5116 55.9753 28.5904 56.1723 28.5904 56.4481V56.6451H28.0389V56.4481C28.0389 56.3299 28.0389 56.2511 27.9995 56.1723C27.9601 56.1329 27.9207 56.0935 27.8419 56.0935C27.7631 56.0935 27.6843 56.1329 27.6843 56.1723C27.6449 56.2511 27.6449 56.3299 27.6449 56.4875V57.3937C27.6449 57.5513 27.6449 57.6695 27.6843 57.7089C27.7237 57.7483 27.7631 57.7877 27.8419 57.7877C27.9207 57.7877 27.9601 57.7483 27.9995 57.7089C28.0389 57.6695 28.0389 57.5907 28.0389 57.4725V57.1967H28.5904V57.4331C28.5904 57.7089 28.5116 57.9059 28.3934 58.0241C28.2358 58.1817 28.0389 58.2604 27.8025 58.2604Z" fill="white"/>
<path d="M28.9448 58.2207V55.6992H29.5358V56.7236H29.654L30.0874 55.6992H30.7178L30.2056 56.8812L30.7178 58.1813H30.0874L29.654 57.0388H29.5358V58.1813H28.9448V58.2207Z" fill="white"/>
<path d="M31.4266 58.2604C31.269 58.2604 31.1508 58.1816 31.0326 58.0635C30.9144 57.9453 30.875 57.7877 30.875 57.6695C30.875 57.5119 30.9144 57.3937 30.9538 57.2755C30.9932 57.1573 31.072 57.0785 31.1902 56.9997C31.3084 56.9209 31.3872 56.8815 31.466 56.8421C31.5448 56.8027 31.663 56.7633 31.7812 56.6845C31.8206 56.6845 31.86 56.6451 31.86 56.6451V56.4481C31.86 56.3299 31.86 56.2511 31.8206 56.2117C31.7812 56.1723 31.7418 56.1329 31.663 56.1329C31.5448 56.1329 31.466 56.2117 31.466 56.4087V56.5663L30.9144 56.5269V56.4875C30.9144 56.4481 30.9144 56.4481 30.9144 56.4481C30.9144 56.1723 30.9932 55.9753 31.1508 55.8571C31.269 55.739 31.466 55.6602 31.7418 55.6602C31.9782 55.6602 32.1752 55.739 32.2933 55.8571C32.4115 55.9753 32.4903 56.1723 32.4903 56.4087V57.5513C32.4903 57.7483 32.4903 57.9453 32.5297 58.1817H31.9782C31.9388 58.0241 31.9388 57.9059 31.8994 57.8271C31.86 57.9453 31.8206 58.0241 31.7418 58.1029C31.663 58.221 31.5448 58.2604 31.4266 58.2604ZM31.663 57.7877C31.7024 57.7877 31.7418 57.7877 31.7812 57.7483C31.8206 57.7089 31.86 57.6695 31.8994 57.6301V56.9603C31.6236 57.1179 31.466 57.3149 31.466 57.5119C31.466 57.5907 31.466 57.6695 31.5054 57.7089C31.5448 57.7483 31.5842 57.7877 31.663 57.7877Z" fill="white"/>
<path d="M32.7271 58.2207L33.1604 57.157C32.924 57.0782 32.8452 56.8418 32.8452 56.4872C32.8452 56.2114 32.924 56.0144 33.0816 55.8962C33.2392 55.778 33.4756 55.6992 33.8302 55.6992H34.5V58.2207H33.909V57.2752C33.8696 57.2752 33.7908 57.2752 33.712 57.2752L33.3574 58.2207H32.7271ZM33.8696 56.9206L33.909 56.0538H33.8696C33.6726 56.0538 33.5544 56.0932 33.4756 56.172C33.3968 56.2508 33.3574 56.3296 33.3574 56.4872C33.3574 56.6448 33.3968 56.763 33.4756 56.8418C33.5544 56.8812 33.6726 56.9206 33.8696 56.9206Z" fill="white"/>
<path d="M61.291 58.1817V55.6602H62.9064V58.1817H62.3154V56.0935H61.882V58.1817H61.291Z" fill="white"/>
<path d="M63.8519 58.2604C63.6943 58.2604 63.5761 58.1816 63.4579 58.0635C63.3397 57.9453 63.3003 57.7877 63.3003 57.6695C63.3003 57.5119 63.3397 57.3937 63.3791 57.2755C63.4185 57.1573 63.4973 57.0785 63.6155 56.9997C63.7337 56.9209 63.8125 56.8815 63.8913 56.8421C63.9701 56.8027 64.0883 56.7633 64.2065 56.6845C64.2459 56.6845 64.2853 56.6451 64.2853 56.6451V56.4481C64.2853 56.3299 64.2853 56.2511 64.2459 56.2117C64.2065 56.1723 64.1671 56.1329 64.0883 56.1329C63.9701 56.1329 63.8913 56.2117 63.8913 56.4087V56.5663L63.3397 56.5269V56.4875C63.3397 56.4481 63.3397 56.4481 63.3397 56.4481C63.3397 56.1723 63.4185 55.9753 63.5761 55.8571C63.6943 55.739 63.8913 55.6602 64.1671 55.6602C64.4035 55.6602 64.6004 55.739 64.7186 55.8571C64.8368 55.9753 64.9156 56.1723 64.9156 56.4087V57.5513C64.9156 57.7483 64.9156 57.9453 64.955 58.1817H64.4034C64.364 58.0241 64.3641 57.9059 64.3247 57.8271C64.2853 57.9453 64.2459 58.0241 64.1671 58.1029C64.0489 58.221 63.9701 58.2604 63.8519 58.2604ZM64.0489 57.7877C64.0883 57.7877 64.1277 57.7877 64.1671 57.7483C64.2065 57.7089 64.2459 57.6695 64.2853 57.6301V56.9209C64.0095 57.0785 63.8519 57.2755 63.8519 57.4725C63.8519 57.5513 63.8519 57.6301 63.8913 57.6695C63.9307 57.7483 64.0095 57.7877 64.0489 57.7877Z" fill="white"/>
<path d="M65.3096 59.0094V55.6605H65.9005V55.8575C66.0581 55.6999 66.2157 55.6211 66.4127 55.6211C66.4915 55.6211 66.5703 55.6605 66.6491 55.6999C66.7279 55.7393 66.7673 55.7787 66.8067 55.8575C66.8461 55.8969 66.8855 55.9757 66.8855 56.0545C66.9249 56.1333 66.9249 56.2121 66.9249 56.2909C66.9249 56.3697 66.9249 56.4485 66.9249 56.4879V57.3152C66.9249 57.4334 66.9249 57.5516 66.8855 57.6698C66.8461 57.788 66.8461 57.8668 66.7673 57.9456C66.7279 58.0244 66.6491 58.1032 66.5703 58.1426C66.4915 58.182 66.4127 58.2214 66.2945 58.2214C66.1369 58.2214 65.9793 58.1426 65.8217 57.985V59.0094H65.3096V59.0094ZM66.1763 57.8274C66.2157 57.8274 66.2551 57.8274 66.2945 57.788C66.3339 57.7486 66.3339 57.7092 66.3733 57.6698C66.3733 57.6304 66.4127 57.591 66.4127 57.5122C66.4127 57.4728 66.4127 57.394 66.4127 57.3152V56.4485C66.4127 56.4091 66.4127 56.3303 66.4127 56.2909C66.4127 56.2515 66.4127 56.2121 66.3733 56.1727C66.3733 56.1333 66.3339 56.0939 66.2945 56.0939C66.2551 56.0545 66.2157 56.0545 66.1763 56.0545C66.0975 56.0545 66.0187 56.0939 65.9399 56.1727V57.7486C65.9793 57.788 66.0581 57.8274 66.1763 57.8274Z" fill="white"/>
<path d="M67.3584 58.1817V55.6602H67.8312V57.1573L68.5404 55.6602H69.0131V58.1817H68.5404V56.6845L67.8312 58.1817H67.3584Z" fill="white"/>
<path d="M69.4858 58.1817V55.6602H70.0768V56.6845H70.195L70.6284 55.6602H71.2588L70.7466 56.8421L71.2588 58.1423H70.6284L70.195 56.9997H70.0768V58.1423H69.4858V58.1817Z" fill="white"/>
<path d="M71.4556 58.1817V55.6602H71.8889L72.4405 57.0391L72.9921 55.6602H73.4255V58.1817H72.9527V56.8027L72.5193 57.8665H72.3617L71.9283 56.8027V58.1817H71.4556Z" fill="white"/>
<path d="M74.3709 58.2604C74.2133 58.2604 74.0951 58.1816 73.9769 58.0635C73.8587 57.9453 73.8193 57.7877 73.8193 57.6695C73.8193 57.5119 73.8587 57.3937 73.8981 57.2755C73.9375 57.1573 74.0163 57.0785 74.1345 56.9997C74.2527 56.9209 74.3315 56.8815 74.4103 56.8421C74.4891 56.8027 74.6073 56.7633 74.7255 56.6845C74.7649 56.6845 74.8043 56.6451 74.8043 56.6451V56.4481C74.8043 56.3299 74.8043 56.2511 74.7649 56.2117C74.7255 56.1723 74.6861 56.1329 74.6073 56.1329C74.4891 56.1329 74.4103 56.2117 74.4103 56.4087V56.5663L73.8587 56.5269V56.4875V56.4481C73.8587 56.1723 73.9375 55.9753 74.0951 55.8571C74.2133 55.739 74.4103 55.6602 74.6861 55.6602C74.9225 55.6602 75.1195 55.739 75.2377 55.8571C75.3559 55.9753 75.4347 56.1723 75.4347 56.4087V57.5513C75.4347 57.7483 75.4347 57.9453 75.4741 58.1817H74.9225C74.8831 58.0241 74.8831 57.9059 74.8437 57.8271C74.8043 57.9453 74.7649 58.0241 74.6861 58.1029C74.6073 58.221 74.4891 58.2604 74.3709 58.2604ZM74.6073 57.7877C74.6467 57.7877 74.6861 57.7877 74.7255 57.7483C74.7649 57.7089 74.8043 57.6695 74.8437 57.6301V56.9209C74.5679 57.0785 74.4103 57.2755 74.4103 57.4725C74.4103 57.5513 74.4103 57.6301 74.4497 57.6695C74.4891 57.7483 74.5285 57.7877 74.6073 57.7877Z" fill="white"/>
<path d="M75.6714 58.1817L76.223 56.8421L75.7108 55.6602H76.3018L76.6169 56.3693L76.8927 55.6602H77.4049L76.8533 56.9209L77.4443 58.1817H76.8533L76.4988 57.4331L76.223 58.1817H75.6714Z" fill="white"/>
<path d="M78.3903 58.2604C78.1146 58.2604 77.9176 58.1817 77.76 58.0241C77.6418 57.8665 77.563 57.6301 77.563 57.3149V56.6057C77.563 56.2905 77.6418 56.0541 77.76 55.8965C77.8782 55.7389 78.0752 55.6602 78.3903 55.6602C78.5479 55.6602 78.6661 55.6995 78.7843 55.7389C78.9025 55.7783 78.9813 55.8571 79.0207 55.9359C79.0601 56.0147 79.0995 56.1329 79.1389 56.2511C79.1783 56.3693 79.1783 56.5269 79.1783 56.6845V56.9997H78.1934V57.3937C78.1934 57.4331 78.1934 57.4725 78.1934 57.5119C78.1934 57.5513 78.1934 57.5907 78.1934 57.6301C78.1934 57.6695 78.1934 57.7089 78.2328 57.7089C78.2722 57.7089 78.2722 57.7483 78.2722 57.7877C78.2722 57.8271 78.3116 57.8271 78.351 57.8271C78.3904 57.8271 78.3903 57.8271 78.4297 57.8271C78.5085 57.8271 78.5479 57.7877 78.5873 57.7483C78.6267 57.7089 78.6267 57.6301 78.6267 57.5119V57.3543H79.1783V57.4725C79.1783 57.7483 79.0995 57.9453 78.9813 58.0635C78.8631 58.1816 78.6661 58.2604 78.3903 58.2604ZM78.1934 56.6845H78.6267V56.4481C78.6267 56.3299 78.6267 56.2117 78.5873 56.1723C78.5479 56.1329 78.5085 56.0935 78.4297 56.0935C78.3509 56.0935 78.3116 56.1329 78.2722 56.1723C78.2328 56.2117 78.2328 56.3299 78.2328 56.5269V56.6845H78.1934Z" fill="white"/>
<path d="M79.5723 59.0094V55.6605H80.1632V55.8575C80.3208 55.6999 80.4784 55.6211 80.6754 55.6211C80.7542 55.6211 80.833 55.6605 80.9118 55.6999C80.9906 55.7393 81.03 55.7787 81.0694 55.8575C81.1088 55.8969 81.1482 55.9757 81.1482 56.0545C81.1876 56.1333 81.1876 56.2121 81.1876 56.2909C81.1876 56.3697 81.1876 56.4485 81.1876 56.4879V57.3152C81.1876 57.4334 81.1876 57.5516 81.1482 57.6698C81.1088 57.788 81.1088 57.8668 81.03 57.9456C80.9906 58.0244 80.9118 58.1032 80.833 58.1426C80.7542 58.182 80.6754 58.2214 80.5572 58.2214C80.3996 58.2214 80.242 58.1426 80.0845 57.985V59.0094H79.5723V59.0094ZM80.439 57.8274C80.4784 57.8274 80.5178 57.8274 80.5572 57.788C80.5966 57.7486 80.5966 57.7092 80.636 57.6698C80.636 57.6304 80.6754 57.591 80.6754 57.5122C80.6754 57.4728 80.6754 57.394 80.6754 57.3152V56.4485C80.6754 56.4091 80.6754 56.3303 80.6754 56.2909C80.6754 56.2515 80.6754 56.2121 80.636 56.1727C80.636 56.1333 80.5966 56.0939 80.5572 56.0939C80.5178 56.0545 80.4784 56.0545 80.439 56.0545C80.3602 56.0545 80.2814 56.0939 80.2026 56.1727V57.7486C80.242 57.788 80.3208 57.8274 80.439 57.8274Z" fill="white"/>
<path d="M82.4089 58.2608C82.1331 58.2608 81.9361 58.182 81.7785 58.0244C81.6603 57.8668 81.5815 57.6304 81.5815 57.3152V56.5667C81.5815 56.2515 81.6603 56.0151 81.7785 55.8575C81.8967 55.6999 82.0937 55.6211 82.4089 55.6211C82.6847 55.6211 82.8817 55.6999 82.9999 55.8181C83.1181 55.9363 83.1969 56.1333 83.1969 56.4091V56.6061H82.6059V56.4091C82.6059 56.2909 82.6059 56.2121 82.5665 56.1333C82.5271 56.0939 82.4877 56.0545 82.4089 56.0545C82.3301 56.0545 82.2513 56.0939 82.2513 56.1333C82.2513 56.1727 82.2119 56.2909 82.2119 56.4485V57.3546C82.2119 57.5122 82.2119 57.6304 82.2513 57.6698C82.2907 57.7092 82.3301 57.7486 82.4089 57.7486C82.4877 57.7486 82.5271 57.7092 82.5665 57.6698C82.6059 57.6304 82.6059 57.5516 82.6059 57.4334V57.1576H83.1575V57.394C83.1575 57.6698 83.0787 57.8668 82.9605 57.985C82.8423 58.182 82.6453 58.2608 82.4089 58.2608Z" fill="white"/>
<path d="M83.5513 58.1817V55.6602H84.1422V56.6845H84.2604L84.6938 55.6602H85.3242L84.812 56.8421L85.3242 58.1423H84.6938L84.2604 56.9997H84.1422V58.1423H83.5513V58.1817Z" fill="white"/>
<path d="M86.033 58.2604C85.8754 58.2604 85.7572 58.1816 85.639 58.0635C85.5209 57.9453 85.4814 57.7877 85.4814 57.6695C85.4814 57.5119 85.5208 57.3937 85.5602 57.2755C85.5996 57.1573 85.6784 57.0785 85.7966 56.9997C85.9148 56.9209 85.9936 56.8815 86.0724 56.8421C86.1512 56.8027 86.2694 56.7633 86.3876 56.6845C86.427 56.6845 86.4664 56.6451 86.4664 56.6451V56.4481C86.4664 56.3299 86.4664 56.2511 86.427 56.2117C86.3876 56.1723 86.3482 56.1329 86.2694 56.1329C86.1512 56.1329 86.0724 56.2117 86.0724 56.4087V56.5663L85.5208 56.5269V56.4875V56.4481C85.5208 56.1723 85.5996 55.9753 85.7572 55.8571C85.8754 55.739 86.0724 55.6602 86.3482 55.6602C86.5846 55.6602 86.7816 55.739 86.8998 55.8571C87.018 55.9753 87.0968 56.1723 87.0968 56.4087V57.5513C87.0968 57.7483 87.0968 57.9453 87.1362 58.1817H86.5846C86.5452 58.0241 86.5452 57.9059 86.5058 57.8271C86.4664 57.9453 86.427 58.0241 86.3482 58.1029C86.2694 58.221 86.1512 58.2604 86.033 58.2604ZM86.23 57.7877C86.2694 57.7877 86.3088 57.7877 86.3482 57.7483C86.3876 57.7089 86.427 57.6695 86.4664 57.6301V56.9209C86.1906 57.0785 86.033 57.2755 86.033 57.4725C86.033 57.5513 86.033 57.6301 86.0724 57.6695C86.1118 57.7483 86.1906 57.7877 86.23 57.7877Z" fill="white"/>
<path d="M87.3335 58.1817L87.7669 57.1179C87.5305 57.0391 87.4517 56.8027 87.4517 56.4481C87.4517 56.1723 87.5305 55.9753 87.6881 55.8571C87.8457 55.739 88.0821 55.6602 88.4366 55.6602H89.1064V58.1817H88.5154V57.2361C88.4761 57.2361 88.3973 57.2361 88.3185 57.2361L87.9639 58.1817H87.3335ZM88.476 56.9209L88.5154 56.0541H88.476C88.2791 56.0541 88.1609 56.0935 88.0821 56.1723C88.0033 56.2511 87.9639 56.3299 87.9639 56.4875C87.9639 56.6451 88.0033 56.7633 88.0821 56.8421C88.1609 56.8815 88.2791 56.9209 88.476 56.9209Z" fill="white"/>
<path d="M31.0328 49.5938C31.3086 49.5938 31.5056 49.7907 31.5056 50.0665C31.5056 50.3423 31.3086 50.5393 31.0328 50.5393C30.7571 50.5393 30.5601 50.3423 30.5601 50.1059C30.5601 49.7907 30.7571 49.5938 31.0328 49.5938Z" fill="white"/>
<path d="M64.4034 49.5938C64.6792 49.5938 64.8762 49.7907 64.8762 50.0665C64.8762 50.3029 64.6792 50.4999 64.4034 50.4999C64.1276 50.4999 63.9307 50.3029 63.9307 50.0665C63.9307 49.7907 64.167 49.5938 64.4034 49.5938Z" fill="white"/>
</g>
</svg>
