<svg width="1920" height="596" viewBox="0 0 1920 596" fill="none" xmlns="http://www.w3.org/2000/svg">
<rect x="7.62939e-06" y="64.7866" width="1920" height="531" fill="black"/>
<path d="M0 122.23V8.28434C4.42582 8.7842 8.10651 9.7073 10.4134 10.8959C27.1592 10.8959 45.3122 9.93164 33.7731 12.262C36.3061 13.7084 51.9261 13.2263 59.2436 13.0656C65.9013 11.683 73.7139 10.824 81.8997 10.5745C86.9657 7.6013 100.193 14.5923 103.289 15.6771C103.289 14.753 125.101 11.4584 128.197 12.262C117.502 13.7486 128.197 15.3557 151.275 16.6414C146.209 19.4941 163.94 15.5968 175.057 16.0387C176.887 13.0656 196.025 18.8914 199.824 16.7218C206.719 18.8111 225.998 22.186 224.732 19.2932C229.657 18.6102 244.292 16.6012 249.639 18.3289C244.011 17.003 274.688 11.9004 274.688 14.3111C274.688 16.7218 299.455 19.695 299.455 13.7888C299.455 19.4137 324.081 12.7441 324.081 12.8245C324.081 12.9048 349.692 16.8423 349.692 15.8379C349.692 12.3825 373.474 9.32898 373.474 11.82C373.474 14.3111 398.663 12.3825 398.663 12.6638C398.663 16.6816 423.43 14.3513 423.43 11.82C423.43 10.2129 450.308 8.92719 450.308 13.7486C450.308 14.6727 472.823 11.82 472.823 9.73076C472.823 8.7263 494.072 1.6951 494.072 4.34686C494.072 4.34686 520.106 2.45849 520.106 3.78437C520.106 1.09243 545.295 0.0477915 545.295 0.851357C545.295 -0.996844 571.187 7.56113 571.187 6.91827C571.187 6.27542 595.532 6.91827 595.532 6.55667C595.532 7.32006 622.551 6.27543 622.551 5.47186C622.551 10.5745 634.512 15.3557 634.512 13.5075C634.512 9.48969 657.027 14.7932 657.027 15.9584C657.027 14.2307 681.513 16.6816 681.513 15.3155C681.513 11.2977 705.576 16.762 705.576 13.9495C705.576 11.137 729.921 13.9495 729.921 15.2352C729.921 14.8736 753.562 18.811 753.562 17.6057C753.562 19.8155 778.892 15.7977 778.892 16.5209C778.892 17.2441 802.111 21.7842 802.111 23.311C802.111 23.6324 827.722 17.445 827.722 21.1816C827.722 23.9539 852.63 19.5744 852.63 21.1816C852.63 22.7887 878.522 17.1637 878.522 23.5521C878.522 22.8289 901.46 17.6057 901.46 18.6102C901.46 17.6459 927.353 15.878 927.353 14.1504C927.353 15.4763 957.748 11.7397 957.748 14.512C957.748 9.52987 985.893 7.88256 985.893 12.4629C985.893 10.7754 1012.21 12.7441 1012.21 13.9093C1012.21 11.7799 1037.12 13.2263 1037.12 13.3066C1037.12 10.2933 1062.45 10.9763 1062.45 10.695C1062.45 14.1905 1086.93 13.5477 1086.93 14.9539C1086.93 14.07 1113.95 8.40487 1113.95 10.9361C1113.95 10.1325 1139.28 10.9361 1139.28 12.0209C1139.28 16.7218 1163.76 14.1102 1163.76 14.4718C1170.31 16.5397 1177.78 18.3502 1186 19.8557C1186 20.7798 1211.61 17.6057 1211.61 20.2173C1211.61 20.2173 1240.6 11.3781 1240.6 15.5566C1240.6 16.2396 1261.85 25.119 1261.85 23.0699C1261.85 21.0209 1286.75 23.0699 1286.75 25.0387C1286.75 27.0074 1313.07 25.0387 1313.07 25.561C1313.07 28.4137 1339.95 22.9896 1339.95 23.8333C1339.95 24.6771 1366.4 23.2307 1366.4 21.6235C1366.4 22.5476 1392.15 23.07 1392.15 24.2753C1392.15 24.8378 1418.19 22.0253 1418.19 22.3869C1418.19 22.7485 1444.22 19.1727 1444.22 25.1592C1444.22 24.4762 1469.83 23.9137 1469.83 20.2976C1469.83 17.9271 1496.57 24.9985 1496.57 25.4003C1496.57 30.9047 1521.9 23.8735 1521.9 21.3825C1521.9 25.119 1548.21 19.8959 1548.21 22.9896C1548.21 22.186 1573.69 16.8423 1573.69 19.8959C1573.69 22.0655 1598.45 21.5834 1598.45 21.1012C1598.45 22.6682 1623.64 24.2753 1623.64 24.3557C1623.64 31.9092 1648.13 26.244 1648.13 24.3557C1648.13 22.4673 1671.49 17.003 1671.49 18.0878C1671.49 13.387 1696.39 17.003 1696.39 20.378C1696.39 16.3602 1721.44 24.3958 1721.44 22.3467C1721.44 20.2976 1745.65 18.9718 1745.65 20.7396C1745.65 18.7709 1772.38 20.3378 1770.13 20.7396C1768.44 22.2262 1798.28 20.7396 1796.87 20.0566C1786.6 19.6146 1818.82 17.0432 1822.76 17.9271C1828.67 14.4316 1854.14 14.8736 1849.22 17.2441C1853.3 19.1727 1879.61 14.5522 1875.39 13.5477C1881.58 13.2664 1895.8 12.6236 1903.54 14.3914C1904.52 13.8289 1912.82 14.9138 1920 16.1593V122.23H0Z" fill="black"/>
</svg>
