<svg width="1920" height="122" viewBox="0 0 1920 122" fill="none" xmlns="http://www.w3.org/2000/svg">
<path d="M0 121.643V7.69693C4.42582 8.1968 8.10651 9.1199 10.4134 10.3085C27.1592 10.3085 45.3122 9.34425 33.7731 11.6746C36.3061 13.121 51.9261 12.6389 59.2436 12.4781C65.9013 11.0956 73.714 10.2366 81.8997 9.9871C86.9657 7.0139 100.193 14.0049 103.289 15.0897C103.289 14.1656 125.101 10.871 128.197 11.6746C117.502 13.1612 128.197 14.7683 151.275 16.054C146.209 18.9067 163.94 15.0094 175.057 15.4513C176.887 12.4781 196.025 18.304 199.824 16.1344C206.719 18.2236 225.998 21.5986 224.732 18.7058C229.657 18.0228 244.292 16.0138 249.639 17.7415C244.011 16.4156 274.688 11.313 274.688 13.7237C274.688 16.1344 299.455 19.1076 299.455 13.2014C299.455 18.8263 324.081 12.1567 324.081 12.2371C324.081 12.3174 349.692 16.2549 349.692 15.2505C349.692 11.7951 373.474 8.74157 373.474 11.2326C373.474 13.7237 398.663 11.7951 398.663 12.0764C398.663 16.0942 423.43 13.7639 423.43 11.2326C423.43 9.6255 450.308 8.33979 450.308 13.1612C450.308 14.0853 472.823 11.2326 472.823 9.14336C472.823 8.1389 494.072 1.1077 494.072 3.75946C494.072 3.75946 520.106 1.87109 520.106 3.19697C520.106 0.50502 545.295 -0.539612 545.295 0.263954C545.295 -1.58424 571.187 6.97372 571.187 6.33087C571.187 5.68802 595.532 6.33087 595.532 5.96927C595.532 6.73265 622.551 5.68803 622.551 4.88446C622.551 9.9871 634.512 14.7683 634.512 12.9201C634.512 8.90229 657.027 14.2058 657.027 15.371C657.027 13.6433 681.513 16.0942 681.513 14.7281C681.513 10.7103 705.576 16.1746 705.576 13.3621C705.576 10.5496 729.921 13.3621 729.921 14.6478C729.921 14.2862 753.562 18.2236 753.562 17.0183C753.562 19.2281 778.892 15.2103 778.892 15.9335C778.892 16.6567 802.111 21.1968 802.111 22.7236C802.111 23.045 827.722 16.8576 827.722 20.5942C827.722 23.3665 852.63 18.987 852.63 20.5942C852.63 22.2013 878.522 16.5763 878.522 22.9647C878.522 22.2415 901.46 17.0183 901.46 18.0228C901.46 17.0585 927.353 15.2906 927.353 13.563C927.353 14.8889 957.748 11.1523 957.748 13.9246C957.748 8.94247 985.893 7.29515 985.893 11.8755C985.893 10.188 1012.21 12.1567 1012.21 13.3219C1012.21 11.1925 1037.12 12.6389 1037.12 12.7192C1037.12 9.70585 1062.45 10.3889 1062.45 10.1076C1062.45 13.6031 1086.93 12.9603 1086.93 14.3665C1086.93 13.4826 1113.95 7.81747 1113.95 10.3487C1113.95 9.54514 1139.28 10.3487 1139.28 11.4335C1139.28 16.1344 1163.76 13.5228 1163.76 13.8844C1170.31 15.9523 1177.78 17.7628 1186 19.2683C1186 20.1924 1211.61 17.0183 1211.61 19.6299C1211.61 19.6299 1240.6 10.7907 1240.6 14.9692C1240.6 15.6522 1261.85 24.5316 1261.85 22.4825C1261.85 20.4335 1286.75 22.4825 1286.75 24.4513C1286.75 26.42 1313.07 24.4513 1313.07 24.9736C1313.07 27.8263 1339.95 22.4022 1339.95 23.2459C1339.95 24.0897 1366.4 22.6433 1366.4 21.0361C1366.4 21.9602 1392.15 22.4826 1392.15 23.6879C1392.15 24.2504 1418.19 21.4379 1418.19 21.7995C1418.19 22.1611 1444.22 18.5853 1444.22 24.5718C1444.22 23.8888 1469.83 23.3263 1469.83 19.7102C1469.83 17.3397 1496.57 24.4111 1496.57 24.8129C1496.57 30.3173 1521.9 23.2861 1521.9 20.7951C1521.9 24.5316 1548.21 19.3085 1548.21 22.4022C1548.21 21.5986 1573.69 16.2549 1573.69 19.3085C1573.69 21.4781 1598.45 20.9959 1598.45 20.5138C1598.45 22.0808 1623.64 23.6879 1623.64 23.7682C1623.64 31.3218 1648.13 25.6566 1648.13 23.7682C1648.13 21.8799 1671.49 16.4156 1671.49 17.5004C1671.49 12.7996 1696.39 16.4156 1696.39 19.7906C1696.39 15.7728 1721.44 23.8084 1721.44 21.7593C1721.44 19.7102 1745.65 18.3844 1745.65 20.1522C1745.65 18.1835 1772.38 19.7504 1770.13 20.1522C1768.44 21.6388 1798.28 20.1522 1796.87 19.4692C1786.6 19.0272 1818.82 16.4558 1822.76 17.3397C1828.67 13.8442 1854.14 14.2862 1849.22 16.6567C1853.3 18.5853 1879.61 13.9648 1875.39 12.9603C1881.58 12.679 1895.8 12.0362 1903.54 13.804C1904.52 13.2415 1912.82 14.3264 1920 15.5719V121.643H0Z" fill="black"/>
</svg>
