<svg width="499" height="290" viewBox="0 0 499 290" fill="none" xmlns="http://www.w3.org/2000/svg">
<path d="M498.23 69.4844C498.23 83.7069 498.23 97.485 498.23 111.708C498.23 126.375 492.008 134.375 477.785 137.041C468.896 138.819 460.007 138.819 451.563 135.264C441.34 131.708 436.451 124.597 436.451 113.93C436.451 84.1514 436.451 53.9284 436.451 24.1499C436.451 13.483 441.785 6.37178 451.563 2.81614C461.785 -0.739495 472.008 -0.739495 482.23 2.81614C492.897 6.37178 498.23 13.9275 498.23 25.0389C498.23 39.2614 498.23 54.3729 498.23 69.4844ZM472.008 68.5954C471.563 68.5954 471.563 68.5954 472.008 68.5954C472.008 55.2618 472.008 42.3726 472.008 29.0389C472.008 27.2611 472.452 25.4833 471.563 23.7054C470.674 21.9276 468.896 19.7054 467.563 19.7054C466.23 19.7054 464.452 21.9276 463.563 23.261C462.674 24.1499 463.118 25.9278 463.118 27.2612C463.118 54.3729 463.118 81.4846 463.118 108.596C463.118 112.152 462.674 116.596 467.563 117.041C472.452 117.041 472.008 112.596 472.008 109.041C472.008 108.152 472.008 107.707 472.008 106.819C472.008 94.3738 472.008 81.4846 472.008 68.5954Z" fill="white" fill-opacity="0.11"/>
<path d="M248.447 134.819C239.113 134.819 231.113 134.819 222.224 134.819C222.224 90.8178 222.224 46.8168 222.224 1.48242C236.446 2.37133 250.669 1.92688 264.892 3.7047C277.336 5.48252 283.559 14.816 284.003 27.7052C284.003 32.5942 284.003 37.4833 284.003 41.9278C283.559 52.1503 279.114 58.3726 268.892 61.4838C268.447 61.4838 267.558 61.9283 266.669 62.3728C280.892 66.3729 283.559 69.4841 283.559 84.5955C283.559 97.0403 284.003 109.485 284.448 121.93C284.448 125.93 286.225 130.374 287.114 134.819C279.114 134.819 271.114 134.819 263.114 134.819C261.78 134.819 260.003 133.041 259.558 131.708C258.669 126.374 257.336 121.041 257.336 115.263C256.891 104.152 257.336 93.0401 256.891 81.9288C256.891 75.2619 254.669 73.4841 248.002 73.0397C248.447 93.929 248.447 113.929 248.447 134.819ZM248.891 57.4838C256.003 57.9282 257.336 57.0393 257.78 50.8169C258.225 43.2612 258.225 36.1499 257.78 28.5942C257.78 22.3718 255.558 21.0385 248.891 22.3719C248.891 33.9277 248.891 45.4835 248.891 57.4838Z" fill="white" fill-opacity="0.11"/>
<path d="M365.783 134.374C365.783 90.3734 365.783 46.8168 365.783 3.26027C379.561 3.26027 393.339 1.92693 407.117 3.70475C420.895 5.03811 427.562 14.3717 427.562 28.5942C427.562 54.8171 427.562 81.04 427.562 107.263C427.562 124.152 421.34 132.597 404.895 134.374C392.006 135.708 379.116 134.374 365.783 134.374ZM392.006 21.9274C392.006 53.4837 392.006 84.5956 392.006 115.707C399.117 116.596 400.895 115.263 400.895 109.485C400.895 82.3733 400.895 55.706 400.895 28.5942C400.895 22.3719 399.117 21.0385 392.006 21.9274Z" fill="white" fill-opacity="0.11"/>
<path d="M152 135.264C152 90.8182 152 47.2617 152 2.37174C167.111 3.26065 182.667 0.149493 197.334 5.0385C206.668 7.70522 212.001 14.8165 213.335 24.5945C214.224 31.7058 213.779 38.817 213.335 45.9283C212.446 56.5952 205.779 62.3731 195.557 64.5954C196.001 65.0399 196.001 65.4842 196.001 65.4842C208.446 67.7065 212.89 76.1513 213.335 87.2626C213.779 95.7073 214.224 104.596 212.89 113.485C211.112 128.152 203.557 134.819 188.89 135.708C186.223 135.708 184.001 135.708 181.334 135.708C172 135.264 162.222 135.264 152 135.264ZM178.223 115.263C185.779 116.152 187.112 115.263 187.112 108.152C187.112 99.2628 187.112 89.9293 187.112 81.0402C187.112 74.3733 184.89 73.04 178.223 74.8178C178.223 88.5959 178.223 101.93 178.223 115.263ZM178.223 57.0396C185.334 57.9285 187.112 56.5952 187.112 50.3728C187.112 42.8171 187.112 35.7058 187.112 28.1501C187.112 22.3722 184.001 20.5944 178.223 22.3722C178.223 33.4836 178.223 45.0393 178.223 57.0396Z" fill="white" fill-opacity="0.11"/>
<path d="M344.893 2.81543C350.227 46.8164 355.56 90.8174 360.894 134.818C351.56 134.818 343.116 134.818 333.338 134.818C332.449 122.818 331.115 111.262 330.226 99.7065C329.337 99.2621 329.338 98.8176 328.893 98.8176C318.226 97.9286 318.226 97.9287 316.893 108.596C315.559 117.04 314.67 125.929 313.782 134.818C305.781 134.818 298.226 134.818 290.225 134.818C296.892 90.8174 303.115 46.8164 309.782 2.81543C321.337 2.81543 332.449 2.81543 344.893 2.81543ZM328.449 79.2616C327.115 61.9278 326.226 45.483 325.337 28.5938C324.893 28.5938 324.449 28.5938 324.004 28.5938C322.671 45.483 321.337 61.9278 320.004 79.2616C322.226 79.2616 323.56 79.706 324.893 79.706C325.782 79.706 326.671 79.706 328.449 79.2616Z" fill="white" fill-opacity="0.11"/>
<path d="M70.2236 153.371C83.5573 153.371 96.4465 152.482 108.891 153.816C124.003 155.149 131.558 164.927 131.558 180.039C131.558 184.483 131.558 188.483 131.558 192.928C131.114 203.15 126.67 209.373 116.447 212.484C116.003 212.484 115.114 212.928 115.558 212.928C119.558 215.595 124.892 217.373 127.558 220.928C130.225 224.929 130.67 230.707 131.114 235.596C132.003 248.04 131.559 260.929 132.003 273.374C132.003 277.374 133.781 281.374 134.67 285.819C126.225 285.819 118.225 285.819 110.669 285.819C109.336 285.819 107.558 284.041 107.113 282.708C106.225 277.374 105.336 272.041 104.891 267.152C104.447 256.04 104.891 244.929 104.447 233.818C104.447 227.151 102.224 225.373 96.0021 224.484C96.0021 244.929 96.0021 264.929 96.0021 285.819C87.113 285.819 78.6684 285.819 69.7793 285.819C70.2238 241.373 70.2236 197.372 70.2236 153.371ZM96.8909 172.483C96.8909 184.483 96.8909 196.039 96.8909 208.039C104.002 208.484 105.336 207.15 105.78 200.928C105.78 193.817 105.78 186.261 105.78 179.15C105.336 172.927 103.558 171.594 96.8909 172.483Z" fill="white" fill-opacity="0.11"/>
<path d="M327.119 199.595C318.674 199.595 310.229 199.595 301.34 199.595C301.34 192.928 301.34 186.706 301.34 180.039C301.34 178.706 301.785 176.928 301.34 176.039C300.007 173.817 298.673 172.039 296.896 170.261C295.562 172.039 292.451 173.817 292.451 175.595C292.006 186.706 292.451 198.262 292.451 208.929C298.229 208.04 303.562 206.262 308.896 206.262C319.118 206.262 325.785 212.04 327.119 222.262C328.007 230.262 328.007 238.707 328.007 247.152C328.007 252.93 328.007 258.708 328.007 264.041C328.007 274.263 323.118 281.819 313.34 285.375C302.673 289.375 291.118 289.375 280.451 285.375C271.117 281.819 266.228 275.152 266.228 264.93C266.228 234.707 266.228 204.04 266.228 173.817C266.228 162.705 271.562 156.038 282.229 152.483C292.451 149.372 302.673 149.372 312.451 152.483C320.452 155.15 326.674 160.483 327.563 169.372C328.007 179.594 327.119 189.373 327.119 199.595ZM301.34 248.93C301.34 244.485 301.785 240.04 301.34 235.596C300.896 233.374 299.118 229.818 297.34 229.373C293.784 228.485 292.895 232.04 292.451 235.151C292.451 244.485 292.006 253.374 292.451 262.708C292.451 264.485 295.118 266.708 296.896 268.486C298.229 266.263 300.896 264.485 301.34 262.263C301.785 257.819 301.34 253.374 301.34 248.93Z" fill="white" fill-opacity="0.11"/>
<path d="M43.1122 214.706C43.5566 215.151 43.5565 215.151 44.001 215.595C56.8902 217.817 60.8903 227.151 61.3347 238.262C61.7792 246.262 61.7793 254.707 60.8904 262.707C59.557 276.93 52.4457 283.597 38.6676 285.374C36.0009 285.819 33.7786 285.819 31.1118 285.819C20.8894 285.819 10.6669 285.819 0 285.819C0 241.373 0 197.817 0 152.482C14.2226 153.371 28.4451 152.927 42.2232 154.705C54.6679 156.483 60.8903 165.816 61.3347 178.705C61.3347 182.261 61.3347 185.372 61.3347 188.928C61.3347 204.484 57.7792 209.373 43.1122 214.706ZM26.2228 225.373C26.2228 239.151 26.2228 252.485 26.2228 266.263C33.7785 267.152 35.1119 266.263 35.1119 259.152C35.1119 250.262 35.1119 241.373 35.1119 232.484C35.1119 224.929 33.7785 224.04 26.2228 225.373ZM26.2228 172.483C26.2228 184.039 26.2228 196.039 26.2228 207.595C33.3341 208.039 34.6674 206.706 35.1119 200.483C35.1119 193.372 35.1119 185.817 35.1119 178.705C34.6674 172.927 32.4452 171.594 26.2228 172.483Z" fill="white" fill-opacity="0.11"/>
<path d="M354.23 226.708C354.23 219.596 354.23 213.374 354.23 206.707C357.342 206.707 360.453 206.707 363.564 206.707C368.008 206.707 370.675 204.485 370.675 200.04C370.675 192.04 371.12 184.04 370.675 176.04C370.675 174.262 368.008 172.04 366.231 170.262C364.897 172.04 362.231 173.817 361.786 176.04C360.897 180.929 361.342 186.262 361.342 191.595C361.342 194.262 361.342 197.373 361.342 200.485C352.453 200.485 344.452 200.485 334.674 200.485C335.119 189.373 335.119 177.817 336.452 166.706C337.341 160.039 343.119 155.595 349.786 153.372C360.453 149.817 371.12 149.372 381.787 153.372C391.12 156.484 396.454 163.595 396.898 173.817C397.342 180.929 396.898 188.04 396.898 195.151C396.454 206.263 392.009 214.263 378.675 216.485C380.898 217.374 381.787 217.818 382.676 218.263C390.676 220.485 395.565 225.818 396.009 233.819C396.898 245.375 396.898 256.93 396.454 268.486C396.009 277.375 390.676 283.598 382.231 286.709C371.12 290.709 360.453 290.709 349.341 286.709C341.786 284.042 336.008 278.264 335.563 269.82C334.674 258.264 335.563 246.708 335.563 234.708C344.008 234.708 352.453 234.708 361.342 234.708C361.342 242.708 361.342 250.708 361.342 258.708C361.342 260.93 361.342 263.597 362.231 265.375C362.675 266.708 364.897 268.931 365.786 268.931C367.564 268.486 368.897 266.708 370.231 264.931C371.12 264.042 370.675 262.264 370.675 260.93C370.675 252.93 370.675 244.93 370.675 236.93C370.675 229.819 368.453 228.041 361.342 227.596C359.119 226.707 356.897 226.708 354.23 226.708Z" fill="white" fill-opacity="0.11"/>
<path d="M168.004 266.708C175.56 266.708 182.671 266.708 190.227 266.708C190.227 272.93 190.227 279.152 190.227 285.375C174.226 285.375 158.226 285.375 141.781 285.375C141.781 241.818 141.781 197.817 141.781 153.372C157.782 153.372 173.782 153.372 190.227 153.372C190.227 159.594 190.227 165.372 190.227 172.039C182.671 172.039 175.56 172.039 168.004 172.039C168.004 182.261 168.004 192.039 168.004 202.706C175.115 202.706 182.227 202.706 189.338 202.706C189.338 209.373 189.338 215.151 189.338 221.818C182.227 221.818 175.56 221.818 168.004 221.818C168.004 236.485 168.004 251.152 168.004 266.708Z" fill="white" fill-opacity="0.11"/>
<path d="M230.228 203.151C232.005 192.039 233.783 181.373 235.561 170.261C236.45 165.817 236.894 160.928 237.783 156.483C238.228 155.15 240.006 152.928 241.339 152.928C247.561 152.483 254.228 152.928 261.339 152.928C260.895 155.15 260.451 156.483 260.006 158.261C254.228 176.928 248.895 195.151 243.117 213.818C242.228 217.373 241.783 220.929 241.783 224.04C241.783 244.041 241.783 264.486 241.783 284.931C232.894 284.931 224.45 284.931 215.116 284.931C215.116 283.597 215.116 281.819 215.116 280.042C215.116 268.041 214.672 256.041 215.116 244.041C216.005 226.707 213.338 210.262 207.116 194.262C202.227 180.928 198.227 167.595 193.338 152.928C202.227 152.928 211.116 152.928 219.561 152.928C220.45 152.928 221.338 155.15 221.338 156.483C224.005 172.039 226.228 187.15 228.894 202.706C229.339 203.151 229.783 203.151 230.228 203.151Z" fill="white" fill-opacity="0.11"/>
</svg>
