<svg width="182" height="114" viewBox="0 0 182 114" fill="none" xmlns="http://www.w3.org/2000/svg">
<path d="M87.4974 102.533L89.5399 101.699L87.6209 100.74L87.526 100.55L87.1068 100.427L87.1013 100.426C83.5926 99.4024 80.0731 98.3759 76.5519 97.4223L76.4236 97.3875H76.2905C76.2906 97.3875 76.2863 97.3875 76.2758 97.3868C76.265 97.3861 76.2507 97.3848 76.2295 97.3826C76.2235 97.382 76.2138 97.3809 76.2016 97.3795C76.1618 97.3751 76.0955 97.3678 76.0443 97.3635C75.8874 97.3504 75.6173 97.3383 75.3158 97.4388L75.3158 97.4388L75.3049 97.4425C75.081 97.52 74.8512 97.5969 74.6173 97.6752C72.9755 98.2245 71.1296 98.8422 69.6762 100.222C68.9194 100.937 68.3854 101.741 68.1735 102.651C67.9591 103.572 68.0997 104.492 68.5008 105.383C69.3529 107.277 71.1928 108.222 73.2958 107.864C74.5311 107.696 75.7293 107.21 76.7415 106.777C80.3201 105.389 83.9081 103.998 87.4974 102.533ZM73.6321 103.143C73.6321 103.011 73.6773 102.929 73.7145 102.889C73.7459 102.855 73.7911 102.826 73.876 102.826C73.9049 102.826 73.9633 102.841 74.024 102.904C74.0824 102.964 74.1198 103.049 74.1198 103.143C74.1198 103.164 74.113 103.198 74.0678 103.24C74.0188 103.285 73.9478 103.314 73.876 103.314C73.8041 103.314 73.7331 103.285 73.6841 103.24C73.6389 103.198 73.6321 103.164 73.6321 103.143Z" fill="black" stroke="white" stroke-width="2"/>
<path d="M90.1219 92.9479L86.5976 93.7311L90.0226 94.8728C93.7618 96.1192 97.2802 97.2187 100.789 98.3151C101.464 98.537 102.116 98.427 102.519 98.359C102.539 98.3557 102.558 98.3525 102.576 98.3494L102.588 98.3475L102.6 98.3452C103.955 98.0857 105.288 97.8085 106.617 97.5322C108.722 97.0944 110.815 96.6591 112.966 96.3007L112.974 96.2993L112.983 96.2978C114.64 95.9924 116.256 95.7717 117.898 95.5474C119.013 95.3952 120.139 95.2413 121.299 95.0582L121.299 95.0583L121.307 95.0568C122.089 94.9265 122.799 94.6464 123.331 94.1287C123.878 93.5963 124.139 92.9095 124.189 92.1662C124.24 91.4865 124.084 90.7838 123.554 90.2205C123.052 89.6873 122.334 89.4084 121.53 89.2798C119.863 88.9774 118.124 88.8267 116.46 88.8267H116.45L116.439 88.8269C109.394 88.9752 102.444 90.1611 95.6163 91.6294L95.6001 91.6329L95.584 91.6369C93.8269 92.0762 92.0829 92.5122 90.1219 92.9479Z" fill="black" stroke="white" stroke-width="2"/>
<rect x="109" y="57" width="73" height="26" rx="4" fill="white"/>
<rect y="57" width="65" height="26" rx="4" fill="white"/>
<circle cx="88" cy="41" r="41" fill="white"/>
<mask id="path-6-outside-1_2_848" maskUnits="userSpaceOnUse" x="63.1182" y="36.731" width="50" height="54" fill="black">
<rect fill="white" x="63.1182" y="36.731" width="50" height="54"/>
<path d="M106.656 58.2183C105.997 58.7304 105.485 59.2426 104.9 59.5353C101.9 61.145 98.8267 61.2182 95.9731 59.2426C93.0463 57.2671 92.3878 54.194 92.9 50.8282C92.9732 50.0965 92.8268 49.8039 92.2415 49.5112C90.9976 48.8527 89.7538 48.8527 88.4367 49.438C87.9977 49.6575 87.7782 49.877 87.8514 50.4624C88.5099 55.5842 83.9734 60.5597 79.0711 59.9743C75.2664 59.5353 72.6323 57.4134 71.2421 53.8281C70.8762 52.9501 70.7299 51.9989 70.5836 51.0477C70.2909 48.8527 71.2421 47.1698 73.2908 46.2186C75.9249 44.9747 78.6321 44.6089 81.5589 45.1942C81.2662 45.0479 81.0467 44.9016 80.754 44.7552C80.4613 44.6089 80.1687 44.4626 79.9492 44.2431C79.7297 44.0967 79.437 44.0235 79.2906 43.804C77.8273 42.1943 76.2176 42.1943 74.4615 43.365C74.6079 42.1943 75.9981 40.8041 77.0224 40.731C77.2419 40.731 77.5346 40.731 77.6809 40.8773C79.2175 42.1943 81.193 42.4138 83.0954 42.7065C84.4856 42.926 85.8027 43.2919 86.9002 44.1699C87.4855 44.6821 87.6319 45.2674 87.5587 45.9259C87.4855 46.6576 86.9733 47.0235 86.2417 46.804C85.7295 46.6576 85.2173 46.5113 84.7051 46.3649C85.6563 47.243 86.6075 48.121 87.5587 48.9258C88.5099 48.7795 89.5342 48.3405 90.4854 48.4137C91.4366 48.4868 92.3878 48.9258 93.339 49.1453C92.022 48.4868 91.6561 47.243 91.2171 46.0723C90.9976 45.4869 91.4366 44.9747 92.0952 44.9016C92.6073 44.9016 93.1927 44.9747 93.7049 45.1942C95.1682 45.7796 96.5584 45.7796 98.0218 44.9747C99.0462 44.3894 100.144 44.6089 101.168 45.1211C102.485 45.7796 103.802 46.0723 105.192 46.5113C108.265 47.3893 109.802 49.6575 109.217 52.4379C108.997 53.4623 108.704 54.5598 108.265 55.511C107.973 56.2427 107.9 56.8281 107.973 57.6329C108.412 60.4865 107.973 63.2669 107.461 66.0473C106.729 70.0716 105.339 73.9495 103.729 77.6811C98.7535 89.1686 86.6807 89.2418 79.9492 84.559C74.242 80.5347 70.0714 75.2665 67.73 68.6082C66.9251 66.34 67.0715 63.9986 67.291 61.6572C67.5837 58.0719 68.169 54.5598 68.608 50.9746C68.608 50.7551 68.8275 50.5356 68.9739 50.2429C69.1934 50.4624 69.486 50.6819 69.486 50.9014C69.5592 51.9989 69.6324 53.0965 69.5592 54.194C69.4129 57.1939 69.486 60.1938 70.5104 63.1205C71.4616 65.8278 73.1445 67.8765 75.7054 69.2667C75.7785 69.3399 75.9249 69.4131 75.9981 69.4131C76.6566 69.4862 77.3883 69.7057 77.9004 69.4131C78.1931 69.2667 78.1199 68.2424 78.0468 67.657C77.9004 66.8522 77.5346 66.1205 77.3151 65.3156C77.0956 64.3644 77.3883 63.5596 78.1199 62.8279C78.8516 62.0962 79.5833 61.3645 80.315 60.6328C80.4613 60.4865 80.6808 60.267 80.9003 60.267C82.7296 59.9011 84.632 59.828 86.3148 60.9255C86.5343 61.0718 86.827 61.2182 87.0465 61.4377C88.2172 62.3157 89.3147 62.9011 90.8513 62.1694C92.461 61.4377 93.9244 61.8767 95.3877 62.9011C96.9243 63.9986 98.0218 65.3888 98.3876 67.2912C98.534 68.096 98.4608 68.9009 98.534 69.7057C98.534 70.1447 98.534 70.5106 98.6803 70.9496C98.973 71.7545 99.7047 71.974 100.436 71.5349C103.29 69.5594 104.973 66.8522 105.924 63.5596C106.363 62.0962 106.583 60.5596 106.875 59.0963C106.656 58.9499 106.656 58.6573 106.656 58.2183ZM90.6318 72.2666C90.6318 72.4861 90.5586 72.7057 90.5586 72.9252C90.5586 74.0959 90.4123 75.2665 90.5586 76.4372C90.7049 77.8274 91.8025 78.2665 92.9732 77.6079C93.4122 77.3153 93.9244 76.9494 94.217 76.5836C95.0219 75.6324 95.6072 74.608 96.4121 73.6568C97.7291 71.974 97.4365 70.1447 96.7779 68.3887C96.1926 66.9253 95.2414 66.34 93.6317 66.4131C91.8025 66.4863 89.9732 66.1936 88.5099 65.0229C88.0709 64.6571 87.705 64.6571 87.266 64.8034C85.8027 65.3156 84.3393 65.5351 82.9491 64.8034C81.8515 64.2181 80.8272 64.2913 79.876 64.8766C78.8516 65.5351 78.6321 66.6326 78.8516 67.657C79.2175 69.3399 79.5833 71.0959 80.2418 72.7056C81.2662 75.1202 82.9491 76.8763 85.3636 77.9738C86.6807 78.5591 87.4124 78.0469 87.4855 76.6567C87.5587 75.9251 87.4855 75.1934 87.4124 74.4617C87.3392 73.73 87.1929 73.0715 87.0465 72.413C88.2172 72.2666 89.3879 72.2666 90.6318 72.2666ZM78.7053 45.6333C76.7297 45.6333 74.9737 46.0723 73.2908 46.8771C71.8274 47.6088 71.0958 48.7795 71.0958 50.3892C71.1689 53.1696 72.1201 55.511 74.242 57.3402C77.9004 60.4865 82.7296 60.1206 85.3636 56.389C86.0953 55.3647 86.6075 54.194 86.9733 53.0233C87.6319 50.9014 87.0465 48.9258 85.4368 47.8283C83.4613 46.4381 81.193 45.6333 78.7053 45.6333ZM107.607 55.1452C107.68 55.1452 107.826 55.1452 107.9 55.1452C108.192 53.9013 108.558 52.5843 108.631 51.3404C108.704 49.3649 107.241 47.8283 104.973 47.0966C102.192 46.2186 99.412 46.3649 96.7048 47.3161C94.8024 47.9747 93.4853 49.3649 93.339 51.4867C93.2658 51.9258 93.339 52.3648 93.339 52.8038C93.4122 56.0232 95.0951 58.5841 97.8023 59.6085C100.802 60.706 104.168 59.9743 106.217 57.6329C106.583 57.2671 106.656 56.6817 106.802 56.1695C106.948 55.6574 107.022 55.1452 107.168 54.7062C107.241 54.7062 107.314 54.7062 107.387 54.7793C107.461 54.8525 107.534 54.9988 107.607 55.1452Z"/>
</mask>
<path d="M106.656 58.2183C105.997 58.7304 105.485 59.2426 104.9 59.5353C101.9 61.145 98.8267 61.2182 95.9731 59.2426C93.0463 57.2671 92.3878 54.194 92.9 50.8282C92.9732 50.0965 92.8268 49.8039 92.2415 49.5112C90.9976 48.8527 89.7538 48.8527 88.4367 49.438C87.9977 49.6575 87.7782 49.877 87.8514 50.4624C88.5099 55.5842 83.9734 60.5597 79.0711 59.9743C75.2664 59.5353 72.6323 57.4134 71.2421 53.8281C70.8762 52.9501 70.7299 51.9989 70.5836 51.0477C70.2909 48.8527 71.2421 47.1698 73.2908 46.2186C75.9249 44.9747 78.6321 44.6089 81.5589 45.1942C81.2662 45.0479 81.0467 44.9016 80.754 44.7552C80.4613 44.6089 80.1687 44.4626 79.9492 44.2431C79.7297 44.0967 79.437 44.0235 79.2906 43.804C77.8273 42.1943 76.2176 42.1943 74.4615 43.365C74.6079 42.1943 75.9981 40.8041 77.0224 40.731C77.2419 40.731 77.5346 40.731 77.6809 40.8773C79.2175 42.1943 81.193 42.4138 83.0954 42.7065C84.4856 42.926 85.8027 43.2919 86.9002 44.1699C87.4855 44.6821 87.6319 45.2674 87.5587 45.9259C87.4855 46.6576 86.9733 47.0235 86.2417 46.804C85.7295 46.6576 85.2173 46.5113 84.7051 46.3649C85.6563 47.243 86.6075 48.121 87.5587 48.9258C88.5099 48.7795 89.5342 48.3405 90.4854 48.4137C91.4366 48.4868 92.3878 48.9258 93.339 49.1453C92.022 48.4868 91.6561 47.243 91.2171 46.0723C90.9976 45.4869 91.4366 44.9747 92.0952 44.9016C92.6073 44.9016 93.1927 44.9747 93.7049 45.1942C95.1682 45.7796 96.5584 45.7796 98.0218 44.9747C99.0462 44.3894 100.144 44.6089 101.168 45.1211C102.485 45.7796 103.802 46.0723 105.192 46.5113C108.265 47.3893 109.802 49.6575 109.217 52.4379C108.997 53.4623 108.704 54.5598 108.265 55.511C107.973 56.2427 107.9 56.8281 107.973 57.6329C108.412 60.4865 107.973 63.2669 107.461 66.0473C106.729 70.0716 105.339 73.9495 103.729 77.6811C98.7535 89.1686 86.6807 89.2418 79.9492 84.559C74.242 80.5347 70.0714 75.2665 67.73 68.6082C66.9251 66.34 67.0715 63.9986 67.291 61.6572C67.5837 58.0719 68.169 54.5598 68.608 50.9746C68.608 50.7551 68.8275 50.5356 68.9739 50.2429C69.1934 50.4624 69.486 50.6819 69.486 50.9014C69.5592 51.9989 69.6324 53.0965 69.5592 54.194C69.4129 57.1939 69.486 60.1938 70.5104 63.1205C71.4616 65.8278 73.1445 67.8765 75.7054 69.2667C75.7785 69.3399 75.9249 69.4131 75.9981 69.4131C76.6566 69.4862 77.3883 69.7057 77.9004 69.4131C78.1931 69.2667 78.1199 68.2424 78.0468 67.657C77.9004 66.8522 77.5346 66.1205 77.3151 65.3156C77.0956 64.3644 77.3883 63.5596 78.1199 62.8279C78.8516 62.0962 79.5833 61.3645 80.315 60.6328C80.4613 60.4865 80.6808 60.267 80.9003 60.267C82.7296 59.9011 84.632 59.828 86.3148 60.9255C86.5343 61.0718 86.827 61.2182 87.0465 61.4377C88.2172 62.3157 89.3147 62.9011 90.8513 62.1694C92.461 61.4377 93.9244 61.8767 95.3877 62.9011C96.9243 63.9986 98.0218 65.3888 98.3876 67.2912C98.534 68.096 98.4608 68.9009 98.534 69.7057C98.534 70.1447 98.534 70.5106 98.6803 70.9496C98.973 71.7545 99.7047 71.974 100.436 71.5349C103.29 69.5594 104.973 66.8522 105.924 63.5596C106.363 62.0962 106.583 60.5596 106.875 59.0963C106.656 58.9499 106.656 58.6573 106.656 58.2183ZM90.6318 72.2666C90.6318 72.4861 90.5586 72.7057 90.5586 72.9252C90.5586 74.0959 90.4123 75.2665 90.5586 76.4372C90.7049 77.8274 91.8025 78.2665 92.9732 77.6079C93.4122 77.3153 93.9244 76.9494 94.217 76.5836C95.0219 75.6324 95.6072 74.608 96.4121 73.6568C97.7291 71.974 97.4365 70.1447 96.7779 68.3887C96.1926 66.9253 95.2414 66.34 93.6317 66.4131C91.8025 66.4863 89.9732 66.1936 88.5099 65.0229C88.0709 64.6571 87.705 64.6571 87.266 64.8034C85.8027 65.3156 84.3393 65.5351 82.9491 64.8034C81.8515 64.2181 80.8272 64.2913 79.876 64.8766C78.8516 65.5351 78.6321 66.6326 78.8516 67.657C79.2175 69.3399 79.5833 71.0959 80.2418 72.7056C81.2662 75.1202 82.9491 76.8763 85.3636 77.9738C86.6807 78.5591 87.4124 78.0469 87.4855 76.6567C87.5587 75.9251 87.4855 75.1934 87.4124 74.4617C87.3392 73.73 87.1929 73.0715 87.0465 72.413C88.2172 72.2666 89.3879 72.2666 90.6318 72.2666ZM78.7053 45.6333C76.7297 45.6333 74.9737 46.0723 73.2908 46.8771C71.8274 47.6088 71.0958 48.7795 71.0958 50.3892C71.1689 53.1696 72.1201 55.511 74.242 57.3402C77.9004 60.4865 82.7296 60.1206 85.3636 56.389C86.0953 55.3647 86.6075 54.194 86.9733 53.0233C87.6319 50.9014 87.0465 48.9258 85.4368 47.8283C83.4613 46.4381 81.193 45.6333 78.7053 45.6333ZM107.607 55.1452C107.68 55.1452 107.826 55.1452 107.9 55.1452C108.192 53.9013 108.558 52.5843 108.631 51.3404C108.704 49.3649 107.241 47.8283 104.973 47.0966C102.192 46.2186 99.412 46.3649 96.7048 47.3161C94.8024 47.9747 93.4853 49.3649 93.339 51.4867C93.2658 51.9258 93.339 52.3648 93.339 52.8038C93.4122 56.0232 95.0951 58.5841 97.8023 59.6085C100.802 60.706 104.168 59.9743 106.217 57.6329C106.583 57.2671 106.656 56.6817 106.802 56.1695C106.948 55.6574 107.022 55.1452 107.168 54.7062C107.241 54.7062 107.314 54.7062 107.387 54.7793C107.461 54.8525 107.534 54.9988 107.607 55.1452Z" fill="black"/>
<path d="M106.656 58.2183C105.997 58.7304 105.485 59.2426 104.9 59.5353C101.9 61.145 98.8267 61.2182 95.9731 59.2426C93.0463 57.2671 92.3878 54.194 92.9 50.8282C92.9732 50.0965 92.8268 49.8039 92.2415 49.5112C90.9976 48.8527 89.7538 48.8527 88.4367 49.438C87.9977 49.6575 87.7782 49.877 87.8514 50.4624C88.5099 55.5842 83.9734 60.5597 79.0711 59.9743C75.2664 59.5353 72.6323 57.4134 71.2421 53.8281C70.8762 52.9501 70.7299 51.9989 70.5836 51.0477C70.2909 48.8527 71.2421 47.1698 73.2908 46.2186C75.9249 44.9747 78.6321 44.6089 81.5589 45.1942C81.2662 45.0479 81.0467 44.9016 80.754 44.7552C80.4613 44.6089 80.1687 44.4626 79.9492 44.2431C79.7297 44.0967 79.437 44.0235 79.2906 43.804C77.8273 42.1943 76.2176 42.1943 74.4615 43.365C74.6079 42.1943 75.9981 40.8041 77.0224 40.731C77.2419 40.731 77.5346 40.731 77.6809 40.8773C79.2175 42.1943 81.193 42.4138 83.0954 42.7065C84.4856 42.926 85.8027 43.2919 86.9002 44.1699C87.4855 44.6821 87.6319 45.2674 87.5587 45.9259C87.4855 46.6576 86.9733 47.0235 86.2417 46.804C85.7295 46.6576 85.2173 46.5113 84.7051 46.3649C85.6563 47.243 86.6075 48.121 87.5587 48.9258C88.5099 48.7795 89.5342 48.3405 90.4854 48.4137C91.4366 48.4868 92.3878 48.9258 93.339 49.1453C92.022 48.4868 91.6561 47.243 91.2171 46.0723C90.9976 45.4869 91.4366 44.9747 92.0952 44.9016C92.6073 44.9016 93.1927 44.9747 93.7049 45.1942C95.1682 45.7796 96.5584 45.7796 98.0218 44.9747C99.0462 44.3894 100.144 44.6089 101.168 45.1211C102.485 45.7796 103.802 46.0723 105.192 46.5113C108.265 47.3893 109.802 49.6575 109.217 52.4379C108.997 53.4623 108.704 54.5598 108.265 55.511C107.973 56.2427 107.9 56.8281 107.973 57.6329C108.412 60.4865 107.973 63.2669 107.461 66.0473C106.729 70.0716 105.339 73.9495 103.729 77.6811C98.7535 89.1686 86.6807 89.2418 79.9492 84.559C74.242 80.5347 70.0714 75.2665 67.73 68.6082C66.9251 66.34 67.0715 63.9986 67.291 61.6572C67.5837 58.0719 68.169 54.5598 68.608 50.9746C68.608 50.7551 68.8275 50.5356 68.9739 50.2429C69.1934 50.4624 69.486 50.6819 69.486 50.9014C69.5592 51.9989 69.6324 53.0965 69.5592 54.194C69.4129 57.1939 69.486 60.1938 70.5104 63.1205C71.4616 65.8278 73.1445 67.8765 75.7054 69.2667C75.7785 69.3399 75.9249 69.4131 75.9981 69.4131C76.6566 69.4862 77.3883 69.7057 77.9004 69.4131C78.1931 69.2667 78.1199 68.2424 78.0468 67.657C77.9004 66.8522 77.5346 66.1205 77.3151 65.3156C77.0956 64.3644 77.3883 63.5596 78.1199 62.8279C78.8516 62.0962 79.5833 61.3645 80.315 60.6328C80.4613 60.4865 80.6808 60.267 80.9003 60.267C82.7296 59.9011 84.632 59.828 86.3148 60.9255C86.5343 61.0718 86.827 61.2182 87.0465 61.4377C88.2172 62.3157 89.3147 62.9011 90.8513 62.1694C92.461 61.4377 93.9244 61.8767 95.3877 62.9011C96.9243 63.9986 98.0218 65.3888 98.3876 67.2912C98.534 68.096 98.4608 68.9009 98.534 69.7057C98.534 70.1447 98.534 70.5106 98.6803 70.9496C98.973 71.7545 99.7047 71.974 100.436 71.5349C103.29 69.5594 104.973 66.8522 105.924 63.5596C106.363 62.0962 106.583 60.5596 106.875 59.0963C106.656 58.9499 106.656 58.6573 106.656 58.2183ZM90.6318 72.2666C90.6318 72.4861 90.5586 72.7057 90.5586 72.9252C90.5586 74.0959 90.4123 75.2665 90.5586 76.4372C90.7049 77.8274 91.8025 78.2665 92.9732 77.6079C93.4122 77.3153 93.9244 76.9494 94.217 76.5836C95.0219 75.6324 95.6072 74.608 96.4121 73.6568C97.7291 71.974 97.4365 70.1447 96.7779 68.3887C96.1926 66.9253 95.2414 66.34 93.6317 66.4131C91.8025 66.4863 89.9732 66.1936 88.5099 65.0229C88.0709 64.6571 87.705 64.6571 87.266 64.8034C85.8027 65.3156 84.3393 65.5351 82.9491 64.8034C81.8515 64.2181 80.8272 64.2913 79.876 64.8766C78.8516 65.5351 78.6321 66.6326 78.8516 67.657C79.2175 69.3399 79.5833 71.0959 80.2418 72.7056C81.2662 75.1202 82.9491 76.8763 85.3636 77.9738C86.6807 78.5591 87.4124 78.0469 87.4855 76.6567C87.5587 75.9251 87.4855 75.1934 87.4124 74.4617C87.3392 73.73 87.1929 73.0715 87.0465 72.413C88.2172 72.2666 89.3879 72.2666 90.6318 72.2666ZM78.7053 45.6333C76.7297 45.6333 74.9737 46.0723 73.2908 46.8771C71.8274 47.6088 71.0958 48.7795 71.0958 50.3892C71.1689 53.1696 72.1201 55.511 74.242 57.3402C77.9004 60.4865 82.7296 60.1206 85.3636 56.389C86.0953 55.3647 86.6075 54.194 86.9733 53.0233C87.6319 50.9014 87.0465 48.9258 85.4368 47.8283C83.4613 46.4381 81.193 45.6333 78.7053 45.6333ZM107.607 55.1452C107.68 55.1452 107.826 55.1452 107.9 55.1452C108.192 53.9013 108.558 52.5843 108.631 51.3404C108.704 49.3649 107.241 47.8283 104.973 47.0966C102.192 46.2186 99.412 46.3649 96.7048 47.3161C94.8024 47.9747 93.4853 49.3649 93.339 51.4867C93.2658 51.9258 93.339 52.3648 93.339 52.8038C93.4122 56.0232 95.0951 58.5841 97.8023 59.6085C100.802 60.706 104.168 59.9743 106.217 57.6329C106.583 57.2671 106.656 56.6817 106.802 56.1695C106.948 55.6574 107.022 55.1452 107.168 54.7062C107.241 54.7062 107.314 54.7062 107.387 54.7793C107.461 54.8525 107.534 54.9988 107.607 55.1452Z" stroke="white" stroke-width="6" mask="url(#path-6-outside-1_2_848)"/>
<path d="M107.021 44.9013C106.509 42.4868 105.997 40.1454 105.558 37.7308C105.192 35.3894 104.973 32.9749 104.607 30.6335C104.46 29.7554 103.875 28.9506 103.436 28.2189C103.143 27.7799 102.777 27.6335 102.265 27.9994C100.582 29.0969 98.7532 29.2433 96.7777 28.9506C95.3874 28.7311 93.9241 28.8042 92.5339 28.5847C88.2901 27.9994 84.4853 26.3165 80.9001 23.9019C79.9489 23.2434 78.9977 22.7313 77.827 22.8776C76.6563 22.9508 75.7051 23.3898 75.1197 24.4873C72.5588 29.0969 71.0223 34.0724 70.2906 39.3405C69.9979 41.2429 69.8516 43.0721 69.6321 45.1208C68.6077 44.2428 67.9492 43.2185 67.8029 41.9746C67.5834 40.1454 67.3639 38.243 67.2175 36.4138C66.998 34.1456 66.8517 31.9505 66.7053 29.6823C66.559 26.8287 67.876 24.78 70.3638 23.5361C71.6808 22.8776 73.071 22.5117 74.4612 21.9264C74.2417 21.341 73.949 20.6094 73.6564 19.8777C72.8515 17.2436 73.4369 14.9754 75.6319 13.3657C77.6075 11.9755 79.144 10.1463 80.8269 8.46337C80.9732 8.31704 81.1927 8.09752 81.4854 7.65851C81.6317 8.53654 81.7049 9.19506 81.7781 9.92674C82.3634 9.5609 82.8756 9.26823 83.6073 8.82922C83.461 9.48773 83.3878 9.92674 83.3146 10.5853C84.778 10.1462 86.095 9.70723 87.5584 9.26822C87.4852 9.85357 87.4121 10.2926 87.3389 11.0243C88.8754 9.5609 90.2656 8.24387 91.6559 7C91.729 7 91.8022 7.07316 91.8022 7.07316C91.6558 7.95119 91.4363 8.82921 91.29 9.70724C91.9485 9.85357 92.7534 9.7804 93.1192 10.1462C93.7046 10.7316 92.9729 11.2438 92.5339 11.8291C94.5094 12.195 96.485 10.8779 98.4605 12.195C97.7288 12.634 97.1435 12.9267 96.5581 13.2925C96.5581 13.3657 96.5581 13.4388 96.5581 13.512C97.363 13.512 98.1679 13.5852 98.9727 13.512C99.4849 13.4388 99.9239 13.2925 100.436 13.073C102.265 12.195 103.363 13.512 104.607 14.39C104.753 14.5364 104.826 14.7559 105.046 15.0485C104.46 15.1949 103.948 15.2681 103.509 15.4144C103.509 15.4876 103.509 15.4876 103.509 15.5607C103.875 15.6339 104.314 15.7071 104.68 15.7071C105.704 15.8534 105.851 16.1461 105.265 17.0973C105.777 17.0241 106.29 17.0241 106.729 16.9509C107.241 18.0485 107.241 18.0485 105.851 18.9996C106.582 20.463 106.582 20.463 107.899 20.8289C107.314 21.341 106.802 21.7801 106.143 22.3654C106.948 23.0239 107.753 23.6824 108.558 24.341C108.338 24.5605 108.192 24.78 108.046 24.9995C108.046 25.0726 108.046 25.1458 108.046 25.1458C109.07 26.3165 108.924 27.7799 108.924 29.2433C108.85 30.9261 108.997 32.609 108.997 34.2919C108.997 36.4138 108.631 38.5357 107.899 40.5844C107.387 42.0478 107.387 43.6575 107.168 45.1208C107.168 44.9013 107.094 44.9013 107.021 44.9013Z" fill="black"/>
<path d="M61.0204 88.8269L61.0094 88.8267H60.9984C60.5352 88.8267 60.1233 88.87 59.6582 88.919C59.4754 88.9383 59.2843 88.9584 59.0786 88.9771L59.0687 88.978L59.0587 88.9791L59.0344 88.9818C57.733 89.1264 56.371 89.2778 55.0011 89.5822C54.4839 89.6971 53.9838 89.9662 53.613 90.4175C53.2382 90.8739 53.0474 91.4537 53.0474 92.0949V92.1365L53.0508 92.1779C53.0943 92.7001 53.2099 93.2361 53.5031 93.7199C53.8068 94.221 54.2498 94.5824 54.8043 94.8345L54.8253 94.844L54.8467 94.8526C55.2985 95.0333 55.7413 95.1218 56.0912 95.1917C56.1007 95.1936 56.1101 95.1955 56.1195 95.1974L56.1408 95.2016L56.1623 95.205C57.6009 95.4282 59.0274 95.6331 60.4473 95.8371C63.2626 96.2415 66.0524 96.6422 68.8606 97.1748L68.8642 97.1755C80.1948 99.2818 91.1686 102.769 101.713 107.35C102.648 107.773 103.81 108.021 104.826 108.021C105.776 108.021 106.639 107.77 107.363 107.266C108.082 106.767 108.611 106.058 108.964 105.223C109.334 104.384 109.42 103.543 109.23 102.732C109.044 101.938 108.61 101.243 108.057 100.645C106.851 99.2724 105.244 98.6192 103.855 98.1076L103.855 98.1075L103.847 98.1048C96.2769 95.3853 88.625 93.1039 80.8196 91.4103L80.8196 91.4102L80.808 91.4078C74.3516 90.0872 67.7696 88.9752 61.0204 88.8269ZM103.339 103.143V103.093L103.334 103.044C103.331 103.019 103.335 102.976 103.393 102.918C103.46 102.851 103.541 102.826 103.583 102.826C103.614 102.826 103.679 102.843 103.744 102.908C103.81 102.974 103.826 103.039 103.826 103.07C103.826 103.142 103.797 103.213 103.752 103.262C103.71 103.307 103.676 103.314 103.656 103.314H103.6L103.545 103.32C103.506 103.325 103.448 103.311 103.399 103.269C103.357 103.234 103.339 103.194 103.339 103.143Z" fill="black" stroke="white" stroke-width="2"/>
<path d="M54.6576 90.6294L54.9158 89.4675L53.7269 89.4135C52.1175 89.3403 50.5263 89.2672 48.9348 89.194L48.9347 89.194C47.3434 89.1208 45.7517 89.0476 44.1418 88.9745L44.1191 88.9734H44.0964C43.8978 88.9734 43.7223 88.9769 43.565 88.9801C42.934 88.9927 42.5956 88.9994 42.2325 88.7509C41.9462 88.5097 41.6203 88.4423 41.4391 88.4164C41.2389 88.3878 41.0297 88.388 40.8994 88.3881C40.1013 88.3518 39.2855 88.3156 38.4704 88.2793L38.4702 88.2793C37.6491 88.2428 36.8286 88.2064 36.0263 88.1699C33.508 88.0239 30.9708 87.8596 28.4297 87.6951L28.428 87.695C25.8914 87.5307 23.3508 87.3662 20.8278 87.2199C19.1281 87.0725 17.3888 86.9952 15.6317 87.147C14.8694 87.197 14.1651 87.4573 13.6969 88.0875C13.2646 88.6695 13.1704 89.394 13.1704 90.0466C13.1704 90.3505 13.1755 90.6358 13.1802 90.9071C13.1932 91.6415 13.2044 92.2735 13.1089 92.8945L13.1063 92.9109L13.1044 92.9274C12.9829 93.9392 13.0661 94.9497 13.6822 95.7199C14.3107 96.5056 15.2839 96.784 16.3222 96.826C24.227 97.1919 32.1311 97.4847 40.0297 97.7772L40.0319 97.7773C41.0251 97.8199 41.9582 97.6112 42.6474 96.952C43.329 96.3001 43.5897 95.3804 43.6321 94.407L43.633 94.3853V94.3636V94.3601V94.3567V94.3533V94.3498V94.3464V94.3429V94.3395V94.3361V94.3326V94.3292V94.3257V94.3223V94.3188V94.3154V94.3119V94.3085V94.305V94.3015V94.2981V94.2946V94.2912V94.2877V94.2842V94.2808V94.2773V94.2738V94.2703V94.2669V94.2634V94.2599V94.2564V94.2529V94.2495V94.246V94.2425V94.239V94.2355V94.232V94.2285V94.225V94.2215V94.218V94.2145V94.211V94.2075V94.204V94.2005V94.197V94.1935V94.19V94.1865V94.1829V94.1794V94.1759V94.1724V94.1689V94.1653V94.1618V94.1583V94.1547V94.1512V94.1477V94.1442V94.1406V94.1371V94.1335V94.13V94.1265V94.1229V94.1194V94.1158V94.1123V94.1087V94.1052V94.1016V94.0981V94.0945V94.0909V94.0874V94.0838V94.0802V94.0767V94.0731V94.0695V94.066V94.0624V94.0588V94.0552V94.0517V94.0481V94.0445V94.0409V94.0373V94.0338V94.0302V94.0266V94.023V94.0194V94.0158V94.0122V94.0086V94.005V94.0014V93.9978V93.9942V93.9906V93.987V93.9834V93.9798V93.9761V93.9725V93.9689V93.9653V93.9617V93.9581V93.9544V93.9508V93.9472V93.9435V93.9399V93.9363V93.9327V93.929V93.9254V93.9217V93.9181V93.9145V93.9108V93.9072V93.9035V93.8999V93.8962V93.8926V93.8889V93.8853V93.8816V93.878V93.8743V93.8706V93.867V93.8633V93.8596V93.856V93.8523V93.8486V93.845V93.8413V93.8376V93.8339V93.8302V93.8266V93.8229V93.8192V93.8155V93.8118V93.8081V93.8044V93.8007V93.797V93.7933V93.7896V93.7859V93.7822V93.7785V93.7748V93.7711V93.7674V93.7637V93.76V93.7563V93.7526V93.7489V93.7451V93.7414V93.7377V93.734V93.7302V93.7265V93.7228V93.7191V93.7153V93.7116V93.7079V93.7041V93.7004V93.6966V93.6929V93.6892V93.6854V93.6817V93.6779V93.6742V93.6704V93.6667V93.6629V93.6591V93.6554V93.6516V93.6479V93.6441V93.6403V93.6366V93.6328V93.629V93.6253V93.6215V93.6177V93.6139V93.6101V93.6064V93.6026V93.5988V93.595V93.5912V93.5874V93.5836V93.5799V93.5761V93.5723V93.5685V93.5647V93.5609V93.5571V93.5533V93.5495V93.5456V93.5418V93.538V93.5342V93.5304V93.5266V93.5228V93.5189V93.5151V93.5113V93.5075V93.5037V93.4998V93.496V93.4922V93.4883V93.4845V93.4807V93.4768V93.473V93.4698C46.9755 93.7339 50.2106 93.998 53.447 94.2622L53.4538 94.2627L54.7022 94.3646L54.5251 93.1246C54.5134 93.0425 54.5021 92.9652 54.4916 92.8922C54.4296 92.4645 54.3888 92.183 54.3888 91.949C54.3888 91.8383 54.407 91.7022 54.4564 91.48C54.4796 91.3759 54.5066 91.2651 54.5389 91.1327L54.5455 91.1056C54.5799 90.9645 54.6186 90.8049 54.6576 90.6294Z" fill="black" stroke="white" stroke-width="2"/>
<path d="M161.011 87.0799C160.703 87.0312 160.432 87.0339 160.213 87.0443C160.102 87.0496 160.022 87.0551 159.955 87.0596C159.862 87.066 159.794 87.0706 159.703 87.0706H159.674L159.646 87.0722C155.766 87.2919 151.904 87.5298 148.045 87.7675L148.044 87.7676C144.184 88.0054 140.327 88.2431 136.452 88.4624L136.357 88.4677L136.266 88.4907C136.208 88.5052 136.169 88.5108 136.105 88.5202C136.052 88.528 135.981 88.5384 135.868 88.5583C135.703 88.5875 135.373 88.6498 135.076 88.8483L135.066 88.8546L135.057 88.8611C134.682 89.1238 134.36 89.1226 133.616 89.1199C133.54 89.1197 133.459 89.1194 133.373 89.1193C130.135 89.0461 126.836 89.1179 123.663 89.7223L122.779 89.8908L122.854 90.7877C122.888 91.2036 122.906 91.605 122.924 92.0368L122.926 92.0712C122.943 92.4886 122.962 92.9333 122.999 93.4155L123.077 94.4206L124.081 94.3352C127.183 94.0711 130.344 93.8072 133.672 93.5433C133.685 93.8814 133.727 94.2439 133.833 94.6119C133.889 95.5408 134.127 96.4247 134.784 97.0525C135.481 97.7187 136.433 97.8914 137.428 97.85L137.429 97.8499C140.022 97.7404 142.616 97.649 145.214 97.5575L145.215 97.5575C147.812 97.4661 150.412 97.3745 153.013 97.2646L153.013 97.2647L153.024 97.2641C154.406 97.1914 155.79 97.1367 157.181 97.0818L157.184 97.0817C158.572 97.0269 159.967 96.9718 161.364 96.8983C162.299 96.8513 163.159 96.5129 163.737 95.8157C164.318 95.1158 164.491 94.204 164.35 93.2636L164.349 93.2555L164.348 93.2475C164.217 92.4656 164.215 91.5992 164.215 90.7047C164.215 89.7516 164.125 88.794 163.507 88.0944C162.891 87.398 161.96 87.191 161.011 87.0799Z" fill="black" stroke="white" stroke-width="2"/>
<path d="M60.9986 69.9983C60.9986 72.3397 60.9986 74.6079 60.9986 76.9493C60.9986 79.3639 59.9742 80.6809 57.6328 81.1199C56.1694 81.4126 54.7061 81.4126 53.3159 80.8272C51.633 80.2419 50.8281 79.0712 50.8281 77.3152C50.8281 72.4129 50.8281 67.4374 50.8281 62.5351C50.8281 60.779 51.7061 59.6083 53.3159 59.023C54.9987 58.4376 56.6816 58.4376 58.3645 59.023C60.1205 59.6083 60.9986 60.8522 60.9986 62.6814C60.9986 65.0228 60.9986 67.5106 60.9986 69.9983ZM56.6816 69.8519C56.6084 69.8519 56.6084 69.8519 56.6816 69.8519C56.6816 67.6569 56.6816 65.535 56.6816 63.3399C56.6816 63.0473 56.7548 62.7546 56.6084 62.4619C56.4621 62.1692 56.1694 61.8034 55.9499 61.8034C55.7304 61.8034 55.4377 62.1692 55.2914 62.3887C55.1451 62.5351 55.2182 62.8278 55.2182 63.0473C55.2182 67.5106 55.2182 71.9738 55.2182 76.4371C55.2182 77.0225 55.1451 77.7541 55.9499 77.8273C56.7548 77.8273 56.6816 77.0956 56.6816 76.5103C56.6816 76.364 56.6816 76.2908 56.6816 76.1444C56.6816 74.0957 56.6816 71.9738 56.6816 69.8519Z" fill="black"/>
<path d="M19.8775 80.7543C18.3409 80.7543 17.0239 80.7543 15.5605 80.7543C15.5605 73.5106 15.5605 66.2669 15.5605 58.8037C17.9019 58.95 20.2433 58.8769 22.5847 59.1696C24.6334 59.4622 25.6578 60.9988 25.731 63.1207C25.731 63.9255 25.731 64.7304 25.731 65.4621C25.6578 67.1449 24.9261 68.1693 23.2433 68.6815C23.1701 68.6815 23.0237 68.7547 22.8774 68.8278C25.2188 69.4863 25.6578 69.9985 25.6578 72.4863C25.6578 74.535 25.731 76.5837 25.8042 78.6324C25.8042 79.2909 26.0968 80.0226 26.2432 80.7543C24.9261 80.7543 23.6091 80.7543 22.2921 80.7543C22.0726 80.7543 21.7799 80.4616 21.7067 80.2421C21.5604 79.3641 21.3409 78.4861 21.3409 77.5349C21.2677 75.7057 21.3409 73.8765 21.2677 72.0472C21.2677 70.9497 20.9018 70.657 19.8043 70.5839C19.8775 74.0228 19.8775 77.3154 19.8775 80.7543ZM19.9507 68.023C21.1214 68.0961 21.3409 67.9498 21.414 66.9254C21.4872 65.6816 21.4872 64.5109 21.414 63.267C21.414 62.2426 21.0482 62.0231 19.9507 62.2426C19.9507 64.145 19.9507 66.0474 19.9507 68.023Z" fill="black"/>
<path d="M124.362 59.0229C126.557 59.0229 128.679 58.8765 130.728 59.096C133.216 59.3155 134.459 60.9253 134.459 63.413C134.459 64.1447 134.459 64.8032 134.459 65.5349C134.386 67.2178 133.655 68.2421 131.972 68.7543C131.899 68.7543 131.752 68.8275 131.825 68.8275C132.484 69.2665 133.362 69.5592 133.801 70.1445C134.24 70.803 134.313 71.7542 134.386 72.5591C134.533 74.6078 134.46 76.7297 134.533 78.7784C134.533 79.4369 134.825 80.0954 134.972 80.8271C133.581 80.8271 132.264 80.8271 131.021 80.8271C130.801 80.8271 130.508 80.5344 130.435 80.3149C130.289 79.4369 130.143 78.5589 130.069 77.754C129.996 75.9248 130.069 74.0956 129.996 72.2664C129.996 71.1689 129.63 70.8762 128.606 70.7299C128.606 74.0956 128.606 77.3882 128.606 80.8271C127.143 80.8271 125.752 80.8271 124.289 80.8271C124.362 73.5103 124.362 66.2666 124.362 59.0229ZM128.752 62.1691C128.752 64.1447 128.752 66.0471 128.752 68.0226C129.923 68.0958 130.143 67.8763 130.216 66.8519C130.216 65.6812 130.216 64.4374 130.216 63.2667C130.143 62.2423 129.85 62.0228 128.752 62.1691Z" fill="black"/>
<path d="M166.654 66.6322C165.264 66.6322 163.874 66.6322 162.41 66.6322C162.41 65.5347 162.41 64.5103 162.41 63.4128C162.41 63.1933 162.483 62.9006 162.41 62.7543C162.191 62.3884 161.971 62.0957 161.679 61.8031C161.459 62.0957 160.947 62.3884 160.947 62.6811C160.874 64.5103 160.947 66.4127 160.947 68.1687C161.898 68.0224 162.776 67.7297 163.654 67.7297C165.337 67.7297 166.434 68.6809 166.654 70.3638C166.8 71.6808 166.8 73.071 166.8 74.4612C166.8 75.4124 166.8 76.3636 166.8 77.2416C166.8 78.9245 165.995 80.1684 164.386 80.7537C162.63 81.4123 160.727 81.4123 158.971 80.7537C157.435 80.1684 156.63 79.0709 156.63 77.388C156.63 72.4125 156.63 67.3639 156.63 62.3884C156.63 60.5592 157.508 59.4617 159.264 58.8763C160.947 58.3641 162.63 58.3641 164.239 58.8763C165.556 59.3153 166.581 60.1933 166.727 61.6567C166.8 63.3396 166.654 64.9493 166.654 66.6322ZM162.41 74.7539C162.41 74.0222 162.483 73.2905 162.41 72.5589C162.337 72.193 162.044 71.6077 161.752 71.5345C161.166 71.3881 161.02 71.9735 160.947 72.4857C160.947 74.0222 160.874 75.4856 160.947 77.0221C160.947 77.3148 161.386 77.6807 161.679 77.9733C161.898 77.6075 162.337 77.3148 162.41 76.949C162.483 76.2173 162.41 75.4856 162.41 74.7539Z" fill="black"/>
<path d="M39.1943 80.6809C39.1943 73.4372 39.1943 66.2666 39.1943 59.0961C41.4626 59.0961 43.7308 58.8766 45.999 59.1693C48.2672 59.3888 49.3648 60.9253 49.3648 63.2667C49.3648 67.5837 49.3648 71.9006 49.3648 76.2176C49.3648 78.998 48.3404 80.3882 45.6332 80.6809C43.5113 80.9004 41.3894 80.6809 39.1943 80.6809ZM43.5113 62.1692C43.5113 67.3642 43.5113 72.486 43.5113 77.6078C44.682 77.7541 44.9747 77.5346 44.9747 76.5834C44.9747 72.1201 44.9747 67.73 44.9747 63.2667C44.9747 62.2424 44.682 62.0229 43.5113 62.1692Z" fill="black"/>
<path d="M4 80.827C4 73.5101 4 66.3396 4 58.9495C6.48773 59.0959 9.04863 58.5837 11.4632 59.3886C12.9997 59.8276 13.8778 60.9983 14.0973 62.608C14.2436 63.7787 14.1704 64.9494 14.0973 66.1201C13.9509 67.8761 12.8534 68.8273 11.1705 69.1932C11.2437 69.2663 11.2437 69.3395 11.2437 69.3395C13.2924 69.7053 14.0241 71.0955 14.0973 72.9248C14.1704 74.315 14.2436 75.7783 14.0241 77.2417C13.7314 79.6563 12.4876 80.7538 10.073 80.9001C9.63399 80.9001 9.26813 80.9001 8.82912 80.9001C7.29258 80.827 5.68288 80.827 4 80.827ZM8.31694 77.5344C9.56081 77.6807 9.78032 77.5344 9.78032 76.3637C9.78032 74.9003 9.78032 73.3638 9.78032 71.9004C9.78032 70.8028 9.41447 70.5833 8.31694 70.876C8.31694 73.1442 8.31694 75.3393 8.31694 77.5344ZM8.31694 67.9493C9.48764 68.0956 9.78032 67.8761 9.78032 66.8517C9.78032 65.6079 9.78032 64.4372 9.78032 63.1933C9.78032 62.2421 9.26814 61.9495 8.31694 62.2421C8.31694 64.0714 8.31694 65.9737 8.31694 67.9493Z" fill="black"/>
<path d="M119.899 69.1201C119.972 69.1932 119.972 69.1932 120.045 69.2664C122.167 69.6323 122.826 71.1688 122.899 72.998C122.972 74.315 122.972 75.7052 122.826 77.0223C122.606 79.3637 121.436 80.4612 119.167 80.7539C118.728 80.827 118.363 80.8271 117.924 80.8271C116.241 80.8271 114.558 80.8271 112.802 80.8271C112.802 73.5102 112.802 66.3397 112.802 58.8765C115.143 59.0228 117.485 58.9496 119.753 59.2423C121.801 59.535 122.826 61.0715 122.899 63.1934C122.899 63.7788 122.899 64.291 122.899 64.8763C122.899 67.4372 122.314 68.242 119.899 69.1201ZM117.119 70.8761C117.119 73.1443 117.119 75.3394 117.119 77.6076C118.363 77.754 118.582 77.6076 118.582 76.4369C118.582 74.9736 118.582 73.5102 118.582 72.0468C118.582 70.8029 118.363 70.6566 117.119 70.8761ZM117.119 62.1691C117.119 64.0714 117.119 66.047 117.119 67.9494C118.289 68.0225 118.509 67.803 118.582 66.7787C118.582 65.608 118.582 64.3641 118.582 63.1934C118.509 62.2422 118.143 62.0227 117.119 62.1691Z" fill="black"/>
<path d="M171.117 71.0958C171.117 69.9251 171.117 68.9008 171.117 67.8032C171.629 67.8032 172.141 67.8032 172.653 67.8032C173.385 67.8032 173.824 67.4374 173.824 66.7057C173.824 65.3887 173.897 64.0716 173.824 62.7546C173.824 62.4619 173.385 62.0961 173.092 61.8034C172.873 62.0961 172.434 62.3887 172.361 62.7546C172.214 63.5594 172.288 64.4375 172.288 65.3155C172.288 65.7545 172.288 66.2667 172.288 66.7789C170.824 66.7789 169.507 66.7789 167.897 66.7789C167.971 64.9496 167.971 63.0473 168.19 61.2181C168.336 60.1205 169.288 59.3888 170.385 59.023C172.141 58.4377 173.897 58.3645 175.653 59.023C177.19 59.5352 178.068 60.7059 178.141 62.3887C178.214 63.5594 178.141 64.7302 178.141 65.9009C178.068 67.7301 177.336 69.0471 175.141 69.4129C175.507 69.5593 175.653 69.6324 175.8 69.7056C177.117 70.0714 177.922 70.9495 177.995 72.2665C178.141 74.1689 178.141 76.0713 178.068 77.9737C177.995 79.437 177.117 80.4614 175.727 80.9736C173.897 81.6321 172.141 81.6321 170.312 80.9736C169.068 80.5346 168.117 79.5834 168.044 78.1932C167.897 76.2908 168.044 74.3884 168.044 72.4129C169.434 72.4129 170.824 72.4129 172.288 72.4129C172.288 73.7299 172.288 75.0469 172.288 76.364C172.288 76.7298 172.288 77.1688 172.434 77.4615C172.507 77.681 172.873 78.0468 173.019 78.0468C173.312 77.9737 173.531 77.681 173.751 77.3883C173.897 77.242 173.824 76.9493 173.824 76.7298C173.824 75.4128 173.824 74.0957 173.824 72.7787C173.824 71.608 173.458 71.3153 172.288 71.2422C171.922 71.0958 171.556 71.0958 171.117 71.0958Z" fill="black"/>
<path d="M35.7551 59.0229C36.6331 66.2666 37.5112 73.5103 38.3892 80.754C36.8526 80.754 35.4624 80.754 33.8527 80.754C33.7064 78.7785 33.4869 76.8761 33.3405 74.9737C33.1942 74.9005 33.1942 74.8274 33.121 74.8274C31.365 74.681 31.365 74.681 31.1455 76.4371C30.926 77.8273 30.7796 79.2906 30.6333 80.754C29.3163 80.754 28.0724 80.754 26.7554 80.754C27.8529 73.5103 28.8773 66.2666 29.9748 59.0229C31.8772 59.0229 33.7064 59.0229 35.7551 59.0229ZM33.0479 71.6079C32.8284 68.7544 32.682 66.0471 32.5357 63.2667C32.4625 63.2667 32.3894 63.2667 32.3162 63.2667C32.0967 66.0471 31.8772 68.7544 31.6577 71.6079C32.0235 71.6079 32.243 71.6811 32.4625 71.6811C32.6089 71.6811 32.7552 71.6811 33.0479 71.6079Z" fill="black"/>
<path d="M140.46 77.6809C141.703 77.6809 142.874 77.6809 144.118 77.6809C144.118 78.7053 144.118 79.7297 144.118 80.754C141.484 80.754 138.85 80.754 136.143 80.754C136.143 73.5835 136.143 66.3398 136.143 59.0229C138.777 59.0229 141.411 59.0229 144.118 59.0229C144.118 60.0473 144.118 60.9985 144.118 62.096C142.874 62.096 141.703 62.096 140.46 62.096C140.46 63.7789 140.46 65.3886 140.46 67.1446C141.63 67.1446 142.801 67.1446 143.972 67.1446C143.972 68.2422 143.972 69.1934 143.972 70.2909C142.801 70.2909 141.703 70.2909 140.46 70.2909C140.46 72.7055 140.46 75.12 140.46 77.6809Z" fill="black"/>
<path d="M150.703 67.2176C150.996 65.3883 151.288 63.6323 151.581 61.8031C151.727 61.0714 151.8 60.2665 151.947 59.5349C152.02 59.3153 152.313 58.9495 152.532 58.9495C153.556 58.8763 154.654 58.9495 155.825 58.9495C155.752 59.3154 155.678 59.5348 155.605 59.8275C154.654 62.9006 153.776 65.9005 152.825 68.9736C152.678 69.5589 152.605 70.1443 152.605 70.6565C152.605 73.9491 152.605 77.3148 152.605 80.6806C151.142 80.6806 149.752 80.6806 148.215 80.6806C148.215 80.4611 148.215 80.1684 148.215 79.8757C148.215 77.9002 148.142 75.9246 148.215 73.9491C148.361 71.0955 147.922 68.3883 146.898 65.7542C146.093 63.5591 145.435 61.3641 144.63 58.9495C146.093 58.9495 147.557 58.9495 148.947 58.9495C149.093 58.9495 149.239 59.3153 149.239 59.5349C149.679 62.0958 150.044 64.5835 150.483 67.1444C150.557 67.2176 150.63 67.2176 150.703 67.2176Z" fill="black"/>
<path d="M104.827 103.071C104.827 103.729 104.314 104.314 103.656 104.314C102.924 104.388 102.339 103.802 102.339 103.144C102.339 102.485 102.924 101.827 103.583 101.827C104.168 101.827 104.753 102.412 104.827 103.071Z" fill="white"/>
<path d="M39.7064 90.4123C39.8527 91.2903 39.56 91.4366 38.9015 91.4366C31.0725 90.9976 23.2434 90.6318 15.4876 90.2659C15.4144 90.2659 15.4144 90.1928 15.2681 90.1928C15.5607 89.3147 16.2193 89.0221 17.0973 89.0952C20.3167 89.3147 23.5361 89.4611 26.8287 89.6806C30.7066 89.9001 34.6578 90.1196 38.5357 90.4123C38.8284 90.3391 39.2674 90.3391 39.7064 90.4123Z" fill="white"/>
<path d="M162.044 90.0463C154.069 90.4853 146.24 90.9243 138.411 91.3633C137.679 91.4365 137.459 91.1438 137.606 90.3389C138.996 90.2658 140.459 90.1194 141.923 90.0463C147.776 89.6804 153.557 89.3877 159.41 89.0219C159.776 89.0219 160.142 88.9487 160.581 88.9487C161.239 89.0219 161.751 89.3877 162.044 90.0463Z" fill="white"/>
<path d="M73.876 101.827C74.6077 101.827 75.1199 102.412 75.1199 103.144C75.1199 103.802 74.5345 104.314 73.876 104.314C73.2175 104.314 72.6322 103.802 72.6322 103.144C72.559 102.412 73.1443 101.827 73.876 101.827Z" fill="white"/>
<path d="M37.2916 107.314V102.632H38.0964L39.1208 105.192L40.1451 102.632H40.95V107.314H40.072V104.753L39.2671 106.729H38.9744L38.1696 104.753V107.314H37.2916Z" fill="white"/>
<path d="M41.7548 108.631L41.6817 107.827C41.828 107.827 41.9012 107.827 41.9743 107.827C42.0475 107.827 42.1207 107.827 42.1938 107.753C42.267 107.753 42.3402 107.68 42.3402 107.68C42.3402 107.68 42.4134 107.607 42.4134 107.534C42.4134 107.461 42.4134 107.388 42.4134 107.314C42.4134 107.241 42.4134 107.168 42.3402 107.022L41.3158 102.705H42.267L42.706 104.827L42.9987 106.29L43.2182 104.827L43.584 102.705H44.6084L43.5109 107.388C43.4377 107.607 43.4377 107.827 43.3645 107.973C43.2914 108.119 43.2182 108.266 43.145 108.339C43.0719 108.412 42.9255 108.485 42.7792 108.558C42.6329 108.631 42.4865 108.631 42.3402 108.631C42.1938 108.631 42.0475 108.631 41.7548 108.631Z" fill="white"/>
<path d="M44.8279 107.314L45.8523 104.973L44.9011 102.705H45.9254L46.8035 104.9H46.8766V102.705H47.7547V104.9H47.8278L48.7058 102.705H49.7302L48.7058 104.973L49.8034 107.314H48.779L47.8278 105.046H47.7547V107.314H46.8766V105.046H46.8035L45.8523 107.314H44.8279Z" fill="white"/>
<path d="M51.6326 107.388C51.1204 107.388 50.7546 107.241 50.4619 106.949C50.1692 106.656 50.0961 106.217 50.0961 105.632V104.315C50.0961 103.729 50.2424 103.29 50.4619 102.998C50.6814 102.705 51.0472 102.559 51.6326 102.559C52.1448 102.559 52.5106 102.705 52.7301 102.924C52.9496 103.144 53.096 103.51 53.096 104.022V104.388H52.0716V104.022C52.0716 103.802 52.0716 103.656 51.9984 103.51C51.9253 103.437 51.8521 103.363 51.7058 103.363C51.5594 103.363 51.4131 103.437 51.4131 103.51C51.3399 103.656 51.3399 103.802 51.3399 104.095V105.778C51.3399 106.071 51.3399 106.29 51.4131 106.363C51.4863 106.437 51.5594 106.51 51.7058 106.51C51.8521 106.51 51.9253 106.437 51.9984 106.363C52.0716 106.29 52.0716 106.144 52.0716 105.924V105.412H53.096V105.851C53.096 106.363 52.9496 106.729 52.7301 106.949C52.4375 107.241 52.0716 107.388 51.6326 107.388Z" fill="white"/>
<path d="M53.7545 107.314V102.632H54.852V104.534H55.0715L55.8764 102.632H57.0471L56.0959 104.827L57.0471 107.241H55.8764L55.0715 105.119H54.852V107.241H53.7545V107.314Z" fill="white"/>
<path d="M58.3641 107.388C58.0714 107.388 57.8519 107.241 57.6324 107.022C57.4129 106.802 57.3398 106.51 57.3398 106.29C57.3398 105.998 57.4129 105.778 57.4861 105.558C57.5593 105.339 57.7056 105.193 57.9251 105.046C58.1446 104.9 58.2909 104.827 58.4373 104.754C58.5836 104.68 58.8031 104.607 59.0226 104.461C59.0958 104.461 59.169 104.388 59.169 104.388V104.022C59.169 103.802 59.169 103.656 59.0958 103.583C59.0226 103.51 58.9495 103.437 58.8031 103.437C58.5836 103.437 58.4373 103.583 58.4373 103.949V104.241L57.4129 104.168V104.095C57.4129 104.022 57.4129 104.022 57.4129 104.022C57.4129 103.51 57.5593 103.144 57.8519 102.924C58.0714 102.705 58.4373 102.559 58.9495 102.559C59.3885 102.559 59.7543 102.705 59.9738 102.924C60.1933 103.144 60.3397 103.51 60.3397 103.949V106.071C60.3397 106.437 60.3397 106.802 60.4128 107.241H59.3885C59.3153 106.949 59.3153 106.729 59.2421 106.583C59.169 106.802 59.0958 106.949 58.9495 107.095C58.8031 107.315 58.5836 107.388 58.3641 107.388ZM58.8031 106.51C58.8763 106.51 58.9495 106.51 59.0226 106.437C59.0958 106.363 59.169 106.29 59.2421 106.217V104.973C58.73 105.266 58.4373 105.632 58.4373 105.998C58.4373 106.144 58.4373 106.29 58.5105 106.363C58.5836 106.437 58.6568 106.51 58.8031 106.51Z" fill="white"/>
<path d="M60.7787 107.314L61.5835 105.339C61.1445 105.193 60.9982 104.753 60.9982 104.095C60.9982 103.583 61.1445 103.217 61.4372 102.997C61.7299 102.778 62.1689 102.632 62.8274 102.632H64.0713V107.314H62.9737V105.558C62.9006 105.558 62.7542 105.558 62.6079 105.558L61.9494 107.314H60.7787ZM62.9006 104.9L62.9737 103.29H62.9006C62.5347 103.29 62.3152 103.363 62.1689 103.51C62.0225 103.656 61.9494 103.802 61.9494 104.095C61.9494 104.388 62.0225 104.607 62.1689 104.753C62.3152 104.827 62.5347 104.9 62.9006 104.9Z" fill="white"/>
<path d="M113.826 107.241V102.558H116.826V107.241H115.729V103.363H114.924V107.241H113.826Z" fill="white"/>
<path d="M118.582 107.387C118.29 107.387 118.07 107.241 117.851 107.022C117.631 106.802 117.558 106.509 117.558 106.29C117.558 105.997 117.631 105.778 117.704 105.558C117.777 105.339 117.924 105.192 118.143 105.046C118.363 104.9 118.509 104.827 118.655 104.753C118.802 104.68 119.021 104.607 119.241 104.461C119.314 104.461 119.387 104.388 119.387 104.388V104.022C119.387 103.802 119.387 103.656 119.314 103.583C119.241 103.51 119.168 103.436 119.021 103.436C118.802 103.436 118.655 103.583 118.655 103.949V104.241L117.631 104.168V104.095C117.631 104.022 117.631 104.022 117.631 104.022C117.631 103.51 117.777 103.144 118.07 102.924C118.29 102.705 118.655 102.558 119.168 102.558C119.607 102.558 119.972 102.705 120.192 102.924C120.411 103.144 120.558 103.51 120.558 103.949V106.07C120.558 106.436 120.558 106.802 120.631 107.241H119.607C119.533 106.948 119.533 106.729 119.46 106.583C119.387 106.802 119.314 106.948 119.168 107.095C118.948 107.314 118.802 107.387 118.582 107.387ZM118.948 106.509C119.021 106.509 119.094 106.509 119.168 106.436C119.241 106.363 119.314 106.29 119.387 106.217V104.9C118.875 105.192 118.582 105.558 118.582 105.924C118.582 106.07 118.582 106.217 118.655 106.29C118.729 106.436 118.875 106.509 118.948 106.509Z" fill="white"/>
<path d="M121.289 108.778V102.558H122.387V102.924C122.68 102.631 122.972 102.485 123.338 102.485C123.484 102.485 123.631 102.558 123.777 102.631C123.923 102.705 123.997 102.778 124.07 102.924C124.143 102.997 124.216 103.144 124.216 103.29C124.289 103.436 124.289 103.583 124.289 103.729C124.289 103.875 124.289 104.022 124.289 104.095V105.631C124.289 105.851 124.289 106.07 124.216 106.29C124.143 106.509 124.143 106.656 123.997 106.802C123.923 106.948 123.777 107.095 123.631 107.168C123.484 107.241 123.338 107.314 123.119 107.314C122.826 107.314 122.533 107.168 122.241 106.875V108.778H121.289V108.778ZM122.899 106.583C122.972 106.583 123.045 106.583 123.119 106.509C123.192 106.436 123.192 106.363 123.265 106.29C123.265 106.217 123.338 106.144 123.338 105.997C123.338 105.924 123.338 105.778 123.338 105.631V104.022C123.338 103.948 123.338 103.802 123.338 103.729C123.338 103.656 123.338 103.583 123.265 103.509C123.265 103.436 123.192 103.363 123.119 103.363C123.045 103.29 122.972 103.29 122.899 103.29C122.753 103.29 122.606 103.363 122.46 103.509V106.436C122.533 106.509 122.68 106.583 122.899 106.583Z" fill="white"/>
<path d="M125.094 107.241V102.558H125.972V105.339L127.289 102.558H128.167V107.241H127.289V104.461L125.972 107.241H125.094Z" fill="white"/>
<path d="M129.045 107.241V102.558H130.143V104.461H130.362L131.167 102.558H132.338L131.387 104.753L132.338 107.168H131.167L130.362 105.046H130.143V107.168H129.045V107.241Z" fill="white"/>
<path d="M132.704 107.241V102.558H133.509L134.533 105.119L135.557 102.558H136.362V107.241H135.484V104.68L134.679 106.656H134.387L133.582 104.68V107.241H132.704Z" fill="white"/>
<path d="M138.118 107.387C137.826 107.387 137.606 107.241 137.387 107.022C137.167 106.802 137.094 106.509 137.094 106.29C137.094 105.997 137.167 105.778 137.24 105.558C137.313 105.339 137.46 105.192 137.679 105.046C137.899 104.9 138.045 104.827 138.191 104.753C138.338 104.68 138.557 104.607 138.777 104.461C138.85 104.461 138.923 104.388 138.923 104.388V104.022C138.923 103.802 138.923 103.656 138.85 103.583C138.777 103.51 138.704 103.436 138.557 103.436C138.338 103.436 138.191 103.583 138.191 103.949V104.241L137.167 104.168V104.095V104.022C137.167 103.51 137.313 103.144 137.606 102.924C137.826 102.705 138.191 102.558 138.704 102.558C139.143 102.558 139.508 102.705 139.728 102.924C139.947 103.144 140.094 103.51 140.094 103.949V106.07C140.094 106.436 140.094 106.802 140.167 107.241H139.143C139.069 106.948 139.069 106.729 138.996 106.583C138.923 106.802 138.85 106.948 138.704 107.095C138.557 107.314 138.338 107.387 138.118 107.387ZM138.557 106.509C138.63 106.509 138.704 106.509 138.777 106.436C138.85 106.363 138.923 106.29 138.996 106.217V104.9C138.484 105.192 138.191 105.558 138.191 105.924C138.191 106.07 138.191 106.217 138.265 106.29C138.338 106.436 138.411 106.509 138.557 106.509Z" fill="white"/>
<path d="M140.533 107.241L141.557 104.753L140.606 102.558H141.703L142.289 103.875L142.801 102.558H143.752L142.728 104.9L143.825 107.241H142.728L142.069 105.851L141.557 107.241H140.533Z" fill="white"/>
<path d="M145.581 107.387C145.069 107.387 144.703 107.241 144.411 106.948C144.191 106.656 144.045 106.217 144.045 105.631V104.314C144.045 103.729 144.191 103.29 144.411 102.997C144.63 102.705 144.996 102.558 145.581 102.558C145.874 102.558 146.094 102.632 146.313 102.705C146.533 102.778 146.679 102.924 146.752 103.071C146.825 103.217 146.898 103.436 146.972 103.656C147.045 103.875 147.045 104.168 147.045 104.461V105.046H145.216V105.778C145.216 105.851 145.216 105.924 145.216 105.997C145.216 106.07 145.216 106.144 145.216 106.217C145.216 106.29 145.216 106.363 145.289 106.363C145.362 106.363 145.362 106.436 145.362 106.509C145.362 106.583 145.435 106.583 145.508 106.583C145.581 106.583 145.581 106.583 145.655 106.583C145.801 106.583 145.874 106.509 145.947 106.436C146.02 106.363 146.02 106.217 146.02 105.997V105.705H147.045V105.924C147.045 106.436 146.898 106.802 146.679 107.022C146.459 107.241 146.094 107.387 145.581 107.387ZM145.216 104.461H146.02V104.022C146.02 103.802 146.02 103.583 145.947 103.51C145.874 103.436 145.801 103.363 145.655 103.363C145.508 103.363 145.435 103.436 145.362 103.51C145.289 103.583 145.289 103.802 145.289 104.168V104.461H145.216Z" fill="white"/>
<path d="M147.776 108.778V102.558H148.874V102.924C149.167 102.631 149.459 102.485 149.825 102.485C149.972 102.485 150.118 102.558 150.264 102.631C150.411 102.705 150.484 102.778 150.557 102.924C150.63 102.997 150.703 103.144 150.703 103.29C150.776 103.436 150.776 103.583 150.776 103.729C150.776 103.875 150.776 104.022 150.776 104.095V105.631C150.776 105.851 150.776 106.07 150.703 106.29C150.63 106.509 150.63 106.656 150.484 106.802C150.411 106.948 150.264 107.095 150.118 107.168C149.972 107.241 149.825 107.314 149.606 107.314C149.313 107.314 149.02 107.168 148.728 106.875V108.778H147.776V108.778ZM149.386 106.583C149.459 106.583 149.533 106.583 149.606 106.509C149.679 106.436 149.679 106.363 149.752 106.29C149.752 106.217 149.825 106.144 149.825 105.997C149.825 105.924 149.825 105.778 149.825 105.631V104.022C149.825 103.948 149.825 103.802 149.825 103.729C149.825 103.656 149.825 103.583 149.752 103.509C149.752 103.436 149.679 103.363 149.606 103.363C149.533 103.29 149.459 103.29 149.386 103.29C149.24 103.29 149.093 103.363 148.947 103.509V106.436C149.02 106.509 149.167 106.583 149.386 106.583Z" fill="white"/>
<path d="M153.045 107.387C152.532 107.387 152.167 107.241 151.874 106.948C151.654 106.656 151.508 106.217 151.508 105.631V104.241C151.508 103.656 151.654 103.217 151.874 102.924C152.093 102.631 152.459 102.485 153.045 102.485C153.557 102.485 153.923 102.631 154.142 102.851C154.362 103.07 154.508 103.436 154.508 103.948V104.314H153.41V103.948C153.41 103.729 153.41 103.583 153.337 103.436C153.264 103.363 153.191 103.29 153.045 103.29C152.898 103.29 152.752 103.363 152.752 103.436C152.752 103.509 152.679 103.729 152.679 104.022V105.705C152.679 105.997 152.679 106.217 152.752 106.29C152.825 106.363 152.898 106.436 153.045 106.436C153.191 106.436 153.264 106.363 153.337 106.29C153.41 106.217 153.41 106.07 153.41 105.851V105.339H154.435V105.778C154.435 106.29 154.288 106.656 154.069 106.875C153.849 107.241 153.484 107.387 153.045 107.387Z" fill="white"/>
<path d="M155.166 107.241V102.558H156.264V104.461H156.484L157.288 102.558H158.459L157.508 104.753L158.459 107.168H157.288L156.484 105.046H156.264V107.168H155.166V107.241Z" fill="white"/>
<path d="M159.776 107.387C159.483 107.387 159.264 107.241 159.044 107.022C158.825 106.802 158.752 106.509 158.752 106.29C158.752 105.997 158.825 105.778 158.898 105.558C158.971 105.339 159.118 105.192 159.337 105.046C159.557 104.9 159.703 104.827 159.849 104.753C159.996 104.68 160.215 104.607 160.435 104.461C160.508 104.461 160.581 104.388 160.581 104.388V104.022C160.581 103.802 160.581 103.656 160.508 103.583C160.435 103.51 160.361 103.436 160.215 103.436C159.996 103.436 159.849 103.583 159.849 103.949V104.241L158.825 104.168V104.095V104.022C158.825 103.51 158.971 103.144 159.264 102.924C159.483 102.705 159.849 102.558 160.361 102.558C160.8 102.558 161.166 102.705 161.386 102.924C161.605 103.144 161.752 103.51 161.752 103.949V106.07C161.752 106.436 161.752 106.802 161.825 107.241H160.8C160.727 106.948 160.727 106.729 160.654 106.583C160.581 106.802 160.508 106.948 160.361 107.095C160.215 107.314 159.996 107.387 159.776 107.387ZM160.142 106.509C160.215 106.509 160.288 106.509 160.361 106.436C160.435 106.363 160.508 106.29 160.581 106.217V104.9C160.069 105.192 159.776 105.558 159.776 105.924C159.776 106.07 159.776 106.217 159.849 106.29C159.922 106.436 160.069 106.509 160.142 106.509Z" fill="white"/>
<path d="M162.191 107.241L162.996 105.266C162.557 105.119 162.41 104.68 162.41 104.022C162.41 103.51 162.557 103.144 162.849 102.924C163.142 102.705 163.581 102.558 164.239 102.558H165.483V107.241H164.386V105.485C164.313 105.485 164.166 105.485 164.02 105.485L163.361 107.241H162.191ZM164.313 104.9L164.386 103.29H164.313C163.947 103.29 163.727 103.363 163.581 103.51C163.435 103.656 163.361 103.802 163.361 104.095C163.361 104.388 163.435 104.607 163.581 104.753C163.727 104.827 163.947 104.9 164.313 104.9Z" fill="white"/>
<path d="M57.6324 91.29C58.1446 91.29 58.5104 91.6559 58.5104 92.1681C58.5104 92.6803 58.1446 93.0461 57.6324 93.0461C57.1202 93.0461 56.7544 92.6803 56.7544 92.2412C56.7544 91.6559 57.1202 91.29 57.6324 91.29Z" fill="white"/>
<path d="M119.607 91.29C120.119 91.29 120.485 91.6559 120.485 92.1681C120.485 92.6071 120.119 92.9729 119.607 92.9729C119.094 92.9729 118.729 92.6071 118.729 92.1681C118.729 91.6559 119.168 91.29 119.607 91.29Z" fill="white"/>
</svg>
