<svg width="320" height="75" viewBox="0 0 320 75" fill="none" xmlns="http://www.w3.org/2000/svg">
<path d="M-292.007 74.7412V5.12817C-289.303 5.43355 -287.054 5.9975 -285.645 6.72367C-275.414 6.72367 -264.324 6.13456 -271.374 7.55824C-269.826 8.4419 -260.283 8.14735 -255.813 8.04916C-251.745 7.20454 -246.972 6.67973 -241.971 6.5273C-238.876 4.71088 -230.795 8.98192 -228.904 9.64467C-228.904 9.0801 -215.578 7.06731 -213.687 7.55824C-220.221 8.46645 -213.687 9.4483 -199.588 10.2338C-202.683 11.9766 -191.85 9.59557 -185.059 9.86558C-183.941 8.04916 -172.249 11.6084 -169.928 10.2829C-165.715 11.5593 -153.937 13.6212 -154.711 11.8538C-151.702 11.4365 -142.761 10.2092 -139.494 11.2647C-142.933 10.4547 -124.191 7.33732 -124.191 8.8101C-124.191 10.2829 -109.06 12.0993 -109.06 8.491C-109.06 11.9275 -94.0152 7.85279 -94.0152 7.90189C-94.0152 7.95098 -78.3684 10.3565 -78.3684 9.74285C-78.3684 7.63188 -63.8393 5.76637 -63.8393 7.28823C-63.8393 8.8101 -48.4505 7.63187 -48.4505 7.8037C-48.4505 10.2583 -33.3195 8.83464 -33.3195 7.28823C-33.3195 6.30638 -16.8991 5.5209 -16.8991 8.46645C-16.8991 9.03101 -3.14371 7.28823 -3.14371 6.01183C-3.14371 5.39817 9.83795 1.10258 9.83795 2.72263C9.83795 2.72263 25.7426 1.56896 25.7426 2.37899C25.7426 0.73439 41.1314 0.0961914 41.1314 0.58712C41.1314 -0.542007 56.9501 4.68633 56.9501 4.29359C56.9501 3.90085 71.8231 4.29359 71.8231 4.07268C71.8231 4.53905 88.3296 3.90086 88.3296 3.40993C88.3296 6.5273 95.6371 9.4483 95.6371 8.31918C95.6371 5.86455 109.392 9.10464 109.392 9.81649C109.392 8.761 124.351 10.2583 124.351 9.42375C124.351 6.96913 139.052 10.3074 139.052 8.58918C139.052 6.87094 153.925 8.58918 153.925 9.37466C153.925 9.15375 168.369 11.5593 168.369 10.8229C168.369 12.1729 183.843 9.71831 183.843 10.1601C183.843 10.602 198.029 13.3757 198.029 14.3084C198.029 14.5048 213.675 10.7247 213.675 13.0075C213.675 14.7012 228.892 12.0257 228.892 13.0075C228.892 13.9893 244.711 10.5529 244.711 14.4557C244.711 14.0139 258.724 10.8229 258.724 11.4365C258.724 10.8474 274.543 9.7674 274.543 8.71191C274.543 9.52193 293.113 7.23914 293.113 8.93283C293.113 5.8891 310.307 4.88271 310.307 7.68097C310.307 6.65003 326.384 7.8528 326.384 8.56464C326.384 7.26369 341.6 8.14735 341.6 8.19644C341.6 6.35548 357.075 6.77276 357.075 6.60094C357.075 8.73646 372.034 8.34371 372.034 9.20284C372.034 8.66282 388.541 5.2018 388.541 6.74821C388.541 6.25729 404.015 6.74821 404.015 7.41096C404.015 10.2829 418.974 8.68736 418.974 8.90828C422.972 10.1716 427.54 11.2777 432.558 12.1975C432.558 12.762 448.205 10.8229 448.205 12.4184C448.205 12.4184 465.915 7.01823 465.915 9.57103C465.915 9.98831 478.896 15.413 478.896 14.1612C478.896 12.9093 494.113 14.1612 494.113 15.3639C494.113 16.5667 510.19 15.3639 510.19 15.683C510.19 17.4258 526.61 14.1121 526.61 14.6275C526.61 15.143 542.773 14.2593 542.773 13.2775C542.773 13.8421 558.505 14.1612 558.505 14.8976C558.505 15.2412 574.41 13.523 574.41 13.7439C574.41 13.9648 590.315 11.7802 590.315 15.4376C590.315 15.0203 605.961 14.6766 605.961 12.4675C605.961 11.0193 622.296 15.3394 622.296 15.5848C622.296 18.9477 637.771 14.6521 637.771 13.1302C637.771 15.413 653.847 12.222 653.847 14.1121C653.847 13.6212 669.408 10.3565 669.408 12.222C669.408 13.5475 684.539 13.253 684.539 12.9584C684.539 13.9157 699.928 14.8976 699.928 14.9466C699.928 19.5613 714.887 16.1003 714.887 14.9466C714.887 13.793 729.158 10.4547 729.158 11.1174C729.158 8.24553 744.375 10.4547 744.375 12.5166C744.375 10.062 759.678 14.9712 759.678 13.7193C759.678 12.4675 774.465 11.6575 774.465 12.7375C774.465 11.5347 790.799 12.492 789.424 12.7375C788.392 13.6457 806.618 12.7375 805.758 12.3202C799.483 12.0502 819.17 10.4792 821.577 11.0193C825.188 8.88374 840.749 9.15375 837.74 10.602C840.233 11.7802 856.309 8.95737 853.73 8.34372C857.513 8.1719 866.196 7.77915 870.924 8.85918C871.526 8.51554 876.599 9.17829 880.983 9.93922V74.7412H-292.007Z" fill="black"/>
</svg>
