<svg width="320" height="75" viewBox="0 0 320 75" fill="none" xmlns="http://www.w3.org/2000/svg">
<path d="M-292 0V69.613C-289.296 69.3077 -287.047 68.7437 -285.638 68.0175C-275.408 68.0175 -264.317 68.6067 -271.367 67.183C-269.819 66.2993 -260.277 66.5939 -255.806 66.692C-251.739 67.5367 -246.966 68.0615 -241.965 68.2139C-238.87 70.0303 -230.789 65.7593 -228.897 65.0965C-228.897 65.6611 -215.572 67.6739 -213.68 67.183C-220.214 66.2748 -213.68 65.2929 -199.581 64.5074C-202.676 62.7647 -191.844 65.1456 -185.052 64.8756C-183.934 66.692 -172.242 63.1328 -169.921 64.4583C-165.708 63.1819 -153.93 61.1201 -154.704 62.8874C-151.695 63.3047 -142.754 64.532 -139.487 63.4765C-142.926 64.2865 -124.184 67.4039 -124.184 65.9311C-124.184 64.4583 -109.053 62.6419 -109.053 66.2502C-109.053 62.8137 -94.0086 66.8884 -94.0086 66.8393C-94.0086 66.7902 -78.3618 64.3847 -78.3618 64.9984C-78.3618 67.1093 -63.8327 68.9748 -63.8327 67.453C-63.8327 65.9311 -48.4439 67.1093 -48.4439 66.9375C-48.4439 64.4829 -33.313 65.9066 -33.313 67.453C-33.313 68.4348 -16.8925 69.2203 -16.8925 66.2748C-16.8925 65.7102 -3.13712 67.453 -3.13712 68.7294C-3.13712 69.343 9.84454 73.6386 9.84454 72.0186C9.84454 72.0186 25.7492 73.1722 25.7492 72.3622C25.7492 74.0068 41.138 74.645 41.138 74.1541C41.138 75.2832 56.9567 70.0549 56.9567 70.4476C56.9567 70.8404 71.8297 70.4476 71.8297 70.6685C71.8297 70.2022 88.3362 70.8404 88.3362 71.3313C88.3362 68.2139 95.6437 65.2929 95.6437 66.422C95.6437 68.8767 109.399 65.6366 109.399 64.9247C109.399 65.9802 124.358 64.4829 124.358 65.3175C124.358 67.7721 139.059 64.4338 139.059 66.152C139.059 67.8703 153.932 66.152 153.932 65.3666C153.932 65.5875 168.375 63.1819 168.375 63.9183C168.375 62.5683 183.85 65.0229 183.85 64.5811C183.85 64.1392 198.035 61.3655 198.035 60.4328C198.035 60.2364 213.682 64.0165 213.682 61.7337C213.682 60.04 228.899 62.7156 228.899 61.7337C228.899 60.7519 244.718 64.1883 244.718 60.2855C244.718 60.7273 258.731 63.9183 258.731 63.3047C258.731 63.8938 274.55 64.9738 274.55 66.0293C274.55 65.2193 293.119 67.5021 293.119 65.8084C293.119 68.8521 310.313 69.8585 310.313 67.0602C310.313 68.0912 326.39 66.8884 326.39 66.1766C326.39 67.4775 341.607 66.5939 341.607 66.5448C341.607 68.3857 357.082 67.9685 357.082 68.1403C357.082 66.0048 372.041 66.3975 372.041 65.5384C372.041 66.0784 388.547 69.5394 388.547 67.993C388.547 68.4839 404.022 67.993 404.022 67.3303C404.022 64.4583 418.981 66.0538 418.981 65.8329C422.979 64.5696 427.546 63.4635 432.564 62.5437C432.564 61.9792 448.211 63.9183 448.211 62.3228C448.211 62.3228 465.921 67.723 465.921 65.1702C465.921 64.7529 478.903 59.3282 478.903 60.58C478.903 61.8319 494.12 60.58 494.12 59.3773C494.12 58.1745 510.196 59.3773 510.196 59.0582C510.196 57.3154 526.617 60.6291 526.617 60.1137C526.617 59.5982 542.779 60.4819 542.779 61.4637C542.779 60.8991 558.512 60.58 558.512 59.8437C558.512 59.5 574.417 61.2182 574.417 60.9973C574.417 60.7764 590.321 62.961 590.321 59.3036C590.321 59.7209 605.968 60.0646 605.968 62.2737C605.968 63.722 622.303 59.4018 622.303 59.1564C622.303 55.7935 637.777 60.0891 637.777 61.611C637.777 59.3282 653.854 62.5192 653.854 60.6291C653.854 61.1201 669.415 64.3847 669.415 62.5192C669.415 61.1937 684.546 61.4883 684.546 61.7828C684.546 60.8255 699.935 59.8437 699.935 59.7946C699.935 55.1799 714.893 58.6409 714.893 59.7946C714.893 60.9482 729.165 64.2865 729.165 63.6238C729.165 66.4957 744.382 64.2865 744.382 62.2246C744.382 64.6793 759.684 59.77 759.684 61.0219C759.684 62.2737 774.471 63.0838 774.471 62.0037C774.471 63.2065 790.806 62.2492 789.43 62.0037C788.399 61.0955 806.625 62.0037 805.765 62.421C799.489 62.691 819.176 64.262 821.584 63.722C825.194 65.8575 840.755 65.5875 837.746 64.1392C840.239 62.961 856.316 65.7838 853.737 66.3975C857.52 66.5693 866.203 66.9621 870.931 65.882C871.533 66.2257 876.605 65.5629 880.99 64.802V0H-292Z" fill="black"/>
</svg>
