<?xml version="1.0" encoding="UTF-8" standalone="no"?>
<svg
   width="1920"
   height="111"
   viewBox="0 0 1920 111"
   fill="none"
   version="1.1"
   id="svg4"
   sodipodi:docname="Vector.svg"
   inkscape:version="1.2.1 (9c6d41e410, 2022-07-14)"
   xmlns:inkscape="http://www.inkscape.org/namespaces/inkscape"
   xmlns:sodipodi="http://sodipodi.sourceforge.net/DTD/sodipodi-0.dtd"
   xmlns="http://www.w3.org/2000/svg"
   xmlns:svg="http://www.w3.org/2000/svg">
  <defs
     id="defs8" />
  <sodipodi:namedview
     id="namedview6"
     pagecolor="#ffffff"
     bordercolor="#111111"
     borderopacity="1"
     inkscape:showpageshadow="0"
     inkscape:pageopacity="0"
     inkscape:pagecheckerboard="1"
     inkscape:deskcolor="#d1d1d1"
     showgrid="false"
     inkscape:zoom="1.9857915"
     inkscape:cx="17.373425"
     inkscape:cy="87.118913"
     inkscape:window-width="1920"
     inkscape:window-height="1017"
     inkscape:window-x="-8"
     inkscape:window-y="-8"
     inkscape:window-maximized="1"
     inkscape:current-layer="svg4" />
  <path
     d="M 1954.15,-1.20591 -59.8506,-4 l -0.1426,102.816 10.4151,1.377 27.7289,-1.021 22.065209,-4.0859 28.035291,-0.9599 25.4317,-1.4781 27.1103,3.2459 24.6657,-1.237 25.739,-2.2948 24.353,3.5145 25.738,-1.629 24.97,-0.3286 25.123,0.2468 21.604,-2.4217 24.969,0.3373 21.91,-2.6331 26.038,3.5168 23.134,-1.5417 27.574,0.0079 24.354,2.4552 19.45,3.8404 25.274,1.67 26.194,1.489 27.268,0.25 27.422,-0.78 27.882,-0.899 27.571,2.096 25.28,-2.507 28.646,1.159 24.973,-2.265 24.82,-2.145 25.279,-1.7204 25.585,-1.72 26.044,-1.3258 29.716,2.0691 24.82,-2.2054 23.747,-1.6922 24.817,-0.0564 23.594,-1.753 25.276,0.4588 24.358,-0.6321 24.968,1.8204 23.899,-0.5722 24.512,-0.7226 25.58,2.2449 28.95,1.2811 24.81,3.2427 29.57,-1.6236 25.73,4.8177 27.88,-0.657 25.59,-1.115 24.2,1.456 25.43,-1.72 24.66,-0.329 24.51,0.791 24.82,1.971 25.27,1.609 23.91,-3.7501 25.58,2.0941 25.42,0.398 23.45,-2.6007 23.13,-2.5406 27.27,2.7013 25.27,0.035 17.02,-6.181 26.19,0.8838 24.97,2.4863 22.36,-0.7862 27.27,-1.8387 19.15,4.4455 22.05,2.6033 28.5,-0.414 20.83,3.358 29.26,-1.231 19.91,4.265 25.12,1.064 26.5,-0.69 24.51,1.699 26.35,-1.113 27.11,1.218 26.5,0.642 17.01,-0.401 0.14,-99.3956 V 6.6029 6.5726 Z"
     fill="#111111"
     id="path2"
     inkscape:label="path2" />
</svg>
