<?xml version="1.0" encoding="UTF-8" standalone="no"?>
<svg
   width="1920"
   height="201"
   viewBox="0 0 1920 201"
   fill="none"
   version="1.1"
   id="svg4"
   sodipodi:docname="Vector 2.svg"
   inkscape:version="1.2.1 (9c6d41e410, 2022-07-14)"
   xmlns:inkscape="http://www.inkscape.org/namespaces/inkscape"
   xmlns:sodipodi="http://sodipodi.sourceforge.net/DTD/sodipodi-0.dtd"
   xmlns="http://www.w3.org/2000/svg"
   xmlns:svg="http://www.w3.org/2000/svg">
  <defs
     id="defs8" />
  <sodipodi:namedview
     id="namedview6"
     pagecolor="#ffffff"
     bordercolor="#111111"
     borderopacity="1"
     inkscape:showpageshadow="0"
     inkscape:pageopacity="0"
     inkscape:pagecheckerboard="1"
     inkscape:deskcolor="#d1d1d1"
     showgrid="false"
     inkscape:zoom="0.70208333"
     inkscape:cx="960.71217"
     inkscape:cy="102.55193"
     inkscape:window-width="1920"
     inkscape:window-height="1017"
     inkscape:window-x="-8"
     inkscape:window-y="-8"
     inkscape:window-maximized="1"
     inkscape:current-layer="svg4" />
  <path
     d="m -28,-10 h 2014 v 191.905 l -10.42,2.542 -27.72,-1.977 -22.06,-7.683 -28.04,-1.865 -25.43,-2.824 -27.11,5.988 -24.67,-2.373 -25.73,-4.35 -24.36,6.497 -25.74,-3.107 -24.97,-0.678 -25.12,0.395 -21.6,-4.575 -24.97,0.565 -21.91,-4.972 -26.04,6.497 -23.13,-2.938 -27.57,-0.056 -24.36,4.519 -19.46,7.118 -25.27,3.051 -26.2,2.711 -27.27,0.396 -27.42,-1.525 -27.88,-1.752 -27.57,3.842 -25.28,-4.746 -28.65,2.091 -24.97,-4.294 -24.81,-4.067 -25.28,-3.277 -25.58,-3.276 -26.04,-2.543 -29.72,3.785 -24.82,-4.18 -23.75,-3.22 -24.81,-0.17 -23.59,-3.333 -25.28,0.791 -24.357,-1.243 -24.971,3.334 -23.897,-1.13 -24.511,-1.413 -25.583,4.124 -28.953,2.316 -24.817,5.989 -29.566,-3.107 -25.736,8.925 -27.88,-1.299 -25.583,-2.147 -24.204,2.656 -25.43,-3.277 -24.664,-0.678 -24.51,1.412 -24.817,3.616 -25.277,2.937 -23.897,-7.061 -25.583,3.841 -25.43,0.678 -23.438,-4.915 -23.132,-4.801 -27.268,4.971 H 402.62 l -17.005,-11.581 -26.195,1.582 -24.97,4.576 -22.366,-1.526 -27.268,-3.502 -19.149,8.248 -22.06,4.802 -28.493,-0.848 -20.834,6.214 -29.26,-2.372 -19.914,7.909 -25.124,1.92 -26.5017,-1.355 -24.5105,3.107 L 42.621,187.667 15.5061,189.87 -10.9958,191 -28,190.209 V 4.688 4.575 4.5185 Z"
     fill="#101010"
     id="path2" />
</svg>
