<svg width="1920" height="269" viewBox="0 0 1920 269" fill="none" xmlns="http://www.w3.org/2000/svg">
<path d="M-47 269L1967 269V12.1723L1956.58 8.77014L1928.86 11.4163L1906.8 21.6985L1878.76 24.1934L1853.33 27.9736L1826.22 19.9595L1801.55 23.1349L1775.82 28.9565L1751.46 20.2619L1725.72 24.4202L1700.75 25.3275L1675.63 24.7982L1654.03 30.9222L1629.06 30.1661L1607.15 36.8193L1581.11 28.1248L1557.98 32.0562L1530.41 32.1318L1506.05 26.0835L1486.59 16.5574L1461.32 12.4747L1435.12 8.8457L1407.85 8.3165L1380.43 10.3578L1352.55 12.7015L1324.98 7.56042L1299.7 13.9112L1271.05 11.1138L1246.08 16.8598L1221.27 22.3033L1195.99 26.6883L1170.41 31.0734L1144.37 34.4756L1114.65 29.4101L1089.83 35.0048L1066.08 39.3142L1041.27 39.541L1017.68 44.0017L992.4 42.9432L968.043 44.6065L943.072 40.1459L919.175 41.658L894.664 43.5481L869.081 38.029L840.128 34.9292L815.311 26.9151L785.745 31.0734L760.009 19.1279L732.129 20.8668L706.546 23.7398L682.342 20.1864L656.912 24.5714L632.248 25.4787L607.738 23.5886L582.921 18.7499L557.644 14.8185L533.747 24.269L508.164 19.1279L482.734 18.2207L459.296 24.7982L436.164 31.2246L408.896 24.5714H383.62L366.615 40.0703L340.42 37.9534L315.45 31.8294L293.084 33.8707L265.816 38.5582L246.667 27.52L224.607 21.0936L196.114 22.2277L175.28 13.9112L146.02 17.0866L126.106 6.50198L100.982 3.93143L74.4803 5.74594L49.9698 1.58771L23.621 4.46066L-3.4939 1.51208L-29.9958 0L-47 1.0585V249.343V249.494V249.57V269Z" fill="#101010"/>
</svg>
