<svg xmlns="http://www.w3.org/2000/svg" version="1.1" xmlns:xlink="http://www.w3.org/1999/xlink" xmlns:svgjs="http://svgjs.com/svgjs" width="82" height="83"><svg width="82" height="83" viewBox="0 0 82 83" fill="none" xmlns="http://www.w3.org/2000/svg">
<circle cx="41" cy="41.9785" r="41" fill="white"></circle>
<path d="M55.4587 50.0215C54.9539 50.4141 54.5613 50.8067 54.1126 51.0311C51.8129 52.265 49.4572 52.3211 47.2697 50.8067C45.0261 49.2923 44.5213 46.9366 44.914 44.3565C44.97 43.7956 44.8579 43.5712 44.4092 43.3469C43.4557 42.8421 42.5021 42.8421 41.4925 43.2908C41.156 43.4591 40.9877 43.6273 41.0438 44.076C41.5486 48.0023 38.0711 51.8163 34.3131 51.3676C31.3965 51.0311 29.3773 49.4045 28.3116 46.6561C28.0312 45.9831 27.919 45.2539 27.8068 44.5248C27.5825 42.8421 28.3116 41.552 29.8821 40.8229C31.9013 39.8694 33.9766 39.5889 36.2202 40.0376C35.9958 39.9255 35.8276 39.8133 35.6032 39.7011C35.3788 39.5889 35.1545 39.4768 34.9862 39.3085C34.818 39.1963 34.5936 39.1402 34.4814 38.9719C33.3596 37.738 32.1257 37.738 30.7795 38.6354C30.8917 37.738 31.9574 36.6723 32.7427 36.6162C32.9109 36.6162 33.1353 36.6162 33.2475 36.7284C34.4253 37.738 35.9397 37.9063 37.398 38.1306C38.4637 38.2989 39.4733 38.5793 40.3147 39.2524C40.7634 39.645 40.8756 40.0937 40.8195 40.5985C40.7634 41.1594 40.3708 41.4399 39.8099 41.2716C39.4172 41.1594 39.0246 41.0472 38.632 40.9351C39.3612 41.6081 40.0903 42.2812 40.8195 42.8982C41.5486 42.786 42.3339 42.4495 43.063 42.5056C43.7922 42.5616 44.5213 42.8982 45.2505 43.0664C44.2409 42.5616 43.9605 41.6081 43.6239 40.7107C43.4557 40.262 43.7922 39.8694 44.297 39.8133C44.6896 39.8133 45.1383 39.8694 45.5309 40.0376C46.6527 40.4864 47.7184 40.4864 48.8402 39.8694C49.6254 39.4207 50.4668 39.5889 51.252 39.9815C52.2616 40.4863 53.2712 40.7107 54.3369 41.0472C56.6927 41.7203 57.8705 43.4591 57.4218 45.5904C57.2535 46.3757 57.0292 47.217 56.6926 47.9462C56.4683 48.5071 56.4122 48.9558 56.4683 49.5728C56.8048 51.7602 56.4683 53.8916 56.0757 56.023C55.5148 59.1079 54.4491 62.0806 53.2151 64.9412C49.4011 73.7471 40.1464 73.8032 34.9862 70.2135C30.6113 67.1286 27.4142 63.0902 25.6194 57.9861C25.0024 56.2473 25.1146 54.4525 25.2828 52.6577C25.5072 49.9093 25.9559 47.217 26.2924 44.4687C26.2924 44.3004 26.4607 44.1321 26.5729 43.9078C26.7411 44.076 26.9655 44.2443 26.9655 44.4126C27.0216 45.2539 27.0777 46.0953 27.0216 46.9366C26.9094 49.2362 26.9655 51.5359 27.7507 53.7794C28.4799 55.8547 29.7699 57.4252 31.7331 58.4909C31.7891 58.547 31.9013 58.6031 31.9574 58.6031C32.4622 58.6592 33.0231 58.8274 33.4157 58.6031C33.6401 58.4909 33.584 57.7057 33.5279 57.257C33.4157 56.64 33.1353 56.0791 32.967 55.4621C32.7987 54.7329 33.0231 54.116 33.584 53.5551C34.1449 52.9942 34.7058 52.4333 35.2667 51.8724C35.3788 51.7602 35.5471 51.592 35.7154 51.592C37.1176 51.3115 38.5759 51.2554 39.866 52.0968C40.0342 52.2089 40.2586 52.3211 40.4268 52.4894C41.3243 53.1625 42.1656 53.6112 43.3435 53.0503C44.5774 52.4894 45.6992 52.8259 46.821 53.6112C47.9989 54.4525 48.8402 55.5182 49.1206 56.9765C49.2328 57.5935 49.1767 58.2105 49.2328 58.8274C49.2328 59.164 49.2328 59.4444 49.345 59.781C49.5694 60.3979 50.1302 60.5662 50.6911 60.2297C52.8786 58.7153 54.1687 56.64 54.8978 54.116C55.2343 52.9942 55.4026 51.8163 55.627 50.6945C55.4587 50.5824 55.4587 50.358 55.4587 50.0215ZM43.1752 60.7906C43.1752 60.9588 43.1191 61.1271 43.1191 61.2954C43.1191 62.1928 43.0069 63.0902 43.1191 63.9876C43.2313 65.0533 44.0726 65.3899 44.9701 64.8851C45.3066 64.6607 45.6992 64.3803 45.9236 64.0998C46.5406 63.3707 46.9893 62.5854 47.6062 61.8563C48.6158 60.5662 48.3915 59.164 47.8867 57.8178C47.438 56.6961 46.7088 56.2473 45.4748 56.3034C44.0726 56.3595 42.6704 56.1352 41.5486 55.2377C41.2121 54.9573 40.9317 54.9573 40.5951 55.0695C39.4733 55.4621 38.3516 55.6304 37.2859 55.0695C36.4445 54.6208 35.6593 54.6769 34.9301 55.1256C34.1449 55.6304 33.9766 56.4717 34.1449 57.257C34.4253 58.547 34.7058 59.8931 35.2106 61.1271C35.9958 62.978 37.2859 64.3242 39.1368 65.1655C40.1464 65.6142 40.7073 65.2216 40.7634 64.1559C40.8195 63.595 40.7634 63.0341 40.7073 62.4732C40.6512 61.9123 40.539 61.4075 40.4268 60.9027C41.3243 60.7906 42.2217 60.7906 43.1752 60.7906ZM34.0327 40.3742C32.5183 40.3742 31.1722 40.7107 29.8821 41.3277C28.7603 41.8886 28.1995 42.786 28.1995 44.02C28.2555 46.1513 28.9847 47.9462 30.6113 49.3484C33.4157 51.7602 37.1176 51.4798 39.1368 48.6193C39.6977 47.834 40.0903 46.9366 40.3708 46.0392C40.8756 44.4126 40.4269 42.8982 39.1929 42.0568C37.6785 40.9911 35.9397 40.3742 34.0327 40.3742ZM56.1878 47.6657C56.2439 47.6657 56.3561 47.6657 56.4122 47.6657C56.6366 46.7122 56.917 45.7026 56.9731 44.7491C57.0292 43.2347 55.9074 42.0568 54.1686 41.4959C52.0373 40.8229 49.9059 40.9351 47.8306 41.6642C46.3723 42.169 45.3627 43.2347 45.2505 44.8613C45.1944 45.1978 45.2505 45.5344 45.2505 45.8709C45.3066 48.3388 46.5966 50.3019 48.6719 51.0872C50.9716 51.9285 53.5517 51.3676 55.1222 49.5728C55.4026 49.2923 55.4587 48.8436 55.5709 48.451C55.683 48.0584 55.7391 47.6657 55.8513 47.3292C55.9074 47.3292 55.9635 47.3292 56.0196 47.3853C56.0757 47.4414 56.1318 47.5536 56.1878 47.6657Z" fill="#262626"></path>
<path d="M55.7392 39.8129C55.3465 37.9619 54.9539 36.1671 54.6174 34.3162C54.3369 32.5213 54.1687 30.6704 53.8882 28.8755C53.776 28.2025 53.3273 27.5855 52.9908 27.0246C52.7664 26.6881 52.486 26.5759 52.0934 26.8563C50.8033 27.6977 49.4011 27.8098 47.8867 27.5855C46.821 27.4172 45.6992 27.4733 44.6335 27.305C41.3804 26.8563 38.4637 25.5663 35.7154 23.7153C34.9862 23.2105 34.2571 22.8179 33.3596 22.9301C32.4622 22.9862 31.7331 23.3227 31.2844 24.164C29.3212 27.6977 28.1434 31.5117 27.5825 35.5501C27.3581 37.0084 27.246 38.4106 27.0777 39.9811C26.2924 39.3081 25.7876 38.5228 25.6755 37.5693C25.5072 36.1671 25.3389 34.7088 25.2268 33.3066C25.0585 31.5678 24.9463 29.8851 24.8341 28.1464C24.722 25.9589 25.7316 24.3884 27.6386 23.4349C28.6482 22.9301 29.7139 22.6496 30.7796 22.2009C30.6113 21.7522 30.3869 21.1913 30.1626 20.6304C29.5456 18.6112 29.9943 16.8725 31.677 15.6385C33.1914 14.5728 34.3693 13.1706 35.6593 11.8806C35.7715 11.7684 35.9397 11.6001 36.1641 11.2636C36.2763 11.9367 36.3324 12.4415 36.3885 13.0023C36.8372 12.7219 37.2298 12.4975 37.7907 12.161C37.6785 12.6658 37.6224 13.0023 37.5663 13.5071C38.6881 13.1706 39.6977 12.8341 40.8195 12.4975C40.7634 12.9463 40.7073 13.2828 40.6512 13.8437C41.8291 12.7219 42.8948 11.7123 43.9605 10.7588C44.0166 10.7588 44.0726 10.8149 44.0726 10.8149C43.9605 11.4879 43.7922 12.161 43.68 12.8341C44.1848 12.9463 44.8018 12.8902 45.0822 13.1706C45.531 13.6193 44.9701 14.0119 44.6335 14.4607C46.1479 14.7411 47.6623 13.7315 49.1767 14.7411C48.6158 15.0776 48.1671 15.302 47.7184 15.5824C47.7184 15.6385 47.7184 15.6946 47.7184 15.7507C48.3354 15.7507 48.9524 15.8068 49.5694 15.7507C49.962 15.6946 50.2985 15.5824 50.6911 15.4142C52.0934 14.7411 52.9347 15.7507 53.8882 16.4238C54.0004 16.5359 54.0565 16.7042 54.2247 16.9286C53.776 17.0408 53.3834 17.0968 53.0469 17.209C53.0469 17.2651 53.0469 17.2651 53.0469 17.3212C53.3273 17.3773 53.6639 17.4334 53.9443 17.4334C54.7295 17.5456 54.8417 17.7699 54.393 18.4991C54.7856 18.443 55.1783 18.443 55.5148 18.3869C55.9074 19.2282 55.9074 19.2282 54.8417 19.9574C55.4026 21.0792 55.4026 21.0792 56.4122 21.3596C55.9635 21.7522 55.5709 22.0888 55.0661 22.5375C55.6831 23.0423 56.3 23.5471 56.917 24.0519C56.7488 24.2201 56.6366 24.3884 56.5244 24.5567C56.5244 24.6128 56.5244 24.6688 56.5244 24.6688C57.3096 25.5663 57.1975 26.6881 57.1975 27.8098C57.1414 29.0999 57.2535 30.3899 57.2535 31.68C57.2535 33.3065 56.9731 34.9331 56.4122 36.5036C56.0196 37.6254 56.0196 38.8594 55.8513 39.9811C55.8513 39.8129 55.7952 39.8129 55.7392 39.8129Z" fill="#262626"></path>
</svg><style>@media (prefers-color-scheme: light) { :root { filter: none; } }
</style></svg>