<svg viewBox="0 0 39 40" xmlns="http://www.w3.org/2000/svg" xmlns:xlink="http://www.w3.org/1999/xlink" width="39.000000" height="40.000000" fill="none">
	<rect id="Subtract 1" width="39.000000" height="40.000000" x="0.000000" y="0.000000" />
	<path id="Форма 1" d="M19.5 0C30.2696 0 39 8.73045 39 19.5L39 20.5C39 31.2696 30.2696 40 19.5 40C8.73045 40 2.5772e-07 31.2696 0 20.5L0 19.5C2.5772e-07 8.73045 8.73045 0 19.5 0ZM11 16.25C10.5858 16.25 10.25 16.5858 10.25 17L10.25 23C10.25 23.4142 10.5858 23.75 11 23.75L17 23.75C17.4142 23.75 17.75 23.4142 17.75 23C17.75 22.5858 17.4142 22.25 17 22.25L12.9355 22.25C14.7596 20.5879 16.4789 19.1636 18.8496 18.8301C20.621 18.5809 22.4257 18.9149 23.9912 19.7803C25.5565 20.6456 26.7983 21.9958 27.5293 23.6279C27.6986 24.006 28.1425 24.1752 28.5205 24.0059C28.8983 23.8366 29.0675 23.3935 28.8984 23.0156C28.0345 21.0864 26.5669 19.4895 24.7168 18.4668C22.8667 17.4441 20.734 17.0502 18.6406 17.3447C15.7447 17.7522 13.6412 19.5555 11.75 21.2949L11.75 17C11.75 16.5858 11.4142 16.25 11 16.25Z" fill="rgb(255,255,255)" fill-rule="nonzero" />
</svg>
