<svg xmlns="http://www.w3.org/2000/svg">
	<symbol id="proposalLines" width="505" height="58" viewBox="0 0 505 58" fill="none">
		<path d="M1.5 23.5C9.5 13 26.5 1 48.5 1C83 1 83.5 23.5 119.5 23.5C155.5 23.5 158.5 1 187 1C224 1 217 23.5 251.5 23.5C286 23.5 281 1 318 1C346.5 1 349.5 23.5 385.5 23.5C421.5 23.5 422 1 456.5 1C478.5 1 495.5 13 503.5 23.5M2 41C10 30.5 27 18.5 49 18.5C83.5 18.5 84 41 120 41C156 41 159 18.5 187.5 18.5C224.5 18.5 217.5 41 252 41C286.5 41 281.5 18.5 318.5 18.5C347 18.5 350 41 386 41C422 41 422.5 18.5 457 18.5C479 18.5 496 30.5 504 41M1 57C9 46.5 26 34.5 48 34.5C82.5 34.5 83 57 119 57C155 57 158 34.5 186.5 34.5C223.5 34.5 216.5 57 251 57C285.5 57 280.5 34.5 317.5 34.5C346 34.5 349 57 385 57C421 57 421.5 34.5 456 34.5C478 34.5 495 46.5 503 57" stroke="white" />
	</symbol>
	<symbol id="partnersLines" width="632" height="60" viewBox="0 0 632 60" fill="none">
		<path d="M321 15C325.94 8.46667 336.438 1 350.024 1C371.329 1 371.637 15 393.869 15C416.1 15 417.952 1 435.552 1C458.4 1 454.078 15 475.382 15C496.687 15 493.6 1 516.448 1C534.048 1 535.9 15 558.131 15C580.363 15 580.671 1 601.976 1C615.562 1 626.06 8.46667 631 15M321 59C325.94 52.4667 336.438 45 350.024 45C371.329 45 371.637 59 393.869 59C416.1 59 417.952 45 435.552 45C458.4 45 454.078 59 475.382 59C496.687 59 493.6 45 516.448 45C534.048 45 535.9 59 558.131 59C580.363 59 580.671 45 601.976 45C615.562 45 626.06 52.4667 631 59M1 37C5.94024 30.4667 16.4382 23 30.0239 23C51.3287 23 51.6375 37 73.8685 37C96.0996 37 97.9522 23 115.552 23C138.4 23 134.078 37 155.382 37C176.687 37 173.6 23 196.448 23C214.048 23 215.9 37 238.131 37C260.363 37 260.671 23 281.976 23C295.562 23 306.06 30.4667 311 37" stroke="white" />
	</symbol>
	<symbol id="qualityLines" width="312" height="60" viewBox="0 0 312 60" fill="none">
		<path d="M1 15C5.94024 8.46667 16.4382 1 30.0239 1C51.3287 1 51.6375 15 73.8685 15C96.0996 15 97.9522 1 115.552 1C138.4 1 134.078 15 155.382 15C176.687 15 173.6 1 196.448 1C214.048 1 215.9 15 238.131 15C260.363 15 260.671 1 281.976 1C295.562 1 306.06 8.46667 311 15M1 59C5.94024 52.4667 16.4382 45 30.0239 45C51.3287 45 51.6375 59 73.8685 59C96.0996 59 97.9522 45 115.552 45C138.4 45 134.078 59 155.382 59C176.687 59 173.6 45 196.448 45C214.048 45 215.9 59 238.131 59C260.363 59 260.671 45 281.976 45C295.562 45 306.06 52.4667 311 59M1 37C5.94024 30.4667 16.4382 23 30.0239 23C51.3287 23 51.6375 37 73.8685 37C96.0996 37 97.9522 23 115.552 23C138.4 23 134.078 37 155.382 37C176.687 37 173.6 23 196.448 23C214.048 23 215.9 37 238.131 37C260.363 37 260.671 23 281.976 23C295.562 23 306.06 30.4667 311 37" stroke="#0ABAB5" />
	</symbol>
	<symbol id="qualityLeaf" width="18" height="18" viewBox="0 0 18 18">
		<path d="M0 18C0 8.05973 8.05973 0 18 0C18 9.94027 9.94027 18 0 18Z" />
	</symbol>
	<symbol id="bubbleSmall" width="18" height="18" viewBox="0 0 18 18" fill="none">
		<circle cx="9" cy="9" r="9" fill="white" />
	</symbol>
	<symbol id="bubbleMiddle" width="22" height="22" viewBox="0 0 22 22" fill="none">
		<circle cx="11" cy="11" r="11" fill="white" />
	</symbol>
	<symbol id="bubbleLarge" width="40" height="40" viewBox="0 0 40 40" fill="none">
		<circle cx="20" cy="20" r="20" fill="white" />
	</symbol>
	<symbol id="bubbleTitle" width="529" height="176" viewBox="0 0 529 176" fill="none">
		<path d="M91.2404 176C73.9787 176 58.361 172.231 44.3872 164.693C30.5779 156.991 19.7276 146.503 11.8366 133.229C3.94553 119.791 0 104.715 0 88C0 71.2849 3.94553 56.2905 11.8366 43.0167C19.7276 29.5791 30.66 19.0912 44.6338 11.5531C58.6075 3.85102 74.2253 0 91.487 0C104.968 0 117.297 2.29423 128.476 6.88268C139.655 11.3073 149.19 17.9441 157.081 26.7933L141.053 42.2793C128.065 28.6778 111.872 21.8771 92.4733 21.8771C79.6504 21.8771 68.0604 24.7449 57.7034 30.4804C47.3464 36.216 39.2087 44.1639 33.2904 54.324C27.5365 64.3203 24.6596 75.5456 24.6596 88C24.6596 100.454 27.5365 111.762 33.2904 121.922C39.2087 131.918 47.3464 139.784 57.7034 145.52C68.0604 151.255 79.6504 154.123 92.4733 154.123C111.708 154.123 127.901 147.24 141.053 133.475L157.081 148.961C149.19 157.81 139.573 164.529 128.23 169.117C117.051 173.706 104.721 176 91.2404 176Z" fill="white" />
		<path d="M192.26 1.96647H216.919V174.034H192.26V1.96647Z" fill="white" />
		<path d="M346.523 176C329.097 176 313.397 172.231 299.423 164.693C285.449 156.991 274.435 146.421 266.379 132.983C258.488 119.546 254.542 104.551 254.542 88C254.542 71.4488 258.488 56.4544 266.379 43.0167C274.435 29.5791 285.449 19.0912 299.423 11.5531C313.397 3.85102 329.097 0 346.523 0C363.784 0 379.402 3.85102 393.376 11.5531C407.35 19.0912 418.282 29.5791 426.173 43.0167C434.064 56.2905 438.01 71.2849 438.01 88C438.01 104.715 434.064 119.791 426.173 133.229C418.282 146.503 407.35 156.991 393.376 164.693C379.402 172.231 363.784 176 346.523 176ZM346.523 154.123C359.181 154.123 370.525 151.255 380.553 145.52C390.745 139.784 398.719 131.918 404.473 121.922C410.391 111.762 413.35 100.454 413.35 88C413.35 75.5456 410.391 64.3203 404.473 54.324C398.719 44.1639 390.745 36.216 380.553 30.4804C370.525 24.7449 359.181 21.8771 346.523 21.8771C333.864 21.8771 322.356 24.7449 311.999 30.4804C301.807 36.216 293.751 44.1639 287.833 54.324C282.079 64.3203 279.202 75.5456 279.202 88C279.202 100.454 282.079 111.762 287.833 121.922C293.751 131.918 301.807 139.784 311.999 145.52C322.356 151.255 333.864 154.123 346.523 154.123Z" fill="white" />
		<path d="M529 155.492V174.034H454.458V159.285L492.504 123.467C496.543 119.628 499.268 116.35 500.677 113.634C502.086 110.825 502.79 108.063 502.79 105.347C502.79 101.414 501.428 98.4177 498.704 96.3575C496.074 94.2038 492.175 93.1269 487.008 93.1269C482.687 93.1269 478.788 93.9697 475.313 95.6552C471.837 97.2471 468.925 99.6818 466.576 102.959L449.949 92.2841C453.8 86.572 459.108 82.124 465.872 78.9401C472.635 75.6627 480.385 74.0239 489.122 74.0239C496.449 74.0239 502.837 75.2413 508.286 77.676C513.829 80.017 518.103 83.3881 521.109 87.7893C524.209 92.0968 525.759 97.2003 525.759 103.1C525.759 108.437 524.632 113.447 522.377 118.129C520.123 122.811 515.754 128.149 509.272 134.142L486.586 155.492H529Z" fill="white" />
	</symbol>
	<symbol id="bubbleLine" width="312" height="16" viewBox="0 0 312 16" fill="none">
		<path d="M1 15C5.94024 8.46667 16.4382 1 30.0239 1C51.3287 1 51.6375 15 73.8685 15C96.0996 15 97.9522 1 115.552 1C138.4 1 134.078 15 155.382 15C176.687 15 173.6 1 196.448 1C214.048 1 215.9 15 238.131 15C260.363 15 260.671 1 281.976 1C295.562 1 306.06 8.46667 311 15" stroke="#0ABAB5" />
	</symbol>
	<symbol id="careLine" width="312" height="16" viewBox="0 0 312 16" fill="none">
		<path d="M1 15C5.94024 8.46667 16.4382 1 30.0239 1C51.3287 1 51.6375 15 73.8685 15C96.0996 15 97.9522 1 115.552 1C138.4 1 134.078 15 155.382 15C176.687 15 173.6 1 196.448 1C214.048 1 215.9 15 238.131 15C260.363 15 260.671 1 281.976 1C295.562 1 306.06 8.46667 311 15" stroke="#010066" />
	</symbol>
	<symbol id="docsLine" width="312" height="16" viewBox="0 0 312 16" fill="none">
		<path d="M1 15C5.94024 8.46667 16.4382 1 30.0239 1C51.3287 1 51.6375 15 73.8685 15C96.0996 15 97.9522 1 115.552 1C138.4 1 134.078 15 155.382 15C176.687 15 173.6 1 196.448 1C214.048 1 215.9 15 238.131 15C260.363 15 260.671 1 281.976 1C295.562 1 306.06 8.46667 311 15" stroke="white" />
	</symbol>
	<symbol id="docsDoc" width="55" height="55" viewBox="0 0 55 55" fill="none">
		<g clip-path="url(#clip0_42_4821)">
			<path d="M50.5933 12.4112C50.5933 12.3999 50.582 12.3774 50.582 12.3661C50.582 12.3436 50.5707 12.3323 50.5707 12.3097C50.5707 12.2985 50.5594 12.2759 50.5594 12.2647C50.5594 12.2534 50.5482 12.2308 50.5369 12.2196C50.5256 12.2083 50.5256 12.1858 50.5144 12.1745C50.5031 12.1632 50.5031 12.1407 50.4918 12.1294C50.4805 12.1181 50.4805 12.0956 50.4693 12.0843C50.458 12.0618 50.4467 12.0393 50.4242 12.0167C50.4129 12.0054 50.4129 11.9942 50.4017 11.9829C50.3904 11.9604 50.3678 11.9378 50.3566 11.9265L41.081 0.417008C41.0584 0.383197 41.0246 0.360656 41.0021 0.326844C40.9908 0.315574 40.9908 0.315574 40.9795 0.315574L40.9119 0.247951C40.9006 0.23668 40.8894 0.23668 40.8781 0.22541C40.8555 0.214139 40.833 0.191598 40.8105 0.180328C40.7992 0.169057 40.7879 0.169057 40.7767 0.157787L40.709 0.123975C40.6978 0.112705 40.6865 0.112705 40.6752 0.101434C40.6527 0.0901639 40.6301 0.0788934 40.5963 0.067623C40.5851 0.067623 40.5738 0.0563525 40.5625 0.0563525C40.54 0.045082 40.5062 0.045082 40.4836 0.0338115C40.4724 0.0338115 40.4611 0.022541 40.4498 0.022541C40.416 0.0112705 40.3935 0.0112705 40.3596 0.0112705H40.3258C40.2808 0.0112705 40.2469 0 40.2019 0H10.1998C9.57993 0 9.07276 0.507285 9.07276 1.12727V5.76035H5.52256C4.90268 5.76035 4.39551 6.26763 4.39551 6.88762V53.8726C4.39551 54.4926 4.90268 54.9999 5.52256 54.9999H44.8791C45.499 54.9999 46.0062 54.4926 46.0062 53.8726V49.2394H49.4775C50.0974 49.2394 50.6045 48.7321 50.6045 48.1121V12.4788C50.6045 12.4563 50.6045 12.4337 50.5933 12.4112ZM41.3289 4.306L47.1219 11.498H41.3289V4.306ZM39.4017 13.3467L42.5123 17.1795H36.7305V10.0551L39.2551 13.1664C39.3002 13.234 39.3453 13.2904 39.4017 13.3467ZM11.3269 2.24305H39.0748V9.3562L36.4826 6.16597C36.4601 6.13216 36.4262 6.10962 36.4037 6.07581L36.3812 6.05327C36.3586 6.03073 36.3361 6.01946 36.3135 5.99692C36.3023 5.98564 36.291 5.98565 36.2797 5.97437C36.2572 5.9631 36.2346 5.94056 36.2121 5.92929C36.2008 5.91802 36.1896 5.91802 36.1783 5.90675L36.1107 5.87294C36.0994 5.86167 36.0881 5.86167 36.0769 5.86167C36.0543 5.8504 36.0205 5.83913 35.998 5.82786C35.9867 5.82786 35.9754 5.81659 35.9642 5.81659C35.9416 5.80532 35.9078 5.80532 35.8853 5.79405C35.874 5.79405 35.8627 5.78278 35.8515 5.78278C35.8176 5.77151 35.7951 5.77151 35.7613 5.77151H35.7275C35.6824 5.77151 35.6486 5.76024 35.6035 5.76024H11.3269V2.24305ZM6.64961 52.7452V8.00351H34.4764V18.3069C34.4764 18.9269 34.9836 19.4342 35.6035 19.4342H43.7521V52.7453H6.64961V52.7452ZM48.3504 46.996H46.0062V18.149C46.0062 18.1264 46.0062 18.1039 45.9949 18.0814C45.9949 18.0701 45.9836 18.0476 45.9836 18.0363C45.9836 18.0137 45.9724 18.0025 45.9724 17.9799C45.9724 17.9574 45.9611 17.9461 45.9611 17.9348C45.9611 17.9236 45.9498 17.901 45.9385 17.8898C45.9273 17.8785 45.9273 17.856 45.916 17.8447C45.9047 17.8334 45.9047 17.8109 45.8935 17.7996C45.8822 17.7883 45.8822 17.7658 45.8709 17.7545C45.8596 17.732 45.8484 17.7094 45.8371 17.6982C45.8258 17.6869 45.8258 17.6756 45.8146 17.6756C45.792 17.6531 45.7808 17.6193 45.7582 17.5967L42.6476 13.764H48.3504V46.996Z" fill="#021F1E" />
			<path d="M36.7304 24.0449H13.671C13.0511 24.0449 12.5439 24.5522 12.5439 25.1722C12.5439 25.7922 13.0511 26.2995 13.671 26.2995H36.7304C37.3503 26.2995 37.8575 25.7922 37.8575 25.1722C37.8575 24.5522 37.3503 24.0449 36.7304 24.0449ZM36.7304 30.9213H13.671C13.0511 30.9213 12.5439 31.4286 12.5439 32.0485C12.5439 32.6685 13.0511 33.1758 13.671 33.1758H36.7304C37.3503 33.1758 37.8575 32.6685 37.8575 32.0485C37.8575 31.4286 37.3503 30.9213 36.7304 30.9213ZM36.7304 37.7977H13.671C13.0511 37.7977 12.5439 38.305 12.5439 38.925C12.5439 39.545 13.0511 40.0523 13.671 40.0523H36.7304C37.3503 40.0523 37.8575 39.545 37.8575 38.925C37.8575 38.305 37.3503 37.7977 36.7304 37.7977ZM36.7304 44.6741H13.671C13.0511 44.6741 12.5439 45.1814 12.5439 45.8014C12.5439 46.4214 13.0511 46.9286 13.671 46.9286H36.7304C37.3503 46.9286 37.8575 46.4214 37.8575 45.8014C37.8575 45.1814 37.3503 44.6741 36.7304 44.6741Z" fill="#021F1E" />
		</g>
		<defs>
			<clipPath id="clip0_42_4821">
				<rect width="55" height="55" fill="white" />
			</clipPath>
		</defs>
	</symbol>
	<symbol id="releaseLeafs" width="196" height="60" viewBox="0 0 196 60" fill="none">
		<path d="M59.4 59.3999C26.5971 59.3999 -1.1626e-06 32.8028 -2.59646e-06 -9.53674e-05C32.8029 -9.68013e-05 59.4 26.597 59.4 59.3999Z" fill="white" />
		<path d="M127.326 59.3999C94.5229 59.3999 67.9258 32.8028 67.9258 -9.53674e-05C100.729 -9.68013e-05 127.326 26.597 127.326 59.3999Z" fill="white" />
		<path d="M195.252 59.3999C162.449 59.3999 135.852 32.8028 135.852 -9.53674e-05C168.654 -9.68013e-05 195.252 26.597 195.252 59.3999Z" fill="white" />
	</symbol>
	<symbol id="releaseFirstLine" width="312" height="16" viewBox="0 0 312 16" fill="none">
		<path d="M1 15C5.94024 8.46667 16.4382 1 30.0239 1C51.3287 1 51.6375 15 73.8685 15C96.0996 15 97.9522 1 115.552 1C138.4 1 134.078 15 155.382 15C176.687 15 173.6 1 196.448 1C214.048 1 215.9 15 238.131 15C260.363 15 260.671 1 281.976 1C295.562 1 306.06 8.46667 311 15" stroke="#0ABAB5" />
	</symbol>
	<symbol id="releaseSecondLine" width="312" height="16" viewBox="0 0 312 16" fill="none">
		<path d="M1 15C5.94024 8.46667 16.4382 1 30.0239 1C51.3287 1 51.6375 15 73.8685 15C96.0996 15 97.9522 1 115.552 1C138.4 1 134.078 15 155.382 15C176.687 15 173.6 1 196.448 1C214.048 1 215.9 15 238.131 15C260.363 15 260.671 1 281.976 1C295.562 1 306.06 8.46667 311 15" stroke="#0ABAB5" />
	</symbol>
	<symbol id="commerceLine" width="312" height="16" viewBox="0 0 312 16" fill="none">
		<path d="M1 15C5.94024 8.46667 16.4382 1 30.0239 1C51.3287 1 51.6375 15 73.8685 15C96.0996 15 97.9522 1 115.552 1C138.4 1 134.078 15 155.382 15C176.687 15 173.6 1 196.448 1C214.048 1 215.9 15 238.131 15C260.363 15 260.671 1 281.976 1C295.562 1 306.06 8.46667 311 15" stroke="white" />
	</symbol>
	<svg id="commerceArrow" viewBox="0 0 196 140" fill="none">
		<path d="M0.5 1C9.66667 39.8333 61.4 116.6 195 113M195 113C195 113 169 112.664 149.5 87.5M195 113C189.833 120.167 169.7 135.5 130.5 139.5" stroke="white" />
	</svg>
	<symbol id="formLine" width="312" height="16" viewBox="0 0 312 16" fill="none">
		<path d="M1 15C5.94024 8.46667 16.4382 1 30.0239 1C51.3287 1 51.6375 15 73.8685 15C96.0996 15 97.9522 1 115.552 1C138.4 1 134.078 15 155.382 15C176.687 15 173.6 1 196.448 1C214.048 1 215.9 15 238.131 15C260.363 15 260.671 1 281.976 1C295.562 1 306.06 8.46667 311 15" stroke="#CDCDCD" />
	</symbol>
	<symbol id="footerCopy" width="12" height="13" viewBox="0 0 12 13" fill="none">
		<path d="M6 12.5C4.39734 12.5 2.89062 11.8759 1.75734 10.7427C0.624117 9.60938 0 8.10266 0 6.5C0 4.89734 0.624117 3.39062 1.75734 2.25734C2.89062 1.12412 4.39734 0.5 6 0.5C7.60266 0.5 9.10938 1.12412 10.2427 2.25734C11.3759 3.39062 12 4.89734 12 6.5C12 8.10266 11.3759 9.60938 10.2427 10.7427C9.10938 11.8759 7.60266 12.5 6 12.5ZM6 1.4375C3.20852 1.4375 0.9375 3.70852 0.9375 6.5C0.9375 9.29148 3.20852 11.5625 6 11.5625C8.79148 11.5625 11.0625 9.29148 11.0625 6.5C11.0625 3.70852 8.79148 1.4375 6 1.4375ZM8.11671 8.65447C8.29976 8.4714 8.29978 8.17461 8.11671 7.99156C7.93362 7.80849 7.63683 7.80852 7.4538 7.99156C6.63134 8.81398 5.29315 8.81403 4.47068 7.99156C4.07229 7.59315 3.85287 7.06344 3.85287 6.5C3.85287 5.93656 4.07229 5.40685 4.47068 5.00844C5.29315 4.18597 6.63134 4.18602 7.4538 5.00844C7.63687 5.19151 7.93366 5.19151 8.11671 5.00844C8.29976 4.82537 8.29976 4.52858 8.11671 4.34553C6.92871 3.15755 4.99573 3.15758 3.80777 4.34553C3.23227 4.92102 2.91534 5.68616 2.91534 6.5C2.91534 7.31384 3.23227 8.07898 3.80777 8.65447C4.40175 9.24845 5.18198 9.54544 5.96224 9.54544C6.7425 9.54544 7.52273 9.24845 8.11671 8.65447Z" fill="#F9F9F9" />
	</symbol>
</svg>