<?xml version="1.0" standalone="no"?>
<!DOCTYPE svg PUBLIC "-//W3C//DTD SVG 20010904//EN"
 "http://www.w3.org/TR/2001/REC-SVG-20010904/DTD/svg10.dtd">
<svg version="1.0" xmlns="http://www.w3.org/2000/svg"
 width="3936.000000pt" height="3936.000000pt" viewBox="0 0 3936.000000 3936.000000"
 preserveAspectRatio="xMidYMid meet">
<metadata>
Created by potrace 1.14, written by Peter Selinger 2001-2017
</metadata>
<g transform="translate(0.000000,3936.000000) scale(0.100000,-0.100000)"
fill="#000000" stroke="none">
<path d="M26357 22431 c-6 -2 -14 -8 -17 -12 -5 -7 -5 -205 -1 -244 1 -8 106
-10 329 -9 180 1 329 2 332 3 3 0 5 58 5 129 l0 127 -50 2 c-93 5 -585 8 -598
4z"/>
<path d="M14196 22298 c-10 -5 -13 -48 -12 -170 l1 -163 820 -1 c451 -1 825
-2 831 -3 7 -1 10 -192 10 -643 -1 -354 1 -653 2 -665 3 -18 8 -20 27 -13 13
5 25 6 28 4 9 -9 98 -11 103 -3 3 5 15 5 27 1 28 -10 194 -8 204 2 5 4 8 301
9 659 1 359 2 655 3 660 0 4 372 7 826 7 779 0 825 1 826 18 4 61 -1 305 -5
310 -9 8 -3685 8 -3700 0z"/>
<path d="M11002 22284 c-69 -14 -142 -52 -179 -93 -34 -38 -70 -118 -81 -181
-13 -70 -13 -1013 0 -1077 13 -68 12 -63 35 -114 34 -75 107 -135 202 -164 21
-6 57 -10 184 -19 21 -1 40 1 43 6 3 4 15 4 27 0 29 -10 240 -7 257 3 7 5 11
4 8 -1 -4 -5 28 -9 73 -9 43 0 79 4 79 8 0 5 5 5 12 1 17 -11 308 -11 308 -1
0 5 6 5 12 0 17 -10 228 -10 228 0 0 5 5 5 12 1 17 -10 108 -11 108 -1 0 4 8
4 18 -1 21 -10 245 -8 262 3 7 5 11 4 7 -1 -6 -10 54 -10 71 0 7 4 12 4 12 -1
0 -9 96 -10 106 -1 3 4 16 3 28 -1 28 -9 240 -6 256 4 7 5 11 4 8 -1 -4 -5 11
-9 33 -9 21 0 39 4 39 8 0 5 5 5 12 1 17 -11 108 -11 108 -1 0 5 5 5 12 1 17
-11 268 -11 268 0 0 5 6 4 13 -1 14 -10 238 -10 255 1 7 4 12 3 12 -2 0 -5 10
-8 23 -6 12 1 27 3 34 3 15 1 21 38 12 74 -4 15 -4 27 1 27 5 0 5 12 1 28 -5
15 -5 37 0 49 5 13 4 25 -1 28 -6 3 -6 15 0 30 5 13 6 27 1 29 -4 3 -6 18 -3
34 l4 29 -1380 1 c-1145 0 -1386 2 -1411 13 -62 27 -63 40 -64 473 0 215 3
408 7 428 5 28 16 44 42 62 l36 24 1371 1 c755 0 1377 1 1383 1 13 0 26 38 15
44 -4 3 -4 30 -1 60 3 30 3 64 -2 75 -4 11 -3 23 2 26 5 3 5 18 0 34 -4 16 -4
33 0 37 4 5 4 18 0 30 l-8 21 -1424 0 c-1128 0 -1436 -3 -1486 -13z"/>
<path d="M18169 22256 c-3 -266 0 -1607 4 -1613 6 -10 60 -9 76 2 6 3 11 3 11
-2 0 -10 227 -9 237 1 4 4 8 120 9 259 1 139 2 255 3 258 0 3 569 6 1264 6
1194 0 1265 1 1327 18 121 34 188 95 228 209 24 68 26 81 27 321 2 272 -4 324
-42 403 -37 76 -139 153 -225 168 -18 4 -682 7 -1475 9 l-1443 2 -1 -41z
m2797 -308 c16 -9 35 -27 41 -40 6 -13 11 -88 11 -167 1 -124 -1 -148 -18
-182 -16 -30 -28 -40 -58 -48 -22 -6 -505 -9 -1237 -8 l-1200 2 -1 220 c0 121
1 225 3 230 3 8 381 11 1216 10 1106 0 1215 -2 1243 -17z"/>
<path d="M21927 22294 c-1 -2 -18 -5 -37 -9 -41 -6 -129 -48 -156 -74 -28 -27
-65 -71 -59 -71 3 0 -1 -10 -9 -22 -42 -66 -45 -105 -45 -640 0 -487 6 -596
30 -623 5 -5 9 -16 9 -25 0 -16 16 -41 61 -90 47 -52 133 -90 218 -95 27 -1
53 -4 58 -7 4 -2 28 -2 53 -1 53 4 37 4 173 1 60 -2 111 0 114 5 2 4 9 4 15 0
16 -9 139 -10 145 0 2 4 9 4 15 1 6 -4 38 -6 72 -5 69 2 64 2 131 0 28 -1 55
0 60 1 6 1 15 1 20 0 11 -2 209 -2 213 0 7 5 83 2 88 -3 3 -3 16 -2 29 3 13 5
26 6 29 2 8 -7 113 -5 126 3 6 4 10 3 10 -2 0 -9 103 -8 117 0 5 3 15 2 23 -3
7 -4 23 -5 35 0 12 5 27 5 34 1 7 -5 30 -5 52 -1 22 4 42 3 45 -1 3 -5 12 -6
21 -1 8 5 32 6 54 2 21 -4 41 -5 44 -2 7 7 65 8 65 1 0 -3 25 -2 56 1 30 3 57
3 60 -2 3 -4 15 -4 27 0 12 4 54 6 92 5 116 -4 129 -4 168 -1 21 2 41 0 44 -4
2 -5 9 -6 14 -3 5 4 73 7 152 9 79 1 149 6 155 10 7 4 25 10 39 12 90 17 189
127 210 235 4 19 8 268 10 554 2 555 1 575 -48 669 -25 49 -59 84 -114 118
-90 55 -26 52 -1422 54 -711 0 -1294 0 -1296 -2z m2496 -346 c54 -36 61 -77
54 -343 -1 -60 1 -120 4 -131 4 -12 5 -25 1 -28 -10 -10 -8 -106 2 -106 6 0 5
-5 -1 -11 -6 -6 -8 -23 -3 -44 4 -19 6 -36 3 -39 -3 -2 -6 -49 -7 -103 -2
-114 -17 -147 -75 -163 -24 -8 -407 -10 -1208 -8 l-1173 3 -25 25 c-15 15 -28
43 -32 70 -5 25 -8 216 -7 425 1 333 3 384 17 412 20 37 29 44 71 53 17 3 553
6 1191 5 1088 0 1163 -1 1188 -17z"/>
<path d="M25078 22296 c0 -1 -2 -373 -3 -828 -1 -582 2 -828 9 -829 50 -4 99
-3 103 4 2 4 12 3 22 -3 10 -5 21 -7 24 -3 8 8 156 8 164 0 3 -4 12 -2 20 4 7
6 91 51 186 99 94 47 309 156 477 241 168 84 307 157 308 161 2 5 8 8 14 8 10
0 92 41 698 346 118 60 217 112 218 117 2 4 11 7 21 7 9 0 21 4 27 9 11 10
544 281 554 281 3 0 6 -282 5 -627 0 -346 1 -632 2 -638 4 -11 104 -12 122 -1
6 4 11 4 11 -1 0 -10 187 -10 196 0 5 5 10 1537 5 1640 -1 15 -16 17 -168 17
l-167 0 -510 -256 c-281 -141 -547 -275 -591 -297 -44 -23 -82 -41 -85 -42 -3
0 -12 -5 -20 -10 -14 -9 -170 -87 -180 -90 -17 -6 -46 -19 -50 -24 -8 -10
-217 -111 -228 -111 -6 0 -12 -3 -14 -8 -3 -6 -135 -75 -148 -77 -3 0 -12 -5
-20 -10 -23 -15 -368 -185 -375 -185 -3 0 -11 -5 -18 -11 -7 -5 -70 -39 -142
-74 l-130 -63 -3 628 -2 627 -165 0 c-91 0 -166 -1 -167 -1z"/>
<path d="M1199 22246 c-3 -3 -52 -8 -110 -11 -130 -6 -158 -10 -289 -41 -36
-8 -78 -21 -95 -27 -16 -7 -32 -12 -35 -12 -3 0 -31 -13 -64 -28 -32 -15 -62
-27 -67 -27 -5 0 -9 -4 -9 -9 0 -5 -10 -13 -22 -17 -13 -4 -25 -9 -28 -13 -3
-3 -24 -19 -48 -35 -62 -42 -167 -158 -213 -236 -37 -62 -112 -230 -103 -230
2 0 0 -10 -5 -23 -5 -13 -12 -41 -15 -61 -4 -21 -8 -41 -10 -45 -4 -6 -11 -54
-25 -171 -8 -62 -5 -2847 2 -2927 3 -28 8 -66 12 -84 4 -18 8 -46 10 -63 1
-17 5 -38 7 -46 3 -8 16 -51 29 -95 31 -107 106 -265 139 -295 4 -3 13 -15 22
-28 37 -54 115 -129 188 -178 77 -53 228 -122 302 -138 13 -3 52 -12 88 -20
36 -8 99 -18 140 -22 94 -10 7361 -10 7450 0 36 3 72 8 80 11 8 2 33 7 55 10
22 3 65 12 95 21 30 8 62 16 71 18 27 7 142 57 189 83 150 83 272 210 353 368
36 69 93 227 99 275 2 14 7 31 12 38 4 7 6 16 3 18 -2 3 -1 22 4 42 16 73 22
233 22 592 0 349 -6 518 -17 550 -3 8 -8 33 -10 55 -14 118 -64 251 -147 395
-19 34 -106 138 -144 173 -28 26 -164 121 -175 123 -5 0 -100 44 -142 65 -10
5 -26 9 -36 9 -10 0 -22 3 -26 7 -3 4 -12 8 -19 9 -53 9 -81 16 -87 19 -4 3
-27 7 -51 10 -48 6 -84 13 -84 15 0 10 -710 12 -3822 13 -3272 1 -3633 3
-3634 17 -5 107 -2 653 4 657 4 2 5 8 2 13 -7 11 17 96 38 136 22 41 75 92
119 115 96 49 -118 47 4141 45 2193 0 3987 1 3988 4 0 3 1 223 1 490 l1 485
-3137 0 c-1726 0 -3140 -3 -3142 -7 -3 -4 -15 -3 -28 2 -15 5 -27 5 -35 -3 -6
-6 -11 -7 -11 -1 0 11 -90 11 -108 0 -7 -4 -12 -4 -12 1 0 10 -232 9 -248 -1
-7 -4 -12 -4 -12 1 0 9 -93 9 -108 -1 -6 -3 -13 -3 -15 1 -6 10 -89 9 -104 0
-7 -4 -14 -4 -16 0 -6 10 -170 9 -185 -1 -7 -4 -12 -3 -12 1 0 7 -44 9 -60 3
-3 -1 -8 -2 -13 -1 -7 1 -53 1 -97 1 -8 -1 -37 0 -65 1 -27 1 -54 0 -60 -1 -5
-1 -12 -1 -15 0 -14 5 -150 4 -150 -2 0 -4 -13 -3 -29 2 -16 4 -32 6 -35 3 -8
-8 -85 -8 -92 0 -3 3 -17 2 -30 -3 -14 -6 -26 -6 -29 0 -3 6 -15 6 -30 0 -14
-5 -25 -6 -25 -2 0 4 -13 7 -30 7 -16 0 -30 -3 -30 -7 0 -3 -12 -3 -26 1 -15
4 -51 4 -80 1 -30 -3 -55 -2 -57 3 -1 4 -5 6 -8 3z m1984 -2947 c100 0 187 1
192 2 6 1 15 0 20 -1 32 -7 56 -6 61 2 3 4 10 5 16 2 6 -4 29 -7 52 -6 40 0
1295 1 1326 0 8 0 119 0 245 1 127 0 237 0 245 0 8 -1 641 0 1405 1 765 1
1408 -1 1430 -5 71 -12 142 -45 189 -86 25 -22 46 -47 46 -55 0 -8 4 -14 8
-14 5 0 17 -24 27 -52 15 -43 19 -89 21 -243 2 -208 -6 -261 -54 -350 -28 -53
-112 -119 -164 -131 -5 -1 -9 -2 -10 -4 -4 -2 -26 -7 -78 -15 -58 -9 -6769 -9
-6835 0 -27 4 -58 11 -68 17 -10 5 -27 11 -37 13 -26 5 -105 65 -118 90 -27
50 -52 109 -58 133 -4 15 -8 176 -11 359 -3 311 -3 332 14 336 10 3 447 5 971
5 524 0 956 3 959 6 3 3 10 3 15 0 5 -3 91 -6 191 -5z"/>
<path d="M29238 22232 c-87 -3 -83 2 -78 -97 5 -107 4 -135 -5 -139 -5 -3 -4
-5 2 -5 9 -1 10 -8 4 -23 -5 -13 -5 -32 -1 -43 4 -11 4 -29 0 -40 -6 -20 -5
-68 3 -89 2 -6 1 -20 -3 -31 -4 -11 -4 -32 0 -46 5 -17 4 -31 -3 -38 -8 -8 -8
-11 1 -11 8 0 9 -7 3 -22 -5 -13 -5 -32 -1 -43 4 -11 4 -29 1 -40 -4 -11 -6
-31 -4 -45 1 -14 3 -40 3 -57 -1 -18 -1 -40 0 -48 0 -16 0 -25 0 -99 0 -28 3
-52 6 -55 3 -3 1829 -6 4057 -6 3831 -1 4054 -2 4097 -19 25 -9 53 -20 63 -23
9 -3 17 -9 17 -14 0 -5 6 -9 14 -9 12 0 42 -30 85 -86 5 -6 12 -21 17 -35 28
-83 33 -130 33 -294 0 -179 -11 -250 -49 -326 -19 -36 -96 -120 -109 -117 -3
1 -19 -5 -36 -14 -16 -8 -50 -19 -75 -24 -25 -4 -1687 -8 -3695 -9 l-3650 0
-1 -492 c0 -271 2 -493 5 -494 3 0 1660 -1 3682 -2 3099 -2 3679 -4 3692 -16
10 -7 17 -11 17 -7 0 7 79 -24 98 -39 60 -46 107 -116 117 -176 3 -18 8 -35
10 -39 3 -4 4 -43 4 -86 0 -44 1 -95 2 -114 12 -268 -45 -388 -216 -460 -16
-7 -39 -15 -50 -17 -11 -3 -1842 -6 -4070 -8 -2227 -2 -4053 -4 -4056 -4 -8
-1 -11 -50 -9 -143 1 -29 1 -154 0 -173 -2 -27 -2 -32 0 -97 1 -31 -1 -61 -4
-67 -4 -5 -2 -12 3 -16 6 -3 7 -15 3 -28 -5 -12 -7 -33 -5 -47 1 -14 3 -40 2
-57 0 -34 0 -67 2 -105 0 -13 -1 -36 -3 -53 -2 -16 -1 -41 2 -55 4 -14 3 -37
-1 -52 -4 -17 -3 -29 4 -32 8 -3 9 -5 1 -5 -6 -1 -9 -11 -7 -24 l5 -23 3087 1
c1698 1 3094 5 3101 10 7 5 11 4 8 -1 -7 -11 533 -11 550 0 7 4 17 4 24 0 15
-10 60 -10 75 -1 7 4 14 4 17 -1 5 -9 109 -8 125 2 6 4 11 3 11 -1 0 -10 53
-9 69 2 6 3 16 3 23 -1 14 -9 151 -10 165 -1 6 4 13 4 17 0 8 -8 106 -10 106
-2 0 3 15 4 33 2 17 -2 38 -4 45 -3 30 1 40 0 95 -2 33 -2 61 0 64 5 2 4 9 4
15 1 14 -9 68 -11 68 -3 0 3 15 4 33 2 77 -8 97 -8 97 0 0 4 4 5 10 2 13 -8
80 -13 80 -5 0 3 15 5 33 3 35 -4 38 -4 82 -4 17 1 46 0 65 -2 19 -1 45 1 57
5 12 4 25 3 28 -3 4 -5 10 -7 15 -4 4 3 54 7 111 10 57 3 113 7 124 9 11 2 40
7 65 10 69 9 155 29 190 43 8 4 17 7 20 8 75 20 231 99 276 140 6 5 33 28 60
49 147 118 277 377 310 621 3 22 8 54 10 70 11 80 20 886 10 945 -10 61 -17
94 -22 102 -3 4 -7 16 -9 27 -11 56 -70 156 -125 211 -38 38 -106 90 -119 90
-6 0 -11 5 -11 10 0 6 -3 9 -7 8 -5 -1 -17 3 -28 9 -27 14 -134 51 -165 57
-14 2 -25 5 -25 6 0 1 -10 3 -22 4 -37 4 -37 14 -1 21 197 41 382 171 457 322
80 160 84 191 84 708 0 408 -6 532 -28 628 -7 31 -11 57 -8 57 3 0 0 7 -7 15
-7 9 -10 18 -7 22 4 3 3 11 -2 17 -4 6 -16 36 -26 66 -19 58 -73 163 -87 168
-4 2 -8 8 -8 13 0 18 -75 105 -133 154 -105 91 -238 160 -383 200 -74 20 -89
23 -136 30 -87 13 -108 15 -203 21 -98 6 -8126 12 -8277 6z"/>
<path d="M10891 19521 c-8 -5 -11 -16 -8 -25 4 -9 3 -16 -1 -16 -4 0 -7 -16
-7 -35 0 -19 2 -35 5 -35 3 0 6 -12 5 -26 0 -24 4 -27 33 -28 19 -1 36 2 38 6
3 4 11 5 19 2 18 -7 185 -11 185 -4 0 7 89 4 96 -3 4 -3 16 -2 29 3 13 5 26 6
29 3 8 -8 76 -9 76 -1 0 4 14 3 30 -2 17 -5 30 -5 30 0 0 5 12 5 28 1 15 -5
36 -5 47 -1 11 4 24 5 28 3 14 -8 87 -9 87 -1 0 4 6 5 13 3 22 -9 108 -11 113
-3 3 4 15 3 27 -1 12 -5 34 -5 49 -1 14 5 29 6 32 3 6 -7 86 -9 86 -3 0 7 69
4 76 -3 3 -3 17 -2 30 3 13 5 25 6 28 2 3 -5 30 -5 61 -2 31 3 58 3 61 -2 3
-4 15 -3 28 2 13 5 27 6 30 3 8 -8 76 -9 76 -1 0 4 14 3 30 -2 17 -5 30 -5 30
0 0 5 6 7 13 4 24 -9 98 -10 103 -2 3 5 13 4 22 -1 9 -5 26 -5 39 0 13 5 23 5
23 0 0 -5 18 -5 40 -1 22 4 43 4 46 -1 2 -4 16 -4 29 1 14 5 25 6 25 2 0 -4
14 -7 30 -7 17 0 30 3 30 7 0 4 13 3 30 -2 17 -5 32 -5 35 0 3 5 12 7 20 4 18
-7 185 -11 185 -4 0 7 89 4 96 -3 4 -3 16 -2 29 3 13 5 26 6 29 3 8 -8 76 -9
76 -1 0 4 14 3 30 -2 17 -5 30 -5 30 0 0 5 12 5 28 1 15 -5 36 -5 47 -1 11 4
24 5 28 3 14 -8 87 -9 87 -1 0 4 6 5 13 3 22 -9 108 -11 113 -3 3 4 15 3 27
-1 12 -5 34 -5 49 -1 14 5 29 6 32 3 6 -7 86 -9 86 -3 0 7 69 4 76 -3 3 -3 17
-2 30 3 13 5 25 6 28 2 3 -5 30 -5 61 -2 31 3 58 3 61 -2 3 -4 15 -3 28 2 13
5 27 6 30 3 8 -8 76 -9 76 -1 0 4 14 3 30 -2 17 -5 30 -5 30 0 0 5 6 7 13 4
24 -9 98 -10 103 -2 3 5 13 4 22 -1 9 -5 26 -5 39 0 13 5 23 5 23 0 0 -5 18
-5 40 -1 22 4 43 4 46 -1 2 -4 16 -4 29 1 14 5 25 6 25 2 0 -4 14 -7 30 -7 17
0 30 3 30 7 0 4 13 3 30 -2 17 -5 32 -5 35 0 3 5 12 7 20 4 18 -7 185 -11 185
-4 0 7 89 4 96 -3 4 -3 16 -2 29 3 13 5 26 6 29 3 8 -8 76 -9 76 -1 0 4 14 3
30 -2 17 -5 30 -5 30 0 0 5 12 5 28 1 15 -5 36 -5 47 -1 11 4 24 5 28 3 14 -8
87 -9 87 -1 0 4 6 5 13 3 22 -9 108 -11 113 -3 3 4 15 3 27 -1 12 -5 34 -5 49
-1 14 5 29 6 32 3 6 -7 86 -9 86 -3 0 7 69 4 76 -3 3 -3 17 -2 30 3 13 5 25 6
28 2 3 -5 30 -5 61 -2 31 3 58 3 61 -2 3 -4 15 -3 28 2 13 5 27 6 30 3 8 -8
76 -9 76 -1 0 4 14 3 30 -2 17 -5 30 -5 30 0 0 5 6 7 13 4 24 -9 98 -10 103
-2 3 5 13 4 22 -1 9 -5 26 -5 39 0 13 5 23 5 23 0 0 -5 18 -5 40 -1 22 4 43 4
46 -1 2 -4 16 -4 29 1 14 5 25 6 25 2 0 -4 14 -7 30 -7 17 0 30 3 30 7 0 4 13
3 30 -2 17 -5 32 -5 35 0 3 5 12 7 20 4 18 -7 185 -11 185 -4 0 7 89 4 96 -3
4 -3 16 -2 29 3 13 5 26 6 29 3 8 -8 76 -9 76 -1 0 4 14 3 30 -2 17 -5 30 -5
30 0 0 5 12 5 28 1 15 -5 36 -5 47 -1 11 4 24 5 28 3 14 -8 87 -9 87 -1 0 4 6
5 13 3 22 -9 108 -11 113 -3 3 4 15 3 27 -1 12 -5 34 -5 49 -1 14 5 29 6 32 3
6 -7 86 -9 86 -3 0 7 69 4 76 -3 3 -3 17 -2 30 3 13 5 25 6 28 2 3 -5 30 -5
61 -2 31 3 58 3 61 -2 3 -4 15 -3 28 2 13 5 27 6 30 3 8 -8 76 -9 76 -1 0 4
14 3 30 -2 17 -5 30 -5 30 0 0 5 6 7 13 4 24 -9 98 -10 103 -2 3 5 13 4 22 -1
9 -5 26 -5 39 0 13 5 23 5 23 0 0 -5 18 -5 40 -1 22 4 43 4 46 -1 2 -4 16 -4
29 1 14 5 25 6 25 2 0 -4 14 -7 30 -7 17 0 30 3 30 7 0 4 13 3 30 -2 17 -5 32
-5 35 0 3 5 12 7 20 4 18 -7 185 -11 185 -4 0 7 89 4 96 -3 4 -3 16 -2 29 3
13 5 26 6 29 3 8 -8 76 -9 76 -1 0 4 14 3 30 -2 17 -5 30 -5 30 0 0 5 12 5 28
1 15 -5 36 -5 47 -1 11 4 24 5 28 3 14 -8 87 -9 87 -1 0 4 6 5 13 3 22 -9 108
-11 113 -3 3 4 15 3 27 -1 12 -5 34 -5 49 -1 14 5 29 6 32 3 6 -7 86 -9 86 -3
0 7 69 4 76 -3 3 -3 17 -2 30 3 13 5 25 6 28 2 3 -5 30 -5 61 -2 31 3 58 3 61
-2 3 -4 15 -3 28 2 13 5 27 6 30 3 8 -8 76 -9 76 -1 0 4 14 3 30 -2 17 -5 30
-5 30 0 0 5 6 7 13 4 24 -9 98 -10 103 -2 3 5 13 4 22 -1 9 -5 26 -5 39 0 13
5 23 5 23 0 0 -5 18 -5 40 -1 22 4 43 4 46 -1 2 -4 16 -4 29 1 14 5 25 6 25 2
0 -4 14 -7 30 -7 17 0 30 3 30 7 0 4 13 3 30 -2 17 -5 32 -5 35 0 3 5 12 7 20
4 18 -7 185 -11 185 -4 0 7 89 4 96 -3 4 -3 16 -2 29 3 13 5 26 6 29 3 8 -8
76 -9 76 -1 0 4 14 3 30 -2 17 -5 30 -5 30 0 0 5 12 5 28 1 15 -5 36 -5 47 -1
11 4 24 5 28 3 14 -8 87 -9 87 -1 0 4 6 5 13 3 22 -9 108 -11 113 -3 3 4 15 3
27 -1 12 -5 34 -5 49 -1 14 5 29 6 32 3 6 -7 86 -9 86 -3 0 7 69 4 76 -3 3 -3
17 -2 30 3 13 5 25 6 28 2 3 -5 30 -5 61 -2 31 3 58 3 61 -2 3 -4 15 -3 28 2
13 5 27 6 30 3 8 -8 76 -9 76 -1 0 4 14 3 30 -2 17 -5 30 -5 30 0 0 5 6 7 13
4 24 -9 98 -10 103 -2 3 5 13 4 22 -1 9 -5 26 -5 39 0 13 5 23 5 23 0 0 -5 18
-5 40 -1 22 4 43 4 46 -1 2 -4 16 -4 29 1 14 5 25 6 25 2 0 -4 14 -7 30 -7 17
0 30 3 30 7 0 4 13 3 30 -2 17 -5 32 -5 35 0 3 5 12 7 20 4 18 -7 185 -11 185
-4 0 7 89 4 96 -3 4 -3 16 -2 29 3 13 5 26 6 29 3 8 -8 76 -9 76 -1 0 4 14 3
30 -2 17 -5 30 -5 30 0 0 5 12 5 28 1 15 -5 36 -5 47 -1 11 4 24 5 28 3 14 -8
87 -9 87 -1 0 4 6 5 13 3 22 -9 108 -11 113 -3 3 4 15 3 27 -1 12 -5 34 -5 49
-1 14 5 29 6 32 3 6 -7 86 -9 86 -3 0 7 69 4 76 -3 3 -3 17 -2 30 3 13 5 25 6
28 2 3 -5 30 -5 61 -2 31 3 58 3 61 -2 3 -4 15 -3 28 2 13 5 27 6 30 3 8 -8
76 -9 76 -1 0 4 14 3 30 -2 17 -5 30 -5 30 0 0 5 6 7 13 4 24 -9 98 -10 103
-2 3 5 13 4 22 -1 9 -5 26 -5 39 0 13 5 23 5 23 0 0 -5 18 -5 40 -1 22 4 43 4
46 -1 2 -4 16 -4 29 1 14 5 25 6 25 2 0 -4 14 -7 30 -7 17 0 30 3 30 7 0 4 13
3 30 -2 17 -5 32 -5 35 0 3 5 12 7 20 4 18 -7 185 -11 185 -4 0 7 89 4 96 -3
4 -3 16 -2 29 3 13 5 26 6 29 3 8 -8 76 -9 76 -1 0 4 14 3 30 -2 17 -5 30 -5
30 0 0 5 12 5 28 1 15 -5 36 -5 47 -1 11 4 24 5 28 3 14 -8 87 -9 87 -1 0 4 6
5 13 3 22 -9 108 -11 113 -3 3 4 15 3 27 -1 12 -5 34 -5 49 -1 14 5 29 6 32 3
6 -7 86 -9 86 -3 0 7 69 4 76 -3 3 -3 17 -2 30 3 13 5 25 6 28 2 3 -5 30 -5
61 -2 31 3 58 3 61 -2 3 -4 15 -3 28 2 13 5 27 6 30 3 8 -8 76 -9 76 -1 0 4
14 3 30 -2 17 -5 30 -5 30 0 0 5 6 7 13 4 24 -9 98 -10 103 -2 3 5 13 4 22 -1
9 -5 26 -5 39 0 13 5 23 5 23 0 0 -5 18 -5 40 -1 22 4 43 4 46 -1 2 -4 16 -4
29 1 14 5 25 6 25 2 0 -4 14 -7 30 -7 17 0 30 3 30 7 0 4 13 3 30 -2 17 -5 32
-5 35 0 3 5 12 7 20 4 18 -7 185 -11 185 -4 0 7 89 4 96 -3 4 -3 16 -2 29 3
13 5 26 6 29 3 8 -8 76 -9 76 -1 0 4 14 3 30 -2 17 -5 30 -5 30 0 0 5 12 5 28
1 15 -5 36 -5 47 -1 11 4 24 5 28 3 14 -8 87 -9 87 -1 0 4 6 5 13 3 22 -9 108
-11 113 -3 3 4 15 3 27 -1 12 -5 34 -5 49 -1 14 5 29 6 32 3 6 -7 86 -9 86 -3
0 7 69 4 76 -3 3 -3 17 -2 30 3 13 5 25 6 28 2 3 -5 30 -5 61 -2 31 3 58 3 61
-2 3 -4 15 -3 28 2 13 5 27 6 30 3 8 -8 76 -9 76 -1 0 4 14 3 30 -2 17 -5 30
-5 30 0 0 5 6 7 13 4 24 -9 98 -10 103 -2 3 5 13 4 22 -1 9 -5 26 -5 39 0 13
5 23 5 23 0 0 -5 18 -5 40 -1 22 4 43 4 46 -1 2 -4 16 -4 29 1 14 5 25 6 25 2
0 -8 118 -8 126 1 3 3 12 3 19 0 21 -7 185 -9 185 -1 0 3 10 4 22 0 16 -4 20
-2 16 10 -4 8 -2 21 2 28 5 8 5 21 0 30 -5 9 -5 22 -1 29 23 36 -22 77 -66 60
-13 -5 -25 -4 -28 1 -3 6 -15 6 -30 0 -15 -6 -27 -6 -30 0 -3 6 -15 6 -30 0
-15 -6 -27 -6 -30 0 -3 6 -15 6 -30 0 -15 -6 -27 -6 -30 0 -3 5 -15 6 -28 1
-12 -5 -34 -5 -49 0 -16 4 -28 4 -28 -1 0 -5 -13 -5 -30 0 -17 5 -30 5 -30 0
0 -5 -13 -5 -30 0 -17 5 -30 5 -30 0 0 -5 -13 -5 -30 0 -17 5 -30 5 -30 0 0
-5 -13 -5 -30 0 -17 5 -30 5 -30 0 0 -5 -13 -5 -30 0 -17 5 -30 5 -30 0 0 -5
-13 -5 -30 0 -17 5 -30 5 -30 0 0 -5 -13 -5 -30 0 -17 5 -30 5 -30 0 0 -5 -13
-5 -30 0 -19 5 -30 5 -30 -1 0 -6 -5 -7 -11 -4 -9 6 -122 10 -144 5 -5 -1 -14
-1 -20 0 -23 4 -206 2 -211 -3 -3 -3 -18 -2 -32 2 -15 5 -36 5 -47 1 -11 -4
-24 -5 -29 -2 -8 4 -111 5 -257 1 -26 -1 -51 1 -56 4 -5 3 -15 2 -23 -3 -8 -5
-21 -5 -30 0 -9 5 -22 5 -30 0 -8 -5 -21 -5 -30 0 -9 5 -22 5 -30 0 -8 -5 -21
-5 -30 0 -9 5 -22 5 -30 0 -8 -5 -21 -5 -30 0 -9 5 -22 5 -30 0 -8 -5 -21 -5
-30 0 -9 5 -22 5 -30 0 -8 -5 -21 -5 -30 0 -9 5 -22 5 -30 0 -8 -5 -21 -5 -30
0 -9 5 -22 5 -30 0 -8 -5 -21 -5 -30 0 -9 5 -22 5 -30 0 -8 -5 -21 -5 -30 0
-9 5 -22 5 -30 0 -8 -5 -21 -5 -30 0 -9 5 -22 5 -30 0 -7 -4 -24 -4 -36 0 -14
6 -26 5 -29 0 -3 -6 -15 -6 -30 0 -15 6 -27 6 -30 0 -3 -6 -15 -6 -30 0 -15 6
-27 6 -30 0 -3 -6 -15 -6 -29 0 -13 5 -27 6 -30 3 -8 -8 -76 -9 -76 -1 0 4
-13 3 -30 -2 -17 -5 -30 -5 -30 0 0 5 -13 5 -30 0 -17 -5 -30 -5 -30 0 0 5
-13 5 -30 0 -16 -5 -30 -6 -30 -2 0 6 -118 7 -145 2 -5 -1 -14 -1 -20 0 -23 4
-206 2 -211 -3 -3 -3 -18 -2 -32 2 -15 5 -36 5 -47 1 -11 -4 -24 -5 -29 -2 -8
5 -126 5 -248 0 -27 -1 -51 1 -54 5 -3 3 -17 2 -30 -3 -14 -6 -26 -6 -29 0 -3
5 -15 6 -28 1 -12 -5 -32 -5 -44 0 -13 5 -25 4 -28 -1 -3 -6 -15 -6 -30 0 -14
5 -27 5 -30 0 -3 -5 -18 -5 -35 0 -17 5 -30 5 -30 0 0 -5 -13 -5 -30 0 -17 5
-30 5 -30 0 0 -5 -13 -5 -30 0 -17 5 -30 5 -30 0 0 -5 -13 -5 -30 0 -17 5 -30
5 -30 0 0 -5 -13 -5 -30 0 -17 5 -30 5 -30 0 0 -5 -13 -5 -30 0 -17 5 -30 5
-30 0 0 -5 -13 -5 -30 0 -17 5 -30 5 -30 0 0 -5 -13 -5 -30 0 -17 5 -30 5 -30
0 0 -5 -13 -5 -30 0 -17 5 -30 5 -30 0 0 -5 -13 -5 -30 0 -17 5 -30 5 -30 0 0
-5 -13 -5 -30 0 -17 5 -30 5 -30 0 0 -5 -13 -5 -30 0 -17 5 -30 5 -30 0 0 -5
-13 -5 -30 0 -17 5 -30 5 -30 0 0 -5 -13 -5 -30 0 -17 5 -30 5 -30 0 0 -5 -13
-5 -30 0 -19 5 -30 5 -30 -1 0 -6 -5 -7 -11 -4 -9 6 -122 10 -144 5 -5 -1 -14
-1 -20 0 -23 4 -206 2 -211 -3 -3 -3 -18 -2 -32 2 -15 5 -36 5 -47 1 -11 -4
-24 -5 -29 -2 -8 4 -111 5 -257 1 -26 -1 -51 1 -56 4 -5 3 -15 2 -23 -3 -8 -5
-21 -5 -30 0 -9 5 -22 5 -30 0 -8 -5 -21 -5 -30 0 -9 5 -22 5 -30 0 -8 -5 -21
-5 -30 0 -9 5 -22 5 -30 0 -8 -5 -21 -5 -30 0 -9 5 -22 5 -30 0 -8 -5 -21 -5
-30 0 -9 5 -22 5 -30 0 -8 -5 -21 -5 -30 0 -9 5 -22 5 -30 0 -8 -5 -21 -5 -30
0 -9 5 -22 5 -30 0 -8 -5 -21 -5 -30 0 -9 5 -22 5 -30 0 -8 -5 -21 -5 -30 0
-9 5 -22 5 -30 0 -8 -5 -21 -5 -30 0 -9 5 -22 5 -30 0 -7 -4 -24 -4 -36 0 -14
6 -26 5 -29 0 -3 -6 -15 -6 -30 0 -15 6 -27 6 -30 0 -3 -6 -15 -6 -30 0 -15 6
-27 6 -30 0 -3 -6 -15 -6 -29 0 -13 5 -27 6 -30 3 -8 -8 -76 -9 -76 -1 0 4
-13 3 -30 -2 -17 -5 -30 -5 -30 0 0 5 -13 5 -30 0 -17 -5 -30 -5 -30 0 0 5
-13 5 -30 0 -16 -5 -30 -6 -30 -2 0 6 -118 7 -145 2 -5 -1 -14 -1 -20 0 -23 4
-206 2 -211 -3 -3 -3 -18 -2 -32 2 -15 5 -36 5 -47 1 -11 -4 -24 -5 -29 -2 -8
5 -126 5 -248 0 -27 -1 -51 1 -54 5 -3 3 -17 2 -30 -3 -14 -6 -26 -6 -29 0 -3
5 -15 6 -28 1 -12 -5 -32 -5 -44 0 -13 5 -25 4 -28 -1 -3 -6 -15 -6 -30 0 -14
5 -27 5 -30 0 -3 -5 -18 -5 -35 0 -17 5 -30 5 -30 0 0 -5 -13 -5 -30 0 -17 5
-30 5 -30 0 0 -5 -13 -5 -30 0 -17 5 -30 5 -30 0 0 -5 -13 -5 -30 0 -17 5 -30
5 -30 0 0 -5 -13 -5 -30 0 -17 5 -30 5 -30 0 0 -5 -13 -5 -30 0 -17 5 -30 5
-30 0 0 -5 -13 -5 -30 0 -17 5 -30 5 -30 0 0 -5 -13 -5 -30 0 -17 5 -30 5 -30
0 0 -5 -13 -5 -30 0 -17 5 -30 5 -30 0 0 -5 -13 -5 -30 0 -17 5 -30 5 -30 0 0
-5 -13 -5 -30 0 -17 5 -30 5 -30 0 0 -5 -13 -5 -30 0 -17 5 -30 5 -30 0 0 -5
-13 -5 -30 0 -17 5 -30 5 -30 0 0 -5 -13 -5 -30 0 -17 5 -30 5 -30 0 0 -5 -13
-5 -30 0 -19 5 -30 5 -30 -1 0 -6 -5 -7 -11 -4 -9 6 -122 10 -144 5 -5 -1 -14
-1 -20 0 -23 4 -206 2 -211 -3 -3 -3 -18 -2 -32 2 -15 5 -36 5 -47 1 -11 -4
-24 -5 -29 -2 -8 4 -111 5 -257 1 -26 -1 -51 1 -56 4 -5 3 -15 2 -23 -3 -8 -5
-21 -5 -30 0 -9 5 -22 5 -30 0 -8 -5 -21 -5 -30 0 -9 5 -22 5 -30 0 -8 -5 -21
-5 -30 0 -9 5 -22 5 -30 0 -8 -5 -21 -5 -30 0 -9 5 -22 5 -30 0 -8 -5 -21 -5
-30 0 -9 5 -22 5 -30 0 -8 -5 -21 -5 -30 0 -9 5 -22 5 -30 0 -8 -5 -21 -5 -30
0 -9 5 -22 5 -30 0 -8 -5 -21 -5 -30 0 -9 5 -22 5 -30 0 -8 -5 -21 -5 -30 0
-9 5 -22 5 -30 0 -8 -5 -21 -5 -30 0 -9 5 -22 5 -30 0 -7 -4 -24 -4 -36 0 -14
6 -26 5 -29 0 -3 -6 -15 -6 -30 0 -15 6 -27 6 -30 0 -3 -6 -15 -6 -30 0 -15 6
-27 6 -30 0 -3 -6 -15 -6 -29 0 -13 5 -27 6 -30 3 -8 -8 -76 -9 -76 -1 0 4
-13 3 -30 -2 -17 -5 -30 -5 -30 0 0 5 -13 5 -30 0 -17 -5 -30 -5 -30 0 0 5
-13 5 -30 0 -16 -5 -30 -6 -30 -2 0 6 -118 7 -145 2 -5 -1 -14 -1 -20 0 -23 4
-206 2 -211 -3 -3 -3 -18 -2 -32 2 -15 5 -36 5 -47 1 -11 -4 -24 -5 -29 -2 -8
5 -126 5 -248 0 -27 -1 -51 1 -54 5 -3 3 -17 2 -30 -3 -14 -6 -26 -6 -29 0 -3
5 -15 6 -28 1 -12 -5 -32 -5 -44 0 -13 5 -25 4 -28 -1 -3 -6 -15 -6 -30 0 -14
5 -27 5 -30 0 -3 -5 -18 -5 -35 0 -17 5 -30 5 -30 0 0 -5 -13 -5 -30 0 -17 5
-30 5 -30 0 0 -5 -13 -5 -30 0 -17 5 -30 5 -30 0 0 -5 -13 -5 -30 0 -17 5 -30
5 -30 0 0 -5 -13 -5 -30 0 -17 5 -30 5 -30 0 0 -5 -13 -5 -30 0 -17 5 -30 5
-30 0 0 -5 -13 -5 -30 0 -17 5 -30 5 -30 0 0 -5 -13 -5 -30 0 -17 5 -30 5 -30
0 0 -5 -13 -5 -30 0 -17 5 -30 5 -30 0 0 -5 -13 -5 -30 0 -17 5 -30 5 -30 0 0
-5 -13 -5 -30 0 -17 5 -30 5 -30 0 0 -5 -13 -5 -30 0 -17 5 -30 5 -30 0 0 -5
-13 -5 -30 0 -17 5 -30 5 -30 0 0 -5 -13 -5 -30 0 -17 5 -30 5 -30 0 0 -5 -13
-5 -30 0 -19 5 -30 5 -30 -1 0 -6 -5 -7 -11 -4 -9 6 -122 10 -144 5 -5 -1 -14
-1 -20 0 -23 4 -206 2 -211 -3 -3 -3 -18 -2 -32 2 -15 5 -36 5 -47 1 -11 -4
-24 -5 -29 -2 -8 4 -111 5 -257 1 -26 -1 -51 1 -56 4 -5 3 -15 2 -23 -3 -8 -5
-21 -5 -30 0 -9 5 -22 5 -30 0 -8 -5 -21 -5 -30 0 -9 5 -22 5 -30 0 -8 -5 -21
-5 -30 0 -9 5 -22 5 -30 0 -8 -5 -21 -5 -30 0 -9 5 -22 5 -30 0 -8 -5 -21 -5
-30 0 -9 5 -22 5 -30 0 -8 -5 -21 -5 -30 0 -9 5 -22 5 -30 0 -8 -5 -21 -5 -30
0 -9 5 -22 5 -30 0 -8 -5 -21 -5 -30 0 -9 5 -22 5 -30 0 -8 -5 -21 -5 -30 0
-9 5 -22 5 -30 0 -8 -5 -21 -5 -30 0 -9 5 -22 5 -30 0 -7 -4 -24 -4 -36 0 -14
6 -26 5 -29 0 -3 -6 -15 -6 -30 0 -15 6 -27 6 -30 0 -3 -6 -15 -6 -30 0 -15 6
-27 6 -30 0 -3 -6 -15 -6 -29 0 -13 5 -27 6 -30 3 -8 -8 -76 -9 -76 -1 0 4
-13 3 -30 -2 -17 -5 -30 -5 -30 0 0 5 -13 5 -30 0 -17 -5 -30 -5 -30 0 0 5
-13 5 -30 0 -16 -5 -30 -6 -30 -2 0 6 -118 7 -145 2 -5 -1 -14 -1 -20 0 -23 4
-206 2 -211 -3 -3 -3 -18 -2 -32 2 -15 5 -36 5 -47 1 -11 -4 -24 -5 -29 -2 -8
5 -126 5 -248 0 -27 -1 -51 1 -54 5 -3 3 -17 2 -30 -3 -14 -6 -26 -6 -29 0 -3
5 -15 6 -28 1 -12 -5 -32 -5 -44 0 -13 5 -25 4 -28 -1 -3 -6 -15 -6 -30 0 -14
5 -27 5 -30 0 -3 -5 -18 -5 -35 0 -17 5 -30 5 -30 0 0 -5 -13 -5 -30 0 -17 5
-30 5 -30 0 0 -5 -13 -5 -30 0 -17 5 -30 5 -30 0 0 -5 -13 -5 -30 0 -17 5 -30
5 -30 0 0 -5 -13 -5 -30 0 -17 5 -30 5 -30 0 0 -5 -13 -5 -30 0 -17 5 -30 5
-30 0 0 -5 -13 -5 -30 0 -17 5 -30 5 -30 0 0 -5 -13 -5 -30 0 -17 5 -30 5 -30
0 0 -5 -13 -5 -30 0 -17 5 -30 5 -30 0 0 -5 -13 -5 -30 0 -17 5 -30 5 -30 0 0
-5 -13 -5 -30 0 -17 5 -30 5 -30 0 0 -5 -13 -5 -30 0 -17 5 -30 5 -30 0 0 -5
-13 -5 -30 0 -17 5 -30 5 -30 0 0 -5 -13 -5 -30 0 -17 5 -30 5 -30 0 0 -5 -13
-5 -30 0 -19 5 -30 5 -30 -1 0 -6 -5 -7 -11 -4 -9 6 -122 10 -144 5 -5 -1 -14
-1 -20 0 -23 4 -206 2 -211 -3 -3 -3 -18 -2 -32 2 -15 5 -36 5 -47 1 -11 -4
-24 -5 -29 -2 -8 4 -107 5 -259 1 -26 -1 -50 1 -54 4 -3 4 -13 2 -22 -3 -10
-5 -23 -5 -31 0 -8 5 -21 5 -30 0 -9 -5 -22 -5 -30 0 -8 5 -21 5 -30 0 -9 -5
-22 -5 -30 0 -8 5 -21 5 -30 0 -9 -5 -22 -5 -30 0 -8 5 -21 5 -30 0 -9 -5 -22
-5 -30 0 -8 5 -21 5 -30 0 -9 -5 -22 -5 -30 0 -8 5 -21 5 -30 0 -9 -5 -22 -5
-30 0 -8 5 -21 5 -30 0 -9 -5 -22 -5 -29 0 -8 4 -26 4 -42 0 -15 -5 -29 -4
-31 1 -2 5 -9 5 -17 0z"/>
<path d="M17593 18782 c-23 -2 -33 -9 -34 -20 -3 -94 0 -1632 4 -1639 6 -10
150 -8 168 2 6 5 10 4 6 -1 -6 -10 54 -10 71 0 7 4 12 4 12 -1 0 -9 96 -10
106 -1 3 4 16 3 28 -1 28 -9 240 -6 256 4 7 5 11 4 8 -1 -4 -5 28 -9 73 -9 43
0 79 4 79 8 0 5 6 5 12 0 17 -10 228 -10 228 0 0 5 5 5 12 1 17 -11 108 -11
108 -1 0 5 5 5 12 1 16 -10 188 -11 188 -1 0 5 5 5 12 1 17 -10 108 -11 108
-1 0 4 8 4 18 -1 21 -10 245 -8 262 3 7 5 11 4 7 -1 -6 -10 54 -10 71 0 7 4
12 4 12 -1 0 -4 25 -8 55 -8 30 -1 55 3 55 7 0 5 8 5 18 1 21 -10 244 -9 260
1 7 4 12 4 12 -1 0 -10 134 -8 151 2 7 5 10 4 6 -1 -6 -10 54 -10 71 0 7 4 12
4 12 -1 0 -9 96 -10 106 -1 3 4 16 3 28 -1 28 -9 240 -6 256 4 7 5 11 4 7 -1
-6 -11 136 -10 154 1 6 5 10 4 7 -1 -4 -5 23 -9 60 -9 l67 1 1 167 0 167
-1423 0 c-783 0 -1424 3 -1424 8 -1 4 -2 78 -3 165 l-1 157 60 0 c1260 2 2688
0 2693 -4 3 -3 11 -1 18 5 8 7 19 7 31 1 12 -7 23 -6 34 1 13 10 15 38 15 169
l-1 156 -25 4 c-14 2 -654 3 -1422 2 -983 0 -1398 3 -1401 10 -2 6 -3 81 -3
166 l1 155 1340 2 c737 1 1378 2 1425 3 l86 0 -1 162 c0 104 -4 163 -11 165
-13 4 -3097 9 -3141 5z"/>
<path d="M21010 18718 c-1 -87 -1 -233 0 -256 0 -16 46 -17 828 -17 l827 0 5
-664 5 -664 70 -1 c39 -1 80 2 93 6 13 4 21 5 19 0 -6 -9 56 -8 71 2 7 4 12 3
12 -1 0 -10 113 -9 129 2 6 3 9 11 5 16 -4 8 -8 1051 -5 1277 l1 32 828 0 828
0 0 165 c0 91 -2 165 -5 166 -3 0 -840 1 -1859 2 l-1852 2 0 -67z"/>
<path d="M12778 18776 c-1 -1 -2 -373 -3 -828 l-2 -828 26 -1 c108 -4 131 -3
131 4 0 5 5 5 12 1 7 -5 47 -8 90 -8 l78 -1 0 633 c0 428 3 632 10 632 6 0 27
-7 48 -16 20 -8 98 -38 172 -65 131 -48 166 -62 202 -80 10 -5 25 -9 33 -9 8
0 23 -4 33 -9 28 -15 83 -37 142 -57 30 -10 60 -22 66 -26 7 -5 20 -10 30 -12
11 -2 62 -20 114 -41 52 -20 120 -46 150 -57 79 -29 91 -33 133 -52 21 -9 42
-16 48 -16 6 0 25 -7 42 -15 28 -12 190 -74 287 -109 78 -29 358 -136 394
-151 41 -18 74 -15 129 9 18 7 46 19 62 26 17 7 35 14 40 16 6 1 80 30 165 64
85 34 160 63 165 64 13 4 45 16 70 26 11 5 92 37 180 71 88 34 205 79 260 101
55 22 105 41 110 42 6 2 21 8 35 14 50 21 446 174 473 182 16 5 34 13 40 18 7
5 32 15 57 22 25 7 50 17 55 20 6 4 24 12 40 18 17 5 38 13 48 17 17 7 18 3
16 -33 -2 -23 -1 -43 2 -46 3 -3 2 -33 -1 -66 -3 -34 -2 -64 2 -66 5 -3 6 -10
3 -15 -10 -15 -11 -99 -2 -99 5 0 5 -5 2 -10 -6 -9 -9 -131 -5 -155 2 -5 1
-14 0 -20 -6 -25 -2 -274 4 -284 4 -6 4 -11 -1 -11 -10 0 -9 -122 0 -138 4 -6
4 -13 0 -15 -5 -3 -8 -66 -7 -141 1 -146 9 -175 45 -155 10 5 19 6 19 2 0 -4
25 -8 55 -8 30 0 55 4 55 8 0 4 8 4 18 0 15 -8 46 -8 127 -4 20 1 20 7 18 823
0 453 -2 826 -2 829 -1 4 -74 7 -163 7 l-163 0 -135 -50 c-74 -28 -148 -57
-164 -64 -16 -8 -32 -14 -36 -14 -4 0 -25 -8 -46 -17 -22 -9 -43 -17 -49 -19
-5 -1 -51 -18 -101 -38 -50 -20 -95 -36 -100 -36 -5 0 -26 -9 -47 -20 -20 -11
-38 -19 -39 -18 -2 1 -41 -13 -88 -31 -121 -47 -124 -48 -135 -51 -5 -2 -41
-16 -80 -32 -38 -16 -77 -31 -85 -33 -13 -3 -183 -69 -245 -95 -11 -5 -135
-52 -275 -105 -140 -53 -262 -100 -270 -104 -8 -5 -22 -5 -30 -1 -61 29 -288
115 -320 122 -8 2 -17 5 -20 8 -3 3 -36 16 -75 29 -38 13 -88 32 -109 43 -22
10 -46 18 -53 18 -7 0 -21 4 -31 10 -9 5 -61 25 -114 45 -53 19 -107 39 -120
44 -30 12 -60 23 -73 27 -5 1 -136 50 -290 109 -154 58 -287 108 -295 110 -8
2 -109 40 -225 83 l-210 80 -162 -1 c-90 0 -164 -1 -165 -1z"/>
<path d="M24996 18771 c-7 -11 -5 -1651 2 -1652 40 -4 64 -3 68 3 3 5 10 5 16
1 15 -9 71 -8 86 1 7 4 12 4 12 -1 0 -6 105 -9 142 -4 3 1 6 116 6 256 0 140
3 258 6 263 3 6 512 9 1228 9 1194 0 1358 2 1358 14 0 3 6 6 13 6 28 0 113 50
148 85 54 55 84 128 95 228 3 27 4 433 1 488 -1 17 -6 32 -10 32 -5 0 -6 4 -2
10 6 10 -45 124 -67 150 -37 44 -105 81 -193 107 -27 8 -2904 12 -2909 4z
m2799 -346 c15 -11 32 -36 39 -55 12 -39 14 -198 2 -218 -4 -6 -3 -12 2 -12 9
0 7 -49 -4 -84 -9 -27 -35 -53 -64 -64 -15 -6 -511 -9 -1232 -9 -1100 0 -1208
1 -1209 16 -1 19 -1 313 0 391 l1 56 1219 -1 c1204 0 1220 0 1246 -20z"/>
</g>
</svg>
