<svg width="117.179443" height="20.474976" viewBox="0 0 117.179 20.475" fill="none" xmlns="http://www.w3.org/2000/svg" xmlns:xlink="http://www.w3.org/1999/xlink">
	<desc>
			Created with Pixso.
	</desc>
	<defs/>
	<path id="Red Sails" d="M44.34 17.85L44.39 17.85L44.39 19.99L45.98 19.99L45.98 -1.91e-6L44.39 -1.91e-6L44.39 9.92L44.34 9.92C44.09 9.49 43.78 9.13 43.41 8.83C43.04 8.51 42.64 8.26 42.2 8.06C41.77 7.85 41.32 7.7 40.85 7.61C40.37 7.51 39.9 7.45 39.44 7.45C38.51 7.45 37.65 7.61 36.85 7.93C36.06 8.25 35.38 8.7 34.82 9.28C34.25 9.84 33.81 10.52 33.49 11.32C33.18 12.09 33.02 12.95 33.02 13.88C33.02 14.82 33.18 15.68 33.49 16.48C33.81 17.25 34.25 17.93 34.82 18.51C35.38 19.08 36.06 19.52 36.85 19.84C37.65 20.15 38.51 20.31 39.44 20.31C39.9 20.31 40.37 20.26 40.85 20.15C41.32 20.06 41.77 19.92 42.2 19.73C42.64 19.52 43.04 19.26 43.41 18.96Q43.67 18.74 43.88 18.49Q44.14 18.19 44.34 17.85ZM102.82 -1.91e-6L101.23 -1.91e-6L101.23 19.99L102.82 19.99L102.82 -1.91e-6ZM63.25 18.3C62.53 17.91 61.94 17.32 61.48 16.53L59.81 17.64C60.55 18.66 61.44 19.39 62.48 19.84C63.53 20.26 64.66 20.47 65.9 20.47C66.66 20.47 67.39 20.36 68.09 20.13C68.8 19.9 69.42 19.56 69.94 19.12C70.49 18.66 70.92 18.11 71.24 17.45C71.56 16.8 71.72 16.05 71.72 15.21C71.72 14.04 71.48 13.13 71 12.48C70.53 11.81 69.93 11.29 69.2 10.92C68.5 10.55 67.72 10.26 66.88 10.05C66.05 9.82 65.27 9.56 64.55 9.28C63.84 8.98 63.25 8.58 62.78 8.09Q62.76 8.07 62.74 8.05Q62.06 7.29 62.06 5.92Q62.06 5.02 62.41 4.36C62.63 3.92 62.93 3.56 63.3 3.28Q63.89 2.83 64.65 2.61C65.17 2.46 65.7 2.38 66.27 2.38C67.08 2.38 67.78 2.53 68.36 2.85C68.96 3.15 69.48 3.61 69.92 4.23L71.43 3.14Q70.61 2.05 69.52 1.51Q69.34 1.42 69.15 1.34C68.29 0.97 67.34 0.79 66.32 0.79C65.53 0.79 64.77 0.9 64.05 1.13C63.32 1.34 62.68 1.67 62.11 2.11C61.57 2.53 61.13 3.07 60.79 3.72C60.47 4.36 60.32 5.09 60.32 5.92Q60.32 7.24 60.71 8.14C60.99 8.74 61.36 9.24 61.82 9.65C62.28 10.04 62.79 10.36 63.36 10.6C63.94 10.85 64.53 11.07 65.13 11.26C65.75 11.46 66.34 11.65 66.9 11.85C67.48 12.04 68 12.28 68.46 12.56C68.92 12.82 69.28 13.17 69.55 13.59C69.83 14.02 69.97 14.55 69.97 15.21C69.97 15.77 69.86 16.28 69.63 16.74C69.42 17.18 69.12 17.56 68.73 17.88C68.36 18.2 67.92 18.44 67.4 18.62C66.89 18.79 66.35 18.88 65.76 18.88Q64.41 18.88 63.33 18.34Q63.29 18.32 63.25 18.3ZM4.92 1.26L5.72e-6 1.26L5.72e-6 19.99L1.74 19.99L1.74 11.11L4.99 11.11L10.26 19.99L12.24 19.99L6.79 11C7.3 10.93 7.84 10.81 8.41 10.63C8.97 10.45 9.48 10.19 9.94 9.84Q9.99 9.79 10.05 9.75Q10.69 9.22 11.11 8.41C11.42 7.83 11.58 7.08 11.58 6.19Q11.58 4.97 11.18 4.12C10.92 3.56 10.59 3.09 10.18 2.72C9.77 2.35 9.32 2.07 8.8 1.87Q8.04 1.58 7.3 1.45C6.8 1.36 6.34 1.31 5.92 1.29Q5.29 1.26 4.92 1.26ZM92.93 2.08C92.71 2.31 92.59 2.6 92.59 2.93C92.59 3.27 92.71 3.55 92.93 3.78C93.16 4.01 93.45 4.12 93.78 4.12C94.12 4.12 94.4 4.01 94.63 3.78C94.86 3.55 94.97 3.27 94.97 2.93C94.97 2.6 94.86 2.31 94.63 2.08C94.4 1.86 94.12 1.74 93.78 1.74C93.45 1.74 93.16 1.86 92.93 2.08ZM5.44 9.52L1.74 9.52L1.74 2.85L5.44 2.85C6.36 2.85 7.1 2.97 7.67 3.2C8.25 3.43 8.7 3.71 9.02 4.04C9.33 4.38 9.54 4.74 9.65 5.13Q9.84 5.71 9.84 6.19C9.84 6.5 9.77 6.86 9.65 7.24C9.54 7.63 9.33 7.99 9.02 8.33C8.7 8.66 8.25 8.95 7.67 9.17Q6.82 9.52 5.44 9.52ZM25.61 19.7C26.52 19.3 27.29 18.63 27.91 17.69L26.74 16.71C26.34 17.38 25.76 17.91 25 18.3C24.24 18.69 23.46 18.88 22.64 18.88Q21.24 18.88 20.34 18.35C19.76 18 19.29 17.58 18.94 17.08C18.59 16.59 18.34 16.09 18.2 15.58C18.08 15.05 18.02 14.61 18.02 14.28L28.28 14.28L28.28 13.17C28.28 12.46 28.16 11.77 27.91 11.08C27.66 10.39 27.29 9.78 26.8 9.25C26.32 8.71 25.72 8.27 25 7.96Q23.94 7.45 22.54 7.45Q21.19 7.45 20.08 7.96C19.34 8.27 18.69 8.72 18.15 9.31C17.6 9.87 17.18 10.54 16.88 11.32C16.58 12.09 16.43 12.94 16.43 13.86Q16.43 15.29 16.85 16.48C17.15 17.25 17.57 17.93 18.12 18.51C18.67 19.08 19.32 19.52 20.08 19.84C20.84 20.15 21.68 20.31 22.62 20.31C23.71 20.31 24.71 20.11 25.61 19.7ZM86.61 16.48L86.61 11.87C86.61 10.32 86.17 9.2 85.29 8.51Q83.97 7.45 81.75 7.45C80.95 7.45 80.12 7.6 79.26 7.9Q77.96 8.33 77.09 9.17L78.02 10.26C79.09 9.34 80.33 8.88 81.75 8.88C82.73 8.88 83.55 9.11 84.21 9.57C84.86 10.03 85.18 10.79 85.18 11.85L85.18 12.59L83.33 12.59C82.73 12.59 82.04 12.63 81.24 12.72C80.47 12.79 79.73 12.97 79.02 13.25C78.33 13.51 77.75 13.92 77.27 14.47C76.8 15.01 76.56 15.75 76.56 16.69C76.56 17.34 76.68 17.9 76.93 18.35C77.2 18.81 77.53 19.19 77.94 19.49C78.34 19.77 78.8 19.98 79.31 20.1C79.82 20.24 80.34 20.31 80.87 20.31C81.91 20.31 82.77 20.13 83.44 19.76L83.45 19.75Q84.47 19.2 85.16 18.01L85.21 18.01C85.21 18.73 85.26 19.39 85.37 19.99L86.85 19.99C86.8 19.64 86.75 19.29 86.72 18.94C86.7 18.58 86.68 18.2 86.67 17.8C86.65 17.39 86.63 16.95 86.61 16.48ZM110.72 18.38C110.07 18.03 109.57 17.52 109.24 16.87L107.84 17.82C108.31 18.67 108.98 19.3 109.85 19.7C110.73 20.11 111.7 20.31 112.76 20.31C113.34 20.31 113.89 20.23 114.42 20.07C114.95 19.91 115.42 19.68 115.83 19.36C116.25 19.04 116.58 18.65 116.8 18.2C117.05 17.72 117.17 17.16 117.17 16.53C117.17 15.7 116.99 15.06 116.62 14.62C116.27 14.17 115.83 13.82 115.3 13.59C114.77 13.35 114.19 13.17 113.55 13.06C112.92 12.96 112.33 12.83 111.8 12.69C111.28 12.53 110.83 12.32 110.46 12.06C110.1 11.79 109.93 11.39 109.93 10.84C109.93 10.52 110.01 10.24 110.16 9.99C110.34 9.75 110.55 9.54 110.8 9.39C111.05 9.23 111.32 9.1 111.62 9.02C111.94 8.93 112.24 8.88 112.52 8.88C113.24 8.88 113.82 9.03 114.27 9.33C114.72 9.62 115.1 10.04 115.4 10.6L116.83 9.76C116.43 8.96 115.85 8.38 115.11 8.01C114.39 7.64 113.52 7.45 112.52 7.45Q112.18 7.45 111.84 7.5Q111.42 7.55 111.01 7.67C110.52 7.81 110.07 8.03 109.66 8.33C109.27 8.61 108.96 8.97 108.71 9.41C108.46 9.85 108.34 10.37 108.34 10.97C108.34 11.75 108.52 12.35 108.87 12.77Q109.03 12.95 109.2 13.11Q109.65 13.51 110.22 13.78C110.75 14.01 111.33 14.18 111.96 14.31C112.6 14.41 113.18 14.54 113.71 14.7C114.24 14.86 114.68 15.08 115.03 15.36C115.4 15.65 115.59 16.07 115.59 16.63C115.59 16.99 115.5 17.3 115.32 17.59C115.16 17.85 114.95 18.08 114.69 18.27C114.42 18.47 114.12 18.62 113.79 18.72C113.45 18.83 113.12 18.88 112.78 18.88Q112.31 18.88 111.86 18.79Q111.27 18.66 110.72 18.38ZM94.57 7.77L92.99 7.77L92.99 19.99L94.57 19.99L94.57 7.77ZM26.35 11.32C26.58 11.79 26.69 12.3 26.69 12.85L18.02 12.85C18.02 12.69 18.09 12.4 18.23 11.98C18.37 11.54 18.61 11.09 18.94 10.63C19.28 10.17 19.73 9.77 20.29 9.41C20.87 9.06 21.6 8.88 22.46 8.88C23.04 8.88 23.59 8.99 24.1 9.2C24.63 9.41 25.08 9.7 25.45 10.07C25.84 10.43 26.14 10.84 26.35 11.32ZM44.15 11.95C44.42 12.55 44.55 13.2 44.55 13.88C44.55 14.57 44.42 15.22 44.15 15.84C43.89 16.44 43.53 16.97 43.07 17.43C42.61 17.87 42.07 18.22 41.46 18.49C40.84 18.75 40.17 18.88 39.44 18.88C38.7 18.88 38.03 18.75 37.43 18.49C36.83 18.22 36.32 17.87 35.9 17.43C35.48 16.97 35.15 16.44 34.92 15.84C34.71 15.22 34.6 14.57 34.6 13.88C34.6 13.2 34.71 12.55 34.92 11.95C35.15 11.33 35.48 10.81 35.9 10.36C36.32 9.91 36.83 9.54 37.43 9.28C38.03 9.02 38.7 8.88 39.44 8.88C40.17 8.88 40.84 9.02 41.46 9.28C42.07 9.54 42.61 9.91 43.07 10.36C43.53 10.81 43.89 11.33 44.15 11.95ZM81.48 13.99C82.12 13.9 82.77 13.86 83.44 13.86L85.18 13.86L85.18 14.68C85.18 15.19 85.12 15.7 85 16.21C84.88 16.7 84.65 17.15 84.31 17.56C83.99 17.95 83.56 18.27 83.01 18.51C82.47 18.76 81.77 18.88 80.93 18.88C80.59 18.88 80.25 18.84 79.92 18.75C79.6 18.64 79.31 18.5 79.05 18.33C78.78 18.13 78.56 17.9 78.39 17.61Q78.35 17.55 78.33 17.49Q78.15 17.09 78.15 16.61C78.15 16.08 78.3 15.64 78.6 15.29C78.9 14.93 79.29 14.65 79.79 14.44Q80.55 14.12 81.48 13.99Z" fill="#FFFFFF" fill-opacity="1.000000" fill-rule="evenodd"/>
</svg>
