<svg width="60.077637" height="24.164001" viewBox="0 0 60.0776 24.164" fill="none" xmlns="http://www.w3.org/2000/svg" xmlns:xlink="http://www.w3.org/1999/xlink">
	<desc>
			Created with Pixso.
	</desc>
	<defs/>
	<path id="Dream Charter" d="M4.43 -9.54e-7L0.53 -9.54e-7L0.53 9.91L4.22 9.91Q5.12 9.91 6.04 9.61C6.67 9.41 7.23 9.1 7.74 8.7Q7.89 8.58 8.04 8.44Q8.6 7.9 8.98 7.16C9.31 6.54 9.47 5.8 9.47 4.95Q9.47 3.69 9.05 2.77Q8.63 1.83 7.93 1.21C7.47 0.8 6.93 0.5 6.32 0.3C5.72 0.1 5.09 -9.54e-7 4.43 -9.54e-7ZM5.16 8.13C4.68 8.25 4.16 8.31 3.61 8.31L2.29 8.31L2.29 1.59L3.9 1.59C4.44 1.59 4.94 1.66 5.39 1.79Q6.07 1.97 6.56 2.38C6.9 2.64 7.16 2.98 7.35 3.41Q7.63 4.06 7.63 4.95Q7.63 5.86 7.3 6.51Q7.11 6.9 6.82 7.21Q6.65 7.39 6.45 7.54Q5.9 7.93 5.16 8.13ZM14.57 3.19L12.89 3.19L12.89 9.91L14.57 9.91L14.57 6.31C14.57 6.22 14.58 6.08 14.62 5.89C14.67 5.7 14.75 5.52 14.87 5.33C15 5.14 15.19 4.98 15.42 4.84C15.66 4.69 15.98 4.62 16.37 4.62L16.37 4.62Q16.57 4.62 16.76 4.66C16.9 4.68 17.04 4.7 17.18 4.74L17.18 3.12C17.08 3.09 16.98 3.07 16.88 3.05C16.78 3.03 16.68 3.02 16.58 3.02C16.13 3.02 15.74 3.13 15.39 3.34C15.05 3.56 14.78 3.86 14.59 4.25L14.57 4.25L14.57 3.19ZM21.9 8.31C21.57 8.03 21.37 7.64 21.31 7.14L26.44 7.14L26.44 6.67C26.44 6.09 26.36 5.57 26.2 5.12Q25.98 4.43 25.56 3.97Q25.41 3.81 25.25 3.67Q24.94 3.42 24.56 3.27C24.18 3.1 23.76 3.02 23.29 3.02C22.78 3.02 22.31 3.1 21.86 3.27C21.41 3.44 21.03 3.68 20.7 3.99C20.37 4.29 20.11 4.67 19.91 5.11C19.73 5.53 19.63 6.02 19.63 6.55Q19.63 7.35 19.91 8Q20.16 8.54 20.54 8.95Q20.62 9.03 20.7 9.11C21.03 9.42 21.41 9.66 21.86 9.82C22.31 9.99 22.78 10.08 23.29 10.08Q23.74 10.08 24.16 9.98Q24.49 9.9 24.81 9.77C25.3 9.56 25.74 9.22 26.13 8.73L24.93 7.82C24.71 8.08 24.46 8.3 24.17 8.48C23.89 8.65 23.54 8.73 23.12 8.73C22.64 8.73 22.24 8.59 21.9 8.31ZM34.06 8.98L34.1 8.98L34.1 9.91L35.61 9.91L35.61 6.04C35.61 5.88 35.61 5.7 35.6 5.5C35.59 5.28 35.56 5.06 35.5 4.84C35.45 4.62 35.37 4.4 35.25 4.18Q35.23 4.16 35.22 4.13Q35.05 3.83 34.76 3.59C34.54 3.43 34.27 3.29 33.95 3.19C33.62 3.08 33.22 3.02 32.74 3.02C32.21 3.02 31.69 3.1 31.19 3.27Q30.89 3.37 30.63 3.52Q30.22 3.75 29.89 4.1L30.77 4.98C30.99 4.76 31.26 4.6 31.57 4.48Q31.63 4.45 31.7 4.42Q32.1 4.28 32.56 4.28C33.01 4.28 33.38 4.39 33.66 4.6C33.95 4.81 34.1 5.12 34.1 5.54L34.1 5.72L33.68 5.72C33.4 5.72 33.1 5.73 32.78 5.75Q32.31 5.76 31.83 5.85C31.52 5.89 31.22 5.97 30.94 6.07C30.65 6.17 30.39 6.31 30.17 6.49C29.95 6.66 29.78 6.87 29.65 7.14C29.52 7.39 29.45 7.7 29.45 8.06Q29.45 8.56 29.66 8.94C29.8 9.19 29.98 9.4 30.21 9.57C30.44 9.74 30.7 9.87 30.99 9.95C31.29 10.03 31.59 10.08 31.9 10.08C32.35 10.08 32.76 9.99 33.13 9.82C33.51 9.65 33.81 9.37 34.06 8.98ZM40.83 3.19L39.24 3.19L39.24 9.91L40.92 9.91L40.92 6.24Q40.92 5.9 41 5.6C41.06 5.39 41.15 5.21 41.27 5.05C41.4 4.89 41.56 4.76 41.74 4.67C41.94 4.58 42.18 4.53 42.46 4.53C42.87 4.53 43.16 4.66 43.34 4.91C43.52 5.15 43.61 5.48 43.61 5.9L43.61 9.91L45.29 9.91L45.29 6.27C45.29 6.05 45.31 5.84 45.36 5.64C45.41 5.42 45.5 5.24 45.61 5.08Q45.73 4.91 45.88 4.79Q45.97 4.73 46.06 4.69C46.24 4.58 46.47 4.53 46.73 4.53C46.98 4.53 47.19 4.57 47.34 4.66C47.5 4.74 47.63 4.86 47.72 5.01C47.82 5.15 47.88 5.32 47.92 5.51C47.96 5.7 47.97 5.89 47.97 6.1L47.97 9.91L49.65 9.91L49.65 5.9Q49.65 5.3 49.53 4.78C49.44 4.43 49.3 4.12 49.11 3.86C48.92 3.6 48.67 3.39 48.37 3.24C48.06 3.09 47.68 3.02 47.23 3.02C46.73 3.02 46.29 3.12 45.93 3.33C45.57 3.52 45.26 3.84 45.02 4.27Q44.83 3.8 44.49 3.51Q43.91 3.02 42.92 3.02C42.36 3.02 41.91 3.15 41.58 3.4C41.25 3.64 41.01 3.92 40.86 4.24L40.83 4.24L40.83 3.19ZM24.3 4.71C24.6 4.99 24.75 5.38 24.76 5.88L21.31 5.88C21.38 5.39 21.56 5 21.85 4.71C22.15 4.42 22.55 4.28 23.05 4.28C23.58 4.28 24 4.42 24.3 4.71ZM33.65 6.9L34 6.9L34 7.28Q34 7.85 33.73 8.23Q33.67 8.32 33.58 8.41C33.31 8.68 32.89 8.82 32.31 8.82Q32.1 8.82 31.89 8.77C31.75 8.74 31.62 8.68 31.51 8.6C31.4 8.53 31.3 8.44 31.23 8.34C31.16 8.23 31.13 8.09 31.13 7.93C31.13 7.69 31.22 7.5 31.4 7.37C31.57 7.23 31.79 7.13 32.04 7.07C32.3 6.99 32.58 6.94 32.87 6.93C33.16 6.91 33.42 6.9 33.65 6.9ZM13.55 18.12L13.53 18.12L13.53 13.32L11.85 13.32L11.85 23.91L13.53 23.91L13.53 20.24C13.53 20.02 13.55 19.8 13.61 19.6C13.67 19.39 13.76 19.21 13.88 19.05C14.01 18.89 14.17 18.76 14.35 18.67C14.55 18.58 14.79 18.53 15.07 18.53C15.36 18.53 15.58 18.6 15.75 18.74C15.92 18.87 16.04 19.04 16.12 19.25C16.2 19.44 16.25 19.66 16.27 19.89C16.29 20.11 16.3 20.32 16.3 20.51L16.3 23.91L17.98 23.91L17.98 19.67C17.98 19.32 17.94 18.99 17.85 18.67C17.77 18.35 17.63 18.07 17.43 17.83C17.24 17.59 16.98 17.39 16.66 17.24C16.35 17.09 15.98 17.02 15.53 17.02Q14.74 17.02 14.24 17.37C13.91 17.59 13.69 17.85 13.55 18.12ZM6.27 15.54Q6.79 15.73 7.33 16.32L8.7 15.31C8.21 14.74 7.67 14.34 7.09 14.11Q7.09 14.1 7.08 14.1Q6.23 13.74 5.23 13.74Q4.08 13.74 3.12 14.12C2.48 14.36 1.93 14.71 1.47 15.17C1.01 15.63 0.65 16.18 0.39 16.84C0.13 17.48 2.53e-5 18.2 2.53e-5 18.99Q2.54e-5 20.16 0.39 21.11Q0.73 21.94 1.3 22.57Q1.38 22.66 1.47 22.75Q1.56 22.84 1.67 22.93Q2.3 23.47 3.12 23.8C3.76 24.04 4.47 24.16 5.23 24.16C5.96 24.16 6.65 24.02 7.29 23.74C7.93 23.46 8.48 23.01 8.93 22.4L7.47 21.36C7.14 21.78 6.79 22.09 6.41 22.28C6.03 22.47 5.65 22.56 5.25 22.56Q4.48 22.56 3.85 22.28C3.43 22.1 3.08 21.84 2.78 21.51Q2.33 21.02 2.08 20.35C1.92 19.9 1.84 19.41 1.84 18.88C1.84 18.39 1.92 17.92 2.08 17.5C2.25 17.07 2.48 16.69 2.78 16.37C3.08 16.05 3.43 15.8 3.85 15.62C4.27 15.43 4.73 15.34 5.25 15.34C5.59 15.34 5.93 15.4 6.27 15.54ZM37.73 17.19L37.73 18.62L39.12 18.62L39.12 21.7Q39.12 22.28 39.2 22.73C39.27 23.03 39.38 23.28 39.54 23.49C39.71 23.68 39.93 23.83 40.21 23.92C40.5 24.02 40.87 24.08 41.32 24.08C41.51 24.08 41.74 24.06 41.99 24.02Q42.38 23.98 42.65 23.85L42.65 22.44C42.54 22.51 42.4 22.57 42.23 22.61C42.05 22.63 41.88 22.65 41.74 22.65C41.36 22.65 41.11 22.55 40.98 22.35C40.86 22.16 40.8 21.89 40.8 21.56L40.8 18.62L42.65 18.62L42.65 17.19L40.8 17.19L40.8 15.24L39.12 15.24L39.12 17.19L37.73 17.19ZM25.93 22.98L25.98 22.98L25.98 23.91L27.49 23.91L27.49 20.04C27.49 19.88 27.48 19.7 27.47 19.5C27.46 19.28 27.43 19.06 27.38 18.84C27.33 18.62 27.24 18.4 27.12 18.18C27.01 17.96 26.85 17.76 26.63 17.59C26.42 17.43 26.15 17.29 25.82 17.19C25.49 17.08 25.09 17.02 24.62 17.02C24.09 17.02 23.57 17.1 23.06 17.27Q22.77 17.37 22.51 17.52Q22.1 17.75 21.76 18.1L22.64 18.98C22.87 18.76 23.13 18.6 23.44 18.48C23.75 18.34 24.08 18.28 24.44 18.28C24.88 18.28 25.25 18.39 25.54 18.6C25.83 18.81 25.98 19.12 25.98 19.54L25.98 19.72L25.56 19.72C25.28 19.72 24.98 19.73 24.66 19.75C24.34 19.76 24.02 19.79 23.71 19.85C23.4 19.89 23.1 19.97 22.81 20.07C22.52 20.17 22.27 20.31 22.04 20.49C21.83 20.66 21.65 20.87 21.52 21.14C21.39 21.39 21.33 21.7 21.33 22.06C21.33 22.4 21.4 22.69 21.54 22.94C21.68 23.19 21.86 23.4 22.08 23.57C22.32 23.74 22.58 23.87 22.87 23.95Q23.13 24.02 23.41 24.05Q23.59 24.08 23.78 24.08C24.23 24.08 24.64 23.99 25.01 23.82C25.38 23.65 25.69 23.37 25.93 22.98ZM32.86 17.19L31.18 17.19L31.18 23.91L32.86 23.91L32.86 20.31C32.86 20.22 32.88 20.08 32.92 19.89C32.97 19.7 33.05 19.52 33.17 19.33C33.3 19.14 33.48 18.98 33.72 18.84C33.96 18.69 34.28 18.62 34.67 18.62C34.8 18.62 34.93 18.63 35.06 18.66C35.2 18.68 35.34 18.7 35.48 18.74L35.48 17.12C35.38 17.09 35.28 17.07 35.17 17.05C35.08 17.03 34.98 17.02 34.88 17.02C34.43 17.02 34.04 17.13 33.69 17.34Q33.54 17.44 33.41 17.55Q33.09 17.84 32.89 18.25L32.86 18.25L32.86 17.19ZM47.78 22.31C47.44 22.03 47.25 21.64 47.19 21.14L52.31 21.14L52.31 20.67Q52.31 19.79 52.08 19.12C51.93 18.66 51.71 18.28 51.43 17.97C51.16 17.66 50.83 17.43 50.44 17.27Q49.86 17.02 49.16 17.02C48.66 17.02 48.18 17.1 47.74 17.27C47.29 17.44 46.9 17.68 46.57 17.99C46.25 18.29 45.99 18.67 45.79 19.11C45.6 19.53 45.51 20.02 45.51 20.55C45.51 21.08 45.6 21.56 45.79 22C45.99 22.43 46.25 22.8 46.57 23.11C46.9 23.42 47.29 23.66 47.74 23.82C48.18 23.99 48.66 24.08 49.16 24.08C49.7 24.08 50.2 23.97 50.69 23.77C51.18 23.56 51.61 23.22 52.01 22.73L50.8 21.82C50.59 22.08 50.34 22.3 50.05 22.48C49.77 22.65 49.42 22.73 49 22.73C48.52 22.73 48.11 22.59 47.78 22.31ZM57.45 17.19L55.77 17.19L55.77 23.91L57.45 23.91L57.45 20.31C57.45 20.22 57.47 20.08 57.51 19.89C57.56 19.7 57.64 19.52 57.76 19.33C57.89 19.14 58.08 18.98 58.31 18.84C58.55 18.69 58.87 18.62 59.26 18.62C59.39 18.62 59.52 18.63 59.65 18.66Q59.86 18.69 60.07 18.74L60.07 17.12C59.97 17.09 59.87 17.07 59.76 17.05C59.67 17.03 59.57 17.02 59.47 17.02C59.02 17.02 58.63 17.13 58.28 17.34C57.94 17.56 57.67 17.86 57.48 18.25L57.45 18.25L57.45 17.19ZM50.17 18.71C50.47 18.99 50.62 19.38 50.63 19.87L47.19 19.87C47.26 19.39 47.43 19 47.72 18.71C48.02 18.42 48.42 18.28 48.93 18.28C49.46 18.28 49.87 18.42 50.17 18.71ZM25.53 20.9L25.88 20.9L25.88 21.28C25.88 21.75 25.74 22.13 25.46 22.41C25.19 22.68 24.76 22.82 24.18 22.82C24.04 22.82 23.9 22.8 23.76 22.77C23.62 22.74 23.5 22.68 23.39 22.61C23.27 22.53 23.18 22.44 23.11 22.34C23.04 22.23 23.01 22.09 23.01 21.93C23.01 21.69 23.1 21.5 23.27 21.37C23.45 21.23 23.67 21.13 23.92 21.07Q24.31 20.95 24.74 20.93C25.03 20.91 25.29 20.9 25.53 20.9Z" fill="#FFFFFF" fill-opacity="1.000000" fill-rule="evenodd"/>
</svg>
