<svg width="35.000000" height="35.000000" viewBox="0 0 35 35" fill="none" xmlns="http://www.w3.org/2000/svg" xmlns:xlink="http://www.w3.org/1999/xlink">
	<desc>
			Created with Pixso.
	</desc>
	<defs/>
	<path id="Vector" d="M17.5 0C7.83 0 0 7.83 0 17.5C0 27.16 7.83 35 17.5 35C27.16 35 35 27.16 35 17.5C35 7.83 27.16 0 17.5 0ZM24.39 22.87L23.27 24.4C23.25 24.43 23.22 24.46 23.18 24.48C23.15 24.5 23.11 24.52 23.07 24.52C23.03 24.53 22.99 24.53 22.95 24.52C22.91 24.51 22.87 24.49 22.83 24.46L16.37 19.75C16.33 19.72 16.3 19.69 16.28 19.64C16.26 19.6 16.24 19.55 16.25 19.5L16.25 8.75C16.25 8.57 16.39 8.43 16.56 8.43L18.44 8.43C18.61 8.43 18.75 8.57 18.75 8.75L18.75 18.41L24.32 22.44C24.46 22.54 24.49 22.73 24.39 22.87Z" fill="#FFFFFF" fill-opacity="1.000000" fill-rule="nonzero"/>
</svg>
