<svg width="33.000000" height="23.000000" viewBox="0 0 33 23" fill="none" xmlns="http://www.w3.org/2000/svg" xmlns:xlink="http://www.w3.org/1999/xlink">
	<desc>
			Created with Pixso.
	</desc>
	<defs/>
	<path id="Vector" d="M31.47 -0.17L0.52 -0.17C-0.14 -0.17 -0.67 0.29 -0.67 0.87L-0.67 21.7C-0.67 22.28 -0.14 22.74 0.52 22.74L31.47 22.74C32.13 22.74 32.66 22.28 32.66 21.7L32.66 0.87C32.66 0.29 32.13 -0.17 31.47 -0.17ZM28.46 3.37L16.73 11.36C16.44 11.56 16.03 11.56 15.74 11.36L4 3.37C3.96 3.34 3.92 3.3 3.91 3.25C3.89 3.2 3.89 3.16 3.91 3.11C3.93 3.06 3.96 3.02 4.01 2.99C4.05 2.97 4.11 2.95 4.16 2.95L28.3 2.95C28.36 2.95 28.41 2.97 28.46 2.99C28.5 3.02 28.54 3.06 28.55 3.11C28.57 3.16 28.57 3.2 28.56 3.25C28.54 3.3 28.51 3.34 28.46 3.37Z" fill="#FFFFFF" fill-opacity="1.000000" fill-rule="nonzero"/>
</svg>
