<svg width="37.000000" height="35.000000" viewBox="0 0 37 35" fill="none" xmlns="http://www.w3.org/2000/svg" xmlns:xlink="http://www.w3.org/1999/xlink">
	<desc>
			Created with Pixso.
	</desc>
	<defs/>
	<path id="Vector" d="M0.74 1.6L8.3 0.01C9.12 -0.16 9.96 0.23 10.3 0.93L13.79 8.38C14.09 9.03 13.89 9.8 13.29 10.24L8.88 13.54C11.5 18.64 16.07 22.88 21.76 25.32L25.36 21.29C25.86 20.74 26.69 20.55 27.4 20.83L35.54 24.02C36.32 24.34 36.74 25.11 36.56 25.86L34.81 32.77C34.63 33.49 33.93 34.01 33.11 34.01C14.5 34.01 -0.61 20.21 -0.61 3.16C-0.61 2.41 -0.05 1.77 0.74 1.6Z" fill="#FFFFFF" fill-opacity="1.000000" fill-rule="nonzero"/>
</svg>
