<svg width="25.000000" height="35.000000" viewBox="0 0 25 35" fill="none" xmlns="http://www.w3.org/2000/svg" xmlns:xlink="http://www.w3.org/1999/xlink">
	<desc>
			Created with Pixso.
	</desc>
	<defs/>
	<path id="Vector" d="M12.49 0C9.19 0 6.02 1.33 3.68 3.69C1.34 6.05 0.01 9.25 0 12.6C0 17.62 2.77 21.82 4.81 24.88L5.18 25.44C7.21 28.42 9.38 31.29 11.69 34.04L12.5 35L13.31 34.04C15.62 31.29 17.79 28.42 19.82 25.44L20.19 24.87C22.22 21.81 25 17.62 25 12.6C24.98 9.25 23.65 6.05 21.31 3.68C18.97 1.32 15.8 0 12.49 0ZM12.49 18.26C11.11 18.26 9.77 17.85 8.62 17.08C7.48 16.3 6.59 15.2 6.06 13.91C5.53 12.62 5.4 11.21 5.67 9.84C5.93 8.47 6.6 7.22 7.57 6.23C8.54 5.24 9.78 4.57 11.13 4.3C12.48 4.03 13.88 4.17 15.15 4.7C16.42 5.23 17.51 6.14 18.28 7.3C19.04 8.46 19.45 9.82 19.45 11.21C19.45 13.08 18.71 14.88 17.41 16.2C16.1 17.52 14.34 18.26 12.49 18.26Z" fill="#FFFFFF" fill-opacity="1.000000" fill-rule="nonzero"/>
</svg>
