<svg width="36.000000" height="36.000000" viewBox="0 0 36 36" fill="none" xmlns="http://www.w3.org/2000/svg" xmlns:xlink="http://www.w3.org/1999/xlink">
	<desc>
			Created with Pixso.
	</desc>
	<defs>
		<clipPath id="clip55_738">
			<rect id="tg" width="36.000000" height="36.000000" fill="white" fill-opacity="0"/>
		</clipPath>
		<linearGradient id="paint_linear_38_146_0" x1="1800.000000" y1="0.000000" x2="1800.000000" y2="3600.000000" gradientUnits="userSpaceOnUse">
			<stop stop-color="#2AABEE"/>
			<stop offset="1.000000" stop-color="#229ED9"/>
		</linearGradient>
	</defs>
	<rect id="tg" width="36.000000" height="36.000000" fill="#FFFFFF" fill-opacity="0"/>
	<g clip-path="url(#clip55_738)">
		<path id="Vector" d="M18 0C13.22 0 8.64 1.89 5.27 5.27C1.89 8.64 0 13.22 0 18C0 22.77 1.89 27.35 5.27 30.72C8.64 34.1 13.22 36 18 36C22.77 36 27.35 34.1 30.72 30.72C34.1 27.35 36 22.77 36 18C36 13.22 34.1 8.64 30.72 5.27C27.35 1.89 22.77 0 18 0Z" fill="url(#paint_linear_38_146_0)" fill-opacity="1.000000" fill-rule="nonzero"/>
		<path id="Vector" d="M5.27 5.27C1.89 8.64 0 13.22 0 18C0 22.77 1.89 27.35 5.27 30.72C8.64 34.1 13.22 36 18 36C22.77 36 27.35 34.1 30.72 30.72C34.1 27.35 36 22.77 36 18C36 13.22 34.1 8.64 30.72 5.27C27.35 1.89 22.77 0 18 0C13.22 0 8.64 1.89 5.27 5.27Z" stroke="#FFFFFF" stroke-opacity="1.000000" stroke-width="1.000000"/>
		<path id="Vector" d="M8.14 17.81C13.39 15.52 16.89 14.01 18.64 13.28C23.64 11.2 24.68 10.84 25.36 10.83C25.5 10.83 25.84 10.87 26.05 11.04C26.23 11.19 26.28 11.39 26.31 11.53C26.33 11.67 26.36 11.99 26.34 12.24C26.07 15.08 24.89 21.99 24.3 25.18C24.05 26.53 23.55 26.98 23.07 27.02C22.02 27.12 21.23 26.33 20.22 25.67C18.63 24.63 17.74 23.98 16.2 22.97C14.42 21.8 15.58 21.16 16.59 20.1C16.85 19.83 21.46 15.64 21.55 15.26C21.56 15.21 21.57 15.03 21.46 14.94C21.36 14.85 21.2 14.88 21.09 14.9C20.93 14.94 18.4 16.61 13.5 19.92C12.78 20.42 12.13 20.66 11.55 20.64C10.9 20.63 9.67 20.28 8.75 19.98C7.62 19.62 6.73 19.42 6.8 18.8C6.84 18.48 7.29 18.14 8.14 17.81Z" fill="#FFFAF6" fill-opacity="1.000000" fill-rule="evenodd"/>
	</g>
</svg>
