<svg width="36.000000" height="36.000000" viewBox="0 0 36 36" fill="none" xmlns="http://www.w3.org/2000/svg" xmlns:xlink="http://www.w3.org/1999/xlink">
	<desc>
			Created with Pixso.
	</desc>
	<defs/>
	<rect id="vb" width="36.000000" height="36.000000" fill="#FFFFFF" fill-opacity="0"/>
	<circle id="Ellipse 27" cx="18.000000" cy="18.000000" r="18.000000" fill="#7261EC" fill-opacity="1.000000"/>
	<circle id="Ellipse 27" cx="18.000000" cy="18.000000" r="17.500000" stroke="#FFFFFF" stroke-opacity="1.000000" stroke-width="1.000000"/>
	<path id="Vector" d="M26.73 19.68C26.17 24.18 22.88 24.46 22.27 24.66C20.42 25.11 18.51 25.27 16.61 25.14C16.61 25.14 14.36 27.44 13.66 28.14C13.62 28.19 13.57 28.23 13.51 28.25C13.46 28.27 13.4 28.28 13.34 28.27C13.21 28.25 13.18 28.1 13.18 27.89C13.19 27.59 13.2 24.6 13.2 24.6C8.81 23.38 9.07 18.8 9.12 16.4C9.16 14 9.61 12.04 10.96 10.72C13.36 8.54 18.32 8.86 18.32 8.86C22.5 8.88 24.51 10.14 24.97 10.56C26.51 11.89 27.3 15.05 26.73 19.68L26.73 19.68ZM26.13 9.44C25.58 8.94 23.36 7.32 18.41 7.3C18.41 7.3 12.57 6.95 9.73 9.56C8.15 11.14 7.59 13.46 7.53 16.33C7.47 19.2 7 24.59 12.19 26.05L12.19 28.27C12.19 28.84 12.36 29.68 13.18 29.68C13.51 29.68 13.99 29.55 14.65 28.88L16.86 26.75C18.87 26.86 20.89 26.68 22.85 26.22C23.57 25.99 27.62 25.47 28.28 20.08C28.96 14.53 27.95 11.02 26.13 9.44Z" fill="#FFFAF6" fill-opacity="1.000000" fill-rule="evenodd"/>
	<path id="Vector" d="M18.01 11.27C18.71 11.27 19.4 11.41 20.05 11.68C20.69 11.94 21.28 12.34 21.78 12.83C22.27 13.33 22.66 13.91 22.93 14.56C23.2 15.21 23.34 15.9 23.34 16.6C23.33 16.73 23.28 16.85 23.2 16.94C23.13 17.01 23.04 17.06 22.95 17.07C22.85 17.09 22.76 17.08 22.67 17.05C22.58 17.01 22.5 16.95 22.45 16.87C22.4 16.79 22.37 16.7 22.37 16.6C22.37 15.44 21.91 14.33 21.09 13.52C20.27 12.7 19.16 12.24 18.01 12.24L17.96 12.24C17.83 12.24 17.71 12.19 17.62 12.1C17.53 12.01 17.48 11.88 17.48 11.75C17.48 11.69 17.49 11.63 17.51 11.57C17.54 11.51 17.57 11.46 17.62 11.41C17.66 11.37 17.72 11.33 17.78 11.31C17.84 11.28 17.9 11.27 17.96 11.27L18.01 11.27Z" fill="#FFFAF6" fill-opacity="1.000000" fill-rule="evenodd"/>
	<path id="Vector" d="M18.01 13.21C18.91 13.21 19.77 13.57 20.4 14.2C21.04 14.84 21.4 15.7 21.4 16.6C21.4 16.7 21.37 16.79 21.32 16.87C21.26 16.95 21.19 17.01 21.1 17.05C21.01 17.08 20.91 17.09 20.82 17.07C20.72 17.06 20.64 17.01 20.57 16.94C20.48 16.85 20.43 16.73 20.43 16.6C20.43 15.96 20.17 15.34 19.72 14.89C19.26 14.43 18.65 14.18 18.01 14.18L17.96 14.18C17.9 14.18 17.84 14.16 17.78 14.14C17.72 14.12 17.66 14.08 17.62 14.04C17.57 13.99 17.54 13.94 17.51 13.88C17.49 13.82 17.48 13.76 17.48 13.69C17.48 13.56 17.53 13.44 17.62 13.35C17.71 13.26 17.83 13.21 17.96 13.21L18.01 13.21Z" fill="#FFFAF6" fill-opacity="1.000000" fill-rule="evenodd"/>
	<path id="Vector" d="M23.13 21.39C23.22 21.24 23.26 21.08 23.24 20.91C23.22 20.74 23.14 20.58 23.03 20.47C22.43 19.94 21.79 19.48 21.11 19.08C20.94 18.97 20.74 18.93 20.54 18.96C20.34 18.99 20.16 19.08 20.03 19.23L19.63 19.72C19.14 20.33 17.63 19.41 16.91 18.66C16.16 17.94 15.24 16.43 15.86 15.94L16.34 15.55C16.49 15.42 16.59 15.23 16.62 15.04C16.64 14.84 16.6 14.64 16.49 14.47C16.1 13.78 15.63 13.14 15.11 12.55C14.99 12.43 14.83 12.36 14.67 12.34C14.5 12.32 14.33 12.36 14.19 12.45C13.81 12.67 13.47 12.94 13.18 13.26C13.01 13.43 12.88 13.64 12.82 13.87C12.76 14.1 12.76 14.35 12.84 14.58C13.51 16.46 14.57 18.18 15.95 19.63C17.4 21 19.12 22.06 21 22.74C21.23 22.81 21.47 22.82 21.7 22.76C21.94 22.7 22.15 22.57 22.31 22.4C22.62 22.09 22.89 21.75 23.13 21.39Z" fill="#FFFAF6" fill-opacity="1.000000" fill-rule="evenodd"/>
</svg>
