<svg width="37.000000" height="37.000000" viewBox="0 0 37 37" fill="none" xmlns="http://www.w3.org/2000/svg" xmlns:xlink="http://www.w3.org/1999/xlink">
	<desc>
			Created with Pixso.
	</desc>
	<defs>
		<linearGradient id="paint_linear_38_130_0" x1="18.000000" y1="0.000000" x2="18.000000" y2="36.000000" gradientUnits="userSpaceOnUse">
			<stop stop-color="#57D163"/>
			<stop offset="1.000000" stop-color="#28B43E"/>
		</linearGradient>
	</defs>
	<rect id="wa" width="36.000000" height="36.000000" fill="#FFFFFF" fill-opacity="0"/>
	<path id="Union" d="M18 36C27.94 36 36 27.94 36 18C36 8.05 27.94 0 18 0C8.05 0 0 8.05 0 18C0 21.35 0.91 24.49 2.51 27.18L0 36L9.19 33.7C11.79 35.16 14.8 36 18 36Z" fill="url(#paint_linear_38_130_0)" fill-opacity="1.000000" fill-rule="nonzero"/>
	<path id="Union" d="M18 36C14.8 36 11.79 35.16 9.19 33.7L0 36L2.51 27.18C0.91 24.49 0 21.35 0 18C0 8.05 8.05 0 18 0C27.94 0 36 8.05 36 18C36 27.94 27.94 36 18 36Z" stroke="#FFFFFF" stroke-opacity="1.000000" stroke-width="1.000000"/>
	<path id="Vector 1" d="M22.46 20.68L21.11 22.3C20.87 22.58 20.49 22.72 20.14 22.6C18.43 22.06 15.5 20.5 13.49 17.31C13.15 16.76 13.15 16.05 13.61 15.58C14.07 15.1 14.54 14.71 14.62 13.98C14.64 13.84 14.6 13.69 14.54 13.56L12.69 9.57C12.53 9.22 12.17 9 11.78 9L11.56 9C11.04 9 10.51 9.12 10.11 9.46C9.17 10.25 7.99 11.73 7.99 13.76C7.99 17.47 15.19 27 24.04 27C26.03 27 28.16 25.15 27.98 22.75C27.96 22.42 27.73 22.15 27.43 22.03L23.61 20.4C23.21 20.23 22.74 20.34 22.46 20.68Z" fill="#FFFAF6" fill-opacity="1.000000" fill-rule="evenodd"/>
</svg>
