<svg width="157" height="64" fill="none" xmlns="http://www.w3.org/2000/svg"><path d="M53.36 27.24c-1.427 0-2.72-.307-3.88-.92a7.13 7.13 0 01-2.72-2.58c-.653-1.107-.98-2.353-.98-3.74s.327-2.627.98-3.72a6.935 6.935 0 012.72-2.58c1.16-.627 2.46-.94 3.9-.94 1.213 0 2.307.213 3.28.64a6.572 6.572 0 012.48 1.84l-2.08 1.92c-.947-1.093-2.12-1.64-3.52-1.64-.867 0-1.64.193-2.32.58-.68.373-1.213.9-1.6 1.58-.373.68-.56 1.453-.56 2.32 0 .867.187 1.64.56 2.32.387.68.92 1.213 1.6 1.6.68.373 1.453.56 2.32.56 1.4 0 2.573-.553 3.52-1.66l2.08 1.92a6.484 6.484 0 01-2.48 1.86c-.987.427-2.087.64-3.3.64zm19.36-2.8v4.88h-2.9V27h-7.56v2.32h-2.9v-4.88h.44c.667-.013 1.127-.407 1.38-1.18.254-.773.413-1.873.48-3.3l.14-3.72h9.38v8.2h1.54zm-8.24-4.26c-.04 1.093-.127 1.987-.26 2.68-.12.693-.353 1.22-.7 1.58h4.54V18.8h-3.52l-.06 1.38zm20.664 1.48c0 .04-.02.32-.06.84h-8.14a2.535 2.535 0 001.04 1.58c.546.387 1.226.58 2.04.58.56 0 1.053-.08 1.48-.24.44-.173.846-.44 1.22-.8l1.66 1.8c-1.014 1.16-2.494 1.74-4.44 1.74-1.214 0-2.287-.233-3.22-.7-.934-.48-1.654-1.14-2.16-1.98-.507-.84-.76-1.793-.76-2.86 0-1.053.246-2 .74-2.84a5.251 5.251 0 012.06-1.98c.88-.48 1.86-.72 2.94-.72 1.053 0 2.006.227 2.86.68a4.881 4.881 0 012 1.96c.493.84.74 1.82.74 2.94zm-5.58-3.22c-.707 0-1.3.2-1.78.6-.48.4-.774.947-.88 1.64h5.3c-.107-.68-.4-1.22-.88-1.62-.48-.413-1.067-.62-1.76-.62zm18.194-2.2V27h-3.12v-8.2h-3.4l-.1 1.9c-.054 1.413-.187 2.587-.4 3.52-.214.933-.56 1.667-1.04 2.2-.48.533-1.147.8-2 .8-.454 0-.994-.08-1.62-.24l.16-2.56c.213.027.366.04.46.04.466 0 .813-.167 1.04-.5.24-.347.4-.78.48-1.3.08-.533.14-1.233.18-2.1l.16-4.32h9.2zm7.18-.16c1.666 0 2.946.4 3.84 1.2.893.787 1.34 1.98 1.34 3.58V27h-2.92v-1.34c-.587 1-1.68 1.5-3.28 1.5-.827 0-1.547-.14-2.16-.42-.6-.28-1.06-.667-1.38-1.16a3.02 3.02 0 01-.48-1.68c0-1 .373-1.787 1.12-2.36.76-.573 1.926-.86 3.5-.86h2.48c0-.68-.207-1.2-.62-1.56-.414-.373-1.034-.56-1.86-.56a5.34 5.34 0 00-1.7.28 4.326 4.326 0 00-1.4.72l-1.12-2.18c.586-.413 1.286-.733 2.1-.96a9.555 9.555 0 012.54-.34zm-.24 8.98c.533 0 1.006-.12 1.42-.36.413-.253.706-.62.88-1.1v-1.1h-2.14c-1.28 0-1.92.42-1.92 1.26 0 .4.153.72.46.96.32.227.753.34 1.3.34zm8.13-8.82h3.1v4.2h4.68v-4.2h3.12V27h-3.12v-4.02h-4.68V27h-3.1V16.24zm18.927 10.92c-1.133 0-2.153-.233-3.06-.7a5.37 5.37 0 01-2.1-1.98c-.507-.84-.76-1.793-.76-2.86s.253-2.02.76-2.86a5.23 5.23 0 012.1-1.96c.907-.48 1.927-.72 3.06-.72s2.147.24 3.04.72a5.23 5.23 0 012.1 1.96c.507.84.76 1.793.76 2.86s-.253 2.02-.76 2.86a5.37 5.37 0 01-2.1 1.98c-.893.467-1.907.7-3.04.7zm0-2.56c.8 0 1.453-.267 1.96-.8.52-.547.78-1.273.78-2.18 0-.907-.26-1.627-.78-2.16-.507-.547-1.16-.82-1.96-.82s-1.46.273-1.98.82c-.52.533-.78 1.253-.78 2.16 0 .907.26 1.633.78 2.18.52.533 1.18.8 1.98.8zM54.72 45.38c1.267.427 1.9 1.28 1.9 2.56 0 .973-.367 1.727-1.1 2.26-.733.533-1.827.8-3.28.8H46.5V40.24H52c1.347 0 2.4.247 3.16.74.76.48 1.14 1.16 1.14 2.04 0 .533-.14 1.007-.42 1.42-.267.4-.653.713-1.16.94zm-5.36-.72h2.36c1.093 0 1.64-.387 1.64-1.16 0-.76-.547-1.14-1.64-1.14h-2.36v2.3zm2.62 4.22c1.147 0 1.72-.393 1.72-1.18 0-.413-.133-.713-.4-.9-.267-.2-.687-.3-1.26-.3h-2.68v2.38h2.62zM70.906 37c1.24 0 2.313.207 3.22.62.92.413 1.626 1 2.12 1.76.493.76.74 1.66.74 2.7 0 1.027-.247 1.927-.74 2.7-.494.76-1.2 1.347-2.12 1.76-.907.4-1.98.6-3.22.6h-2.82V51h-3.24V37h6.06zm-.18 7.5c.973 0 1.713-.207 2.22-.62.506-.427.76-1.027.76-1.8 0-.787-.254-1.387-.76-1.8-.507-.427-1.247-.64-2.22-.64h-2.64v4.86h2.64zm13.177 6.66c-1.133 0-2.153-.233-3.06-.7a5.365 5.365 0 01-2.1-1.98c-.506-.84-.76-1.793-.76-2.86s.254-2.02.76-2.86a5.224 5.224 0 012.1-1.96c.907-.48 1.927-.72 3.06-.72 1.134 0 2.147.24 3.04.72a5.225 5.225 0 012.1 1.96c.507.84.76 1.793.76 2.86s-.253 2.02-.76 2.86a5.366 5.366 0 01-2.1 1.98c-.893.467-1.906.7-3.04.7zm0-2.56c.8 0 1.454-.267 1.96-.8.52-.547.78-1.273.78-2.18 0-.907-.26-1.627-.78-2.16-.506-.547-1.16-.82-1.96-.82s-1.46.273-1.98.82c-.52.533-.78 1.253-.78 2.16 0 .907.26 1.633.78 2.18.52.533 1.18.8 1.98.8zm13.166 2.56c-1.146 0-2.18-.233-3.1-.7a5.477 5.477 0 01-2.14-1.98c-.506-.84-.76-1.793-.76-2.86s.254-2.02.76-2.86a5.333 5.333 0 012.14-1.96c.92-.48 1.954-.72 3.1-.72 1.134 0 2.12.24 2.96.72a4.143 4.143 0 011.86 2.02l-2.42 1.3c-.56-.987-1.366-1.48-2.42-1.48-.813 0-1.486.267-2.02.8-.533.533-.8 1.26-.8 2.18 0 .92.267 1.647.8 2.18.534.533 1.207.8 2.02.8 1.067 0 1.874-.493 2.42-1.48l2.42 1.32c-.386.853-1.006 1.52-1.86 2-.84.48-1.826.72-2.96.72zm11.699 0c-1.146 0-2.18-.233-3.1-.7a5.48 5.48 0 01-2.14-1.98c-.506-.84-.76-1.793-.76-2.86s.254-2.02.76-2.86a5.337 5.337 0 012.14-1.96c.92-.48 1.954-.72 3.1-.72 1.134 0 2.12.24 2.96.72a4.143 4.143 0 011.86 2.02l-2.42 1.3c-.56-.987-1.366-1.48-2.42-1.48-.813 0-1.486.267-2.02.8-.533.533-.8 1.26-.8 2.18 0 .92.267 1.647.8 2.18.534.533 1.207.8 2.02.8 1.067 0 1.874-.493 2.42-1.48l2.42 1.32c-.386.853-1.006 1.52-1.86 2-.84.48-1.826.72-2.96.72zm6.716-10.92h3.1v6.4l5.24-6.4h2.86V51h-3.1v-6.4l-5.22 6.4h-2.88V40.24zm14.2 0h3.1v6.4l5.24-6.4h2.86V51h-3.1v-6.4l-5.22 6.4h-2.88V40.24z" fill="#000"/><path stroke="#000" stroke-width="2.5" d="M1.25 1.25h32.5v61.5H1.25z"/><path d="M21.225 27l-3.375-4.875h-3.725V27h-4.05V9.5h7.575c1.55 0 2.892.258 4.025.775 1.15.517 2.033 1.25 2.65 2.2.617.95.925 2.075.925 3.375 0 1.3-.317 2.425-.95 3.375-.617.933-1.5 1.65-2.65 2.15L25.575 27h-4.35zm-.075-11.15c0-.983-.317-1.733-.95-2.25-.633-.533-1.558-.8-2.775-.8h-3.3v6.1h3.3c1.217 0 2.142-.267 2.775-.8s.95-1.283.95-2.25zm-3.3 38.45c-2.5 0-4.45-.692-5.85-2.075-1.383-1.383-2.075-3.358-2.075-5.925v-9.8h4.05v9.65c0 3.133 1.3 4.7 3.9 4.7 1.267 0 2.233-.375 2.9-1.125.667-.767 1-1.958 1-3.575V36.5h4v9.8c0 2.567-.7 4.542-2.1 5.925-1.383 1.383-3.325 2.075-5.825 2.075z" fill="#000"/></svg>