<?xml version="1.0" standalone="no"?>
<!DOCTYPE svg PUBLIC "-//W3C//DTD SVG 1.1//EN" "http://www.w3.org/Graphics/SVG/1.1/DTD/svg11.dtd" >
<svg xmlns="http://www.w3.org/2000/svg" xmlns:xlink="http://www.w3.org/1999/xlink" version="1.1">
<metadata>
Created by FontForge 20201107 at Thu Nov  7 11:45:14 2024
 By 
Copyright (c) 2020 Monotype GmbH. All rights reserved.
</metadata>
<defs>
<font id="AvenirNextWorld-ExtraBold" horiz-adv-x="0" >
  <font-face 
    font-family="Avenir Next World ExtraBold"
    font-weight="800"
    font-stretch="normal"
    units-per-em="2048"
    panose-1="2 11 9 3 2 2 2 2 2 4"
    ascent="1552"
    descent="-496"
    x-height="1047"
    cap-height="1450"
    bbox="-1864 -1128 3176 2361"
    underline-thickness="102"
    underline-position="-204"
    unicode-range="U+000D-FEFF"
  />
<missing-glyph horiz-adv-x="1048" 
d="M1049 0h-1049v1470h1049v-1470zM102 1366v-1264h844v1264h-844zM555 479h-94q-4 24 -4 35q0 115 26 166q33 64 95 121q64 59 83 93.5t19 76.5q0 73 -46 123.5t-110 50.5q-67 0 -112 -47.5t-56 -147.5l-102 17q13 141 87 210.5t189 69.5q110 0 182 -74t72 -194
q0 -70 -26.5 -123.5t-102.5 -122.5q-77 -68 -88 -106q-12 -41 -12 -148zM569 240h-114v137h114v-137z" />
    <glyph glyph-name="uniFB00" unicode="ff" horiz-adv-x="1527" 
d="M578 0h-392v760h-186v287h186v65q0 81 13.5 149.5t46.5 132t84.5 107.5t133.5 70t187 26q108 0 185 -24l-27 -303q-44 14 -92 14q-139 0 -139 -174v-63h337v65q0 81 13.5 150t47 132t85 107t133 70t186.5 26q112 0 185 -24l-25 -303q-44 14 -92 14q-139 0 -139 -174v-63
h227v-287h-227v-760h-394v760h-337v-760z" />
    <glyph glyph-name="uniFB03" unicode="ffi" horiz-adv-x="2168" 
d="M578 0h-392v760h-186v287h186v65q0 81 13.5 149.5t46.5 132t84.5 107.5t133.5 70t187 26q108 0 185 -24l-27 -303q-44 14 -92 14q-139 0 -139 -174v-63h337v65q0 81 13.5 150t47 132t85 107t133 70t186.5 26q112 0 185 -24l-25 -303q-44 14 -92 14q-139 0 -139 -174v-63
h227v-287h-227v-760h-394v760h-337v-760zM1849 1157q-91 0 -154 60.5t-63 146.5q0 84 63.5 145.5t153.5 61.5q87 0 150 -60.5t63 -146.5q0 -87 -63 -147t-150 -60zM2044 0h-393v1047h393v-1047z" />
    <glyph glyph-name="uniFB04" unicode="ffl" horiz-adv-x="2172" 
d="M578 0h-392v760h-186v287h186v65q0 81 13.5 149.5t46.5 132t84.5 107.5t133.5 70t187 26q108 0 185 -24l-27 -303q-44 14 -92 14q-139 0 -139 -174v-63h337v65q0 81 13.5 150t47 132t85 107t133 70t186.5 26q112 0 185 -24l-25 -303q-44 14 -92 14q-139 0 -139 -174v-63
h227v-287h-227v-760h-394v760h-337v-760zM2050 0h-399v1548h399v-1548z" />
    <glyph glyph-name="uniFDF2" unicode="&#x627;&#xfedf;&#xfee0;&#xfeea;" horiz-adv-x="3137" arabic-form="isolated" 
d="M1612 1925v-254l-166 -43h-12v297h178zM1407 1294q-72 0 -114 41.5t-42 116.5q0 58 25 129l102 -27q-6 -27 -6 -51q0 -51 43 -51q37 0 37 49q0 17 -2 29l104 22q9 -56 9 -75v-2q18 -9 39 -9q34 0 34 45q0 36 -12 66l113 43q39 -82 39 -158q0 -75 -39 -116t-99 -41
q-59 0 -110 41q-42 -52 -121 -52zM2009 498v1050h397v-1085q0 -252 -117.5 -357.5t-359.5 -105.5q-235 0 -327 109q-120 -109 -420 -109q-276 0 -383 76q-118 -64 -269 -64q-218 0 -348.5 118.5t-130.5 322.5q0 98 35.5 182t104.5 148t180 100.5t254 36.5h432v-449
q0 -73 27.5 -104t97.5 -31q82 0 112.5 35.5t30.5 126.5v702h397v-719v-18q14 -127 144 -127q82 0 112.5 35.5t30.5 126.5zM2630 0v1548h397v-1548h-397zM666 365v223h-95q-74 0 -111.5 -32.5t-37.5 -88.5q0 -117 153 -117q53 0 91 15z" />
    <glyph glyph-name="uniFEF5" unicode="&#xfedf;&#xfe82;" horiz-adv-x="1501" arabic-form="isolated" 
d="M993 498v1050h396v-1085q0 -256 -126.5 -359.5t-412.5 -103.5h-795v336h291v790h395v-790h109q82 0 112.5 35.5t30.5 126.5zM362 1325q-45 0 -106 -35l-96 152q41 41 98.5 68.5t116.5 27.5q47 0 163 -31.5t162 -31.5q58 0 111 47l107 -136q-58 -66 -105.5 -92t-112.5 -26
q-61 0 -186 28.5t-152 28.5z" />
    <glyph glyph-name="uniFEF6" unicode="&#xfee0;&#xfe82;" horiz-adv-x="1536" arabic-form="final" 
d="M1536 336q23 0 32 -39t9 -143q0 -91 -8.5 -122.5t-32.5 -31.5q-193 0 -270 106q-123 -106 -416 -106h-795v336h291v790h395v-790h109q82 0 112.5 35.5t30.5 126.5v1050h396v-1052h2q0 -160 145 -160zM362 1325q-45 0 -106 -35l-96 152q41 41 98.5 68.5t116.5 27.5
q47 0 163 -31.5t162 -31.5q58 0 111 47l107 -136q-58 -66 -105.5 -92t-112.5 -26q-61 0 -186 28.5t-152 28.5z" />
    <glyph glyph-name="uniFEF7" unicode="&#xfedf;&#xfe84;" horiz-adv-x="1501" arabic-form="isolated" 
d="M569 1452h195v-174h-440v174h73q-20 39 -20 82q0 82 57.5 133t157.5 51q73 0 141 -20l-31 -164q-38 10 -77 10q-66 0 -66 -53q0 -19 10 -39zM993 498v1050h396v-1085q0 -256 -126.5 -359.5t-412.5 -103.5h-795v336h291v790h395v-790h109q82 0 112.5 35.5t30.5 126.5z" />
    <glyph glyph-name="uniFEF8" unicode="&#xfee0;&#xfe84;" horiz-adv-x="1536" arabic-form="final" 
d="M584 1462h192v-174h-438v174h74q-21 40 -21 84q0 80 57.5 131.5t157.5 51.5q80 0 142 -21l-31 -164q-38 10 -78 10q-66 0 -66 -53q0 -17 11 -39zM1536 336q23 0 32 -39t9 -143q0 -91 -8.5 -122.5t-32.5 -31.5q-193 0 -270 106q-123 -106 -416 -106h-795v336h291v790h395
v-790h109q82 0 112.5 35.5t30.5 126.5v1050h396v-1052h2q0 -160 145 -160z" />
    <glyph glyph-name="uniFEF9" unicode="&#xfedf;&#xfe88;" horiz-adv-x="1501" arabic-form="isolated" 
d="M993 498v1050h396v-1085q0 -256 -126.5 -359.5t-412.5 -103.5h-795v336h291v790h395v-790h109q82 0 112.5 35.5t30.5 126.5zM559 -319q0 -19 10 -39h195v-174h-440v174h73q-20 39 -20 82q0 82 57.5 133t157.5 51q69 0 141 -21l-31 -163q-38 10 -77 10q-66 0 -66 -53z" />
    <glyph glyph-name="uniFEFA" unicode="&#xfee0;&#xfe88;" horiz-adv-x="1536" arabic-form="final" 
d="M1536 336q23 0 32 -39t9 -143q0 -91 -8.5 -122.5t-32.5 -31.5q-193 0 -270 106q-123 -106 -416 -106h-795v336h291v790h395v-790h109q82 0 112.5 35.5t30.5 126.5v1050h396v-1052h2q0 -160 145 -160zM559 -319q0 -19 10 -39h195v-174h-440v174h73q-20 39 -20 82
q0 82 57.5 133t157.5 51q69 0 141 -21l-31 -163q-38 10 -77 10q-66 0 -66 -53z" />
    <glyph glyph-name="uniFEFB" unicode="&#xfedf;&#xfe8e;" horiz-adv-x="1501" arabic-form="isolated" 
d="M993 498v1050h396v-1085q0 -256 -126.5 -359.5t-412.5 -103.5h-795v336h291v790h395v-790h109q82 0 112.5 35.5t30.5 126.5z" />
    <glyph glyph-name="uniFEFC" unicode="&#xfee0;&#xfe8e;" horiz-adv-x="1536" arabic-form="final" 
d="M1536 336q23 0 32 -39t9 -143q0 -91 -8.5 -122.5t-32.5 -31.5q-193 0 -270 106q-123 -106 -416 -106h-795v336h291v790h395v-790h109q82 0 112.5 35.5t30.5 126.5v1050h396v-1052h2q0 -160 145 -160z" />
    <glyph glyph-name="f_i" unicode="fi" horiz-adv-x="1439" 
d="M578 0h-392v760h-186v287h186v65q0 81 13.5 149.5t46.5 132t84.5 107.5t133.5 70t187 26q108 0 185 -24l-27 -303q-44 14 -92 14q-139 0 -139 -174v-63h227v-287h-227v-760zM1120 1157q-91 0 -154 60.5t-63 146.5q0 84 63.5 145.5t153.5 61.5q87 0 150 -60.5t63 -146.5
q0 -87 -63 -147t-150 -60zM1315 0h-393v1047h393v-1047z" />
    <glyph glyph-name="f_l" unicode="fl" horiz-adv-x="1443" 
d="M578 0h-392v760h-186v287h186v65q0 81 13.5 149.5t46.5 132t84.5 107.5t133.5 70t187 26q108 0 185 -24l-27 -303q-44 14 -92 14q-139 0 -139 -174v-63h227v-287h-227v-760zM1319 0h-399v1548h399v-1548z" />
    <glyph glyph-name="uniFEDFFB51" unicode="&#xfedf;&#xfb51;" horiz-adv-x="1501" 
d="M827 1458q0 -85 -39 -180h-530v156h68v223h153v-78q74 84 168 84q82 0 131 -57t49 -148zM993 498v1050h396v-1085q0 -256 -126.5 -359.5t-412.5 -103.5h-795v336h291v790h395v-790h109q82 0 112.5 35.5t30.5 126.5zM602 1505q-71 0 -145 -71h209q2 4 2 14q0 25 -17 41
t-49 16z" />
    <glyph glyph-name="uniFEE0FB51" unicode="&#xfee0;&#xfb51;" horiz-adv-x="1536" 
d="M827 1458q0 -85 -39 -180h-530v156h68v223h153v-78q74 84 168 84q82 0 131 -57t49 -148zM1536 336q23 0 32 -39t9 -143q0 -91 -8.5 -122.5t-32.5 -31.5q-193 0 -270 106q-123 -106 -416 -106h-795v336h291v790h395v-790h109q82 0 112.5 35.5t30.5 126.5v1050h396v-1052h2
q0 -160 145 -160zM602 1505q-71 0 -145 -71h209q2 4 2 14q0 25 -17 41t-49 16z" />
    <glyph glyph-name="uni0531055B.liga" unicode="&#x531;&#x55b;" horiz-adv-x="2463" 
d="M1718 1202l250 359h385l-342 -359h-293zM1440 1450v-823q111 -6 190 -30t137 -73.5t86.5 -131t28.5 -197.5v-197h-391v131q0 77 -22.5 117.5t-82.5 50.5q-70 -155 -223 -245.5t-377 -90.5q-127 0 -232.5 30.5t-180.5 85t-126.5 130t-76.5 164.5t-25 190v889h408v-848
q0 -122 61 -197t179 -75t178.5 75t60.5 197v848h408z" />
    <glyph glyph-name="uni0531055C.liga" unicode="&#x531;&#x55c;" horiz-adv-x="2551" 
d="M2148 1561h293q0 -112 -45.5 -169t-150.5 -92l-50 -17.5t-44.5 -15.5t-35 -13t-30 -14.5t-19.5 -15t-14 -17.5t-4 -21h-293q0 110 46 163t153 91q128 45 157 64q37 24 37 57zM1440 1450v-823q111 -6 190 -30t137 -73.5t86.5 -131t28.5 -197.5v-197h-391v131
q0 77 -22.5 117.5t-82.5 50.5q-70 -155 -223 -245.5t-377 -90.5q-127 0 -232.5 30.5t-180.5 85t-126.5 130t-76.5 164.5t-25 190v889h408v-848q0 -122 61 -197t179 -75t178.5 75t60.5 197v848h408z" />
    <glyph glyph-name="uni0531055E.liga" unicode="&#x531;&#x55e;" horiz-adv-x="2856" 
d="M2302 1628q139 0 224 -65.5t85 -165.5q0 -114 -98.5 -180t-257.5 -66v170q22 0 36.5 11t14.5 28q0 41 -59 41q-69 0 -110.5 -62.5t-41.5 -189.5h-299q0 149 70 259.5t183.5 165t252.5 54.5zM1440 1450v-823q111 -6 190 -30t137 -73.5t86.5 -131t28.5 -197.5v-197h-391
v131q0 77 -22.5 117.5t-82.5 50.5q-70 -155 -223 -245.5t-377 -90.5q-127 0 -232.5 30.5t-180.5 85t-126.5 130t-76.5 164.5t-25 190v889h408v-848q0 -122 61 -197t179 -75t178.5 75t60.5 197v848h408z" />
    <glyph glyph-name="uni0535055B.liga" unicode="&#x535;&#x55b;" horiz-adv-x="2435" 
d="M1688 1202l249 359h387l-344 -359h-292zM145 1450h408v-403h887v-334h-887v-111q0 -122 58.5 -197t176.5 -75q108 0 165 59.5t57 140.5v48h409v-76q0 -109 -42.5 -206t-121.5 -172t-202 -119t-273 -44q-127 0 -232 30.5t-179 85t-125 130t-75 164.5t-24 190v889z" />
    <glyph glyph-name="uni0535055C.liga" unicode="&#x535;&#x55c;" horiz-adv-x="2521" 
d="M2118 1561h292q0 -77 -22 -127.5t-62.5 -80t-109.5 -53.5q-19 -7 -50 -17.5t-45 -15.5t-35 -13.5t-30 -14t-19.5 -14.5t-14 -18t-3.5 -21h-295q0 110 46 163t153 91q128 45 157 64q38 24 38 57zM145 1450h408v-403h887v-334h-887v-111q0 -122 58.5 -197t176.5 -75
q108 0 165 59.5t57 140.5v48h409v-76q0 -109 -42.5 -206t-121.5 -172t-202 -119t-273 -44q-127 0 -232 30.5t-179 85t-125 130t-75 164.5t-24 190v889z" />
    <glyph glyph-name="uni0535055E.liga" unicode="&#x535;&#x55e;" horiz-adv-x="2826" 
d="M2271 1628q139 0 225.5 -65.5t86.5 -165.5q0 -114 -99.5 -180t-259.5 -66v170q23 0 37 11t14 28q0 41 -59 41q-69 0 -110.5 -62.5t-41.5 -189.5h-299q0 149 70 259.5t183.5 165t252.5 54.5zM145 1450h408v-403h887v-334h-887v-111q0 -122 58.5 -197t176.5 -75
q108 0 165 59.5t57 140.5v48h409v-76q0 -109 -42.5 -206t-121.5 -172t-202 -119t-273 -44q-127 0 -232 30.5t-179 85t-125 130t-75 164.5t-24 190v889z" />
    <glyph glyph-name="uni0538055B.liga" unicode="&#x538;&#x55b;" horiz-adv-x="2387" 
d="M1642 1202l248 359h387l-344 -359h-291zM553 848v-498h887v-350h-1295v889q0 101 24 190t75 164.5t125 130t179 85t232 30.5q156 0 279 -47t201 -129t118.5 -190t40.5 -234v-115h-407v74q0 122 -56.5 197t-169.5 75q-119 0 -176 -74.5t-57 -197.5z" />
    <glyph glyph-name="uni0538055C.liga" unicode="&#x538;&#x55c;" horiz-adv-x="2476" 
d="M2073 1561h292q0 -112 -46 -168.5t-150 -92.5l-50 -17.5t-44.5 -15.5t-35 -13t-30 -14.5t-19.5 -15t-14 -17.5t-4 -21h-293q0 111 45.5 163.5t153.5 90.5q128 45 157 64q38 24 38 57zM553 848v-498h887v-350h-1295v889q0 101 24 190t75 164.5t125 130t179 85t232 30.5
q156 0 279 -47t201 -129t118.5 -190t40.5 -234v-115h-407v74q0 122 -56.5 197t-169.5 75q-119 0 -176 -74.5t-57 -197.5z" />
    <glyph glyph-name="uni0538055E.liga" unicode="&#x538;&#x55e;" horiz-adv-x="2646" 
d="M2224 1628q140 0 225.5 -65.5t85.5 -165.5q0 -114 -98.5 -180t-259.5 -66v170q23 0 37 11t14 28q0 41 -57 41q-71 0 -111.5 -62.5t-40.5 -189.5h-301q0 148 70.5 259t184 165.5t251.5 54.5zM553 848v-498h887v-350h-1295v889q0 101 24 190t75 164.5t125 130t179 85
t232 30.5q156 0 279 -47t201 -129t118.5 -190t40.5 -234v-115h-407v74q0 122 -56.5 197t-169.5 75q-119 0 -176 -74.5t-57 -197.5z" />
    <glyph glyph-name="uni053B055B.liga" unicode="&#x53b;&#x55b;" horiz-adv-x="2301" 
d="M2191 1561l-344 -359h-291l248 359h387zM168 1450h407v-483h7q41 80 140.5 129t221.5 49q241 0 364.5 -132t123.5 -349v-291h-408v176q0 123 -51.5 189.5t-155.5 66.5q-111 0 -175 -73t-64 -204l-3 -528h-407v1450z" />
    <glyph glyph-name="uni053B055C.liga" unicode="&#x53b;&#x55c;" horiz-adv-x="2390" 
d="M1886 1186h-293q0 111 45.5 163.5t151.5 90.5q130 45 160 64q37 24 37 57h292q0 -112 -46 -168.5t-150 -92.5l-50 -17.5t-44.5 -15.5t-35 -13t-30 -14.5t-19.5 -15t-14 -17.5t-4 -21zM168 1450h407v-483h7q41 80 140.5 129t221.5 49q241 0 364.5 -132t123.5 -349v-291
h-408v176q0 123 -51.5 189.5t-155.5 66.5q-111 0 -175 -73t-64 -204l-3 -528h-407v1450z" />
    <glyph glyph-name="uni053B055E.liga" unicode="&#x53b;&#x55e;" horiz-adv-x="2693" 
d="M2449 1397q0 -114 -98.5 -180t-259.5 -66v170q23 0 37 11t14 28q0 41 -57 41q-71 0 -111.5 -62.5t-40.5 -189.5h-301q0 148 70.5 259t184 165.5t251.5 54.5q140 0 225.5 -65.5t85.5 -165.5zM168 1450h407v-483h7q41 80 140.5 129t221.5 49q241 0 364.5 -132t123.5 -349
v-291h-408v176q0 123 -51.5 189.5t-155.5 66.5q-111 0 -175 -73t-64 -204l-3 -528h-407v1450z" />
    <glyph glyph-name="uni0548055B.liga" unicode="&#x548;&#x55b;" horiz-adv-x="2426" 
d="M2316 1561l-344 -359h-291l250 359h385zM799 1489q127 0 233 -30.5t180.5 -85t126.5 -130t76.5 -164.5t24.5 -190v-889h-408v848q0 122 -60.5 197t-178.5 75t-179 -75t-61 -197v-848h-408v889q0 126 42 234t122 190t206 129t284 47z" />
    <glyph glyph-name="uni0548055C.liga" unicode="&#x548;&#x55c;" horiz-adv-x="2514" 
d="M2011 1186h-293q0 111 45.5 163.5t153.5 90.5q128 45 157 64q37 24 37 57h293q0 -112 -46 -168.5t-150 -92.5l-50 -17.5t-44.5 -15.5t-35 -13t-30 -14.5t-19.5 -15t-14 -17.5t-4 -21zM799 1489q127 0 233 -30.5t180.5 -85t126.5 -130t76.5 -164.5t24.5 -190v-889h-408
v848q0 122 -60.5 197t-178.5 75t-179 -75t-61 -197v-848h-408v889q0 126 42 234t122 190t206 129t284 47z" />
    <glyph glyph-name="uni0548055E.liga" unicode="&#x548;&#x55e;" horiz-adv-x="2818" 
d="M2574 1397q0 -114 -98.5 -180t-257.5 -66v170q22 0 35.5 11t13.5 28q0 41 -57 41q-71 0 -111.5 -62.5t-40.5 -189.5h-299q0 149 70 259.5t183 165t251 54.5q140 0 225.5 -65.5t85.5 -165.5zM799 1489q127 0 233 -30.5t180.5 -85t126.5 -130t76.5 -164.5t24.5 -190v-889
h-408v848q0 122 -60.5 197t-178.5 75t-179 -75t-61 -197v-848h-408v889q0 126 42 234t122 190t206 129t284 47z" />
    <glyph glyph-name="uni0552055B.liga" unicode="&#x552;&#x55b;" horiz-adv-x="1988" 
d="M1243 1202l250 359h385l-344 -359h-291zM1165 733q45 -67 104.5 -97t155.5 -30v-352q-178 0 -276.5 34.5t-151.5 112.5q-23 32 -41.5 64t-35.5 65.5t-25 47.5q-36 65 -84 91.5t-123 26.5h-113v-696h-405l-2 1450h407v-401h130q135 0 219.5 -34t140.5 -116
q16 -24 50 -82.5t50 -83.5z" />
    <glyph glyph-name="uni0552055C.liga" unicode="&#x552;&#x55c;" horiz-adv-x="2076" 
d="M1673 1561h293q0 -112 -46.5 -168.5t-150.5 -92.5l-50 -17.5t-44.5 -15.5t-34.5 -13t-29.5 -14t-20 -15t-14 -18t-3.5 -21h-293q0 111 45.5 163.5t153.5 90.5q128 45 157 64q37 24 37 57zM1165 733q45 -67 104.5 -97t155.5 -30v-352q-178 0 -276.5 34.5t-151.5 112.5
q-23 32 -41.5 64t-35.5 65.5t-25 47.5q-36 65 -84 91.5t-123 26.5h-113v-696h-405l-2 1450h407v-401h130q135 0 219.5 -34t140.5 -116q16 -24 50 -82.5t50 -83.5z" />
    <glyph glyph-name="uni0552055E.liga" unicode="&#x552;&#x55e;" horiz-adv-x="2379" 
d="M1825 1628q140 0 225.5 -65.5t85.5 -165.5q0 -114 -98.5 -180t-257.5 -66v170q22 0 35.5 11t13.5 28q0 41 -57 41q-71 0 -111.5 -62.5t-40.5 -189.5h-299q0 149 70 259.5t183 165t251 54.5zM1165 733q45 -67 104.5 -97t155.5 -30v-352q-178 0 -276.5 34.5t-151.5 112.5
q-23 32 -41.5 64t-35.5 65.5t-25 47.5q-36 65 -84 91.5t-123 26.5h-113v-696h-405l-2 1450h407v-401h130q135 0 219.5 -34t140.5 -116q16 -24 50 -82.5t50 -83.5z" />
    <glyph glyph-name="uni0555055B.liga" unicode="&#x555;&#x55b;" horiz-adv-x="2648" 
d="M2537 1561l-344 -359h-290l247 359h387zM887 -39q-225 0 -405.5 96t-284 272.5t-103.5 401.5q0 226 103.5 399.5t283.5 266t406 92.5q227 0 407.5 -92.5t284.5 -266t104 -399.5q0 -225 -104 -401.5t-285 -272.5t-407 -96zM887 336q158 0 259 112.5t101 282.5
q0 169 -100.5 278t-259.5 109t-259 -108.5t-100 -278.5t101 -282.5t258 -112.5z" />
    <glyph glyph-name="uni0555055C.liga" unicode="&#x555;&#x55c;" horiz-adv-x="2736" 
d="M2232 1186h-293q0 111 45.5 163.5t151.5 90.5q128 45 157 64q38 24 38 57h295q0 -112 -46.5 -168.5t-150.5 -92.5l-50 -17.5t-44.5 -15.5t-35 -13t-30 -14.5t-19.5 -15t-14 -17.5t-4 -21zM887 -39q-225 0 -405.5 96t-284 272.5t-103.5 401.5q0 226 103.5 399.5t283.5 266
t406 92.5q227 0 407.5 -92.5t284.5 -266t104 -399.5q0 -225 -104 -401.5t-285 -272.5t-407 -96zM887 336q158 0 259 112.5t101 282.5q0 169 -100.5 278t-259.5 109t-259 -108.5t-100 -278.5t101 -282.5t258 -112.5z" />
    <glyph glyph-name="uni0555055E.liga" unicode="&#x555;&#x55e;" horiz-adv-x="3039" 
d="M2796 1397q0 -114 -99 -180t-260 -66v170q23 0 37 11t14 28q0 41 -59 41q-69 0 -110.5 -62.5t-41.5 -189.5h-299q0 149 70 259.5t183.5 165t252.5 54.5t225.5 -65.5t86.5 -165.5zM887 -39q-225 0 -405.5 96t-284 272.5t-103.5 401.5q0 226 103.5 399.5t283.5 266
t406 92.5q227 0 407.5 -92.5t284.5 -266t104 -399.5q0 -225 -104 -401.5t-285 -272.5t-407 -96zM887 336q158 0 259 112.5t101 282.5q0 169 -100.5 278t-259.5 109t-259 -108.5t-100 -278.5t101 -282.5t258 -112.5z" />
    <glyph glyph-name="uni0561055B.liga" unicode="&#x561;&#x55b;" horiz-adv-x="1992" 
d="M2013 1642l-342 -358h-293l250 358h385zM125 408v639h393v-560q0 -97 28 -143.5t97 -46.5q65 0 104 53t39 144v553h396v-560q0 -97 27.5 -143.5t95.5 -46.5q66 0 105.5 52.5t39.5 144.5v553h395v-830q0 -144 8 -217h-383q-8 90 -8 145h-4q-92 -174 -301 -174
q-241 0 -330 207h-4q-41 -86 -130.5 -146.5t-198.5 -60.5q-83 0 -147.5 25t-105.5 66.5t-68 99t-37.5 118t-10.5 128.5z" />
    <glyph glyph-name="uni0561055C.liga" unicode="&#x561;&#x55c;" horiz-adv-x="1992" 
d="M1708 1266h-293q0 110 46 163t153 91q127 45 155 62q39 24 39 58h293q0 -112 -45 -168t-149 -92q-20 -7 -50.5 -17.5t-45 -15.5t-35.5 -13t-30.5 -14t-20 -15t-14 -18t-3.5 -21zM125 408v639h393v-560q0 -97 28 -143.5t97 -46.5q65 0 104 53t39 144v553h396v-560
q0 -97 27.5 -143.5t95.5 -46.5q66 0 105.5 52.5t39.5 144.5v553h395v-830q0 -144 8 -217h-383q-8 90 -8 145h-4q-92 -174 -301 -174q-241 0 -330 207h-4q-41 -86 -130.5 -146.5t-198.5 -60.5q-83 0 -147.5 25t-105.5 66.5t-68 99t-37.5 118t-10.5 128.5z" />
    <glyph glyph-name="uni0561055E.liga" unicode="&#x561;&#x55e;" horiz-adv-x="1992" 
d="M2271 1477q0 -114 -98.5 -180t-257.5 -66v172q22 0 36.5 10t14.5 27q0 41 -59 41q-69 0 -110.5 -62.5t-41.5 -187.5h-299q0 148 70 258t183.5 164.5t252.5 54.5t224 -65.5t85 -165.5zM125 408v639h393v-560q0 -97 28 -143.5t97 -46.5q65 0 104 53t39 144v553h396v-560
q0 -97 27.5 -143.5t95.5 -46.5q66 0 105.5 52.5t39.5 144.5v553h395v-830q0 -144 8 -217h-383q-8 90 -8 145h-4q-92 -174 -301 -174q-241 0 -330 207h-4q-41 -86 -130.5 -146.5t-198.5 -60.5q-83 0 -147.5 25t-105.5 66.5t-68 99t-37.5 118t-10.5 128.5z" />
    <glyph glyph-name="uni0561055F.liga" unicode="&#x561;&#x55f;" horiz-adv-x="1992" 
d="M1346 1311h-412q-149 0 -233.5 72t-84.5 192q0 115 99.5 194t242.5 91v-228q-51 -8 -51 -43q0 -39 62 -39h377v-239zM125 408v639h393v-560q0 -97 28 -143.5t97 -46.5q65 0 104 53t39 144v553h396v-560q0 -97 27.5 -143.5t95.5 -46.5q66 0 105.5 52.5t39.5 144.5v553h395
v-830q0 -144 8 -217h-383q-8 90 -8 145h-4q-92 -174 -301 -174q-241 0 -330 207h-4q-41 -86 -130.5 -146.5t-198.5 -60.5q-83 0 -147.5 25t-105.5 66.5t-68 99t-37.5 118t-10.5 128.5z" />
    <glyph glyph-name="uni0562055F.liga" unicode="&#x562;&#x55f;" horiz-adv-x="1349" 
d="M1124 1311h-411q-149 0 -233.5 72t-84.5 192q0 115 99.5 194t242.5 91v-228q-51 -8 -51 -43q0 -39 62 -39h376v-239zM543 557v-258h753v-299h-753v-502h-396v1333q0 143 -8 216h383q8 -86 8 -144h5q40 78 119.5 125t189.5 47q84 0 150 -25t108.5 -66t70 -98.5t39 -117.5
t11.5 -127v-186h-396v108q0 95 -32 143t-103 48q-67 0 -108 -53t-41 -144z" />
    <glyph glyph-name="uni0563055F.liga" unicode="&#x563;&#x55f;" horiz-adv-x="1665" 
d="M1098 1311h-412q-149 0 -233 72t-84 192q0 115 99.5 194t242.5 91v-228q-52 -8 -52 -43q0 -39 62 -39h377v-239zM1274 299h346v-299h-346v-502h-393v502h-232q-249 0 -404 140.5t-155 385.5q0 105 42 205.5t116 178.5t185 125.5t239 47.5q272 0 437 -165.5t165 -440.5
v-178zM680 303h201v240q0 101 -55 159t-154 58q-95 0 -153 -67.5t-58 -166.5q0 -101 57 -162t162 -61z" />
    <glyph glyph-name="uni0564055F.liga" unicode="&#x564;&#x55f;" horiz-adv-x="1607" 
d="M1219 1311h-412q-149 0 -233.5 72t-84.5 192q0 115 99.5 194t242.5 91v-228q-51 -8 -51 -43q0 -39 62 -39h377v-239zM1223 641v-342h342v-299h-342v-502h-396v1065q0 95 -32 143t-103 48q-67 0 -108 -53t-41 -144v-557h-396v831q0 143 -8 216h383q8 -86 8 -144h5
q40 78 119.5 125t189.5 47q84 0 150 -25t108.5 -66t70 -98.5t39 -117.5t11.5 -127z" />
    <glyph glyph-name="uni05650582055F.liga" unicode="&#x565;&#x582;&#x55f;" horiz-adv-x="1583" 
d="M1165 1686h-411q-149 0 -233.5 72t-84.5 192q0 115 99.5 193.5t242.5 90.5v-227q-51 -8 -51 -43q0 -39 61 -39h377v-239zM1194 1047v-748h342v-299h-727v141h-4q-40 -77 -119 -123.5t-188 -46.5q-83 0 -148.5 25t-107 66.5t-68.5 99t-38 118t-11 128.5v1140h393v-1061
q0 -95 30.5 -142.5t100.5 -47.5q66 0 108 54t42 143v553h395z" />
    <glyph glyph-name="uni0565055B.liga" unicode="&#x565;&#x55b;" horiz-adv-x="1337" 
d="M1186 1651h385l-342 -359h-293zM125 1548h393v-501h744v-299h-744v-261q0 -95 30.5 -142.5t100.5 -47.5q67 0 108.5 53t41.5 144v129h395v-406q0 -144 8 -217h-383q-8 90 -8 145h-4q-40 -79 -119.5 -126.5t-189.5 -47.5q-83 0 -148.5 25t-107 66.5t-68.5 99t-38 118
t-11 128.5v1140z" />
    <glyph glyph-name="uni0565055C.liga" unicode="&#x565;&#x55c;" horiz-adv-x="1337" 
d="M1364 1649h293q0 -112 -45.5 -168t-149.5 -92q-17 -6 -40 -14t-36.5 -12.5t-31 -11t-27.5 -11t-22 -10.5t-18 -11.5t-12 -12.5t-8.5 -15t-2.5 -17h-293q0 76 23.5 125t63.5 76t111 53q128 45 157 64q38 24 38 57zM125 1548h393v-501h744v-299h-744v-261
q0 -95 30.5 -142.5t100.5 -47.5q67 0 108.5 53t41.5 144v129h395v-406q0 -144 8 -217h-383q-8 90 -8 145h-4q-40 -79 -119.5 -126.5t-189.5 -47.5q-83 0 -148.5 25t-107 66.5t-68.5 99t-38 118t-11 128.5v1140z" />
    <glyph glyph-name="uni0565055E.liga" unicode="&#x565;&#x55e;" horiz-adv-x="1337" 
d="M1520 1716q139 0 224 -65.5t85 -165.5q0 -114 -98.5 -180t-257.5 -66v172q22 0 36.5 10t14.5 27q0 41 -60 41q-69 0 -110 -62t-41 -188h-299q0 148 70 258t183.5 164.5t252.5 54.5zM125 1548h393v-501h744v-299h-744v-261q0 -95 30.5 -142.5t100.5 -47.5q67 0 108.5 53
t41.5 144v129h395v-406q0 -144 8 -217h-383q-8 90 -8 145h-4q-40 -79 -119.5 -126.5t-189.5 -47.5q-83 0 -148.5 25t-107 66.5t-68.5 99t-38 118t-11 128.5v1140z" />
    <glyph glyph-name="uni0565055F.liga" unicode="&#x565;&#x55f;" horiz-adv-x="1337" 
d="M1165 1708h-411q-149 0 -233.5 72t-84.5 192q0 115 99.5 194t242.5 91v-227q-51 -8 -51 -43q0 -39 61 -39h377v-240zM1262 1047v-299h-744v-261q0 -95 30.5 -142.5t100.5 -47.5q67 0 108.5 53t41.5 144v129h395v-406q0 -144 8 -217h-383q-8 90 -8 145h-4
q-40 -79 -119.5 -126.5t-189.5 -47.5q-83 0 -148.5 25t-107 66.5t-68.5 99t-38 118t-11 128.5v1140h393v-501h744z" />
    <glyph glyph-name="uni0566055F.liga" unicode="&#x566;&#x55f;" horiz-adv-x="1624" 
d="M1108 1311h-412q-149 0 -233 72t-84 192q0 115 99.5 194t242.5 91v-228q-51 -8 -51 -43q0 -39 61 -39h377v-239zM1280 831v-1032h342v-301h-737v606h-4q-50 -60 -131.5 -93.5t-169.5 -33.5q-114 0 -208 46t-155 123.5t-94 176t-33 205.5q0 105 33 202.5t94 174.5
t156 123.5t209 46.5q88 0 170 -38.5t139 -110.5h4q0 35 8 121h383q-6 -55 -6 -216zM678 303q100 0 162.5 65t62.5 162q0 92 -63 158t-162 66t-158 -65.5t-59 -158.5q0 -97 58.5 -162t158.5 -65z" />
    <glyph glyph-name="uni0567055F.liga" unicode="&#x567;&#x55f;" horiz-adv-x="1284" 
d="M1122 1716h-411q-149 0 -233.5 72t-84.5 192q0 115 99.5 194t242.5 91v-227q-51 -8 -51 -43q0 -39 61 -39h377v-240zM1217 1047v-299h-674v-349q101 27 190 27q195 0 315.5 -108t120.5 -283q0 -202 -151 -329t-408 -128v301q89 1 139 36.5t50 90.5q0 100 -146 100
q-69 0 -171.5 -20.5t-154.5 -35.5t-177 -52v1550h393v-501h674z" />
    <glyph glyph-name="uni0568055B.liga" unicode="&#x568;&#x55b;" horiz-adv-x="1355" 
d="M1174 1640h385l-342 -358h-293zM844 1075q84 0 150 -25t108.5 -66t70 -98.5t39 -117.5t11.5 -127v-641h-396v563q0 95 -32 143t-103 48q-67 0 -108 -53t-41 -144v-758h678v-301h-1074v1333q0 143 -8 216h383q8 -86 8 -144h5q40 78 119.5 125t189.5 47z" />
    <glyph glyph-name="uni0568055C.liga" unicode="&#x568;&#x55c;" horiz-adv-x="1355" 
d="M1354 1640h293q0 -112 -45.5 -168t-149.5 -92q-20 -7 -50.5 -17.5t-45 -15.5t-35.5 -13t-30.5 -14t-20 -15t-14 -18t-3.5 -21h-292q0 76 23.5 125t63.5 76t111 53q128 45 155 62q40 24 40 58zM844 1075q84 0 150 -25t108.5 -66t70 -98.5t39 -117.5t11.5 -127v-641h-396
v563q0 95 -32 143t-103 48q-67 0 -108 -53t-41 -144v-758h678v-301h-1074v1333q0 143 -8 216h383q8 -86 8 -144h5q40 78 119.5 125t189.5 47z" />
    <glyph glyph-name="uni0568055E.liga" unicode="&#x568;&#x55e;" horiz-adv-x="1355" 
d="M1507 1708q139 0 224.5 -65.5t85.5 -165.5q0 -114 -99 -180t-258 -66v172q22 0 36.5 10t14.5 27q0 41 -59 41q-69 0 -110.5 -62.5t-41.5 -187.5h-299q0 148 70 258t183.5 164.5t252.5 54.5zM844 1075q84 0 150 -25t108.5 -66t70 -98.5t39 -117.5t11.5 -127v-641h-396v563
q0 95 -32 143t-103 48q-67 0 -108 -53t-41 -144v-758h678v-301h-1074v1333q0 143 -8 216h383q8 -86 8 -144h5q40 78 119.5 125t189.5 47z" />
    <glyph glyph-name="uni0568055F.liga" unicode="&#x568;&#x55f;" horiz-adv-x="1355" 
d="M846 1550h377v-239h-412q-149 0 -233 72t-84 192q0 115 99.5 194t242.5 91v-228q-52 -8 -52 -43q0 -39 62 -39zM844 1075q84 0 150 -25t108.5 -66t70 -98.5t39 -117.5t11.5 -127v-641h-396v563q0 95 -32 143t-103 48q-67 0 -108 -53t-41 -144v-758h678v-301h-1074v1333
q0 143 -8 216h383q8 -86 8 -144h5q40 78 119.5 125t189.5 47z" />
    <glyph glyph-name="uni0569055F.liga" unicode="&#x569;&#x55f;" horiz-adv-x="1720" 
d="M1247 1311h-411q-149 0 -233.5 72t-84.5 192q0 115 99.5 194t242.5 91v-228q-51 -8 -51 -43q0 -39 61 -39h377v-239zM147 831v-1333h396v953q0 77 23 140.5t60 104t86 68t99.5 39.5t101.5 12q198 0 256 -145q-43 2 -133 2q-107 0 -197 -41.5t-146 -125.5t-56 -196
q0 -154 112 -246t291 -92q187 0 326.5 120t163.5 312l141 -10v240l-131 12q-28 188 -177.5 309t-363.5 121q-149 0 -278 -55t-186 -117h-5q0 58 -8 144h-383q8 -73 8 -216zM1044 225q-41 0 -68.5 24.5t-27.5 67.5q0 111 135 111q19 0 97 -8q-3 -93 -39.5 -144t-96.5 -51z
" />
    <glyph glyph-name="uni056A055F.liga" unicode="&#x56a;&#x55f;" horiz-adv-x="1665" 
d="M1137 1716h-412q-149 0 -233 72t-84 192q0 115 99.5 194t242.5 91v-227q-52 -8 -52 -43q0 -39 62 -39h377v-240zM1276 1047h348v-299h-348v-179q0 -276 -165 -441t-437 -165q-267 0 -424.5 151.5t-157.5 401.5q0 161 81.5 283.5t216.5 185t300 62.5h193v501h393v-501z
M674 285q101 0 155 64.5t54 182.5v216h-193q-104 0 -164.5 -67t-60.5 -167q0 -98 56.5 -163.5t152.5 -65.5z" />
    <glyph glyph-name="uni056B055B.liga" unicode="&#x56b;&#x55b;" horiz-adv-x="1359" 
d="M1589 1642l-342 -358h-293l250 358h385zM154 -502v2050h393v-626h4q40 66 121 109.5t178 43.5q84 0 150 -25t108 -66t69.5 -98.5t38.5 -117.5t11 -127v-641h-393v563q0 95 -32 142t-104 47q-65 0 -108 -52t-43 -145v-1057h-393z" />
    <glyph glyph-name="uni056B055C.liga" unicode="&#x56b;&#x55c;" horiz-adv-x="1359" 
d="M1284 1266h-293q0 110 46 163t153 91q127 45 155 62q39 24 39 58h293q0 -112 -45 -168t-149 -92q-20 -7 -50.5 -17.5t-45 -15.5t-35.5 -13t-30.5 -14t-20 -15t-14 -18t-3.5 -21zM154 -502v2050h393v-626h4q40 66 121 109.5t178 43.5q84 0 150 -25t108 -66t69.5 -98.5
t38.5 -117.5t11 -127v-641h-393v563q0 95 -32 142t-104 47q-65 0 -108 -52t-43 -145v-1057h-393z" />
    <glyph glyph-name="uni056B055E.liga" unicode="&#x56b;&#x55e;" horiz-adv-x="1359" 
d="M1847 1477q0 -114 -98.5 -180t-257.5 -66v172q22 0 36.5 10t14.5 27q0 41 -59 41q-69 0 -110.5 -62.5t-41.5 -187.5h-299q0 148 70 258t183.5 164.5t252.5 54.5t224 -65.5t85 -165.5zM154 -502v2050h393v-626h4q40 66 121 109.5t178 43.5q84 0 150 -25t108 -66
t69.5 -98.5t38.5 -117.5t11 -127v-641h-393v563q0 95 -32 142t-104 47q-65 0 -108 -52t-43 -145v-1057h-393z" />
    <glyph glyph-name="uni056B055F.liga" unicode="&#x56b;&#x55f;" horiz-adv-x="1359" 
d="M1012 1716h-412q-149 0 -233 72t-84 192q0 115 99.5 194t242.5 91v-227q-52 -8 -52 -43q0 -39 62 -39h377v-240zM154 -502v2050h393v-626h4q40 66 121 109.5t178 43.5q84 0 150 -25t108 -66t69.5 -98.5t38.5 -117.5t11 -127v-641h-393v563q0 95 -32 142t-104 47
q-65 0 -108 -52t-43 -145v-1057h-393z" />
    <glyph glyph-name="uni056C055F.liga" unicode="&#x56c;&#x55f;" horiz-adv-x="917" 
d="M834 1309h-414q-149 0 -233.5 72.5t-84.5 193.5q0 115 99.5 194t242.5 91v-228q-51 -8 -51 -43q0 -39 62 -39h379v-241zM565 1047v-1248h342v-301h-735v1549h393z" />
    <glyph glyph-name="uni056D055F.liga" unicode="&#x56d;&#x55f;" horiz-adv-x="1994" 
d="M1475 1716h-412q-149 0 -233.5 72t-84.5 192q0 115 99.5 194t242.5 91v-227q-51 -8 -51 -43q0 -39 62 -39h377v-240zM150 -502v2050h393v-622h4q93 149 287 149q74 0 132.5 -22t96 -59.5t62.5 -90.5t35.5 -111.5t10.5 -125.5v-179q-2 -96 28.5 -143t103.5 -47
q66 0 107.5 53t41.5 144v553h393v-830q0 -144 8 -217h-383q-8 90 -8 145h-4q-40 -79 -119 -126.5t-190 -47.5q-104 0 -179.5 34.5t-116 95.5t-59 133t-18.5 159v193q0 168 -104 168q-59 0 -94 -50.5t-35 -144.5v-1061h-393z" />
    <glyph glyph-name="uni056E055F.liga" unicode="&#x56e;&#x55f;" horiz-adv-x="1384" 
d="M1044 1716h-411q-149 0 -233.5 72t-84.5 192q0 115 99.5 194t242.5 91v-227q-51 -8 -51 -43q0 -39 62 -39h376v-240zM991 1047h350v-299h-137q43 -108 43 -238q0 -150 -74.5 -275t-207.5 -198.5t-297 -73.5q-170 0 -302 65.5t-207 190t-75 289.5q0 102 37.5 189
t102.5 148.5t145.5 104.5t173.5 68q-198 189 -252 239l287 308l223 -191l-62 -67q143 -143 252 -260zM879 502q0 130 -80 246h-47q-140 0 -218.5 -64.5t-78.5 -177.5q0 -100 55 -160.5t152 -60.5q102 0 159.5 60t57.5 157z" />
    <glyph glyph-name="uni056F055F.liga" unicode="&#x56f;&#x55f;" horiz-adv-x="1345" 
d="M1038 1716h-411q-149 0 -233.5 72t-84.5 192q0 115 99.5 194t242.5 91v-227q-51 -8 -51 -43q0 -39 62 -39h376v-240zM125 408v1140h393v-1061q0 -95 30.5 -142.5t100.5 -47.5q66 0 108 54t42 143v553h395v-1549h-395v643h-4q-39 -78 -113.5 -124t-183.5 -46
q-83 0 -148.5 25t-107 66.5t-68.5 99t-38 118t-11 128.5z" />
    <glyph glyph-name="uni0570055F.liga" unicode="&#x570;&#x55f;" horiz-adv-x="1306" 
d="M1034 1735h-411q-149 0 -233.5 72t-84.5 192q0 115 99.5 194t242.5 91v-228q-51 -8 -51 -43q0 -39 61 -39h377v-239zM1196 0h-395v424q0 160 -123 160q-74 0 -118 -68t-44 -194h-395v579q0 331 174 505.5t471 174.5q143 0 261 -46.5t198 -115.5l-203 -282
q-68 63 -122 91.5t-124 28.5q-117 0 -190.5 -91t-73.5 -255v-174h4q41 76 118.5 123t182.5 47q84 0 150 -25t108.5 -66t70 -98.5t39 -117.5t11.5 -127v-473z" />
    <glyph glyph-name="uni0571055F.liga" unicode="&#x571;&#x55f;" horiz-adv-x="1406" 
d="M1079 1716h-411q-149 0 -233.5 72t-84.5 192q0 115 99.5 194t242.5 91v-227q-51 -8 -51 -43q0 -39 61 -39h377v-240zM557 -39q-199 0 -333 112.5t-134 295.5q0 67 19.5 128t50 110t80.5 99t99.5 88.5t117.5 84.5q26 18 82 55.5t82.5 56.5t60.5 45.5t48.5 45t14.5 32.5
q0 30 -32.5 43t-129.5 31q-27 5 -42 8q-147 28 -211 80.5t-64 128.5q0 107 125 184l264 -90q-24 -19 -24 -39q0 -25 33 -36.5t124 -28.5q30 -6 46 -9q150 -29 220 -86.5t70 -150.5q0 -58 -33 -110.5t-94 -110.5l398 -928h-369l-51 109q-191 -148 -418 -148zM643 250
q65 0 129 25.5t111 62.5l-160 371q-20 -13 -113 -82q-73 -54 -111 -103.5t-38 -113.5q0 -74 50.5 -117t131.5 -43z" />
    <glyph glyph-name="uni0572055F.liga" unicode="&#x572;&#x55f;" horiz-adv-x="1562" 
d="M1233 1311h-412q-149 0 -233 72t-84 192q0 115 99.5 194t242.5 91v-228q-51 -8 -51 -43q0 -39 61 -39h377v-239zM1223 641v-842h340v-301h-736v1065q0 95 -32 143t-103 48q-67 0 -108 -53t-41 -144v-557h-396v831q0 143 -8 216h383q8 -86 8 -144h5q40 78 119.5 125
t189.5 47q84 0 150 -25t108.5 -66t70 -98.5t39 -117.5t11.5 -127z" />
    <glyph glyph-name="uni0573055F.liga" unicode="&#x573;&#x55f;" horiz-adv-x="1431" 
d="M1112 1716h-412q-149 0 -233 72t-84 192q0 115 99.5 194t242.5 91v-227q-51 -8 -51 -43q0 -39 61 -39h377v-240zM676 1073q330 -3 497.5 -176.5t167.5 -478.5q0 -343 11 -418h-396q-8 74 -8 133h-4q-48 -69 -135 -115.5t-193 -46.5q-218 0 -338 153t-120 411
q0 124 14 225q-86 -6 -123 -12v299q16 2 193 14q87 242 255 377t390 135q83 0 161 -18.5t137 -50t100.5 -61t74.5 -61.5l-184 -247q-129 129 -275 129q-173 0 -260 -191h35zM946 377v63q0 162 -84 251t-274 93h-21q-14 -104 -14 -247q0 -121 52 -180.5t140 -59.5
q105 0 201 80z" />
    <glyph glyph-name="uni05740565055B.liga" unicode="&#x574;&#x565;&#x55b;" horiz-adv-x="2676" 
d="M2525 1651h385l-342 -359h-293zM1858 1501v-454h743v-299h-743v-261q0 -95 30.5 -142.5t100.5 -47.5q67 0 108 53t41 144v129h395v-406q0 -135 9 -217h-383q-9 101 -9 145h-4q-40 -79 -119 -126.5t-190 -47.5q-83 0 -148.5 25t-107 66.5t-68.5 99t-38 118t-11 128.5v835
q-238 29 -334 29q-32 0 -51.5 -19t-19.5 -49q0 -24 21 -64.5t46.5 -81.5t46.5 -110t21 -143v-588q0 -144 8 -217h-383q-8 90 -8 145h-4q-40 -79 -119.5 -126.5t-189.5 -47.5q-83 0 -148.5 25t-107 66.5t-68.5 99t-38 118t-11 128.5v639h393v-560q0 -95 30.5 -142.5
t100.5 -47.5q67 0 108.5 53t41.5 144l2 325q0 63 -13 115t-31.5 87t-36.5 67.5t-31 73t-13 87.5q0 135 98 229.5t250 94.5q61 0 151 -5.5t198 -15.5t184.5 -18t182 -20t118.5 -13z" />
    <glyph glyph-name="uni05740565055C.liga" unicode="&#x574;&#x565;&#x55c;" horiz-adv-x="2676" 
d="M2703 1649h293q0 -112 -45 -168t-149 -92q-17 -6 -40 -14t-36.5 -12.5t-31 -11t-28 -11t-22.5 -10.5t-18 -11.5t-12 -12.5t-8.5 -15t-2.5 -17h-293q0 110 46 163t153 91q128 45 157 64q37 24 37 57zM1858 1501v-454h743v-299h-743v-261q0 -95 30.5 -142.5t100.5 -47.5
q67 0 108 53t41 144v129h395v-406q0 -135 9 -217h-383q-9 101 -9 145h-4q-40 -79 -119 -126.5t-190 -47.5q-83 0 -148.5 25t-107 66.5t-68.5 99t-38 118t-11 128.5v835q-238 29 -334 29q-32 0 -51.5 -19t-19.5 -49q0 -24 21 -64.5t46.5 -81.5t46.5 -110t21 -143v-588
q0 -144 8 -217h-383q-8 90 -8 145h-4q-40 -79 -119.5 -126.5t-189.5 -47.5q-83 0 -148.5 25t-107 66.5t-68.5 99t-38 118t-11 128.5v639h393v-560q0 -95 30.5 -142.5t100.5 -47.5q67 0 108.5 53t41.5 144l2 325q0 63 -13 115t-31.5 87t-36.5 67.5t-31 73t-13 87.5
q0 135 98 229.5t250 94.5q61 0 151 -5.5t198 -15.5t184.5 -18t182 -20t118.5 -13z" />
    <glyph glyph-name="uni05740565055E.liga" unicode="&#x574;&#x565;&#x55e;" horiz-adv-x="2676" 
d="M2859 1716q139 0 224 -65.5t85 -165.5q0 -114 -98.5 -180t-257.5 -66v172q22 0 36.5 10t14.5 27q0 41 -59 41q-69 0 -110.5 -62.5t-41.5 -187.5h-299q0 148 70 258t183.5 164.5t252.5 54.5zM1858 1501v-454h743v-299h-743v-261q0 -95 30.5 -142.5t100.5 -47.5
q67 0 108 53t41 144v129h395v-406q0 -135 9 -217h-383q-9 101 -9 145h-4q-40 -79 -119 -126.5t-190 -47.5q-83 0 -148.5 25t-107 66.5t-68.5 99t-38 118t-11 128.5v835q-238 29 -334 29q-32 0 -51.5 -19t-19.5 -49q0 -24 21 -64.5t46.5 -81.5t46.5 -110t21 -143v-588
q0 -144 8 -217h-383q-8 90 -8 145h-4q-40 -79 -119.5 -126.5t-189.5 -47.5q-83 0 -148.5 25t-107 66.5t-68.5 99t-38 118t-11 128.5v639h393v-560q0 -95 30.5 -142.5t100.5 -47.5q67 0 108.5 53t41.5 144l2 325q0 63 -13 115t-31.5 87t-36.5 67.5t-31 73t-13 87.5
q0 135 98 229.5t250 94.5q61 0 151 -5.5t198 -15.5t184.5 -18t182 -20t118.5 -13z" />
    <glyph glyph-name="uni05740565055F.liga" unicode="&#x574;&#x565;&#x55f;" horiz-adv-x="2676" 
d="M1665 1718h-412q-149 0 -233 72t-84 192q0 115 99.5 194t242.5 91v-227q-51 -8 -51 -43q0 -39 61 -39h377v-240zM2601 1047v-299h-743v-261q0 -95 30.5 -142.5t100.5 -47.5q67 0 108 53t41 144v129h395v-406q0 -135 9 -217h-383q-9 101 -9 145h-4q-40 -79 -119 -126.5
t-190 -47.5q-83 0 -148.5 25t-107 66.5t-68.5 99t-38 118t-11 128.5v835q-238 29 -334 29q-32 0 -51.5 -19t-19.5 -49q0 -24 21 -64.5t46.5 -81.5t46.5 -110t21 -143v-588q0 -144 8 -217h-383q-8 90 -8 145h-4q-40 -79 -119.5 -126.5t-189.5 -47.5q-83 0 -148.5 25
t-107 66.5t-68.5 99t-38 118t-11 128.5v639h393v-560q0 -95 30.5 -142.5t100.5 -47.5q67 0 108.5 53t41.5 144l2 325q0 63 -13 115t-31.5 87t-36.5 67.5t-31 73t-13 87.5q0 135 98 229.5t250 94.5q61 0 151 -5.5t198 -15.5t184.5 -18t182 -20t118.5 -13v-454h743z" />
    <glyph glyph-name="uni05740567.liga" unicode="&#x574;&#x567;" horiz-adv-x="2609" 
d="M1935 -455v334q89 1 139 36.5t50 90.5q0 100 -146 100q-68 0 -169 -20.5t-157.5 -36t-176.5 -51.5v1245q-238 29 -345 29q-32 0 -51.5 -19t-19.5 -49q0 -24 21 -64.5t46.5 -81.5t46.5 -110t21 -143v-588q0 -144 8 -217h-383q-8 90 -8 145h-4q-40 -79 -119.5 -126.5
t-189.5 -47.5q-83 0 -148.5 25t-107 66.5t-68.5 99t-38 118t-11 128.5v639h393v-560q0 -95 30.5 -142.5t100.5 -47.5q67 0 108.5 53t41.5 144l2 325q0 63 -13 115t-31.5 87t-36.5 67.5t-31 73t-13 87.5q0 135 98 229.5t250 94.5q61 0 151.5 -5.5t201.5 -16t186.5 -18
t186 -19.5t120.5 -13v-1108q125 29 217 29q183 0 298.5 -109t115.5 -284q0 -99 -40 -187.5t-112 -154t-179 -103.5t-235 -39zM2056 748l-186 256l483 43l189 -254z" />
    <glyph glyph-name="uni05740567055F.liga" unicode="&#x574;&#x567;&#x55f;" horiz-adv-x="2609" 
d="M1653 1718h-412q-149 0 -233 72t-84 192q0 115 99.5 194t242.5 91v-227q-52 -8 -52 -43q0 -39 62 -39h377v-240zM1935 -455v334q89 1 139 36.5t50 90.5q0 100 -146 100q-68 0 -169 -20.5t-157.5 -36t-176.5 -51.5v1245q-238 29 -345 29q-32 0 -51.5 -19t-19.5 -49
q0 -24 21 -64.5t46.5 -81.5t46.5 -110t21 -143v-588q0 -144 8 -217h-383q-8 90 -8 145h-4q-40 -79 -119.5 -126.5t-189.5 -47.5q-83 0 -148.5 25t-107 66.5t-68.5 99t-38 118t-11 128.5v639h393v-560q0 -95 30.5 -142.5t100.5 -47.5q67 0 108.5 53t41.5 144l2 325
q0 63 -13 115t-31.5 87t-36.5 67.5t-31 73t-13 87.5q0 135 98 229.5t250 94.5q61 0 151.5 -5.5t201.5 -16t186.5 -18t186 -19.5t120.5 -13v-1108q125 29 217 29q183 0 298.5 -109t115.5 -284q0 -99 -40 -187.5t-112 -154t-179 -103.5t-235 -39zM2056 748l-186 256l483 43
l189 -254z" />
    <glyph glyph-name="uni0574056B055B.liga" unicode="&#x574;&#x56b;&#x55b;" horiz-adv-x="2684" 
d="M2910 1642l-342 -358h-293l250 358h385zM1872 -502h-395v1745q-67 8 -188.5 18.5t-158.5 10.5q-32 0 -51.5 -19t-19.5 -49q0 -24 21 -64.5t46.5 -81.5t46.5 -110t21 -143v-588q0 -144 8 -217h-383q-8 90 -8 145h-4q-40 -79 -119.5 -126.5t-189.5 -47.5q-83 0 -148.5 25
t-107 66.5t-68.5 99t-38 118t-11 128.5v639h393v-560q0 -95 30.5 -142.5t100.5 -47.5q67 0 108.5 53t41.5 144l2 325q0 63 -13 115t-31.5 87t-36.5 67.5t-31 73t-13 87.5q0 135 98 229.5t250 94.5q62 0 152.5 -5.5t202 -16t187 -18t186.5 -19.5t120 -13v-579h4
q40 66 120 109.5t177 43.5q84 0 150 -25t108.5 -66t70 -98.5t39 -117.5t11.5 -127v-641h-395v563q0 95 -32 142t-104 47q-64 0 -106.5 -52t-42.5 -145v-1057z" />
    <glyph glyph-name="uni0574056B055C.liga" unicode="&#x574;&#x56b;&#x55c;" horiz-adv-x="2684" 
d="M2605 1266h-293q0 110 46 163t153 91q127 45 155 62q39 24 39 58h293q0 -112 -45 -168t-149 -92q-20 -7 -50.5 -17.5t-45 -15.5t-35.5 -13t-30.5 -14t-20 -15t-14 -18t-3.5 -21zM1872 -502h-395v1745q-67 8 -188.5 18.5t-158.5 10.5q-32 0 -51.5 -19t-19.5 -49
q0 -24 21 -64.5t46.5 -81.5t46.5 -110t21 -143v-588q0 -144 8 -217h-383q-8 90 -8 145h-4q-40 -79 -119.5 -126.5t-189.5 -47.5q-83 0 -148.5 25t-107 66.5t-68.5 99t-38 118t-11 128.5v639h393v-560q0 -95 30.5 -142.5t100.5 -47.5q67 0 108.5 53t41.5 144l2 325
q0 63 -13 115t-31.5 87t-36.5 67.5t-31 73t-13 87.5q0 135 98 229.5t250 94.5q62 0 152.5 -5.5t202 -16t187 -18t186.5 -19.5t120 -13v-579h4q40 66 120 109.5t177 43.5q84 0 150 -25t108.5 -66t70 -98.5t39 -117.5t11.5 -127v-641h-395v563q0 95 -32 142t-104 47
q-64 0 -106.5 -52t-42.5 -145v-1057z" />
    <glyph glyph-name="uni0574056B055E.liga" unicode="&#x574;&#x56b;&#x55e;" horiz-adv-x="2684" 
d="M3168 1477q0 -114 -98.5 -180t-257.5 -66v172q22 0 36.5 10t14.5 27q0 41 -59 41q-69 0 -110.5 -62.5t-41.5 -187.5h-299q0 148 70 258t183.5 164.5t252.5 54.5t224 -65.5t85 -165.5zM1872 -502h-395v1745q-67 8 -188.5 18.5t-158.5 10.5q-32 0 -51.5 -19t-19.5 -49
q0 -24 21 -64.5t46.5 -81.5t46.5 -110t21 -143v-588q0 -144 8 -217h-383q-8 90 -8 145h-4q-40 -79 -119.5 -126.5t-189.5 -47.5q-83 0 -148.5 25t-107 66.5t-68.5 99t-38 118t-11 128.5v639h393v-560q0 -95 30.5 -142.5t100.5 -47.5q67 0 108.5 53t41.5 144l2 325
q0 63 -13 115t-31.5 87t-36.5 67.5t-31 73t-13 87.5q0 135 98 229.5t250 94.5q62 0 152.5 -5.5t202 -16t187 -18t186.5 -19.5t120 -13v-579h4q40 66 120 109.5t177 43.5q84 0 150 -25t108.5 -66t70 -98.5t39 -117.5t11.5 -127v-641h-395v563q0 95 -32 142t-104 47
q-64 0 -106.5 -52t-42.5 -145v-1057z" />
    <glyph glyph-name="uni0574056B055F.liga" unicode="&#x574;&#x56b;&#x55f;" horiz-adv-x="2684" 
d="M1939 1718h-411q-149 0 -233.5 72t-84.5 192q0 115 99.5 194t242.5 91v-227q-51 -8 -51 -43q0 -39 62 -39h376v-240zM1872 -502h-395v1745q-67 8 -188.5 18.5t-158.5 10.5q-32 0 -51.5 -19t-19.5 -49q0 -24 21 -64.5t46.5 -81.5t46.5 -110t21 -143v-588q0 -144 8 -217
h-383q-8 90 -8 145h-4q-40 -79 -119.5 -126.5t-189.5 -47.5q-83 0 -148.5 25t-107 66.5t-68.5 99t-38 118t-11 128.5v639h393v-560q0 -95 30.5 -142.5t100.5 -47.5q67 0 108.5 53t41.5 144l2 325q0 63 -13 115t-31.5 87t-36.5 67.5t-31 73t-13 87.5q0 135 98 229.5t250 94.5
q62 0 152.5 -5.5t202 -16t187 -18t186.5 -19.5t120 -13v-579h4q40 66 120 109.5t177 43.5q84 0 150 -25t108.5 -66t70 -98.5t39 -117.5t11.5 -127v-641h-395v563q0 95 -32 142t-104 47q-64 0 -106.5 -52t-42.5 -145v-1057z" />
    <glyph glyph-name="uni0574056D055F.liga" unicode="&#x574;&#x56d;&#x55f;" horiz-adv-x="3317" 
d="M2007 1716h-412q-149 0 -233 72t-84 192q0 115 99.5 194t242.5 91v-227q-51 -8 -51 -43q0 -39 61 -39h377v-240zM1866 -502h-393v1745q-238 29 -343 29q-32 0 -51.5 -19t-19.5 -49q0 -24 21 -64.5t46.5 -81.5t46.5 -110t21 -143v-588q0 -144 8 -217h-383q-8 90 -8 145h-4
q-40 -79 -119.5 -126.5t-189.5 -47.5q-83 0 -148.5 25t-107 66.5t-68.5 99t-38 118t-11 128.5v639h393v-560q0 -95 30.5 -142.5t100.5 -47.5q67 0 108.5 53t41.5 144l2 325q0 63 -13 115t-31.5 87t-36.5 67.5t-31 73t-13 87.5q0 135 98 229.5t250 94.5q61 0 150.5 -5.5
t202.5 -16t184 -17.5t186.5 -20t118.5 -13v-575h4q93 149 287 149q74 0 132.5 -22t96 -59.5t62.5 -90.5t35.5 -111.5t10.5 -125.5v-179q-2 -95 29 -142.5t103 -47.5q66 0 107.5 53t41.5 144v553h393v-830q0 -144 8 -217h-383q-8 90 -8 145h-4q-40 -79 -119 -126.5
t-190 -47.5q-104 0 -179.5 34.5t-116 95.5t-59 133t-18.5 159v193q0 168 -102 168q-60 0 -95.5 -50.5t-35.5 -144.5v-1061z" />
    <glyph glyph-name="uni0574056F.liga" unicode="&#x574;&#x56f;" horiz-adv-x="2676" 
d="M2527 -502h-395v643h-4q-88 -170 -297 -170q-83 0 -148.5 25t-107 66.5t-68.5 99t-38 118t-11 128.5v837q-221 27 -328 27q-32 0 -51.5 -19t-19.5 -49q0 -24 21 -64.5t46.5 -81.5t46.5 -110t21 -143v-588q0 -144 8 -217h-383q-8 90 -8 145h-4q-40 -79 -119.5 -126.5
t-189.5 -47.5q-83 0 -148.5 25t-107 66.5t-68.5 99t-38 118t-11 128.5v639h393v-560q0 -95 30.5 -142.5t100.5 -47.5q67 0 108.5 53t41.5 144l2 325q0 63 -13 115t-31.5 87t-36.5 67.5t-31 73t-13 87.5q0 135 98 229.5t250 94.5q61 0 150.5 -5.5t195 -15.5t184 -18.5
t179 -19.5t118.5 -13v-1014q0 -95 30.5 -142.5t100.5 -47.5q66 0 108 54t42 143v553h395v-1549z" />
    <glyph glyph-name="uni0574056F055F.liga" unicode="&#x574;&#x56f;&#x55f;" horiz-adv-x="2676" 
d="M1673 1718h-411q-149 0 -233.5 72t-84.5 192q0 115 99.5 194t242.5 91v-227q-51 -8 -51 -43q0 -39 61 -39h377v-240zM2527 -502h-395v643h-4q-88 -170 -297 -170q-83 0 -148.5 25t-107 66.5t-68.5 99t-38 118t-11 128.5v837q-221 27 -328 27q-32 0 -51.5 -19t-19.5 -49
q0 -24 21 -64.5t46.5 -81.5t46.5 -110t21 -143v-588q0 -144 8 -217h-383q-8 90 -8 145h-4q-40 -79 -119.5 -126.5t-189.5 -47.5q-83 0 -148.5 25t-107 66.5t-68.5 99t-38 118t-11 128.5v639h393v-560q0 -95 30.5 -142.5t100.5 -47.5q67 0 108.5 53t41.5 144l2 325
q0 63 -13 115t-31.5 87t-36.5 67.5t-31 73t-13 87.5q0 135 98 229.5t250 94.5q61 0 150.5 -5.5t195 -15.5t184 -18.5t179 -19.5t118.5 -13v-1014q0 -95 30.5 -142.5t100.5 -47.5q66 0 108 54t42 143v553h395v-1549z" />
    <glyph glyph-name="uni05740576055F.liga" unicode="&#x574;&#x576;&#x55f;" horiz-adv-x="2680" 
d="M1618 1724h-412q-149 0 -233 72.5t-84 192.5q0 115 99.5 193.5t242.5 90.5v-227q-51 -8 -51 -43q0 -39 61 -39h377v-240zM498 -29q-83 0 -148.5 25t-107 66.5t-68.5 99t-38 118t-11 128.5v639h393v-560q0 -95 30.5 -142.5t100.5 -47.5q67 0 108.5 53t41.5 144l2 325
q0 63 -13 115t-31.5 87t-36.5 67.5t-31 73t-13 87.5q0 135 98 229.5t250 94.5q77 0 193.5 -9t206.5 -19.5t206.5 -24.5t145.5 -17l63 -168q-25 -25 -35 -42.5t-10 -41.5q0 -31 23 -51t75 -20h111q-4 -9 -11 -29q-37 -98 -58 -157.5t-51.5 -157t-45 -184t-14.5 -163.5
q0 -192 149 -192q71 0 118.5 55t47.5 144v551h393v-830q0 -135 9 -217h-383q-9 101 -9 145h-4q-43 -73 -122.5 -123.5t-186.5 -50.5q-200 0 -305 121.5t-105 331.5q0 33 3.5 69.5t8.5 68t14.5 68.5t17 64t20.5 63.5t20.5 57t21.5 54t19.5 46t18.5 41.5t14 31
q-72 0 -135.5 66.5t-63.5 148.5q0 26 5 41q-191 29 -259 29q-32 0 -51.5 -19t-19.5 -49q0 -24 21 -64.5t46.5 -81.5t46.5 -110t21 -143v-588q0 -144 8 -217h-383q-8 90 -8 145h-4q-40 -79 -119.5 -126.5t-189.5 -47.5z" />
    <glyph glyph-name="uni0574055F.liga" unicode="&#x574;&#x55f;" horiz-adv-x="1333" 
d="M877 1716h-412q-149 0 -233.5 72t-84.5 192q0 115 99.5 194t242.5 91v-227q-51 -8 -51 -43q0 -39 62 -39h377v-240zM498 -29q-83 0 -148.5 25t-107 66.5t-68.5 99t-38 118t-11 128.5v639h393v-560q0 -95 30.5 -142.5t100.5 -47.5q67 0 108.5 53t41.5 144v342
q0 76 -18 139t-39.5 98t-39.5 84t-18 100q0 133 98 224.5t242 91.5q142 0 258 -57l-86 -297q-36 20 -68 20t-51.5 -19t-19.5 -49q0 -24 21.5 -57t47 -65.5t47 -93.5t21.5 -134v-604q0 -144 8 -217h-383q-8 90 -8 145h-4q-40 -79 -119.5 -126.5t-189.5 -47.5z" />
    <glyph glyph-name="uni0575055F.liga" unicode="&#x575;&#x55f;" horiz-adv-x="739" 
d="M700 1311h-411q-149 0 -233.5 72t-84.5 192q0 116 99.5 195.5t242.5 91.5v-230q-51 -8 -51 -43q0 -39 62 -39h376v-239zM186 293v754h396v-754q0 -78 13 -143.5t28 -103.5t28 -93.5t13 -116.5q0 -83 -38.5 -152t-102.5 -113.5t-144.5 -68.5t-167.5 -24q-69 0 -131 10
l20 311q40 -8 66 -8q46 0 75 27.5t29 77.5q0 36 -13 75.5t-29 73.5t-29 100t-13 148z" />
    <glyph glyph-name="uni0576055F.liga" unicode="&#x576;&#x55f;" horiz-adv-x="1347" 
d="M1061 1720h-412q-149 0 -233 72.5t-84 192.5q0 115 99.5 193.5t242.5 90.5v-227q-51 -8 -51 -43q0 -39 61 -39h377v-240zM502 -29q-199 0 -304.5 121.5t-105.5 331.5q0 80 17 166t49.5 172.5t48.5 124t45 100.5q-77 11 -142 87t-65 175q0 139 150 307l311 -221
q-24 -25 -33.5 -43t-9.5 -41q0 -71 96 -71h111q-42 -110 -61 -163.5t-52.5 -160.5t-49 -196.5t-15.5 -170.5q0 -192 147 -192q72 0 119 55t47 144v551h395v-830q0 -144 8 -217h-383q-8 90 -8 145h-4q-45 -74 -124.5 -124t-186.5 -50z" />
    <glyph glyph-name="uni0577055F.liga" unicode="&#x577;&#x55f;" horiz-adv-x="1157" 
d="M985 1325h-412q-149 0 -233 72t-84 192q0 115 99.5 194t242.5 91v-227q-51 -8 -51 -43q0 -39 61 -39h377v-240zM262 627l-196 262q58 48 122.5 87.5t167.5 74t205 34.5q224 0 365 -124.5t141 -296.5q0 -73 -17.5 -137t-45.5 -114t-75 -100.5t-94.5 -89.5t-115.5 -88
q-154 -109 -216.5 -167t-62.5 -109q0 -36 27.5 -53t89.5 -17l502 -2v-289h-635q-184 0 -283.5 82.5t-99.5 220.5q0 64 27 126.5t78 121t108 108.5t135 107q162 122 208 166q83 87 85 166q0 71 -48.5 115.5t-127.5 44.5q-108 0 -244 -129z" />
    <glyph glyph-name="uni0578055B.liga" unicode="&#x578;&#x55b;" horiz-adv-x="1355" 
d="M1563 1642l-342 -358h-293l250 358h385zM543 0h-396v831q0 143 -8 216h383q8 -86 8 -144h5q40 78 119.5 125t189.5 47q84 0 150 -25t108.5 -66t70 -98.5t39 -117.5t11.5 -127v-641h-396v563q0 95 -32 143t-103 48q-67 0 -108 -53t-41 -144v-557z" />
    <glyph glyph-name="uni0578055C.liga" unicode="&#x578;&#x55c;" horiz-adv-x="1355" 
d="M1257 1266h-292q0 76 23.5 125t63.5 76t111 53q128 45 155 62q40 24 40 58h293q0 -112 -45.5 -168t-149.5 -92q-20 -7 -50.5 -17.5t-45 -15.5t-35.5 -13t-30.5 -14t-20 -15t-14 -18t-3.5 -21zM543 0h-396v831q0 143 -8 216h383q8 -86 8 -144h5q40 78 119.5 125t189.5 47
q84 0 150 -25t108.5 -66t70 -98.5t39 -117.5t11.5 -127v-641h-396v563q0 95 -32 143t-103 48q-67 0 -108 -53t-41 -144v-557z" />
    <glyph glyph-name="uni0578055E.liga" unicode="&#x578;&#x55e;" horiz-adv-x="1355" 
d="M1821 1477q0 -114 -99 -180t-258 -66v172q22 0 37 10t15 27q0 41 -60 41q-69 0 -110 -62t-41 -188h-299q0 111 40.5 202.5t109.5 151t160.5 91.5t194.5 32q139 0 224.5 -65.5t85.5 -165.5zM543 0h-396v831q0 143 -8 216h383q8 -86 8 -144h5q40 78 119.5 125t189.5 47
q84 0 150 -25t108.5 -66t70 -98.5t39 -117.5t11.5 -127v-641h-396v563q0 95 -32 143t-103 48q-67 0 -108 -53t-41 -144v-557z" />
    <glyph glyph-name="uni0578055F.liga" unicode="&#x578;&#x55f;" horiz-adv-x="1355" 
d="M1233 1311h-412q-149 0 -233 72t-84 192q0 115 99.5 194t242.5 91v-228q-51 -8 -51 -43q0 -39 61 -39h377v-239zM543 0h-396v831q0 143 -8 216h383q8 -86 8 -144h5q40 78 119.5 125t189.5 47q84 0 150 -25t108.5 -66t70 -98.5t39 -117.5t11.5 -127v-641h-396v563
q0 95 -32 143t-103 48q-67 0 -108 -53t-41 -144v-557z" />
    <glyph glyph-name="uni0579055F.liga" unicode="&#x579;&#x55f;" horiz-adv-x="1013" 
d="M901 1319h-412q-149 0 -233 72t-84 192q0 115 99.5 194t242.5 91v-228q-51 -8 -51 -43q0 -38 61 -38h377v-240zM406 1063l245 -248q-44 -24 -64 -44.5t-20 -47.5t19 -46.5t78 -58.5l192 -126v-121q-115 -100 -258 -238q-88 -88 -118.5 -130.5t-30.5 -88.5
q0 -100 149 -100l410 -2v-314h-519q-203 0 -319.5 99.5t-116.5 252.5t150 322q29 33 203 221q-2 2 -138 109q-70 57 -99.5 110t-29.5 129q0 185 267 322z" />
    <glyph glyph-name="uni057A055F.liga" unicode="&#x57a;&#x55f;" horiz-adv-x="1994" 
d="M1366 1311h-412q-149 0 -233 72t-84 192q0 115 99.5 194t242.5 91v-228q-51 -8 -51 -43q0 -39 61 -39h377v-239zM125 408v639h393v-560q0 -97 28 -143.5t97 -46.5q65 0 104 53t39 144v553h396v-560q0 -97 27.5 -143.5t95.5 -46.5q66 0 105.5 53.5t39.5 143.5v553h395
v-1549h-395v643h-4q-41 -74 -116.5 -122t-172.5 -48q-241 0 -330 207h-4q-41 -86 -130.5 -146.5t-198.5 -60.5q-83 0 -147.5 25t-105.5 66.5t-68 99t-37.5 118t-10.5 128.5z" />
    <glyph glyph-name="uni057B055F.liga" unicode="&#x57b;&#x55f;" horiz-adv-x="1288" 
d="M1092 1305h-412q-149 0 -233.5 72t-84.5 192q0 115 100 193.5t243 90.5v-227q-52 -8 -52 -43q0 -39 62 -39h377v-239zM551 -137q0 -74 131 -74l516 -2v-289h-643q-186 0 -287.5 80.5t-101.5 218.5q0 97 58 180t165 166q-14 43 -50.5 82t-77.5 70.5t-80 69t-65 95.5
t-26 132q0 83 44.5 156.5t95.5 119t153.5 95t153.5 68t160 54.5q9 3 14 5q172 -81 216 -105q198 -110 256 -247q27 -65 27 -140q0 -65 -20 -122.5t-44 -96.5t-81 -89t-92.5 -75.5t-117.5 -80.5q-13 -9 -19 -13l-58.5 -39t-53 -35t-44.5 -30t-39.5 -29t-31 -25.5t-26 -25
t-17.5 -23.5t-12 -25.5t-3 -25.5zM461 563q0 -33 11.5 -58.5t28.5 -44.5t34.5 -39.5t32 -55t18.5 -80.5q8 4 24 16q116 85 150 118q80 77 80 154q0 39 -13 70t-38.5 53t-47.5 36t-55 31q-9 5 -14 7q-105 -46 -141 -74q-70 -53 -70 -133z" />
    <glyph glyph-name="uni057C055F.liga" unicode="&#x57c;&#x55f;" horiz-adv-x="1462" 
d="M1221 1311h-412q-149 0 -233 72t-84 192q0 115 99.5 194t242.5 91v-228q-52 -8 -52 -43q0 -39 62 -39h377v-239zM1180 299h245v-299h-688q33 144 48 212t34 184.5t19 183.5q0 84 -36 129t-108 45t-111.5 -54t-39.5 -151v-549h-396v831q0 143 -8 216h383q8 -86 8 -144h5
q41 70 132 121t199 51q96 0 171.5 -32t121.5 -88t70 -128t24 -155q0 -136 -73 -373z" />
    <glyph glyph-name="uni057D055F.liga" unicode="&#x57d;&#x55f;" horiz-adv-x="1343" 
d="M993 1311h-411q-149 0 -233.5 72t-84.5 192q0 115 99.5 194t242.5 91v-228q-51 -8 -51 -43q0 -39 61 -39h377v-239zM498 -29q-83 0 -148.5 25t-107 66.5t-68.5 99t-38 118t-11 128.5v639h393v-560q0 -95 30.5 -142.5t100.5 -47.5q67 0 108.5 53t41.5 144v553h395v-830
q0 -144 8 -217h-383q-8 90 -8 145h-4q-40 -79 -119.5 -126.5t-189.5 -47.5z" />
    <glyph glyph-name="uni057E0576055F.liga" unicode="&#x57e;&#x576;&#x55f;" horiz-adv-x="2711" 
d="M1569 1720h-412q-149 0 -233 72.5t-84 192.5q0 115 99.5 193.5t242.5 90.5v-227q-52 -8 -52 -43q0 -39 62 -39h377v-240zM2562 1047v-830q0 -144 8 -217h-381q-8 90 -8 145h-4q-45 -74 -124.5 -124t-186.5 -50q-200 0 -305 121.5t-105 331.5q0 40 3.5 81.5t9 77t15 76
t17 70t21 68t21.5 60t23 56.5t20.5 48.5t19.5 44t16 34.5h-426v-1241h330v-301h-725v643h-4q-88 -170 -299 -170q-83 0 -148.5 25t-107 66.5t-68.5 99t-38 118t-11 128.5v540h393v-461q0 -96 31 -143t102 -47q66 0 108 54t42 143v546h-174q-190 0 -304 87t-114 225
q0 152 149 319l312 -176q-43 -49 -43 -88q0 -68 102 -68h72v209h395v-209h866q-43 -125 -63.5 -186.5t-62.5 -202.5t-62.5 -255.5t-20.5 -205.5q0 -192 150 -192q71 0 118.5 55t47.5 144v551h393z" />
    <glyph glyph-name="uni057E055F.liga" unicode="&#x57e;&#x55f;" horiz-adv-x="1540" 
d="M1196 1716h-412q-149 0 -233 72t-84 192q0 115 99.5 194t242.5 91v-227q-51 -8 -51 -43q0 -39 61 -39h377v-240zM1196 1522v-1723h342v-301h-737v643h-4q-88 -170 -299 -170q-83 0 -148.5 25t-107 66.5t-68.5 99t-38 118t-11 128.5v639h393v-560q0 -96 31 -143t102 -47
q66 0 108 54t42 143v1028h395z" />
    <glyph glyph-name="uni057F055F.liga" unicode="&#x57f;&#x55f;" horiz-adv-x="2004" 
d="M1323 1311h-412q-149 0 -233 72t-84 192q0 115 99.5 194t242.5 91v-228q-51 -8 -51 -43q0 -39 61 -39h377v-239zM494 -29q-83 0 -148 25t-106 66.5t-67.5 99t-37 118t-10.5 128.5v639h393v-560q0 -95 30.5 -142.5t100.5 -47.5q67 0 108.5 53t41.5 144v337q0 143 -8 216
h380q9 -97 9 -144h4q40 78 119.5 125t189.5 47q84 0 150 -25t108.5 -66t70 -98.5t39 -117.5t11.5 -127v-641h-393v563q0 191 -138 191q-66 0 -106.5 -53t-40.5 -144v-557h-379v145h-4q-42 -79 -124 -126.5t-193 -47.5z" />
    <glyph glyph-name="uni0580055F.liga" unicode="&#x580;&#x55f;" horiz-adv-x="1355" 
d="M1233 1311h-412q-149 0 -233 72t-84 192q0 115 99.5 194t242.5 91v-228q-51 -8 -51 -43q0 -39 61 -39h377v-239zM543 -502h-396v1333q0 143 -8 216h383q8 -86 8 -144h5q40 78 119.5 125t189.5 47q84 0 150 -25t108.5 -66t70 -98.5t39 -117.5t11.5 -127v-641h-394v563
q0 95 -32 143t-105 48q-66 0 -107.5 -53t-41.5 -144v-1059z" />
    <glyph glyph-name="uni0581055F.liga" unicode="&#x581;&#x55f;" horiz-adv-x="1433" 
d="M1116 1319h-411q-149 0 -233.5 72t-84.5 192q0 115 99.5 194t242.5 91v-228q-51 -8 -51 -43q0 -38 61 -38h377v-240zM645 -522q-149 0 -299 43.5t-256 120.5l184 268q70 -61 159.5 -94t176.5 -33q129 0 206 66t77 178v100h-4q-44 -57 -127 -93t-180 -36q-117 0 -212 42.5
t-155.5 115.5t-92.5 168t-32 204q0 105 33 202.5t94 174.5t156 123.5t209 46.5q94 0 179.5 -38t137.5 -111h6q0 35 8 121h383q-8 -73 -8 -216v-770q0 -152 -51 -266.5t-141 -182.5t-203 -101t-248 -33zM678 303q100 0 162.5 65t62.5 162q0 92 -63 158t-162 66t-158 -65.5
t-59 -158.5q0 -97 58.5 -162t158.5 -65z" />
    <glyph glyph-name="uni0582055B.liga" unicode="&#x582;&#x55b;" horiz-adv-x="929" 
d="M754 1284l250 358h385l-342 -358h-293zM147 1047h394v-748h344v-299h-738v1047z" />
    <glyph glyph-name="uni0582055C.liga" unicode="&#x582;&#x55c;" horiz-adv-x="929" 
d="M1182 1640h293q0 -112 -45.5 -168t-149.5 -92q-20 -7 -50.5 -17.5t-45 -15.5t-35.5 -13t-30.5 -14t-20 -15t-14 -18t-3.5 -21h-293q0 110 46 163t153 91q128 45 155 62q40 24 40 58zM147 1047h394v-748h344v-299h-738v1047z" />
    <glyph glyph-name="uni0582055E.liga" unicode="&#x582;&#x55e;" horiz-adv-x="929" 
d="M1337 1708q139 0 224.5 -65.5t85.5 -165.5q0 -114 -99 -180t-258 -66v172q22 0 36.5 10t14.5 27q0 41 -59 41q-69 0 -110.5 -62.5t-41.5 -187.5h-299q0 148 70 258t183.5 164.5t252.5 54.5zM147 1047h394v-748h344v-299h-738v1047z" />
    <glyph glyph-name="uni0582055F.liga" unicode="&#x582;&#x55f;" horiz-adv-x="929" 
d="M862 1311h-411q-149 0 -233.5 72t-84.5 192q0 115 99.5 194t242.5 91v-228q-51 -8 -51 -43q0 -39 61 -39h377v-239zM541 1047v-748h344v-299h-738v1047h394z" />
    <glyph glyph-name="uni0583055F.liga" unicode="&#x583;&#x55f;" horiz-adv-x="2015" 
d="M1333 1716h-411q-149 0 -233.5 72t-84.5 192q0 115 99.5 194t242.5 91v-227q-51 -8 -51 -43q0 -39 61 -39h377v-240zM125 410v639h395v-560q0 -95 31.5 -142.5t103.5 -47.5q66 0 108 53.5t42 143.5v1052h395v-626h4q40 66 120 109.5t179 43.5q83 0 149 -25t108.5 -66
t70.5 -98.5t39.5 -117.5t11.5 -127v-641h-397v563q0 95 -31.5 142t-103.5 47q-65 0 -107.5 -52t-42.5 -145v-1057h-395l4 645h-4q-102 -170 -301 -170q-84 0 -150 25t-108.5 66.5t-70 99t-39 118t-11.5 128.5z" />
    <glyph glyph-name="uni0584055F.liga" unicode="&#x584;&#x55f;" horiz-adv-x="1411" 
d="M1137 1311h-412q-149 0 -233 72t-84 192q0 115 99.5 194t242.5 91v-228q-52 -8 -52 -43q0 -39 62 -39h377v-239zM565 211h-4v-234h653v-301h-653v-170h-391v170h-143v301h143v861q0 138 -8 211h381q10 -113 10 -140h4q46 70 139 118t197 48q136 0 237.5 -67t152 -177
t50.5 -247q0 -138 -56.5 -249.5t-167.5 -178t-257 -66.5q-85 0 -160.5 32t-126.5 89zM762 797q-93 0 -153 -61t-60 -150q0 -92 59 -153.5t154 -61.5q96 0 150.5 61t54.5 154q0 88 -55.5 149.5t-149.5 61.5z" />
    <glyph glyph-name="uni0585055B.liga" unicode="&#x585;&#x55b;" horiz-adv-x="1357" 
d="M1329 1642l-342 -358h-293l250 358h385zM678 -37q-159 0 -291.5 66.5t-214.5 196.5t-82 300q0 169 82 298t214.5 194t291.5 65q160 0 293 -65t215 -194t82 -298q0 -170 -82 -300t-215 -196.5t-293 -66.5zM680 297q96 0 156.5 67t60.5 162q0 93 -61.5 160.5t-157.5 67.5
t-156.5 -67t-60.5 -161q0 -95 61 -162t158 -67z" />
    <glyph glyph-name="uni0585055C.liga" unicode="&#x585;&#x55c;" horiz-adv-x="1357" 
d="M1024 1266h-293q0 110 46 163t153 91q127 45 155 62q39 24 39 58h293q0 -112 -45 -168t-149 -92q-20 -7 -50.5 -17.5t-45 -15.5t-35.5 -13t-30.5 -14t-20 -15t-14 -18t-3.5 -21zM678 -37q-159 0 -291.5 66.5t-214.5 196.5t-82 300q0 169 82 298t214.5 194t291.5 65
q160 0 293 -65t215 -194t82 -298q0 -170 -82 -300t-215 -196.5t-293 -66.5zM680 297q96 0 156.5 67t60.5 162q0 93 -61.5 160.5t-157.5 67.5t-156.5 -67t-60.5 -161q0 -95 61 -162t158 -67z" />
    <glyph glyph-name="uni0585055E.liga" unicode="&#x585;&#x55e;" horiz-adv-x="1357" 
d="M1587 1477q0 -114 -98.5 -180t-257.5 -66v172q22 0 36.5 10t14.5 27q0 41 -59 41q-69 0 -110.5 -62.5t-41.5 -187.5h-299q0 148 70 258t183.5 164.5t252.5 54.5t224 -65.5t85 -165.5zM678 -37q-159 0 -291.5 66.5t-214.5 196.5t-82 300q0 169 82 298t214.5 194t291.5 65
q160 0 293 -65t215 -194t82 -298q0 -170 -82 -300t-215 -196.5t-293 -66.5zM680 297q96 0 156.5 67t60.5 162q0 93 -61.5 160.5t-157.5 67.5t-156.5 -67t-60.5 -161q0 -95 61 -162t158 -67z" />
    <glyph glyph-name="uni0585055F.liga" unicode="&#x585;&#x55f;" horiz-adv-x="1357" 
d="M995 1311h-411q-149 0 -233.5 72t-84.5 192q0 115 99.5 194t242.5 91v-228q-51 -8 -51 -43q0 -39 61 -39h377v-239zM678 -37q-159 0 -291.5 66.5t-214.5 196.5t-82 300q0 169 82 298t214.5 194t291.5 65q160 0 293 -65t215 -194t82 -298q0 -170 -82 -300t-215 -196.5
t-293 -66.5zM680 297q96 0 156.5 67t60.5 162q0 93 -61.5 160.5t-157.5 67.5t-156.5 -67t-60.5 -161q0 -95 61 -162t158 -67z" />
    <glyph glyph-name="uni0586055F.liga" unicode="&#x586;&#x55f;" horiz-adv-x="1718" 
d="M1182 1731h-412q-149 0 -233 72t-84 192q0 115 99.5 193.5t242.5 90.5v-227q-52 -8 -52 -43q0 -39 62 -39h377v-239zM1638 449q0 -180 -159 -309.5t-424 -164.5v-477h-348v477q-206 26 -388 98.5t-258 133.5l207 270q79 -63 211 -118.5t228 -59.5v328l-179 51
q-196 56 -291.5 174.5t-95.5 286.5q0 184 137.5 309t352.5 125q83 0 158.5 -23.5t135.5 -67.5t95 -114.5t35 -157.5v-303l143 -35q103 -23 178.5 -54.5t137 -80.5t93 -121t31.5 -167zM623 977l84 -25v148q0 69 -19 103t-67 34q-47 0 -78 -33t-31 -92q0 -106 111 -135z
M1055 582v-291q94 5 153.5 44t59.5 99q0 50 -31 79t-100 48z" />
    <glyph glyph-name="uni0E240E45" unicode="&#xe24;&#xe45;" horiz-adv-x="1943" 
d="M1376 1178q214 0 328.5 -115.5t114.5 -327.5v-1227h-355v1197q0 75 -34.5 115t-100.5 40t-101.5 -40t-35.5 -115v-1197h-383v1172q0 87 -50 133.5t-132 46.5q-125 0 -187 -84v-6l176 -45v-158q-79 -1 -113.5 -32.5t-37.5 -90.5q91 -8 146 -67t55 -154q0 -111 -73 -181.5
t-190 -70.5q-126 0 -208 78t-82 207v123q0 111 39 178t131 105v6l-213 53v174q105 133 255 208t326 75q250 0 396 -131q116 131 329 131zM403 141q34 0 56 21t22 55t-22 56t-56 22t-55.5 -22t-21.5 -56t21.5 -55t55.5 -21z" />
    <glyph glyph-name="uni0E260E45" unicode="&#xe26;&#xe45;" horiz-adv-x="2000" 
d="M1432 1178q215 0 328.5 -115.5t113.5 -327.5v-1227h-352v1197q0 75 -35.5 115t-100.5 40q-67 0 -103 -40t-36 -115v-1197h-381v1172q0 86 -51.5 133t-138.5 47q-130 0 -193 -86v-6l201 -45v-158q-55 -14 -76.5 -43t-21.5 -94v-170q0 -138 -74 -211.5t-193 -73.5
t-191.5 69t-72.5 177q0 92 55 152t138 71v31q0 73 27 118.5t92 70.5v6l-252 53v174q105 133 256.5 208t330.5 75q248 0 400 -131q116 131 330 131zM315 143q33 0 54.5 21.5t21.5 54.5q0 32 -22 53t-54 21q-33 0 -54 -20.5t-21 -53.5q0 -34 20.5 -55t54.5 -21z" />
    <glyph glyph-name="uni066E.fina" unicode="&#x66e;" horiz-adv-x="2138" 
d="M2138 336q23 0 32 -39t9 -143q0 -91 -8.5 -122.5t-32.5 -31.5q-174 0 -258 90q-100 -90 -301 -90h-954h-4q-266 0 -419 130t-153 339q0 173 66 348l336 -86q-27 -116 -27 -176q0 -106 68.5 -162.5t195.5 -56.5h787q66 0 94 31t28 100v453h396v-424q0 -160 145 -160z" />
    <glyph glyph-name="uni066F.fina" unicode="&#x66f;" horiz-adv-x="1785" 
d="M1667 336h119q23 0 32 -39t9 -143q0 -91 -8.5 -122.5t-32.5 -31.5h-148q-124 -410 -770 -410q-177 0 -317 28t-233.5 76.5t-154.5 118.5t-87.5 150.5t-26.5 175.5q0 139 57 301l338 -82q-20 -79 -20 -159q0 -65 23 -112.5t75.5 -83.5t144.5 -54.5t224 -18.5
q275 0 366 103h-102q-246 0 -376 114.5t-130 313.5q0 131 63.5 240t184 175t274.5 66q103 0 187.5 -28t141 -74.5t95 -109.5t55.5 -132t17 -143v-119zM1202 336h80v115q0 71 -32 111t-95 40q-59 0 -94 -34.5t-35 -90.5q0 -67 45.5 -104t130.5 -37z" />
    <glyph glyph-name="uni06A1.init" unicode="&#x6a1;" horiz-adv-x="1269" 
d="M655 942q256 0 396.5 -136t140.5 -364q0 -102 -21 -220.5t-59 -221.5h-1112v336h119q-15 50 -15 100q0 106 37 197.5t105.5 160.5t173.5 108.5t235 39.5zM496 336h288q9 46 9 90q0 80 -40 127t-116 47t-118 -43t-42 -113q0 -46 19 -108z" />
    <glyph glyph-name="uni06A1.medi" unicode="&#x6a1;" horiz-adv-x="1267" 
d="M1124 336h144q23 0 32 -39t9 -143q0 -91 -8.5 -122.5t-32.5 -31.5h-246q-233 0 -387 27q-162 -27 -344 -27h-291v336h150q-50 77 -50 178q0 79 34 153.5t98.5 137t171.5 100t241 37.5q132 0 237 -34.5t169 -93.5t97.5 -132.5t33.5 -155.5q0 -104 -58 -190zM639 328
q67 14 112.5 55t45.5 98q0 51 -41.5 85t-114.5 34q-72 0 -114 -33.5t-42 -85.5q0 -55 44.5 -94.5t109.5 -58.5z" />
    <glyph glyph-name="uni06A1.fina" unicode="&#x6a1;" horiz-adv-x="2330" 
d="M2189 336h142q23 0 32 -39t9 -143q0 -91 -8.5 -122.5t-32.5 -31.5h-246q-233 0 -387 27q-158 -27 -344 -27h-733q-266 0 -419 130t-153 339q0 173 66 348l336 -86q-27 -116 -27 -176q0 -106 68.5 -162.5t195.5 -56.5h524q-49 81 -49 178q0 79 34 153.5t98.5 137
t171.5 100t241 37.5q107 0 196.5 -23t151.5 -62t105.5 -92.5t63.5 -113.5t20 -125q0 -102 -56 -190zM1702 328q67 14 112.5 55t45.5 98q0 51 -41.5 85t-114.5 34q-71 0 -113.5 -33.5t-42.5 -85.5q0 -55 44.5 -94.5t109.5 -58.5z" />
    <glyph glyph-name="uni06C2.fina" unicode="&#x6c2;" horiz-adv-x="1191" 
d="M692 1106h187v-209h-484v209h86q-32 49 -32 113q0 92 69 150t189 58q77 0 147 -16l-35 -203q-37 11 -71 11q-70 0 -70 -58q0 -23 14 -55zM1192 336q22 0 31.5 -40t9.5 -140q0 -88 -9.5 -122t-31.5 -34q-187 0 -284 43.5t-183 163.5q-40 57 -61 75.5t-46 18.5
q-104 0 -262 -350l-301 127q127 285 271.5 432t330.5 147q101 0 174 -44t152 -150q57 -78 97.5 -102.5t111.5 -24.5z" />
    <glyph glyph-name="uni06C3.fina" unicode="&#x6c3;" horiz-adv-x="1181" 
d="M395 1122q-74 0 -124 50.5t-50 121.5q0 73 49.5 120.5t124.5 47.5q72 0 118 -47t46 -121q0 -72 -46.5 -122t-117.5 -50zM782 1122q-71 0 -120.5 50.5t-49.5 121.5q0 73 48.5 120.5t121.5 47.5q74 0 121 -47t47 -121q0 -72 -48 -122t-120 -50zM1182 336q23 0 32 -39
t9 -143q0 -91 -8.5 -122.5t-32.5 -31.5q-276 0 -383 76q-121 -64 -269 -64q-230 0 -354.5 123t-124.5 318q0 213 150.5 340t423.5 127h432v-449q0 -73 27.5 -104t97.5 -31zM666 365v223h-95q-74 0 -111.5 -32.5t-37.5 -88.5q0 -117 153 -117q53 0 91 15z" />
    <glyph glyph-name="uni06D5.fina" unicode="&#x6d5;" horiz-adv-x="1181" 
d="M1182 336q23 0 32 -39t9 -143q0 -91 -8.5 -122.5t-32.5 -31.5q-276 0 -383 76q-121 -64 -269 -64q-230 0 -354.5 123t-124.5 318q0 213 150.5 340t423.5 127h432v-449q0 -73 27.5 -104t97.5 -31zM666 365v223h-95q-74 0 -111.5 -32.5t-37.5 -88.5q0 -117 153 -117
q53 0 91 15z" />
    <glyph glyph-name="uniFB51" unicode="&#x671;" horiz-adv-x="649" arabic-form="final" 
d="M594 1815q0 -86 -39 -181h-530v156h67v223h154v-78q74 84 168 84q82 0 131 -57t49 -147zM369 1862q-71 0 -146 -72h209q2 4 2 14q0 25 -16.5 41.5t-48.5 16.5zM649 336q22 0 31.5 -40t9.5 -142q0 -90 -9 -122t-32 -32q-293 0 -414.5 104t-121.5 357v1087h395v-1087
q0 -67 32 -96t109 -29z" />
    <glyph glyph-name="uniFB57" unicode="&#x67e;" horiz-adv-x="2138" arabic-form="final" 
d="M2138 336q23 0 32 -39t9 -143q0 -91 -8.5 -122.5t-32.5 -31.5q-174 0 -258 90q-100 -90 -301 -90h-954h-4q-266 0 -419 130t-153 339q0 173 66 348l336 -86q-27 -116 -27 -176q0 -106 68.5 -162.5t195.5 -56.5h787q66 0 94 31t28 100v453h396v-424q0 -160 145 -160z
M1018 -297q0 -72 -48 -120t-120 -48q-73 0 -121.5 48t-48.5 120q0 73 48.5 122.5t121.5 49.5q72 0 120 -50t48 -122zM1239 -125q73 0 121.5 -49.5t48.5 -122.5q0 -72 -48.5 -120t-121.5 -48t-120.5 48t-47.5 120q0 73 47.5 122.5t120.5 49.5zM1049 -459q70 0 119 -49.5
t49 -118.5q0 -72 -49 -122t-119 -50q-77 0 -124.5 49.5t-47.5 122.5q0 71 48 119.5t124 48.5z" />
    <glyph glyph-name="uniFB58" unicode="&#x67e;" horiz-adv-x="776" arabic-form="initial" 
d="M84 0h-84v336h82q91 0 121 33t30 129v422h398v-435q0 -141 -27 -232.5t-93 -149t-168 -80.5t-259 -23zM215 -465q-73 0 -121.5 48t-48.5 120q0 73 48.5 122.5t121.5 49.5q72 0 120 -50t48 -122t-48 -120t-120 -48zM604 -465q-73 0 -120.5 48t-47.5 120q0 73 47.5 122.5
t120.5 49.5t121.5 -49.5t48.5 -122.5q0 -72 -48.5 -120t-121.5 -48zM414 -799q-77 0 -124.5 49.5t-47.5 122.5q0 71 48 119.5t124 48.5q70 0 119 -49.5t49 -118.5q0 -72 -49 -122t-119 -50z" />
    <glyph glyph-name="uniFB59" unicode="&#x67e;" horiz-adv-x="817" arabic-form="medial" 
d="M817 336q23 0 32 -39t9 -143q0 -91 -8.5 -122.5t-32.5 -31.5q-211 0 -303 106q-61 -57 -165 -81.5t-265 -24.5h-84v336h82q91 0 121 33t30 129v422h398v-414q0 -89 50 -129.5t136 -40.5zM383 -297q0 -72 -48 -120t-120 -48q-73 0 -121.5 48t-48.5 120q0 73 48.5 122.5
t121.5 49.5q72 0 120 -50t48 -122zM604 -125q73 0 121.5 -49.5t48.5 -122.5q0 -72 -48.5 -120t-121.5 -48t-120.5 48t-47.5 120q0 73 47.5 122.5t120.5 49.5zM414 -459q70 0 119 -49.5t49 -118.5q0 -72 -49 -122t-119 -50q-77 0 -124.5 49.5t-47.5 122.5q0 71 48 119.5
t124 48.5z" />
    <glyph glyph-name="uniFB67" unicode="&#x679;" horiz-adv-x="2138" arabic-form="final" 
d="M1331 1167q0 -97 -43 -211h-635v189h92v360h170v-192q83 106 197 106q97 0 158 -66.5t61 -185.5zM1071 1235q-34 0 -75.5 -24t-77.5 -66h217q2 8 2 24q0 31 -17.5 48.5t-48.5 17.5zM2138 336q23 0 32 -39t9 -143q0 -91 -8.5 -122.5t-32.5 -31.5q-174 0 -258 90
q-100 -90 -301 -90h-954h-4q-266 0 -419 130t-153 339q0 173 66 348l336 -86q-27 -116 -27 -176q0 -106 68.5 -162.5t195.5 -56.5h787q66 0 94 31t28 100v453h396v-424q0 -160 145 -160z" />
    <glyph glyph-name="uniFB68" unicode="&#x679;" horiz-adv-x="776" arabic-form="initial" 
d="M528 1591q97 0 158.5 -66.5t61.5 -185.5q0 -97 -43 -211h-635v189h92v360h170v-192q83 106 196 106zM487 1407q-34 0 -75.5 -24t-77.5 -66h217q2 8 2 24q0 31 -17.5 48.5t-48.5 17.5zM233 498v422h398v-435q0 -141 -27 -232.5t-93 -149t-168 -80.5t-259 -23h-84v336h82
q91 0 121 33t30 129z" />
    <glyph glyph-name="uniFB69" unicode="&#x679;" horiz-adv-x="817" arabic-form="medial" 
d="M766 1339q0 -97 -43 -211h-635v189h92v360h170v-192q83 106 197 106q97 0 158 -66.5t61 -185.5zM506 1407q-34 0 -76 -24t-78 -66h217q2 8 2 24q0 31 -17 48.5t-48 17.5zM817 336q23 0 32 -39t9 -143q0 -91 -8.5 -122.5t-32.5 -31.5q-211 0 -303 106q-61 -57 -165 -81.5
t-265 -24.5h-84v336h82q91 0 121 33t30 129v422h398v-414q0 -89 50 -129.5t136 -40.5z" />
    <glyph glyph-name="uniFB6B" unicode="&#x6a4;" horiz-adv-x="2330" arabic-form="final" 
d="M1710 1432q-69 0 -118.5 49.5t-49.5 117.5q0 72 49.5 123.5t118.5 51.5q77 0 124.5 -50.5t47.5 -124.5q0 -70 -47.5 -118.5t-124.5 -48.5zM1516 1096q-75 0 -125 50t-50 122q0 73 50 120.5t125 47.5q72 0 117.5 -47t45.5 -121q0 -73 -46 -122.5t-117 -49.5zM1733 1268
q0 73 48.5 120.5t121.5 47.5t120.5 -47t47.5 -121q0 -73 -47.5 -122.5t-120.5 -49.5q-72 0 -121 50t-49 122zM2189 336h142q23 0 32 -39t9 -143q0 -91 -8.5 -122.5t-32.5 -31.5h-246q-233 0 -387 27q-158 -27 -344 -27h-733q-266 0 -419 130t-153 339q0 173 66 348l336 -86
q-27 -116 -27 -176q0 -106 68.5 -162.5t195.5 -56.5h524q-49 81 -49 178q0 79 34 153.5t98.5 137t171.5 100t241 37.5q107 0 196.5 -23t151.5 -62t105.5 -92.5t63.5 -113.5t20 -125q0 -102 -56 -190zM1702 328q67 14 112.5 55t45.5 98q0 51 -41.5 85t-114.5 34
q-71 0 -113.5 -33.5t-42.5 -85.5q0 -55 44.5 -94.5t109.5 -58.5z" />
    <glyph glyph-name="uniFB6C" unicode="&#x6a4;" horiz-adv-x="1269" arabic-form="initial" 
d="M659 1432q-69 0 -118 49.5t-49 117.5q0 72 49 123.5t118 51.5q77 0 124.5 -50.5t47.5 -124.5q0 -70 -47.5 -118.5t-124.5 -48.5zM465 1096q-75 0 -124.5 50t-49.5 122q0 73 49.5 120.5t124.5 47.5q72 0 118 -47t46 -121q0 -73 -46.5 -122.5t-117.5 -49.5zM682 1268
q0 73 48.5 120.5t121.5 47.5q74 0 121 -47t47 -121q0 -73 -47.5 -122.5t-120.5 -49.5q-72 0 -121 50t-49 122zM655 942q256 0 396.5 -136t140.5 -364q0 -102 -21 -220.5t-59 -221.5h-1112v336h119q-15 50 -15 100q0 106 37 197.5t105.5 160.5t173.5 108.5t235 39.5zM496 336
h288q9 46 9 90q0 80 -40 127t-116 47t-118 -43t-42 -113q0 -46 19 -108z" />
    <glyph glyph-name="uniFB6D" unicode="&#x6a4;" horiz-adv-x="1267" arabic-form="medial" 
d="M647 1432q-69 0 -118.5 49.5t-49.5 117.5q0 72 49.5 123.5t118.5 51.5q77 0 124.5 -50.5t47.5 -124.5q0 -70 -47.5 -118.5t-124.5 -48.5zM453 1096q-75 0 -124.5 50t-49.5 122q0 73 49.5 120.5t124.5 47.5q72 0 117.5 -47t45.5 -121q0 -73 -46 -122.5t-117 -49.5z
M670 1268q0 73 48.5 120.5t121.5 47.5q74 0 121 -47t47 -121q0 -73 -47.5 -122.5t-120.5 -49.5q-72 0 -121 50t-49 122zM1124 336h144q23 0 32 -39t9 -143q0 -91 -8.5 -122.5t-32.5 -31.5h-246q-233 0 -387 27q-162 -27 -344 -27h-291v336h150q-50 77 -50 178q0 79 34 153.5
t98.5 137t171.5 100t241 37.5q132 0 237 -34.5t169 -93.5t97.5 -132.5t33.5 -155.5q0 -104 -58 -190zM639 328q67 14 112.5 55t45.5 98q0 51 -41.5 85t-114.5 34q-72 0 -114 -33.5t-42 -85.5q0 -55 44.5 -94.5t109.5 -58.5z" />
    <glyph glyph-name="uniFB7B" unicode="&#x686;" horiz-adv-x="1282" arabic-form="final" 
d="M1176 336h106q23 0 32 -39t9 -143q0 -91 -8.5 -122.5t-32.5 -31.5h-719q-65 0 -100 -29t-35 -77t37 -74.5t94 -26.5h16l15 -325h-23q-238 0 -385 114t-147 314q0 207 132 323.5t376 116.5h237v18q0 124 -54 180t-171 56q-92 0 -182 -23l-86 328q143 47 299 47
q157 0 272 -42.5t184 -123t101.5 -187.5t32.5 -245v-8zM850 -184q0 -52 -33 -85.5t-84 -33.5q-53 0 -86 33.5t-33 85.5q0 50 33.5 84t85.5 34q51 0 84 -34t33 -84zM1006 -66q51 0 84.5 -34t33.5 -84q0 -52 -33.5 -85.5t-84.5 -33.5q-52 0 -85.5 33.5t-33.5 85.5
q0 50 33.5 84t85.5 34zM870 -299q50 0 84.5 -34.5t34.5 -82.5q0 -51 -34 -86t-85 -35q-53 0 -85.5 34.5t-32.5 86.5q0 49 32.5 83t85.5 34z" />
    <glyph glyph-name="uniFB7C" unicode="&#x686;" horiz-adv-x="985" arabic-form="initial" 
d="M866 0h-866v336h508q4 40 4 55q0 199 -205 199q-80 0 -180 -27l-86 328q143 51 299 51q288 0 427.5 -150t139.5 -423q0 -181 -41 -369zM254 -465q-73 0 -121.5 48t-48.5 120q0 73 48.5 122.5t121.5 49.5q72 0 120 -50t48 -122t-48 -120t-120 -48zM643 -465
q-73 0 -120.5 48t-47.5 120q0 73 47.5 122.5t120.5 49.5t121.5 -49.5t48.5 -122.5q0 -72 -48.5 -120t-121.5 -48zM453 -799q-77 0 -124.5 49.5t-47.5 122.5q0 71 48 119.5t124 48.5q70 0 119 -49.5t49 -118.5q0 -72 -49 -122t-119 -50z" />
    <glyph glyph-name="uniFB7D" unicode="&#x686;" horiz-adv-x="1015" arabic-form="medial" 
d="M907 336h109q23 0 32 -39t9 -143q0 -91 -8.5 -122.5t-32.5 -31.5h-1016v336h508q4 40 4 55q0 199 -205 199q-80 0 -180 -27l-86 328q143 51 299 51q288 0 427.5 -150t139.5 -423v-33zM420 -297q0 -72 -48 -120t-120 -48q-73 0 -121.5 48t-48.5 120q0 73 48.5 122.5
t121.5 49.5q72 0 120 -50t48 -122zM641 -125q73 0 121.5 -49.5t48.5 -122.5q0 -72 -48.5 -120t-121.5 -48t-120.5 48t-47.5 120q0 73 47.5 122.5t120.5 49.5zM451 -459q70 0 118.5 -49.5t48.5 -118.5q0 -72 -48.5 -122t-118.5 -50q-77 0 -124.5 49.5t-47.5 122.5
q0 71 48 119.5t124 48.5z" />
    <glyph glyph-name="uniFB89" unicode="&#x688;" horiz-adv-x="1048" arabic-form="final" 
d="M674 1309q0 -97 -43 -211h-635v188h92v361h170v-193q84 107 197 107q97 0 158 -66.5t61 -185.5zM414 1376q-34 0 -76 -24t-78 -66h217q2 8 2 25q0 31 -17 48t-48 17zM948 336h101q23 0 32 -39t9 -143q0 -91 -8.5 -122.5t-32.5 -31.5h-994v336h500q-36 175 -324 350
l236 309q228 -142 344 -297.5t137 -361.5z" />
    <glyph glyph-name="uniFB8B" unicode="&#x698;" horiz-adv-x="735" arabic-form="final" 
d="M393 1432q-69 0 -118.5 49.5t-49.5 117.5q0 72 49.5 123.5t118.5 51.5q77 0 124.5 -50.5t47.5 -124.5q0 -70 -47.5 -118.5t-124.5 -48.5zM199 1096q-75 0 -124.5 50t-49.5 122q0 73 49.5 120.5t124.5 47.5q72 0 117.5 -47t45.5 -121q0 -73 -46 -122.5t-117 -49.5z
M416 1268q0 73 48.5 120.5t121.5 47.5q74 0 121 -47t47 -121q0 -73 -47.5 -122.5t-120.5 -49.5q-72 0 -121 50t-49 122zM592 336h143q23 0 32 -39t9 -143q0 -91 -8.5 -122.5t-32.5 -31.5h-153q-29 -201 -157 -296t-386 -120l-51 340q116 12 161.5 59t45.5 160v777h397v-584z
" />
    <glyph glyph-name="uniFB8D" unicode="&#x691;" horiz-adv-x="735" arabic-form="final" 
d="M731 1352q0 -97 -43 -211h-635v188h92v361h170v-193q84 107 197 107q97 0 158 -66.5t61 -185.5zM471 1419q-34 0 -76 -24t-78 -66h218q2 8 2 25q0 31 -17.5 48t-48.5 17zM592 336h143q23 0 32 -39t9 -143q0 -91 -8.5 -122.5t-32.5 -31.5h-153q-29 -201 -157 -296
t-386 -120l-51 340q116 12 161.5 59t45.5 160v777h397v-584z" />
    <glyph glyph-name="uniFB8F" unicode="&#x6a9;" horiz-adv-x="1914" arabic-form="final" 
d="M1815 336h100q23 0 32 -39t9 -143q0 -91 -8.5 -122.5t-32.5 -31.5h-1290h-4q-266 0 -419 130t-153 339q0 173 66 348l336 -86q-27 -116 -27 -176q0 -106 68.5 -162.5t195.5 -56.5h729q-9 90 -58 148.5t-156.5 97.5t-289.5 61v369l580 559l258 -262l-440 -422
q245 -66 366 -198.5t138 -352.5z" />
    <glyph glyph-name="uniFB90" unicode="&#x6a9;" horiz-adv-x="1040" arabic-form="initial" 
d="M897 1309l-438 -422q265 -72 384.5 -222t119.5 -407v-258h-963v336h563q-9 90 -58 148.5t-156.5 97.5t-289.5 61v369l580 559z" />
    <glyph glyph-name="uniFB91" unicode="&#x6a9;" horiz-adv-x="1071" arabic-form="medial" 
d="M961 336h110q23 0 32 -39t9 -143q0 -91 -8.5 -122.5t-32.5 -31.5h-1071v336h563q-9 90 -58 148.5t-156.5 97.5t-289.5 61v369l580 559l258 -262l-438 -422q245 -66 365 -198t137 -353z" />
    <glyph glyph-name="uniFB93" unicode="&#x6af;" horiz-adv-x="1914" arabic-form="final" 
d="M1278 1788l141 -143l-545 -523l-141 142zM1815 336h100q23 0 32 -39t9 -143q0 -91 -8.5 -122.5t-32.5 -31.5h-1290h-4q-266 0 -419 130t-153 339q0 173 66 348l336 -86q-27 -116 -27 -176q0 -106 68.5 -162.5t195.5 -56.5h729q-9 90 -58 148.5t-156.5 97.5t-289.5 61v369
l580 559l258 -262l-440 -422q245 -66 366 -198.5t138 -352.5z" />
    <glyph glyph-name="uniFB94" unicode="&#x6af;" horiz-adv-x="1040" arabic-form="initial" 
d="M426 1788l141 -143l-544 -523l-142 142zM897 1309l-438 -422q265 -72 384.5 -222t119.5 -407v-258h-963v336h563q-9 90 -58 148.5t-156.5 97.5t-289.5 61v369l580 559z" />
    <glyph glyph-name="uniFB95" unicode="&#x6af;" horiz-adv-x="1071" arabic-form="medial" 
d="M426 1788l141 -143l-544 -523l-142 142zM961 336h110q23 0 32 -39t9 -143q0 -91 -8.5 -122.5t-32.5 -31.5h-1071v336h563q-9 90 -58 148.5t-156.5 97.5t-289.5 61v369l580 559l258 -262l-438 -422q245 -66 365 -198t137 -353z" />
    <glyph glyph-name="uniFB9F" unicode="&#x6ba;" horiz-adv-x="1404" arabic-form="final" 
d="M1278 336h127q23 0 32 -39t9 -143q0 -91 -8.5 -122.5t-32.5 -31.5h-143q-45 -196 -198 -292.5t-394 -96.5q-154 0 -275 43t-195.5 118t-112.5 171t-38 207q0 193 103 413l329 -104q-57 -145 -57 -266q0 -112 61.5 -171t176.5 -59q111 0 166 54.5t55 183.5v569h395v-434z
" />
    <glyph glyph-name="uniFBA5" unicode="&#x6c0;" horiz-adv-x="1181" arabic-form="final" 
d="M614 1288h195v-174h-440v174h73q-20 39 -20 82q0 82 57.5 133t157.5 51q73 0 141 -20l-30 -164q-38 10 -78 10q-66 0 -66 -53q0 -19 10 -39zM1182 336q23 0 32 -39t9 -143q0 -91 -8.5 -122.5t-32.5 -31.5q-276 0 -383 76q-121 -64 -269 -64q-230 0 -354.5 123t-124.5 318
q0 213 150.5 340t423.5 127h432v-449q0 -73 27.5 -104t97.5 -31zM666 365v223h-95q-74 0 -111.5 -32.5t-37.5 -88.5q0 -117 153 -117q53 0 91 15z" />
    <glyph glyph-name="uniFBA7" unicode="&#x6c1;" horiz-adv-x="1191" arabic-form="final" 
d="M356 -49l-301 127q127 285 271.5 432t330.5 147q101 0 174 -44t152 -150q57 -78 97.5 -102.5t111.5 -24.5q22 0 31.5 -40t9.5 -140q0 -88 -9.5 -122t-31.5 -34q-187 0 -284 43.5t-183 163.5q-40 57 -61 75.5t-46 18.5q-104 0 -262 -350z" />
    <glyph glyph-name="uniFBA8" unicode="&#x6c1;" horiz-adv-x="622" arabic-form="initial" 
d="M0 0v336q85 0 114 32t29 130v422h398v-435q0 -114 -18.5 -195t-57 -137.5t-104 -90t-152.5 -48t-209 -14.5zM461 -535l-287 -129q-94 138 -94 334q0 135 43 246l244 -45q-11 -48 -11 -104q0 -162 105 -302z" />
    <glyph glyph-name="uniFBA9" unicode="&#x6c1;" horiz-adv-x="1071" arabic-form="medial" 
d="M1057 336h14q22 0 31.5 -39.5t9.5 -138.5q0 -90 -9.5 -124t-31.5 -34h-8q-130 0 -193 -81.5t-63 -260.5v-156h-109q-142 0 -257 30t-199.5 89.5t-130 154t-45.5 218.5v6h-66v336h399v-305q0 -80 31 -128.5t98 -68.5q3 256 142.5 379t386.5 123z" />
    <glyph glyph-name="uniFBAB" unicode="&#x6be;" horiz-adv-x="1617" arabic-form="final" 
d="M1487 336h131q22 0 31.5 -40t9.5 -142q0 -90 -9 -122t-32 -32h-131q55 -75 55 -174q0 -142 -119.5 -233t-343.5 -91q-277 0 -406.5 128t-129.5 356v14q-296 0 -488 59l72 332q182 -51 416 -55v43q0 247 138 402t372 155q116 0 209 -34t151 -92.5t88.5 -133.5t30.5 -160
q0 -95 -45 -180zM1044 606q-57 0 -89.5 -47t-32.5 -141v-88h71q77 0 118.5 38.5t41.5 112.5q0 55 -28 90t-81 35zM1057 -174q106 0 106 94q0 42 -24 86h-217v-22q0 -158 135 -158z" />
    <glyph glyph-name="uniFBAC" unicode="&#x6be;" horiz-adv-x="1452" arabic-form="initial" 
d="M80 709l45 309q126 -2 230.5 -8t213.5 -18t196.5 -31.5t172.5 -49t149.5 -69t120 -94t91 -121.5t55.5 -152.5t20 -187.5q0 -131 -33 -287h-591q-147 0 -238 43q-82 -43 -242 -43h-270v336h156q-33 78 -33 158q0 129 65 211q-18 1 -54 2t-54 2zM502 346q104 68 104 184
q0 53 -25.5 82t-74.5 29q-46 0 -71 -29.5t-25 -83.5q0 -110 92 -182zM854 336h203q-3 161 -176 248q12 -46 12 -92q0 -86 -39 -156z" />
    <glyph glyph-name="uniFBAD" unicode="&#x6be;" horiz-adv-x="1161" arabic-form="medial" 
d="M1030 336h131q23 0 32 -39t9 -143q0 -91 -8.5 -122.5t-32.5 -31.5h-129q55 -75 55 -174q0 -142 -119 -233t-343 -91q-278 0 -407.5 128t-129.5 356v14h-88v336h88v43q0 247 137.5 402t370.5 155q117 0 210.5 -34t151.5 -92.5t88.5 -133.5t30.5 -160q0 -97 -47 -180z
M590 606q-59 0 -91 -47t-32 -141v-88h70q77 0 118 38.5t41 112.5q0 56 -26.5 90.5t-79.5 34.5zM600 -174q55 0 81 25.5t26 68.5q0 38 -23 86h-217v-22q0 -158 133 -158z" />
    <glyph glyph-name="uniFBAF" unicode="&#x6d2;" horiz-adv-x="1574" arabic-form="final" 
d="M2021 -532h-1233q-177 0 -306.5 18t-212.5 50.5t-132 84.5t-68.5 113.5t-19.5 144.5q0 236 172.5 346.5t517.5 110.5h836q23 0 32 -39t9 -143q0 -91 -8.5 -122.5t-32.5 -31.5h-875q-150 0 -214 -24t-64 -76q0 -24 15 -39.5t57.5 -29t128 -20t217.5 -6.5h1181v-337z" />
    <glyph glyph-name="uniFBB1" unicode="&#x6d3;" horiz-adv-x="1574" arabic-form="final" 
d="M690 760h187v-209h-484v209h86q-33 50 -33 112q0 92 69.5 150.5t189.5 58.5q77 0 147 -16l-35 -203q-33 10 -72 10q-69 0 -69 -57q0 -23 14 -55zM840 -195h1181v-337h-1233q-177 0 -306.5 18t-212.5 50.5t-132 84.5t-68.5 113.5t-19.5 144.5q0 236 172.5 346.5
t517.5 110.5h836q23 0 32 -39t9 -143q0 -91 -8.5 -122.5t-32.5 -31.5h-875q-150 0 -214 -24t-64 -76q0 -24 15 -39.5t57.5 -29t128 -20t217.5 -6.5z" />
    <glyph glyph-name="uniFBE8" unicode="&#x649;" horiz-adv-x="622" arabic-form="initial" 
d="M0 0v336q85 0 114 32t29 130v422h398v-435q0 -114 -18.5 -195t-57 -137.5t-104 -90t-152.5 -48t-209 -14.5z" />
    <glyph glyph-name="uniFBE9" unicode="&#x649;" horiz-adv-x="686" arabic-form="medial" 
d="M686 336q23 0 32 -39t9 -143q0 -91 -8.5 -122.5t-32.5 -31.5q-187 0 -266 102q-63 -55 -164 -78.5t-256 -23.5v336q85 0 114 32t29 130v422h398v-424q0 -160 145 -160z" />
    <glyph glyph-name="uniFBFD" unicode="&#x6cc;" horiz-adv-x="1699" arabic-form="final" 
d="M1538 336h162q24 0 32.5 -38t8.5 -144q0 -92 -8 -123t-33 -31h-37q37 -51 37 -123q0 -181 -213.5 -295t-605.5 -114q-212 0 -373 42t-260.5 118.5t-149 180t-49.5 230.5q0 130 62 303l338 -84q-21 -92 -21 -162q0 -144 111.5 -209t378.5 -65q104 0 181.5 10t121.5 27
t65 37.5t21 44.5q0 31 -34.5 53.5t-115.5 42.5l-272 69l86 334l276 -69q135 -35 291 -35z" />
    <glyph glyph-name="uniFBFE" unicode="&#x6cc;" horiz-adv-x="776" arabic-form="initial" 
d="M84 0h-84v336h82q91 0 121 33t30 129v422h398v-435q0 -141 -27 -232.5t-93 -149t-168 -80.5t-259 -23zM219 -473q-75 0 -124.5 47t-49.5 119q0 73 50 123.5t124 50.5q71 0 117.5 -50.5t46.5 -123.5q0 -72 -46 -119t-118 -47zM606 -473q-72 0 -121 47t-49 119t49 123
t121 51q73 0 120.5 -50.5t47.5 -123.5q0 -72 -47.5 -119t-120.5 -47z" />
    <glyph glyph-name="uniFBFF" unicode="&#x6cc;" horiz-adv-x="817" arabic-form="medial" 
d="M817 336q23 0 32 -39t9 -143q0 -91 -8.5 -122.5t-32.5 -31.5q-211 0 -303 106q-61 -57 -165 -81.5t-265 -24.5h-84v336h82q91 0 121 33t30 129v422h398v-414q0 -89 50 -129.5t136 -40.5zM219 -133q71 0 117.5 -50.5t46.5 -123.5q0 -72 -46 -119t-118 -47q-75 0 -124.5 47
t-49.5 119q0 73 50 123.5t124 50.5zM606 -133q73 0 120.5 -50.5t47.5 -123.5q0 -72 -47.5 -119t-120.5 -47q-72 0 -121 47t-49 119t49 123t121 51z" />
    <glyph glyph-name="uniFDFA" unicode="&#xfdfa;" horiz-adv-x="2390" arabic-form="isolated" 
d="M547 1448q-62 0 -62 68q0 22 9 49l57 -11q-2 -12 -2 -22t8 -10t8 10v16l56 6q2 -14 2 -32h6q10 0 10 14q0 13 -4 25l67 18q15 -38 15 -63q0 -32 -19.5 -49t-46.5 -17q-25 0 -47 14q-20 -16 -57 -16zM229 954q-76 0 -124 44t-48 120q0 197 250 197h164v-156q0 -24 21 -24
q13 0 16.5 5t3.5 23v267h188v-271q0 -24 19 -24q13 0 17.5 8t4.5 33v364h191v-389q0 -121 -46.5 -160t-166.5 -39q-67 0 -101 23q-40 -23 -137 -23q-87 0 -129 25q-50 -23 -123 -23zM1190 713q-141 0 -211 52t-70 144q0 46 29 103l176 -33q-8 -16 -8 -33q0 -22 25.5 -35.5
t70.5 -13.5q58 0 88.5 14.5t30.5 34.5q0 11 -18 21t-84 30l49 160q95 -22 147 -22q19 0 26 10t7 39v356h186v-381q0 -24 23 -24q10 0 14 5t4 19v129h191v-131q0 -13 5 -17.5t19 -4.5q92 206 273 206q204 0 204 -225q0 -70 -24 -164h-442q-61 0 -115 23q-44 -23 -123 -23
q-55 0 -82 23q-42 -23 -82 -23q19 -23 19 -57q0 -77 -89 -129.5t-239 -52.5zM979 1540h190v-504h-190v504zM293 1174h-8q-47 0 -47 -29q0 -27 34 -27h21v56zM2148 1174q-40 0 -67 -39h102v2q0 37 -35 37zM2247 559h131v-182h-535q-68 0 -104 22q-38 -22 -135 -22h-349v-371
q0 -22 23 -22h10q12 0 12 10v131h191v-125q0 -9 2.5 -12.5t11.5 -3.5q15 0 15 16v125h190v-127q0 -14 14 -14q15 0 15 14v180h190v-248q0 -63 -43.5 -96t-126.5 -33q-46 0 -100 23q-50 -23 -109 -23q-66 0 -116 23q-55 -23 -129 -23h-27q-66 0 -104 23q-42 -23 -138 -23
h-354q-50 -71 -164 -71h-147q-31 35 -45 71h-7q-14 0 -20 -7.5t-6 -31.5v-151h-180v194q0 179 170 179h24q14 70 70.5 112.5t144.5 42.5q75 0 128.5 -40t66.5 -115h311q22 0 30.5 8.5t8.5 34.5v350h-281q-68 0 -104 22q-40 -22 -147 -22h-39q-88 0 -129 24q-48 -22 -123 -22
q-76 0 -124 44t-48 120q0 196 250 196h163v-135q0 -45 35 -45h6q28 0 37.5 9t9.5 38v133h191v-141q0 -21 8 -30t29 -9h266v100h188v-100h342q19 0 27 9.5t8 37.5v293h191v-313q0 -27 26 -27h201q-6 27 -6 47q0 73 52.5 116.5t146.5 43.5q54 0 114 -16l-33 -158q-24 6 -49 6
q-30 0 -30 -23q0 -8 2 -16zM307 543v55h-8q-47 0 -47 -29q0 -26 35 -26h20zM643 258q0 -36 -24 -60t-60 -24q-38 0 -62 24t-24 60q0 37 24 61.5t62 24.5q35 0 59.5 -24.5t24.5 -61.5zM748 174q-38 0 -62 24t-24 60q0 37 24 61.5t62 24.5q34 0 56.5 -24.5t22.5 -61.5
q0 -35 -22.5 -59.5t-56.5 -24.5zM2173 186q105 0 151 -59t46 -154v-116q0 -138 -86 -193t-277 -41l-10 170q59 -6 100.5 -3.5t63 14t18.5 30.5q-12 -2 -41 -2q-76 0 -124 47.5t-48 132.5q0 78 54.5 126t152.5 48zM2198 -27v21q0 41 -29 41q-31 0 -31 -33q0 -29 31 -29h29z
M479 -111h23q23 0 36 11t13 30q0 41 -39 41t-39 -45q0 -17 6 -37z" />
    <glyph glyph-name="uniFDFC" unicode="&#xfdfc;" horiz-adv-x="3065" arabic-form="isolated" 
d="M629 -389q-144 0 -258 46t-182.5 123t-104 171.5t-35.5 198.5q0 193 103 413l344 -119q-56 -141 -56 -251q0 -112 50.5 -171t144.5 -59q110 0 159.5 60.5t49.5 197.5v1327h395v-1382q0 -277 -156.5 -416t-453.5 -139zM1896 0q-276 0 -391.5 102t-115.5 349v1097h397
v-1097q0 -61 25 -88t85 -27q63 0 88 28t25 105v451h395v-455q0 -263 -112 -364t-396 -101zM2439 -416l-51 334q94 15 131 57.5t37 141.5v803h397v-785q0 -143 -30 -242.5t-95.5 -163t-159 -97.5t-229.5 -48zM1767 -473q-75 0 -124.5 47t-49.5 119q0 73 50 123.5t124 50.5
q71 0 117.5 -50.5t46.5 -123.5q0 -72 -46 -119t-118 -47zM2154 -473q-72 0 -120.5 47t-48.5 119t48.5 123t120.5 51q73 0 120.5 -50.5t47.5 -123.5q0 -72 -47.5 -119t-120.5 -47z" />
    <glyph glyph-name="uniFE82" unicode="&#x622;" horiz-adv-x="649" arabic-form="final" 
d="M467 1624q-61 0 -186 28.5t-152 28.5q-47 0 -106 -34l-97 151q41 41 98.5 68.5t116.5 27.5q47 0 163.5 -31.5t162.5 -31.5q58 0 111 47l106 -135q-58 -66 -105 -92.5t-112 -26.5zM649 0q-293 0 -414.5 104t-121.5 357v1087h395v-1087q0 -67 32 -96t109 -29q22 0 31.5 -40
t9.5 -142q0 -90 -9 -122t-32 -32z" />
    <glyph glyph-name="uniFE84" unicode="&#x623;" horiz-adv-x="649" arabic-form="final" 
d="M336 1808h194v-174h-440v174h74q-21 40 -21 82q0 82 57.5 133.5t157.5 51.5q70 0 142 -21l-31 -164q-42 11 -78 11q-65 0 -65 -54q0 -19 10 -39zM649 336q22 0 31.5 -40t9.5 -142q0 -90 -9 -122t-32 -32q-293 0 -414.5 104t-121.5 357v1087h395v-1087q0 -67 32 -96
t109 -29z" />
    <glyph glyph-name="uniFE86" unicode="&#x624;" horiz-adv-x="1216" arabic-form="final" 
d="M668 1343h186v-208h-483v208h86q-33 50 -33 113q0 92 69 150.5t189 58.5q77 0 147 -16l-34 -203q-33 10 -72 10q-70 0 -70 -57q0 -22 15 -56zM1094 336h123q23 0 31.5 -38.5t8.5 -143.5q0 -92 -8.5 -123t-31.5 -31h-130q-27 -206 -186 -316t-450 -110q-103 0 -191 8
l-20 340q228 -17 334.5 10t127.5 101h-129q-228 0 -363.5 113t-135.5 305q0 213 150.5 352t383.5 139q99 0 179.5 -24t137 -66.5t95 -102t56.5 -131t18 -153.5v-129zM455 469q0 -63 38.5 -98t110.5 -35h105v102q0 164 -123 164q-62 0 -96.5 -37.5t-34.5 -95.5z" />
    <glyph glyph-name="uniFE88" unicode="&#x625;" horiz-adv-x="649" arabic-form="final" 
d="M649 336q22 0 31.5 -40t9.5 -142q0 -90 -9 -122t-32 -32q-293 0 -414.5 104t-121.5 357v1087h395v-1087q0 -67 32 -96t109 -29zM338 -319q0 -19 10 -39h195v-174h-441v174h74q-20 39 -20 82q0 82 57.5 133t157.5 51q69 0 141 -21l-31 -163q-38 10 -78 10q-65 0 -65 -53z
" />
    <glyph glyph-name="uniFE8A" unicode="&#x626;" horiz-adv-x="1699" arabic-form="final" 
d="M479 678h187v-209h-484v209h86q-32 49 -32 113q0 92 69 150t189 58q77 0 147 -16l-35 -203q-37 11 -71 11q-70 0 -70 -58q0 -23 14 -55zM1538 336h162q24 0 32.5 -38t8.5 -144q0 -92 -8 -123t-33 -31h-37q37 -51 37 -123q0 -181 -213.5 -295t-605.5 -114q-212 0 -373 42
t-260.5 118.5t-149 180t-49.5 230.5q0 130 62 303l338 -84q-21 -92 -21 -162q0 -144 111.5 -209t378.5 -65q104 0 181.5 10t121.5 27t65 37.5t21 44.5q0 31 -34.5 53.5t-115.5 42.5l-272 69l86 334l276 -69q135 -35 291 -35z" />
    <glyph glyph-name="uniFE8B" unicode="&#x626;" horiz-adv-x="776" arabic-form="initial" 
d="M457 1331h186v-209h-483v209h86q-33 50 -33 113q0 92 69 150.5t189 58.5q73 0 147 -17l-34 -202q-33 10 -72 10q-70 0 -70 -58q0 -21 15 -55zM233 498v422h398v-435q0 -141 -27 -232.5t-93 -149t-168 -80.5t-259 -23h-84v336h82q91 0 121 33t30 129z" />
    <glyph glyph-name="uniFE8C" unicode="&#x626;" horiz-adv-x="817" arabic-form="medial" 
d="M473 1331h186v-209h-483v209h86q-33 50 -33 113q0 92 69 150.5t189 58.5q74 0 148 -17l-35 -202q-33 10 -72 10q-69 0 -69 -58q0 -24 14 -55zM817 336q23 0 32 -39t9 -143q0 -91 -8.5 -122.5t-32.5 -31.5q-211 0 -303 106q-61 -57 -165 -81.5t-265 -24.5h-84v336h82
q91 0 121 33t30 129v422h398v-414q0 -89 50 -129.5t136 -40.5z" />
    <glyph glyph-name="uniFE8E" unicode="&#x627;" horiz-adv-x="649" arabic-form="final" 
d="M649 0q-293 0 -414.5 104t-121.5 357v1087h395v-1087q0 -67 32 -96t109 -29q22 0 31.5 -40t9.5 -142q0 -90 -9 -122t-32 -32z" />
    <glyph glyph-name="uniFE90" unicode="&#x628;" horiz-adv-x="2138" arabic-form="final" 
d="M2138 336q23 0 32 -39t9 -143q0 -91 -8.5 -122.5t-32.5 -31.5q-174 0 -258 90q-100 -90 -301 -90h-954h-4q-266 0 -419 130t-153 339q0 173 66 348l336 -86q-27 -116 -27 -176q0 -106 68.5 -162.5t195.5 -56.5h787q66 0 94 31t28 100v453h396v-424q0 -160 145 -160z
M1049 -123q82 0 130 -52.5t48 -131.5t-47.5 -128.5t-130.5 -49.5q-82 0 -131.5 50t-49.5 128t50 131t131 53z" />
    <glyph glyph-name="uniFE91" unicode="&#x628;" horiz-adv-x="622" arabic-form="initial" 
d="M0 0v336q85 0 114 32t29 130v422h398v-435q0 -114 -18.5 -195t-57 -137.5t-104 -90t-152.5 -48t-209 -14.5zM281 -485q-82 0 -131.5 50t-49.5 128t50 131t131 53q82 0 130 -52.5t48 -131.5t-47.5 -128.5t-130.5 -49.5z" />
    <glyph glyph-name="uniFE92" unicode="&#x628;" horiz-adv-x="686" arabic-form="medial" 
d="M686 336q23 0 32 -39t9 -143q0 -91 -8.5 -122.5t-32.5 -31.5q-184 0 -268 100q-63 -54 -163.5 -77t-254.5 -23v336q85 0 114 32t29 130v422h398v-424q0 -160 145 -160zM342 -123q82 0 130 -52.5t48 -131.5t-47.5 -128.5t-130.5 -49.5q-82 0 -131 50t-49 128
q0 79 49.5 131.5t130.5 52.5z" />
    <glyph glyph-name="uniFE94" unicode="&#x629;" horiz-adv-x="1181" arabic-form="final" 
d="M395 1122q-74 0 -124 50.5t-50 121.5q0 73 49.5 120.5t124.5 47.5q72 0 118 -47t46 -121q0 -72 -46.5 -122t-117.5 -50zM782 1122q-71 0 -120.5 50.5t-49.5 121.5q0 73 48.5 120.5t121.5 47.5q74 0 121 -47t47 -121q0 -72 -48 -122t-120 -50zM1182 336q23 0 32 -39
t9 -143q0 -91 -8.5 -122.5t-32.5 -31.5q-276 0 -383 76q-121 -64 -269 -64q-230 0 -354.5 123t-124.5 318q0 213 150.5 340t423.5 127h432v-449q0 -73 27.5 -104t97.5 -31zM666 365v223h-95q-74 0 -111.5 -32.5t-37.5 -88.5q0 -117 153 -117q53 0 91 15z" />
    <glyph glyph-name="uniFE96" unicode="&#x62a;" horiz-adv-x="2138" arabic-form="final" 
d="M801 950q-74 0 -124 50.5t-50 121.5q0 73 49.5 120.5t124.5 47.5q72 0 118 -47t46 -121q0 -72 -46.5 -122t-117.5 -50zM1188 950q-71 0 -120.5 50.5t-49.5 121.5q0 73 48.5 120.5t121.5 47.5q74 0 121 -47t47 -121q0 -72 -48 -122t-120 -50zM2138 336q23 0 32 -39t9 -143
q0 -91 -8.5 -122.5t-32.5 -31.5q-174 0 -258 90q-100 -90 -301 -90h-954h-4q-266 0 -419 130t-153 339q0 173 66 348l336 -86q-27 -116 -27 -176q0 -106 68.5 -162.5t195.5 -56.5h787q66 0 94 31t28 100v453h396v-424q0 -160 145 -160z" />
    <glyph glyph-name="uniFE97" unicode="&#x62a;" horiz-adv-x="776" arabic-form="initial" 
d="M217 1122q-74 0 -124 50.5t-50 121.5q0 73 49.5 120.5t124.5 47.5q72 0 118 -47t46 -121q0 -72 -46.5 -122t-117.5 -50zM604 1122q-71 0 -120.5 50.5t-49.5 121.5q0 73 48.5 120.5t121.5 47.5q74 0 121 -47t47 -121q0 -72 -48 -122t-120 -50zM84 0h-84v336h82
q91 0 121 33t30 129v422h398v-435q0 -141 -27 -232.5t-93 -149t-168 -80.5t-259 -23z" />
    <glyph glyph-name="uniFE98" unicode="&#x62a;" horiz-adv-x="817" arabic-form="medial" 
d="M233 1122q-74 0 -124 50.5t-50 121.5q0 73 49.5 120.5t124.5 47.5q72 0 118 -47t46 -121q0 -72 -46.5 -122t-117.5 -50zM621 1122q-71 0 -120.5 50.5t-49.5 121.5q0 73 48.5 120.5t121.5 47.5t120 -47t47 -121q0 -72 -47.5 -122t-119.5 -50zM817 336q23 0 32 -39t9 -143
q0 -91 -8.5 -122.5t-32.5 -31.5q-211 0 -303 106q-61 -57 -165 -81.5t-265 -24.5h-84v336h82q91 0 121 33t30 129v422h398v-414q0 -89 50 -129.5t136 -40.5z" />
    <glyph glyph-name="uniFE9A" unicode="&#x62b;" horiz-adv-x="2138" arabic-form="final" 
d="M995 1247q-69 0 -118.5 50t-49.5 118q0 72 49.5 123t118.5 51q78 0 125 -50t47 -124q0 -70 -47.5 -119t-124.5 -49zM801 911q-75 0 -124.5 49.5t-49.5 122.5t49.5 120.5t124.5 47.5q72 0 118 -47t46 -121q0 -73 -46.5 -122.5t-117.5 -49.5zM1018 1083q0 73 48.5 120.5
t121.5 47.5q74 0 121 -47.5t47 -120.5t-47.5 -122.5t-120.5 -49.5q-72 0 -121 50t-49 122zM2138 336q23 0 32 -39t9 -143q0 -91 -8.5 -122.5t-32.5 -31.5q-174 0 -258 90q-100 -90 -301 -90h-954h-4q-266 0 -419 130t-153 339q0 173 66 348l336 -86q-27 -116 -27 -176
q0 -106 68.5 -162.5t195.5 -56.5h787q66 0 94 31t28 100v453h396v-424q0 -160 145 -160z" />
    <glyph glyph-name="uniFE9B" unicode="&#x62b;" horiz-adv-x="776" arabic-form="initial" 
d="M412 1419q-69 0 -118.5 50t-49.5 118q0 72 49.5 123t118.5 51q78 0 125 -50t47 -124q0 -70 -47.5 -119t-124.5 -49zM217 1083q-75 0 -124.5 49.5t-49.5 122.5t49.5 120.5t124.5 47.5q72 0 118 -47t46 -121q0 -73 -46.5 -122.5t-117.5 -49.5zM604 1083q-72 0 -121 50
t-49 122q0 73 48.5 120.5t121.5 47.5q74 0 121 -47.5t47 -120.5t-47.5 -122.5t-120.5 -49.5zM84 0h-84v336h82q91 0 121 33t30 129v422h398v-435q0 -141 -27 -232.5t-93 -149t-168 -80.5t-259 -23z" />
    <glyph glyph-name="uniFE9C" unicode="&#x62b;" horiz-adv-x="817" arabic-form="medial" 
d="M428 1419q-69 0 -118.5 50t-49.5 118q0 72 49.5 123t118.5 51q78 0 125 -50t47 -124q0 -70 -47.5 -119t-124.5 -49zM233 1083q-75 0 -124.5 49.5t-49.5 122.5t49.5 120.5t124.5 47.5q72 0 118 -47t46 -121q0 -73 -46.5 -122.5t-117.5 -49.5zM451 1255q0 73 48.5 120.5
t121.5 47.5t120 -47t47 -121q0 -73 -47 -122.5t-120 -49.5q-72 0 -121 50t-49 122zM817 336q23 0 32 -39t9 -143q0 -91 -8.5 -122.5t-32.5 -31.5q-211 0 -303 106q-61 -57 -165 -81.5t-265 -24.5h-84v336h82q91 0 121 33t30 129v422h398v-414q0 -89 50 -129.5t136 -40.5z
" />
    <glyph glyph-name="uniFE9E" unicode="&#x62c;" horiz-adv-x="1282" arabic-form="final" 
d="M1176 336h106q23 0 32 -39t9 -143q0 -91 -8.5 -122.5t-32.5 -31.5h-719q-65 0 -100 -29t-35 -77t37 -74.5t94 -26.5h16l15 -325h-23q-238 0 -385 114t-147 314q0 207 132 323.5t376 116.5h237v18q0 124 -54 180t-171 56q-92 0 -182 -23l-86 328q143 47 299 47
q157 0 272 -42.5t184 -123t101.5 -187.5t32.5 -245v-8zM821 -68q74 0 117 -47t43 -118t-42.5 -115.5t-117.5 -44.5q-73 0 -117.5 45t-44.5 115t45 117.5t117 47.5z" />
    <glyph glyph-name="uniFE9F" unicode="&#x62c;" horiz-adv-x="985" arabic-form="initial" 
d="M866 0h-866v336h508q4 40 4 55q0 199 -205 199q-80 0 -180 -27l-86 328q143 51 299 51q288 0 427.5 -150t139.5 -423q0 -181 -41 -369zM451 -485q-82 0 -131.5 50t-49.5 128t50 131t131 53q82 0 130 -52.5t48 -131.5t-47.5 -128.5t-130.5 -49.5z" />
    <glyph glyph-name="uniFEA0" unicode="&#x62c;" horiz-adv-x="1015" arabic-form="medial" 
d="M907 336h109q23 0 32 -39t9 -143q0 -91 -8.5 -122.5t-32.5 -31.5h-1016v336h508q4 40 4 55q0 199 -205 199q-80 0 -180 -27l-86 328q143 51 299 51q288 0 427.5 -150t139.5 -423v-33zM451 -123q82 0 130 -52.5t48 -131.5t-47.5 -128.5t-130.5 -49.5q-82 0 -131.5 50
t-49.5 128t50 131t131 53z" />
    <glyph glyph-name="uniFEA2" unicode="&#x62d;" horiz-adv-x="1290" arabic-form="final" 
d="M1176 336h114q23 0 32 -39t9 -143q0 -91 -8.5 -122.5t-32.5 -31.5h-721q-66 0 -103.5 -25t-37.5 -69q0 -96 172 -96q78 0 143 12l66 -316q-113 -38 -254 -38q-149 0 -265 50.5t-185.5 153.5t-69.5 244q0 197 134.5 308.5t369.5 111.5h241v18q0 124 -54 180t-171 56
q-92 0 -182 -23l-86 328q143 47 299 47q157 0 272 -42.5t184 -123t101.5 -187.5t32.5 -245v-8z" />
    <glyph glyph-name="uniFEA3" unicode="&#x62d;" horiz-adv-x="985" arabic-form="initial" 
d="M866 0h-866v336h508q4 40 4 55q0 199 -205 199q-80 0 -180 -27l-86 328q143 51 299 51q288 0 427.5 -150t139.5 -423q0 -181 -41 -369z" />
    <glyph glyph-name="uniFEA4" unicode="&#x62d;" horiz-adv-x="1015" arabic-form="medial" 
d="M907 336h109q23 0 32 -39t9 -143q0 -91 -8.5 -122.5t-32.5 -31.5h-1016v336h508q4 40 4 55q0 199 -205 199q-80 0 -180 -27l-86 328q143 51 299 51q288 0 427.5 -150t139.5 -423v-33z" />
    <glyph glyph-name="uniFEA6" unicode="&#x62e;" horiz-adv-x="1290" arabic-form="final" 
d="M561 1135q-81 0 -130.5 52.5t-49.5 129.5q0 79 49 129.5t131 50.5q83 0 130.5 -50t47.5 -130q0 -78 -48 -130t-130 -52zM1176 336h114q23 0 32 -39t9 -143q0 -91 -8.5 -122.5t-32.5 -31.5h-721q-66 0 -103.5 -25t-37.5 -69q0 -96 172 -96q78 0 143 12l66 -316
q-113 -38 -254 -38q-149 0 -265 50.5t-185.5 153.5t-69.5 244q0 197 134.5 308.5t369.5 111.5h241v18q0 124 -54 180t-171 56q-92 0 -182 -23l-86 328q143 47 299 47q157 0 272 -42.5t184 -123t101.5 -187.5t32.5 -245v-8z" />
    <glyph glyph-name="uniFEA7" unicode="&#x62e;" horiz-adv-x="985" arabic-form="initial" 
d="M313 1135q-81 0 -130.5 52.5t-49.5 129.5q0 79 49 129.5t131 50.5q83 0 131 -50t48 -130q0 -78 -48.5 -130t-130.5 -52zM866 0h-866v336h508q4 40 4 55q0 199 -205 199q-80 0 -180 -27l-86 328q143 51 299 51q288 0 427.5 -150t139.5 -423q0 -181 -41 -369z" />
    <glyph glyph-name="uniFEA8" unicode="&#x62e;" horiz-adv-x="1015" arabic-form="medial" 
d="M311 1135q-81 0 -130.5 52.5t-49.5 129.5q0 79 49 129.5t131 50.5q83 0 130.5 -50t47.5 -130q0 -78 -48 -130t-130 -52zM907 336h109q23 0 32 -39t9 -143q0 -91 -8.5 -122.5t-32.5 -31.5h-1016v336h508q4 40 4 55q0 199 -205 199q-80 0 -180 -27l-86 328q143 51 299 51
q288 0 427.5 -150t139.5 -423v-33z" />
    <glyph glyph-name="uniFEAA" unicode="&#x62f;" horiz-adv-x="1048" arabic-form="final" 
d="M948 336h101q23 0 32 -39t9 -143q0 -91 -8.5 -122.5t-32.5 -31.5h-994v336h500q-36 175 -324 350l236 309q228 -142 344 -297.5t137 -361.5z" />
    <glyph glyph-name="uniFEAC" unicode="&#x630;" horiz-adv-x="1048" arabic-form="final" 
d="M336 1092q-81 0 -130.5 52.5t-49.5 129.5q0 79 49 129.5t131 50.5q83 0 130.5 -50t47.5 -130q0 -78 -48 -130t-130 -52zM948 336h101q23 0 32 -39t9 -143q0 -91 -8.5 -122.5t-32.5 -31.5h-994v336h500q-36 175 -324 350l236 309q228 -142 344 -297.5t137 -361.5z" />
    <glyph glyph-name="uniFEAE" unicode="&#x631;" horiz-adv-x="735" arabic-form="final" 
d="M592 336h143q23 0 32 -39t9 -143q0 -91 -8.5 -122.5t-32.5 -31.5h-153q-29 -201 -157 -296t-386 -120l-51 340q116 12 161.5 59t45.5 160v777h397v-584z" />
    <glyph glyph-name="uniFEB0" unicode="&#x632;" horiz-adv-x="735" arabic-form="final" 
d="M393 1135q-81 0 -130.5 52.5t-49.5 129.5q0 79 49 129.5t131 50.5q83 0 130.5 -50t47.5 -130q0 -78 -48 -130t-130 -52zM592 336h143q23 0 32 -39t9 -143q0 -91 -8.5 -122.5t-32.5 -31.5h-153q-29 -201 -157 -296t-386 -120l-51 340q116 12 161.5 59t45.5 160v777h397
v-584z" />
    <glyph glyph-name="uniFEB2" unicode="&#x633;" horiz-adv-x="2600" arabic-form="final" 
d="M2601 336q23 0 32 -39t9 -143q0 -91 -8.5 -122.5t-32.5 -31.5q-182 0 -264 98q-115 -98 -299 -98q-163 0 -289 76q-117 -76 -299 -76q-104 0 -184 29q-37 -212 -191 -315t-405 -103q-154 0 -275 43t-195.5 118t-112.5 171t-38 207q0 193 103 413l329 -104
q-57 -145 -57 -266q0 -112 61.5 -171t176.5 -59q111 0 166 54.5t55 183.5v569h395v-377q15 -57 96 -57q54 0 77.5 26t23.5 87v321h385v-344q0 -90 98 -90q56 0 79 26t23 87v471h396v-424q0 -160 145 -160z" />
    <glyph glyph-name="uniFEB3" unicode="&#x633;" horiz-adv-x="1796" arabic-form="initial" 
d="M1317 453v467h395v-543q0 -176 -115.5 -276.5t-302.5 -100.5q-156 0 -282 72q-117 -72 -295 -72q-205 0 -318 78q-58 -44 -131 -61t-202 -17h-66v336h37q59 0 83.5 28t24.5 95v311h385v-340q0 -94 101 -94q54 0 77 26.5t23 90.5v317h385v-340q0 -94 101 -94q54 0 77 27
t23 90z" />
    <glyph glyph-name="uniFEB4" unicode="&#x633;" horiz-adv-x="1857" arabic-form="medial" 
d="M1858 336q23 0 31.5 -38.5t8.5 -143.5q0 -92 -8.5 -123t-31.5 -31q-183 0 -265 98q-115 -98 -299 -98q-156 0 -282 72q-117 -72 -295 -72q-205 0 -318 78q-58 -44 -131 -61t-202 -17h-66v336h37q59 0 83.5 28t24.5 95v311h385v-340q0 -94 101 -94q54 0 77 26.5t23 90.5
v317h385v-340q0 -94 101 -94q54 0 77 27t23 90v467h395v-424q0 -83 39.5 -121.5t106.5 -38.5z" />
    <glyph glyph-name="uniFEB6" unicode="&#x634;" horiz-adv-x="2600" arabic-form="final" 
d="M1628 1282q-69 0 -118.5 50t-49.5 118q0 72 49.5 123t118.5 51q78 0 125 -50t47 -124q0 -70 -47.5 -119t-124.5 -49zM1434 946q-74 0 -124 50t-50 122q0 73 49.5 120.5t124.5 47.5q72 0 117.5 -47t45.5 -121q0 -73 -46 -122.5t-117 -49.5zM1651 1118q0 73 48.5 120.5
t121.5 47.5t120.5 -47t47.5 -121q0 -73 -47.5 -122.5t-120.5 -49.5q-72 0 -121 50t-49 122zM2601 336q23 0 32 -39t9 -143q0 -91 -8.5 -122.5t-32.5 -31.5q-182 0 -264 98q-115 -98 -299 -98q-163 0 -289 76q-117 -76 -299 -76q-104 0 -184 29q-37 -212 -191 -315t-405 -103
q-154 0 -275 43t-195.5 118t-112.5 171t-38 207q0 193 103 413l329 -104q-57 -145 -57 -266q0 -112 61.5 -171t176.5 -59q111 0 166 54.5t55 183.5v569h395v-377q15 -57 96 -57q54 0 77.5 26t23.5 87v321h385v-344q0 -90 98 -90q56 0 79 26t23 87v471h396v-424
q0 -160 145 -160z" />
    <glyph glyph-name="uniFEB7" unicode="&#x634;" horiz-adv-x="1796" arabic-form="initial" 
d="M885 1282q-69 0 -118.5 50t-49.5 118q0 72 49.5 123t118.5 51q78 0 125 -50t47 -124q0 -70 -47.5 -119t-124.5 -49zM690 946q-74 0 -124 50t-50 122q0 73 49.5 120.5t124.5 47.5q72 0 118 -47t46 -121q0 -73 -46.5 -122.5t-117.5 -49.5zM907 1118q0 73 48.5 120.5
t121.5 47.5t120.5 -47t47.5 -121q0 -73 -47.5 -122.5t-120.5 -49.5q-72 0 -121 50t-49 122zM1317 453v467h395v-543q0 -176 -115.5 -276.5t-302.5 -100.5q-156 0 -282 72q-117 -72 -295 -72q-205 0 -318 78q-58 -44 -131 -61t-202 -17h-66v336h37q59 0 83.5 28t24.5 95v311
h385v-340q0 -94 101 -94q54 0 77 26.5t23 90.5v317h385v-340q0 -94 101 -94q54 0 77 27t23 90z" />
    <glyph glyph-name="uniFEB8" unicode="&#x634;" horiz-adv-x="1857" arabic-form="medial" 
d="M885 1282q-69 0 -118.5 50t-49.5 118q0 72 49.5 123t118.5 51q78 0 125 -50t47 -124q0 -70 -47.5 -119t-124.5 -49zM690 946q-74 0 -124 50t-50 122q0 73 49.5 120.5t124.5 47.5q72 0 118 -47t46 -121q0 -73 -46.5 -122.5t-117.5 -49.5zM907 1118q0 73 48.5 120.5
t121.5 47.5t120.5 -47t47.5 -121q0 -73 -47.5 -122.5t-120.5 -49.5q-72 0 -121 50t-49 122zM1858 336q23 0 31.5 -38.5t8.5 -143.5q0 -92 -8.5 -123t-31.5 -31q-183 0 -265 98q-115 -98 -299 -98q-156 0 -282 72q-117 -72 -295 -72q-205 0 -318 78q-58 -44 -131 -61
t-202 -17h-66v336h37q59 0 83.5 28t24.5 95v311h385v-340q0 -94 101 -94q54 0 77 26.5t23 90.5v317h385v-340q0 -94 101 -94q54 0 77 27t23 90v467h395v-424q0 -83 39.5 -121.5t106.5 -38.5z" />
    <glyph glyph-name="uniFEBA" unicode="&#x635;" horiz-adv-x="2822" arabic-form="final" 
d="M2728 336h94q23 0 32 -39t9 -143q0 -91 -8.5 -122.5t-32.5 -31.5h-1331q-142 0 -221 53q-30 -223 -186 -332.5t-414 -109.5q-154 0 -275 43t-195.5 118t-112.5 171t-38 207q0 193 103 413l329 -104q-57 -145 -57 -266q0 -112 61.5 -171t176.5 -59q111 0 166 54.5
t55 183.5v569h395v-317q0 -52 33.5 -84t95.5 -33q81 170 174.5 291.5t195 191.5t204.5 101.5t217 31.5q252 0 392 -140.5t140 -412.5q0 -40 -2 -63zM2144 602q-200 0 -356 -266h555q4 40 4 55q0 98 -54 154.5t-149 56.5z" />
    <glyph glyph-name="uniFEBB" unicode="&#x635;" horiz-adv-x="1992" arabic-form="initial" 
d="M1384 952q252 0 392.5 -140.5t140.5 -412.5q0 -192 -51 -399h-1209q-189 0 -297 63q-51 -33 -133.5 -48t-226.5 -15v336q70 0 91.5 25t21.5 110v299h397v-338q0 -49 17 -71t67 -25q80 169 175.5 291t197.5 191.5t204.5 101.5t212.5 32zM1329 602q-94 0 -182.5 -70.5
t-163.5 -195.5h545q4 23 4 55q0 99 -53.5 155t-149.5 56z" />
    <glyph glyph-name="uniFEBC" unicode="&#x635;" horiz-adv-x="2009" arabic-form="medial" 
d="M1915 336h94q23 0 32 -39t9 -143q0 -91 -8.5 -122.5t-32.5 -31.5h-1352q-189 0 -297 63q-51 -33 -133.5 -48t-226.5 -15v336q70 0 91.5 25t21.5 110v299h397v-338q0 -49 17 -71t67 -25q80 169 175.5 291t197.5 191.5t204.5 101.5t212.5 32q252 0 392.5 -140.5
t140.5 -412.5q0 -40 -2 -63zM1329 602q-94 0 -182.5 -70.5t-163.5 -195.5h545q4 23 4 55q0 99 -53.5 155t-149.5 56z" />
    <glyph glyph-name="uniFEBE" unicode="&#x636;" horiz-adv-x="2822" arabic-form="final" 
d="M1999 1135q-81 0 -130.5 52.5t-49.5 129.5q0 79 49 129.5t131 50.5q83 0 130.5 -50t47.5 -130q0 -78 -48 -130t-130 -52zM2728 336h94q23 0 32 -39t9 -143q0 -91 -8.5 -122.5t-32.5 -31.5h-1331q-142 0 -221 53q-30 -223 -186 -332.5t-414 -109.5q-154 0 -275 43
t-195.5 118t-112.5 171t-38 207q0 193 103 413l329 -104q-57 -145 -57 -266q0 -112 61.5 -171t176.5 -59q111 0 166 54.5t55 183.5v569h395v-317q0 -52 33.5 -84t95.5 -33q81 170 174.5 291.5t195 191.5t204.5 101.5t217 31.5q252 0 392 -140.5t140 -412.5q0 -40 -2 -63z
M2144 602q-200 0 -356 -266h555q4 40 4 55q0 98 -54 154.5t-149 56.5z" />
    <glyph glyph-name="uniFEBF" unicode="&#x636;" horiz-adv-x="1992" arabic-form="initial" 
d="M1171 1135q-81 0 -130.5 52.5t-49.5 129.5q0 79 49 129.5t131 50.5q83 0 131 -50t48 -130q0 -78 -48.5 -130t-130.5 -52zM1384 952q252 0 392.5 -140.5t140.5 -412.5q0 -192 -51 -399h-1209q-189 0 -297 63q-51 -33 -133.5 -48t-226.5 -15v336q70 0 91.5 25t21.5 110v299
h397v-338q0 -49 17 -71t67 -25q80 169 175.5 291t197.5 191.5t204.5 101.5t212.5 32zM1329 602q-94 0 -182.5 -70.5t-163.5 -195.5h545q4 23 4 55q0 99 -53.5 155t-149.5 56z" />
    <glyph glyph-name="uniFEC0" unicode="&#x636;" horiz-adv-x="2009" arabic-form="medial" 
d="M1171 1135q-81 0 -130.5 52.5t-49.5 129.5q0 79 49 129.5t131 50.5q83 0 131 -50t48 -130q0 -78 -48.5 -130t-130.5 -52zM1915 336h94q23 0 32 -39t9 -143q0 -91 -8.5 -122.5t-32.5 -31.5h-1352q-189 0 -297 63q-51 -33 -133.5 -48t-226.5 -15v336q70 0 91.5 25t21.5 110
v299h397v-338q0 -49 17 -71t67 -25q80 169 175.5 291t197.5 191.5t204.5 101.5t212.5 32q252 0 392.5 -140.5t140.5 -412.5q0 -40 -2 -63zM1329 602q-94 0 -182.5 -70.5t-163.5 -195.5h545q4 23 4 55q0 99 -53.5 155t-149.5 56z" />
    <glyph glyph-name="uniFEC2" unicode="&#x637;" horiz-adv-x="1757" arabic-form="final" 
d="M1663 336h94q23 0 32 -39t9 -143q0 -91 -8.5 -122.5t-32.5 -31.5h-1702v336h160v1212h397v-813q109 109 244 163t277 54q255 0 393.5 -141t138.5 -418q0 -39 -2 -57zM594 336h686q2 16 2 49q0 106 -54.5 161.5t-158.5 55.5q-244 0 -475 -266z" />
    <glyph glyph-name="uniFEC3" unicode="&#x637;" horiz-adv-x="1669" arabic-form="initial" 
d="M1059 952q255 0 394.5 -141t139.5 -418q0 -182 -51 -393h-1542v336h143v1212h396v-813q109 109 243.5 163t276.5 54zM522 336h684q2 16 2 49q0 106 -54.5 161.5t-158.5 55.5q-242 0 -473 -266z" />
    <glyph glyph-name="uniFEC4" unicode="&#x637;" horiz-adv-x="1675" arabic-form="medial" 
d="M1591 336h84q23 0 32 -39t9 -143q0 -91 -8.5 -122.5t-32.5 -31.5h-1675v336h143v1212h396v-813q109 109 243.5 163t276.5 54q255 0 394.5 -141t139.5 -418q0 -39 -2 -57zM522 336h684q2 16 2 49q0 106 -54.5 161.5t-158.5 55.5q-242 0 -473 -266z" />
    <glyph glyph-name="uniFEC6" unicode="&#x638;" horiz-adv-x="1757" arabic-form="final" 
d="M1663 336h94q23 0 32 -39t9 -143q0 -91 -8.5 -122.5t-32.5 -31.5h-1702v336h160v1212h397v-813q109 109 244 163t277 54q255 0 393.5 -141t138.5 -418q0 -39 -2 -57zM1065 1135q-81 0 -130.5 52.5t-49.5 129.5q0 79 49 129.5t131 50.5q83 0 130.5 -50t47.5 -130
q0 -78 -48 -130t-130 -52zM594 336h686q2 16 2 49q0 106 -54.5 161.5t-158.5 55.5q-244 0 -475 -266z" />
    <glyph glyph-name="uniFEC7" unicode="&#x638;" horiz-adv-x="1669" arabic-form="initial" 
d="M1059 952q255 0 394.5 -141t139.5 -418q0 -182 -51 -393h-1542v336h143v1212h396v-813q109 109 243.5 163t276.5 54zM979 1135q-81 0 -130.5 52.5t-49.5 129.5q0 79 49 129.5t131 50.5q83 0 130.5 -50t47.5 -130q0 -78 -48 -130t-130 -52zM522 336h684q2 16 2 49
q0 106 -54.5 161.5t-158.5 55.5q-242 0 -473 -266z" />
    <glyph glyph-name="uniFEC8" unicode="&#x638;" horiz-adv-x="1675" arabic-form="medial" 
d="M1591 336h84q23 0 32 -39t9 -143q0 -91 -8.5 -122.5t-32.5 -31.5h-1675v336h143v1212h396v-813q109 109 243.5 163t276.5 54q255 0 394.5 -141t139.5 -418q0 -39 -2 -57zM979 1135q-81 0 -130.5 52.5t-49.5 129.5q0 79 49 129.5t131 50.5q83 0 130.5 -50t47.5 -130
q0 -78 -48 -130t-130 -52zM522 336h684q2 16 2 49q0 106 -54.5 161.5t-158.5 55.5q-242 0 -473 -266z" />
    <glyph glyph-name="uniFECA" unicode="&#x639;" horiz-adv-x="1202" arabic-form="final" 
d="M1004 336h198q23 0 32 -39t9 -143q0 -91 -8.5 -122.5t-32.5 -31.5h-258q-221 0 -364 35q-88 -35 -118 -66.5t-30 -68.5q0 -90 172 -90q78 0 146 12l63 -316q-107 -38 -262 -38q-236 0 -373 94t-137 280q0 127 66 221t208 166q-127 182 -237 269q6 79 26.5 173.5
t45.5 157.5q108 51 242.5 82t266.5 31q209 0 328 -83.5t119 -235.5q0 -141 -102 -287zM436 584l-2 -9q95 -87 178 -215q113 78 113 156q0 38 -36 61t-109 23q-82 0 -144 -16z" />
    <glyph glyph-name="uniFECB" unicode="&#x639;" horiz-adv-x="1007" arabic-form="initial" 
d="M510 336h442v-336h-952v336h119q-33 85 -33 182q0 197 147 310.5t402 113.5q135 0 274 -33l-71 -338q-81 19 -162 19q-97 0 -147 -39.5t-50 -114.5q0 -54 31 -100z" />
    <glyph glyph-name="uniFECC" unicode="&#x639;" horiz-adv-x="1212" arabic-form="medial" 
d="M1018 336h194q22 0 31.5 -40t9.5 -142q0 -90 -9 -122t-32 -32h-229q-227 0 -393 35q-172 -35 -420 -35h-170v336h250q-97 122 -162 168q6 78 26 173.5t44 158.5q109 48 244 77t266 29q211 0 329.5 -83t118.5 -236q0 -138 -98 -287zM446 584l-2 -9q97 -89 170 -210
q56 29 88.5 70t32.5 81q0 38 -36 61t-109 23q-85 0 -144 -16z" />
    <glyph glyph-name="uniFECE" unicode="&#x63a;" horiz-adv-x="1202" arabic-form="final" 
d="M618 1135q-81 0 -130.5 52.5t-49.5 129.5q0 79 49 129.5t131 50.5q83 0 131 -50t48 -130q0 -78 -48.5 -130t-130.5 -52zM1004 336h198q23 0 32 -39t9 -143q0 -91 -8.5 -122.5t-32.5 -31.5h-258q-221 0 -364 35q-88 -35 -118 -66.5t-30 -68.5q0 -90 172 -90q78 0 146 12
l63 -316q-107 -38 -262 -38q-236 0 -373 94t-137 280q0 127 66 221t208 166q-127 182 -237 269q6 79 26.5 173.5t45.5 157.5q108 51 242.5 82t266.5 31q209 0 328 -83.5t119 -235.5q0 -141 -102 -287zM436 584l-2 -9q95 -87 178 -215q113 78 113 156q0 38 -36 61t-109 23
q-82 0 -144 -16z" />
    <glyph glyph-name="uniFECF" unicode="&#x63a;" horiz-adv-x="1007" arabic-form="initial" 
d="M606 1157q-81 0 -130.5 52.5t-49.5 129.5q0 79 49 130t131 51q83 0 130.5 -50.5t47.5 -130.5q0 -78 -48 -130t-130 -52zM510 336h442v-336h-952v336h119q-33 85 -33 182q0 197 147 310.5t402 113.5q135 0 274 -33l-71 -338q-81 19 -162 19q-97 0 -147 -39.5t-50 -114.5
q0 -54 31 -100z" />
    <glyph glyph-name="uniFED0" unicode="&#x63a;" horiz-adv-x="1212" arabic-form="medial" 
d="M629 1135q-81 0 -130.5 52.5t-49.5 129.5q0 79 49 129.5t131 50.5q83 0 130.5 -50t47.5 -130q0 -78 -48 -130t-130 -52zM1018 336h194q22 0 31.5 -40t9.5 -142q0 -90 -9 -122t-32 -32h-229q-227 0 -393 35q-172 -35 -420 -35h-170v336h250q-97 122 -162 168
q6 78 26 173.5t44 158.5q109 48 244 77t266 29q211 0 329.5 -83t118.5 -236q0 -138 -98 -287zM446 584l-2 -9q97 -89 170 -210q56 29 88.5 70t32.5 81q0 38 -36 61t-109 23q-85 0 -144 -16z" />
    <glyph glyph-name="uniFED2" unicode="&#x641;" horiz-adv-x="2330" arabic-form="final" 
d="M1708 1135q-81 0 -130.5 52.5t-49.5 129.5q0 79 49 129.5t131 50.5q83 0 130.5 -50t47.5 -130q0 -78 -48 -130t-130 -52zM2189 336h142q23 0 32 -39t9 -143q0 -91 -8.5 -122.5t-32.5 -31.5h-246q-233 0 -387 27q-158 -27 -344 -27h-733q-266 0 -419 130t-153 339
q0 173 66 348l336 -86q-27 -116 -27 -176q0 -106 68.5 -162.5t195.5 -56.5h524q-49 81 -49 178q0 79 34 153.5t98.5 137t171.5 100t241 37.5q107 0 196.5 -23t151.5 -62t105.5 -92.5t63.5 -113.5t20 -125q0 -102 -56 -190zM1702 328q67 14 112.5 55t45.5 98q0 51 -41.5 85
t-114.5 34q-71 0 -113.5 -33.5t-42.5 -85.5q0 -55 44.5 -94.5t109.5 -58.5z" />
    <glyph glyph-name="uniFED3" unicode="&#x641;" horiz-adv-x="1269" arabic-form="initial" 
d="M657 1135q-81 0 -130.5 52.5t-49.5 129.5q0 79 49 129.5t131 50.5q83 0 131 -50t48 -130q0 -78 -48.5 -130t-130.5 -52zM655 942q256 0 396.5 -136t140.5 -364q0 -102 -21 -220.5t-59 -221.5h-1112v336h119q-15 50 -15 100q0 106 37 197.5t105.5 160.5t173.5 108.5
t235 39.5zM496 336h288q9 46 9 90q0 80 -40 127t-116 47t-118 -43t-42 -113q0 -46 19 -108z" />
    <glyph glyph-name="uniFED4" unicode="&#x641;" horiz-adv-x="1267" arabic-form="medial" 
d="M645 1135q-81 0 -130.5 52.5t-49.5 129.5q0 79 49 129.5t131 50.5q83 0 130.5 -50t47.5 -130q0 -78 -48 -130t-130 -52zM1124 336h144q23 0 32 -39t9 -143q0 -91 -8.5 -122.5t-32.5 -31.5h-246q-233 0 -387 27q-162 -27 -344 -27h-291v336h150q-50 77 -50 178
q0 79 34 153.5t98.5 137t171.5 100t241 37.5q132 0 237 -34.5t169 -93.5t97.5 -132.5t33.5 -155.5q0 -104 -58 -190zM639 328q67 14 112.5 55t45.5 98q0 51 -41.5 85t-114.5 34q-72 0 -114 -33.5t-42 -85.5q0 -55 44.5 -94.5t109.5 -58.5z" />
    <glyph glyph-name="uniFED6" unicode="&#x642;" horiz-adv-x="1785" arabic-form="final" 
d="M985 1135q-74 0 -124 50.5t-50 121.5q0 73 49.5 120.5t124.5 47.5q72 0 118 -47t46 -121q0 -72 -46.5 -122t-117.5 -50zM1372 1135q-71 0 -120.5 50.5t-49.5 121.5q0 73 48.5 120.5t121.5 47.5q74 0 121 -47.5t47 -120.5q0 -72 -48 -122t-120 -50zM1667 336h119
q23 0 32 -39t9 -143q0 -91 -8.5 -122.5t-32.5 -31.5h-148q-124 -410 -770 -410q-177 0 -317 28t-233.5 76.5t-154.5 118.5t-87.5 150.5t-26.5 175.5q0 139 57 301l338 -82q-20 -79 -20 -159q0 -65 23 -112.5t75.5 -83.5t144.5 -54.5t224 -18.5q275 0 366 103h-102
q-246 0 -376 114.5t-130 313.5q0 131 63.5 240t184 175t274.5 66q103 0 187.5 -28t141 -74.5t95 -109.5t55.5 -132t17 -143v-119zM1202 336h80v115q0 71 -32 111t-95 40q-59 0 -94 -34.5t-35 -90.5q0 -67 45.5 -104t130.5 -37z" />
    <glyph glyph-name="uniFED7" unicode="&#x642;" horiz-adv-x="1269" arabic-form="initial" 
d="M465 1135q-74 0 -124 50.5t-50 121.5q0 73 49.5 120.5t124.5 47.5q72 0 118 -47t46 -121q0 -72 -46.5 -122t-117.5 -50zM852 1135q-71 0 -120.5 50.5t-49.5 121.5q0 73 48.5 120.5t121.5 47.5q74 0 121 -47.5t47 -120.5q0 -72 -48 -122t-120 -50zM655 942
q256 0 396.5 -136t140.5 -364q0 -102 -21 -220.5t-59 -221.5h-1112v336h119q-15 50 -15 100q0 106 37 197.5t105.5 160.5t173.5 108.5t235 39.5zM496 336h288q9 46 9 90q0 80 -40 127t-116 47t-118 -43t-42 -113q0 -46 19 -108z" />
    <glyph glyph-name="uniFED8" unicode="&#x642;" horiz-adv-x="1267" arabic-form="medial" 
d="M453 1135q-74 0 -124 50.5t-50 121.5q0 73 49.5 120.5t124.5 47.5q72 0 117.5 -47t45.5 -121q0 -72 -46 -122t-117 -50zM840 1135q-71 0 -120.5 50.5t-49.5 121.5q0 73 48.5 120.5t121.5 47.5q74 0 121 -47.5t47 -120.5q0 -72 -48 -122t-120 -50zM1124 336h144
q23 0 32 -39t9 -143q0 -91 -8.5 -122.5t-32.5 -31.5h-246q-233 0 -387 27q-162 -27 -344 -27h-291v336h150q-50 77 -50 178q0 79 34 153.5t98.5 137t171.5 100t241 37.5q132 0 237 -34.5t169 -93.5t97.5 -132.5t33.5 -155.5q0 -104 -58 -190zM639 328q67 14 112.5 55
t45.5 98q0 51 -41.5 85t-114.5 34q-72 0 -114 -33.5t-42 -85.5q0 -55 44.5 -94.5t109.5 -58.5z" />
    <glyph glyph-name="uniFEDA" unicode="&#x643;" horiz-adv-x="1914" arabic-form="final" 
d="M1915 336q23 0 32 -39t9 -143q0 -91 -8.5 -122.5t-32.5 -31.5q-189 0 -270 104q-124 -104 -414 -104h-606h-4q-266 0 -419 130t-153 339q0 173 66 348l336 -86q-27 -116 -27 -176q0 -106 68.5 -162.5t195.5 -56.5h543q82 0 112.5 35.5t30.5 126.5v1050h395v-1052
q0 -83 39.5 -121.5t106.5 -38.5zM975 868h143v-174h-432v174h68q-21 47 -21 88q0 83 61.5 140t176.5 57q72 0 125 -16l-23 -168q-36 8 -53 8q-64 0 -64 -53q0 -31 19 -56z" />
    <glyph glyph-name="uniFEDB" unicode="&#x643;" horiz-adv-x="1040" arabic-form="initial" 
d="M897 1309l-438 -422q265 -72 384.5 -222t119.5 -407v-258h-963v336h563q-9 90 -58 148.5t-156.5 97.5t-289.5 61v369l580 559z" />
    <glyph glyph-name="uniFEDC" unicode="&#x643;" horiz-adv-x="1071" arabic-form="medial" 
d="M961 336h110q23 0 32 -39t9 -143q0 -91 -8.5 -122.5t-32.5 -31.5h-1071v336h563q-9 90 -58 148.5t-156.5 97.5t-289.5 61v369l580 559l258 -262l-438 -422q245 -66 365 -198t137 -353z" />
    <glyph glyph-name="uniFEDE" unicode="&#x644;" horiz-adv-x="1388" arabic-form="final" 
d="M1278 336h111q22 0 31.5 -40t9.5 -142q0 -90 -9 -122t-32 -32h-127q-45 -196 -198 -292.5t-394 -96.5q-154 0 -275 43t-195.5 118t-112.5 171t-38 207q0 193 103 413l329 -104q-57 -145 -57 -266q0 -112 61.5 -171t176.5 -59q111 0 166 54.5t55 183.5v1347h395v-1212z
" />
    <glyph glyph-name="uniFEDF" unicode="&#x644;" horiz-adv-x="651" arabic-form="initial" 
d="M0 0v336q82 0 112.5 35.5t30.5 126.5v1050h398v-1085q0 -256 -127.5 -359.5t-413.5 -103.5z" />
    <glyph glyph-name="uniFEE0" unicode="&#x644;" horiz-adv-x="684" arabic-form="medial" 
d="M684 336q23 0 32 -39t9 -143q0 -91 -8.5 -122.5t-32.5 -31.5q-189 0 -270 104q-120 -104 -414 -104v336q82 0 112.5 35.5t30.5 126.5v1050h398v-1085v-2q17 -125 143 -125z" />
    <glyph glyph-name="uniFEE2" unicode="&#x645;" horiz-adv-x="1634" arabic-form="final" 
d="M1546 336h88q23 0 32 -39t9 -143q0 -91 -8.5 -122.5t-32.5 -31.5h-202q-139 -145 -420 -145h-318q-74 68 -121 145h-2q-74 0 -104.5 -27.5t-30.5 -103.5v-401h-385v489q0 183 116 280t325 99q12 213 158.5 350t389.5 137q104 0 194 -31.5t158.5 -91.5t109.5 -153.5
t44 -210.5zM901 190h92q87 0 130.5 40t43.5 108q0 60 -39.5 101.5t-107.5 41.5q-70 0 -111 -47t-41 -119q0 -64 33 -125z" />
    <glyph glyph-name="uniFEE3" unicode="&#x645;" horiz-adv-x="1208" arabic-form="initial" 
d="M612 942q122 0 222.5 -37t166 -100t101 -147t35.5 -179q0 -234 -146 -356.5t-434 -122.5h-557v336h115q-25 64 -25 141q0 208 141 336.5t381 128.5zM485 336h99q92 0 131 38.5t39 98.5q0 56 -38 91.5t-102 35.5q-67 0 -110 -40.5t-43 -115.5q0 -58 24 -108z" />
    <glyph glyph-name="uniFEE4" unicode="&#x645;" horiz-adv-x="1232" arabic-form="medial" 
d="M1147 336h86q23 0 32 -39t9 -143q0 -91 -8.5 -122.5t-32.5 -31.5h-201q-142 -145 -422 -145h-317q-74 68 -121 145h-172v336h92q12 213 159 350t390 137q214 0 357 -128.5t149 -358.5zM498 190h96q87 0 129.5 40t42.5 108q0 60 -39.5 101.5t-105.5 41.5q-74 0 -114 -46.5
t-40 -119.5q0 -61 31 -125z" />
    <glyph glyph-name="uniFEE6" unicode="&#x646;" horiz-adv-x="1404" arabic-form="final" 
d="M670 858q-81 0 -131 52.5t-50 129.5q0 79 49.5 130t131.5 51q83 0 130.5 -50.5t47.5 -130.5q0 -78 -48 -130t-130 -52zM1278 336h127q22 0 31.5 -40t9.5 -142q0 -90 -9 -122t-32 -32h-143q-45 -196 -198 -292.5t-394 -96.5q-154 0 -275 43t-195.5 118t-112.5 171t-38 207
q0 193 103 413l329 -104q-57 -145 -57 -266q0 -112 61.5 -171t176.5 -59q111 0 166 54.5t55 183.5v569h395v-434z" />
    <glyph glyph-name="uniFEE7" unicode="&#x646;" horiz-adv-x="622" arabic-form="initial" 
d="M342 1122q-81 0 -130.5 53t-49.5 130q0 79 49 129.5t131 50.5q83 0 130.5 -50t47.5 -130q0 -78 -48 -130.5t-130 -52.5zM0 0v336q85 0 114 32t29 130v422h398v-435q0 -114 -18.5 -195t-57 -137.5t-104 -90t-152.5 -48t-209 -14.5z" />
    <glyph glyph-name="uniFEE8" unicode="&#x646;" horiz-adv-x="686" arabic-form="medial" 
d="M342 1122q-81 0 -130.5 53t-49.5 130q0 79 49 129.5t131 50.5q83 0 130.5 -50t47.5 -130q0 -78 -48 -130.5t-130 -52.5zM686 336q23 0 32 -39t9 -143q0 -91 -8.5 -122.5t-32.5 -31.5q-187 0 -266 102q-63 -55 -164 -78.5t-256 -23.5v336q85 0 114 32t29 130v422h398v-424
q0 -160 145 -160z" />
    <glyph glyph-name="uniFEE9" unicode="&#x647;" horiz-adv-x="1163" arabic-form="isolated" 
d="M573 -10q-115 0 -209 26.5t-164.5 79t-109.5 136.5t-39 194q0 124 41.5 223.5t113 162.5t165.5 96.5t202 33.5q148 0 264.5 -58t186.5 -176.5t70 -281.5q0 -215 -139.5 -325.5t-381.5 -110.5zM573 332q59 0 96.5 34t37.5 93q0 65 -38 103t-96 38q-62 0 -99.5 -37.5
t-37.5 -101.5q0 -61 36 -95t101 -34z" />
    <glyph glyph-name="uniFEEA" unicode="&#x647;" horiz-adv-x="1181" arabic-form="final" 
d="M1182 336q23 0 32 -39t9 -143q0 -91 -8.5 -122.5t-32.5 -31.5q-276 0 -383 76q-121 -64 -269 -64q-230 0 -354.5 123t-124.5 318q0 213 150.5 340t423.5 127h432v-449q0 -73 27.5 -104t97.5 -31zM666 365v223h-95q-74 0 -111.5 -32.5t-37.5 -88.5q0 -117 153 -117
q53 0 91 15z" />
    <glyph glyph-name="uniFEEB" unicode="&#x647;" horiz-adv-x="1452" arabic-form="initial" 
d="M80 709l45 309q126 -2 230.5 -8t213.5 -18t196.5 -31.5t172.5 -49t149.5 -69t120 -94t91 -121.5t55.5 -152.5t20 -187.5q0 -131 -33 -287h-591q-147 0 -238 43q-82 -43 -242 -43h-270v336h156q-33 78 -33 158q0 129 65 211q-18 1 -54 2t-54 2zM502 346q104 68 104 184
q0 53 -25.5 82t-74.5 29q-46 0 -71 -29.5t-25 -83.5q0 -110 92 -182zM854 336h203q-3 161 -176 248q12 -46 12 -92q0 -86 -39 -156z" />
    <glyph glyph-name="uniFEEC" unicode="&#x647;" horiz-adv-x="1161" arabic-form="medial" 
d="M1030 336h131q23 0 32 -39t9 -143q0 -91 -8.5 -122.5t-32.5 -31.5h-129q55 -75 55 -174q0 -142 -119 -233t-343 -91q-278 0 -407.5 128t-129.5 356v14h-88v336h88v43q0 247 137.5 402t370.5 155q117 0 210.5 -34t151.5 -92.5t88.5 -133.5t30.5 -160q0 -97 -47 -180z
M590 606q-59 0 -91 -47t-32 -141v-88h70q77 0 118 38.5t41 112.5q0 56 -26.5 90.5t-79.5 34.5zM600 -174q55 0 81 25.5t26 68.5q0 38 -23 86h-217v-22q0 -158 133 -158z" />
    <glyph glyph-name="uniFEEE" unicode="&#x648;" horiz-adv-x="1216" arabic-form="final" 
d="M1094 336h123q23 0 31.5 -38.5t8.5 -143.5q0 -92 -8.5 -123t-31.5 -31h-130q-27 -206 -186 -316t-450 -110q-103 0 -191 8l-20 340q228 -17 334.5 10t127.5 101h-129q-228 0 -363.5 113t-135.5 305q0 213 150.5 352t383.5 139q99 0 179.5 -24t137 -66.5t95 -102
t56.5 -131t18 -153.5v-129zM455 469q0 -63 38.5 -98t110.5 -35h105v102q0 164 -123 164q-62 0 -96.5 -37.5t-34.5 -95.5z" />
    <glyph glyph-name="uniFEF0" unicode="&#x649;" horiz-adv-x="1699" arabic-form="final" 
d="M1538 336h162q24 0 32.5 -38t8.5 -144q0 -92 -8 -123t-33 -31h-37q37 -51 37 -123q0 -181 -213.5 -295t-605.5 -114q-212 0 -373 42t-260.5 118.5t-149 180t-49.5 230.5q0 130 62 303l338 -84q-21 -92 -21 -162q0 -144 111.5 -209t378.5 -65q104 0 181.5 10t121.5 27
t65 37.5t21 44.5q0 31 -34.5 53.5t-115.5 42.5l-272 69l86 334l276 -69q135 -35 291 -35z" />
    <glyph glyph-name="uniFEF2" unicode="&#x64a;" horiz-adv-x="1699" arabic-form="final" 
d="M1538 336h162q24 0 32.5 -38t8.5 -144q0 -92 -8 -123t-33 -31h-37q37 -51 37 -123q0 -181 -213.5 -295t-605.5 -114q-212 0 -373 42t-260.5 118.5t-149 180t-49.5 230.5q0 130 62 303l338 -84q-21 -92 -21 -162q0 -144 111.5 -209t378.5 -65q104 0 181.5 10t121.5 27
t65 37.5t21 44.5q0 31 -34.5 53.5t-115.5 42.5l-272 69l86 334l276 -69q135 -35 291 -35zM698 -616q71 0 117.5 -51t46.5 -124q0 -72 -46 -118.5t-118 -46.5q-75 0 -124.5 46.5t-49.5 118.5q0 73 50 124t124 51zM1085 -616q72 0 120 -51t48 -124q0 -72 -47.5 -118.5
t-120.5 -46.5t-121.5 46.5t-48.5 118.5t49 123.5t121 51.5z" />
    <glyph glyph-name="uniFEF3" unicode="&#x64a;" horiz-adv-x="776" arabic-form="initial" 
d="M84 0h-84v336h82q91 0 121 33t30 129v422h398v-435q0 -141 -27 -232.5t-93 -149t-168 -80.5t-259 -23zM219 -473q-75 0 -124.5 47t-49.5 119q0 73 50 123.5t124 50.5q71 0 117.5 -50.5t46.5 -123.5q0 -72 -46 -119t-118 -47zM606 -473q-72 0 -121 47t-49 119t49 123
t121 51q73 0 120.5 -50.5t47.5 -123.5q0 -72 -47.5 -119t-120.5 -47z" />
    <glyph glyph-name="uniFEF4" unicode="&#x64a;" horiz-adv-x="817" arabic-form="medial" 
d="M817 336q23 0 32 -39t9 -143q0 -91 -8.5 -122.5t-32.5 -31.5q-211 0 -303 106q-61 -57 -165 -81.5t-265 -24.5h-84v336h82q91 0 121 33t30 129v422h398v-414q0 -89 50 -129.5t136 -40.5zM219 -133q71 0 117.5 -50.5t46.5 -123.5q0 -72 -46 -119t-118 -47q-75 0 -124.5 47
t-49.5 119q0 73 50 123.5t124 50.5zM606 -133q73 0 120.5 -50.5t47.5 -123.5q0 -72 -47.5 -119t-120.5 -47q-72 0 -121 47t-49 119t49 123t121 51z" />
    <glyph glyph-name=".notdef" horiz-adv-x="1048" 
d="M1049 0h-1049v1470h1049v-1470zM102 1366v-1264h844v1264h-844zM555 479h-94q-4 24 -4 35q0 115 26 166q33 64 95 121q64 59 83 93.5t19 76.5q0 73 -46 123.5t-110 50.5q-67 0 -112 -47.5t-56 -147.5l-102 17q13 141 87 210.5t189 69.5q110 0 182 -74t72 -194
q0 -70 -26.5 -123.5t-102.5 -122.5q-77 -68 -88 -106q-12 -41 -12 -148zM569 240h-114v137h114v-137z" />
    <glyph glyph-name=".null" 
 />
    <glyph glyph-name="nonmarkingreturn" horiz-adv-x="682" 
 />
    <glyph glyph-name="NULL" 
 />
    <glyph glyph-name="NULL" 
 />
    <glyph glyph-name="CR" unicode="&#xd;" horiz-adv-x="512" 
 />
    <glyph glyph-name="space" unicode=" " horiz-adv-x="512" 
 />
    <glyph glyph-name="exclam" unicode="!" horiz-adv-x="808" 
d="M606 506h-405v944h405v-944zM403 -27q-91 0 -156 63.5t-65 153.5t64.5 154t156.5 64t158 -64.5t66 -153.5q0 -90 -65.5 -153.5t-158.5 -63.5z" />
    <glyph glyph-name="quotedbl" unicode="&#x22;" horiz-adv-x="1069" 
d="M475 885h-303v565h303v-565zM897 885h-303v565h303v-565z" />
    <glyph glyph-name="quotedbl" unicode="&#x2033;" horiz-adv-x="1069" 
d="M475 885h-303v565h303v-565zM897 885h-303v565h303v-565z" />
    <glyph glyph-name="numbersign" unicode="#" horiz-adv-x="1249" 
d="M459 0h-256l57 399h-166v238h199l26 176h-167v238h198l58 399h256l-58 -399h129l58 399h254l-56 -399h166v-238h-201l-24 -176h168v-238h-199l-59 -399h-254l57 399h-129zM571 813l-22 -176h129l24 176h-131z" />
    <glyph glyph-name="dollar" unicode="$" horiz-adv-x="1370" 
d="M754 -170h-181v152q-144 10 -271.5 62.5t-221.5 139.5l256 262q56 -66 148 -104.5t184 -38.5q63 0 106 28t43 87q0 54 -52 88t-196 80q-75 24 -128 46t-111 57.5t-93 77t-58 103.5t-23 138q0 99 35.5 181t97 137t137.5 89t164 47v150h180v-148q132 -8 258.5 -56
t218.5 -134l-256 -252q-50 61 -124 91t-142 30q-164 0 -164 -109q0 -28 11.5 -48t36.5 -34t52.5 -24t71.5 -23l21 -6q56 -18 93 -31t91 -36t90.5 -46t77 -57.5t65 -72.5t40.5 -90t16 -111q0 -86 -25.5 -159.5t-69.5 -128t-104 -94.5t-129.5 -62t-144.5 -27v-154z" />
    <glyph glyph-name="percent" unicode="%" horiz-adv-x="1886" 
d="M1470 1413l-856 -1485l-190 99l852 1489zM453 692q-163 0 -279.5 115t-116.5 276q0 164 116.5 278t279.5 114t279 -114t116 -278q0 -161 -116 -276t-279 -115zM453 942q59 0 101 41.5t42 99.5q0 60 -42 102t-101 42t-101.5 -42t-42.5 -102q0 -58 42.5 -99.5t101.5 -41.5z
M1442 -25q-163 0 -279 115t-116 277t116 276.5t279 114.5t279 -114.5t116 -276.5t-116 -277t-279 -115zM1442 225q58 0 100.5 41.5t42.5 100.5t-42.5 101t-100.5 42q-59 0 -101.5 -41.5t-42.5 -101.5q0 -59 42.5 -100.5t101.5 -41.5z" />
    <glyph glyph-name="ampersand" unicode="&#x26;" horiz-adv-x="1650" 
d="M631 -29q-104 0 -199 26.5t-173 78t-124.5 138t-46.5 196.5q0 140 82 239.5t213 155.5q-145 138 -145 309q0 78 28.5 142.5t76 106.5t110.5 71t129.5 42t136.5 13t136 -13.5t126.5 -43t105.5 -73t72 -107.5t27 -142q0 -66 -22 -123t-63.5 -102t-90 -80t-111.5 -68
l148 -147l131 196h430l-328 -421l375 -365h-486l-120 127q-156 -156 -418 -156zM696 938q64 25 104 67t40 95q0 49 -31.5 83t-85.5 34t-87.5 -34t-33.5 -83q0 -87 94 -162zM647 276q113 0 176 82l-225 232q-123 -50 -123 -160q0 -71 52.5 -112.5t119.5 -41.5z" />
    <glyph glyph-name="quotesingle" unicode="'" horiz-adv-x="647" 
d="M473 885h-301v565h301v-565z" />
    <glyph glyph-name="quotesingle" unicode="&#x2032;" horiz-adv-x="647" 
d="M473 885h-301v565h301v-565z" />
    <glyph glyph-name="parenleft" unicode="(" horiz-adv-x="716" 
d="M616 -240l-264 -114q-147 203 -225 447.5t-78 496.5t78 496.5t225 447.5l264 -115q-268 -373 -268 -829q0 -457 268 -830z" />
    <glyph glyph-name="parenright" unicode=")" horiz-adv-x="716" 
d="M362 -354l-264 114q269 370 269 830q0 459 -269 829l264 115q147 -203 225.5 -447.5t78.5 -496.5t-78.5 -496.5t-225.5 -447.5z" />
    <glyph glyph-name="asterisk" unicode="*" horiz-adv-x="1034" 
d="M514 827l-156 -202l-206 147l159 199l-254 84l82 229l250 -84v250h258v-250l252 76l78 -229l-250 -78l158 -207l-211 -146z" />
    <glyph glyph-name="plus" unicode="+" horiz-adv-x="1363" 
d="M829 63h-290v418h-430v279h428v418h288v-418h432v-279h-428v-418z" />
    <glyph glyph-name="comma" unicode="," horiz-adv-x="665" 
d="M356 -250h-319l158 606h374z" />
    <glyph glyph-name="hyphen" unicode="-" horiz-adv-x="675" 
d="M608 406h-538v301h538v-301z" />
    <glyph glyph-name="period" unicode="." horiz-adv-x="665" 
d="M336 -27q-98 0 -167 66t-69 162q0 94 69.5 161.5t166.5 67.5q94 0 161.5 -67t67.5 -162t-67.5 -161.5t-161.5 -66.5z" />
    <glyph glyph-name="slash" unicode="/" horiz-adv-x="884" 
d="M887 1477l-629 -1590l-268 86l626 1592z" />
    <glyph glyph-name="zero" unicode="0" horiz-adv-x="1370" 
d="M686 -39q-134 0 -240 44.5t-173 118t-111 175t-62 208t-18 224.5t18 223t62 204.5t111 171.5t173 115.5t240 43.5t239 -43.5t171.5 -115.5t110.5 -172t61.5 -204.5t17.5 -222.5t-17.5 -224.5t-61.5 -208t-110.5 -175t-171.5 -118t-239 -44.5zM686 309q55 0 94 39.5
t58 107t26.5 134t7.5 141.5q0 73 -7.5 138t-26.5 131t-58 105.5t-94 39.5q-45 0 -80 -27.5t-55 -69t-32.5 -99t-16.5 -109.5t-4 -109q0 -59 4 -112t16.5 -112t32.5 -101t55 -69.5t80 -27.5z" />
    <glyph glyph-name="one" unicode="1" horiz-adv-x="1370" 
d="M989 0h-405v1010l-258 -191l-201 291l493 340h371v-1450z" />
    <glyph glyph-name="two" unicode="2" horiz-adv-x="1370" 
d="M1239 0h-1102v326l570 489q102 92 102 182q0 63 -40.5 104.5t-109.5 41.5q-74 0 -122 -55.5t-56 -145.5l-387 49q13 120 66 216t134 157t181.5 93t212.5 32q84 0 162.5 -16.5t149 -52.5t123 -88.5t83.5 -129t31 -168.5q0 -79 -20.5 -145.5t-63 -123t-81 -94t-101.5 -89.5
l-285 -238h553v-344z" />
    <glyph glyph-name="three" unicode="3" horiz-adv-x="1370" 
d="M684 -39q-107 0 -204 24t-180 72.5t-144.5 128.5t-89.5 185l376 94q18 -69 77.5 -117.5t142.5 -48.5q71 0 123.5 36.5t52.5 113.5q0 155 -260 155h-111v287h123q101 0 160 31.5t59 111.5q0 62 -45 95.5t-109 33.5q-66 0 -114.5 -39.5t-61.5 -107.5l-375 84q29 99 89 175
t139.5 122t168.5 69t185 23q99 0 192.5 -25t171.5 -74t125.5 -131t47.5 -186q0 -118 -65 -199t-169 -108v-8q118 -31 192 -123t74 -207q0 -117 -50 -209.5t-133 -147t-182 -82.5t-206 -28z" />
    <glyph glyph-name="four" unicode="4" horiz-adv-x="1370" 
d="M1116 0h-371v272h-688v334l572 844h485v-858h201v-320h-199v-272zM741 1059l-301 -467h310v467h-9z" />
    <glyph glyph-name="five" unicode="5" horiz-adv-x="1370" 
d="M672 -39q-213 0 -378.5 107.5t-211.5 291.5l371 105q19 -71 77 -116.5t134 -45.5q77 0 129.5 43t52.5 125q0 50 -25 87t-67 56.5t-89 28t-100 8.5q-74 0 -177.5 -15.5t-186.5 -39.5l41 854h929v-340h-579l-10 -178q61 12 129 12q112 0 208.5 -29t170.5 -84.5t116.5 -145
t42.5 -202.5q0 -108 -33 -197t-88.5 -148.5t-130.5 -100t-156.5 -58.5t-168.5 -18z" />
    <glyph glyph-name="six" unicode="6" horiz-adv-x="1370" 
d="M684 -39q-123 0 -231 35.5t-190 101.5t-129.5 168t-47.5 226q0 122 44.5 232t125.5 228l342 498h489l-358 -483v-2q30 10 68 10q95 0 183 -34t155 -94.5t107 -151t40 -197.5q0 -126 -47.5 -228.5t-130 -169.5t-190.5 -103t-230 -36zM684 295q87 0 142 55t55 142
q0 84 -54.5 139t-142.5 55q-86 0 -140.5 -54.5t-54.5 -139.5q0 -83 54.5 -140t140.5 -57z" />
    <glyph glyph-name="seven" unicode="7" horiz-adv-x="1370" 
d="M700 0h-469l574 1110h-660v340h1094v-305z" />
    <glyph glyph-name="eight" unicode="8" horiz-adv-x="1370" 
d="M684 -39q-113 0 -212.5 27t-180 80.5t-127.5 142.5t-47 203q0 122 70 212t182 130v4q-97 37 -158 118t-61 193q0 103 44.5 184.5t119.5 131.5t169.5 76t200.5 26q105 0 200 -26t171 -75.5t121 -131t45 -183.5q0 -114 -60 -196t-160 -115v-6q109 -35 180.5 -127t71.5 -213
q0 -92 -31 -168t-84.5 -128.5t-126.5 -88.5t-155 -53t-172 -17zM684 895q66 0 109 43.5t43 103.5q0 58 -43.5 100t-108.5 42q-66 0 -107.5 -41.5t-41.5 -100.5q0 -61 41 -104t108 -43zM684 272q77 0 123.5 45.5t46.5 116.5t-47 118.5t-123 47.5t-123 -47.5t-47 -118.5
t46.5 -116.5t123.5 -45.5z" />
    <glyph glyph-name="nine" unicode="9" horiz-adv-x="1370" 
d="M770 0h-489l358 479l2 6q-33 -10 -70 -10q-127 0 -237 57t-179 167.5t-69 252.5q0 126 47.5 228.5t130 169.5t190.5 103t230 36q123 0 231 -35.5t190 -101.5t129.5 -168t47.5 -226q0 -122 -44.5 -232t-125.5 -228zM684 768q86 0 140.5 55t54.5 140q0 82 -53.5 139
t-139.5 57q-89 0 -144 -55.5t-55 -142.5q0 -84 54.5 -138.5t142.5 -54.5z" />
    <glyph glyph-name="colon" unicode=":" horiz-adv-x="720" 
d="M362 621q-92 0 -158.5 62.5t-66.5 152.5q0 91 66.5 155t158.5 64q90 0 156 -63t66 -152q0 -91 -66 -155t-156 -64zM362 -12q-92 0 -158.5 62.5t-66.5 152.5q0 91 66.5 155t158.5 64q90 0 156 -63.5t66 -153.5t-66 -153.5t-156 -63.5z" />
    <glyph glyph-name="semicolon" unicode=";" horiz-adv-x="720" 
d="M362 623q-92 0 -157.5 62.5t-65.5 152.5q0 91 65.5 155t157.5 64q90 0 156 -64t66 -153q0 -91 -66 -154t-156 -63zM371 -250h-324l160 606h377z" />
    <glyph glyph-name="less" unicode="&#x3c;" horiz-adv-x="1363" 
d="M1202 375v-303l-1040 428v237l1040 430v-301l-598 -252z" />
    <glyph glyph-name="equal" unicode="=" horiz-adv-x="1363" 
d="M1235 680h-1106v270h1106v-270zM1235 297h-1106v270h1106v-270z" />
    <glyph glyph-name="greater" unicode="&#x3e;" horiz-adv-x="1363" 
d="M1202 500l-1040 -428v303l598 239l-598 252v301l1040 -430v-237z" />
    <glyph glyph-name="question" unicode="?" horiz-adv-x="1153" 
d="M780 485h-366v76q0 106 42 172.5t136 140.5l53 48q39 32 58.5 59.5t19.5 62.5q0 55 -34 86t-89 31q-74 0 -114 -51.5t-42 -126.5l-372 45q9 93 42 170t83 130.5t116 90t140.5 53.5t156.5 17q77 0 148.5 -14t138.5 -46.5t116.5 -80t79 -119t29.5 -158.5q0 -88 -31.5 -157
t-80.5 -116.5t-133 -105.5q-57 -41 -77 -73t-20 -80v-54zM598 -27q-91 0 -156 63.5t-65 153.5t64.5 154t156.5 64t157.5 -64.5t65.5 -153.5q0 -91 -64.5 -154t-158.5 -63z" />
    <glyph glyph-name="at" unicode="@" horiz-adv-x="1638" 
d="M852 -37q-229 0 -411 97t-284 270.5t-102 392.5q0 213 107.5 389.5t289 275.5t396.5 99q118 0 227 -27t203 -82.5t164 -134.5t109.5 -189t39.5 -239q0 -224 -117 -355.5t-311 -131.5q-82 0 -136 34t-66 93h-9q-28 -52 -90.5 -89.5t-146.5 -37.5q-136 0 -217.5 99
t-81.5 255q0 118 46.5 222t136.5 170.5t204 66.5q75 0 126 -32t66 -77h2l13 62h245l-53 -281q-31 -145 -31 -195q0 -69 56 -69q57 0 99 66.5t42 197.5q0 229 -141.5 352t-378.5 123q-244 0 -397.5 -160t-153.5 -405q0 -252 161 -402.5t419 -150.5q266 0 450 160l139 -156
q-233 -211 -614 -211zM784 551q48 0 84 37t52 87t16 101q0 148 -102 148q-62 0 -106 -74t-44 -164q0 -59 23.5 -97t76.5 -38z" />
    <glyph glyph-name="A" unicode="A" horiz-adv-x="1533" 
d="M563 1450h414l586 -1450h-447l-98 254h-518l-92 -254h-439zM764 1016l-158 -443h312z" />
    <glyph glyph-name="B" unicode="B" horiz-adv-x="1386" 
d="M754 0h-611v1450h586q75 0 143 -9t139 -35t122.5 -66.5t84.5 -109t33 -157.5q0 -116 -60 -194.5t-167 -116.5v-4q124 -25 205.5 -113.5t81.5 -222.5q0 -92 -31 -165t-83.5 -120t-125 -78.5t-151 -45t-166.5 -13.5zM530 1130v-249h164q80 0 125 34t45 99q0 116 -184 116
h-150zM530 600v-276h175q84 0 141 33.5t57 109.5q0 133 -207 133h-166z" />
    <glyph glyph-name="C" unicode="C" horiz-adv-x="1425" 
d="M860 -39q-164 0 -308.5 56t-248.5 155t-164.5 243t-60.5 312q0 227 105 402t283 267.5t398 92.5q161 0 310 -54.5t243 -152.5l-264 -289q-43 60 -115.5 91.5t-154.5 31.5q-158 0 -261.5 -109t-103.5 -280q0 -173 103 -281t260 -108q90 0 162.5 37t115.5 98l266 -283
q-98 -109 -242 -169t-323 -60z" />
    <glyph glyph-name="D" unicode="D" horiz-adv-x="1597" 
d="M700 0h-557v1450h531q96 0 183.5 -10.5t173 -35.5t158 -63t134.5 -95.5t105 -130.5t67.5 -171t24.5 -213q0 -148 -45.5 -271t-123.5 -207t-183.5 -142t-223 -84.5t-244.5 -26.5zM539 1104v-754h135q93 0 168.5 20.5t135 64.5t92 119.5t32.5 178.5q0 97 -33 170t-91 116
t-131.5 64t-160.5 21h-147z" />
    <glyph glyph-name="E" unicode="E" horiz-adv-x="1239" 
d="M1163 0h-1020v1450h985v-342h-596v-211h562v-322h-562v-231h631v-344z" />
    <glyph glyph-name="F" unicode="F" horiz-adv-x="1183" 
d="M545 0h-402v1450h965v-344h-563v-238h512v-336h-512v-532z" />
    <glyph glyph-name="G" unicode="G" horiz-adv-x="1568" 
d="M877 -37q-229 0 -410.5 94t-285 269t-103.5 401q0 227 105 402t283 267.5t398 92.5q168 0 319.5 -53t243.5 -144l-247 -291q-49 59 -125.5 93t-171.5 34q-160 0 -269.5 -113t-109.5 -288q0 -186 103 -298t294 -112q104 0 174 31v201h-258v323h627v-778q-109 -59 -258 -95
t-309 -36z" />
    <glyph glyph-name="H" unicode="H" horiz-adv-x="1597" 
d="M551 0h-408v1450h408v-524h493v524h410v-1450h-407v584h-496v-584z" />
    <glyph glyph-name="I" unicode="I" horiz-adv-x="698" 
d="M553 0h-410v1450h410v-1450z" />
    <glyph glyph-name="J" unicode="J" horiz-adv-x="1120" 
d="M483 -39q-186 0 -321.5 97.5t-177.5 252.5l354 129q11 -49 43 -79.5t78 -30.5q66 0 91 44.5t25 129.5v946h410v-938q0 -80 -12 -151t-46 -146.5t-88 -130t-145.5 -89t-210.5 -34.5z" />
    <glyph glyph-name="K" unicode="K" horiz-adv-x="1501" 
d="M543 0h-400v1450h398v-567h6l463 567h495l-592 -666l625 -784h-516l-475 631h-4v-631z" />
    <glyph glyph-name="L" unicode="L" horiz-adv-x="1097" 
d="M1081 0h-938v1450h410v-1098h528v-352z" />
    <glyph glyph-name="M" unicode="M" horiz-adv-x="2000" 
d="M526 0h-383v1450h555l303 -868h9l278 868h570v-1450h-398l13 938l-11 2l-332 -940h-286l-326 940h-6z" />
    <glyph glyph-name="N" unicode="N" horiz-adv-x="1617" 
d="M535 0h-392v1450h437l510 -858h8l-15 858h392v-1450h-439l-508 842h-6z" />
    <glyph glyph-name="O" unicode="O" horiz-adv-x="1746" 
d="M872 -39q-226 0 -406.5 95.5t-284 272t-103.5 402.5q0 171 60 314t166 240t252 150.5t316 53.5q228 0 408.5 -91.5t284.5 -265t104 -401.5q0 -170 -60.5 -314.5t-166.5 -244t-253 -155.5t-317 -56zM872 334q158 0 260.5 112t102.5 285q0 170 -102.5 279.5t-260.5 109.5
q-159 0 -259.5 -109t-100.5 -280q0 -174 101 -285.5t259 -111.5z" />
    <glyph glyph-name="P" unicode="P" horiz-adv-x="1347" 
d="M551 0h-408v1450h570q96 0 179 -14.5t158 -48.5t127.5 -86.5t83.5 -132.5t31 -181t-32 -182t-86 -134.5t-129 -89.5t-158.5 -51.5t-177.5 -15.5h-158v-514zM551 1126v-295h127q92 0 150.5 36t58.5 116q0 43 -16.5 73t-47.5 44.5t-64.5 20t-76.5 5.5h-131z" />
    <glyph glyph-name="Q" unicode="Q" horiz-adv-x="1761" 
d="M1737 0h-889q-232 0 -405.5 85t-272 254t-98.5 404q0 216 103.5 387t284.5 265t406 94t404 -93t280 -261t101 -381q0 -139 -56.5 -257t-132.5 -178v-6l275 9v-322zM864 346q156 0 258.5 109.5t102.5 281.5q0 168 -101 274.5t-258 106.5q-155 0 -256.5 -106.5
t-101.5 -274.5q0 -173 99.5 -282t256.5 -109z" />
    <glyph glyph-name="R" unicode="R" horiz-adv-x="1400" 
d="M541 0h-398v1450h584q89 0 167.5 -13.5t153 -46.5t128 -83t86 -129.5t32.5 -180.5q0 -138 -73.5 -239.5t-206.5 -151.5l372 -606h-471l-299 551h-75v-551zM539 1126v-292h135q219 0 219 151q0 141 -199 141h-155z" />
    <glyph glyph-name="S" unicode="S" horiz-adv-x="1232" 
d="M590 -39q-164 0 -317.5 57.5t-254.5 155.5l258 272q53 -63 140 -106t172 -43q71 0 116.5 29t45.5 92q0 21 -6 38t-24.5 32.5t-36 26.5t-56.5 26t-68.5 25.5t-89.5 29.5q-63 21 -112 43t-100.5 57.5t-84.5 78t-54.5 104.5t-21.5 137q0 98 34 178.5t90.5 134.5t132.5 90.5
t157 53t166 16.5q136 0 272.5 -51t235.5 -144l-256 -266q-44 58 -116 91.5t-138 33.5q-72 0 -120 -26t-48 -85q0 -52 41.5 -78.5t146.5 -58.5q55 -17 91 -29.5t89.5 -35t89.5 -45t76.5 -57.5t64.5 -73.5t40 -91.5t16 -114q0 -99 -31.5 -182t-86 -140.5t-127.5 -97.5
t-155.5 -59t-170.5 -19z" />
    <glyph glyph-name="T" unicode="T" horiz-adv-x="1206" 
d="M807 0h-408v1104h-387v346h1182v-346h-387v-1104z" />
    <glyph glyph-name="U" unicode="U" horiz-adv-x="1542" 
d="M768 -39q-302 0 -471.5 164.5t-169.5 431.5v893h405v-854q0 -119 60.5 -193.5t179.5 -74.5q120 0 180 74t60 194v854h405v-893q0 -266 -173.5 -431t-475.5 -165z" />
    <glyph glyph-name="V" unicode="V" horiz-adv-x="1445" 
d="M932 0h-428l-535 1450h459l295 -973h8l291 973h455z" />
    <glyph glyph-name="W" unicode="W" horiz-adv-x="2144" 
d="M813 0h-407l-406 1450h434l199 -903h8l219 903h426l227 -903h9l200 903h422l-409 -1450h-408l-252 913h-8z" />
    <glyph glyph-name="X" unicode="X" horiz-adv-x="1521" 
d="M465 0h-485l512 762l-478 688h492l254 -422l246 422h477l-469 -686l528 -764h-500l-294 475z" />
    <glyph glyph-name="Y" unicode="Y" horiz-adv-x="1429" 
d="M723 961l272 489h478l-564 -844v-606h-407v606l-547 844h494z" />
    <glyph glyph-name="Z" unicode="Z" horiz-adv-x="1331" 
d="M1249 0h-1165v346l629 762h-611v342h1133v-311l-653 -789h667v-350z" />
    <glyph glyph-name="bracketleft" unicode="[" horiz-adv-x="716" 
d="M571 -319h-473v1818h473v-239h-180v-1340h180v-239z" />
    <glyph glyph-name="backslash" unicode="\" horiz-adv-x="884" 
d="M895 -27l-268 -86l-629 1590l270 88z" />
    <glyph glyph-name="bracketright" unicode="]" horiz-adv-x="716" 
d="M616 -319h-473v239h181v1340h-181v239h473v-1818z" />
    <glyph glyph-name="asciicircum" unicode="^" horiz-adv-x="1433" 
d="M481 702h-327l428 748h272l424 -748h-330l-233 414z" />
    <glyph glyph-name="underscore" unicode="_" horiz-adv-x="1024" 
d="M1024 -354h-1024v200h1024v-200z" />
    <glyph glyph-name="grave" unicode="`" horiz-adv-x="665" 
d="M522 1182h-293l-307 295h381z" />
    <glyph glyph-name="a" unicode="a" horiz-adv-x="1179" 
d="M434 -27q-52 0 -102 10.5t-100 35.5t-87.5 62t-60.5 94.5t-23 129.5q0 350 639 350h5v13q0 62 -43 93.5t-115 31.5q-65 0 -129.5 -28t-112.5 -71l-199 203q92 88 219 135t261 47q137 0 232.5 -36t151.5 -107.5t80.5 -168.5t24.5 -230v-385v-152h-356v98h-6
q-37 -59 -114.5 -92t-164.5 -33zM539 223q86 0 135 51t49 136v34h-35q-60 0 -106 -5t-87.5 -18t-64 -39t-22.5 -63q0 -48 40.5 -72t90.5 -24z" />
    <glyph glyph-name="b" unicode="b" horiz-adv-x="1380" 
d="M817 -29q-103 0 -194 41.5t-138 112.5h-4v-125h-356v1548h391v-604h4q47 57 126 93t173 36q112 0 205 -46t153.5 -122.5t94 -174.5t33.5 -204q0 -108 -33 -207t-93 -177t-154 -124.5t-208 -46.5zM719 297q100 0 157.5 66.5t57.5 162.5q0 92 -58 159t-157 67
q-97 0 -159 -68.5t-62 -159.5q0 -93 61.5 -160t159.5 -67z" />
    <glyph glyph-name="c" unicode="c" horiz-adv-x="1050" 
d="M670 -37q-127 0 -236.5 39.5t-189 110.5t-125 176.5t-45.5 232.5q0 166 79.5 294t214.5 195.5t302 67.5q110 0 217.5 -35.5t167.5 -91.5l-211 -274q-27 33 -73 53.5t-91 20.5q-90 0 -151.5 -65.5t-61.5 -164.5t61 -162t154 -63q48 0 93.5 18t72.5 50l209 -271
q-65 -59 -169.5 -95t-217.5 -36z" />
    <glyph glyph-name="d" unicode="d" horiz-adv-x="1378" 
d="M561 -29q-114 0 -207.5 46.5t-154 124.5t-93 177t-32.5 207q0 143 56 266t168.5 202t260.5 79q94 0 173 -36t126 -93h4v604h391v-1548h-356v125h-4q-47 -71 -138 -112.5t-194 -41.5zM659 297q98 0 160 67t62 160q0 90 -62.5 159t-159.5 69q-99 0 -157 -67t-58 -159
q0 -96 57.5 -162.5t157.5 -66.5z" />
    <glyph glyph-name="e" unicode="e" horiz-adv-x="1249" 
d="M655 -37q-117 0 -221.5 37t-185 106t-127.5 176t-47 238q0 167 77 295.5t206 196t288 67.5q239 0 387 -155.5t148 -413.5q0 -63 -2 -88h-734q6 -70 72 -117t148 -47q132 0 204 94l277 -157q-73 -109 -200 -170.5t-290 -61.5zM442 649h387q0 73 -47.5 120.5t-132.5 47.5
q-86 0 -143.5 -50t-63.5 -118z" />
    <glyph glyph-name="f" unicode="f" horiz-adv-x="796" 
d="M578 0h-392v760h-186v287h186v65q0 81 13.5 149.5t46.5 132t84.5 107.5t133.5 70t187 26q108 0 185 -24l-27 -303q-44 14 -92 14q-139 0 -139 -174v-63h227v-287h-227v-760z" />
    <glyph glyph-name="g" unicode="g" horiz-adv-x="1380" 
d="M625 -492q-145 0 -293.5 42.5t-253.5 117.5l184 271q73 -61 161 -93t173 -32q128 0 201 68t73 184v55h-6q-45 -56 -125 -91.5t-176 -35.5q-116 0 -210.5 43t-154.5 116.5t-92 169.5t-32 205q0 107 32.5 204.5t93 174t154 122.5t207.5 46q96 0 182 -38t136 -111h6v121h368
v-945q0 -126 -32 -226.5t-88 -168.5t-136 -113.5t-172 -65.5t-200 -20zM659 299q99 0 160.5 67t61.5 164q0 94 -62 160t-160 66t-155.5 -65t-57.5 -161q0 -97 57.5 -164t155.5 -67z" />
    <glyph glyph-name="h" unicode="h" horiz-adv-x="1304" 
d="M518 0h-393v1548h393v-628h4q38 65 116 109t177 44q103 0 179 -37.5t117.5 -101t61 -137t19.5 -156.5v-641h-393v561q0 187 -131 187q-68 0 -109 -51.5t-41 -137.5v-559z" />
    <glyph glyph-name="i" unicode="i" horiz-adv-x="643" 
d="M324 1157q-91 0 -154.5 60.5t-63.5 146.5q0 84 64 145.5t154 61.5q87 0 150 -60.5t63 -146.5q0 -87 -63 -147t-150 -60zM518 0h-393v1047h393v-1047z" />
    <glyph glyph-name="j" unicode="j" horiz-adv-x="653" 
d="M332 1157q-89 0 -152 60.5t-63 146.5q0 84 63 145.5t152 61.5q88 0 150.5 -60.5t62.5 -146.5q0 -87 -62.5 -147t-150.5 -60zM88 -492q-101 0 -168 21l25 324q37 -11 73 -11q62 0 89.5 40t27.5 118v1047h393v-1053q0 -83 -11.5 -151.5t-42 -132.5t-79 -107t-126.5 -69
t-181 -26z" />
    <glyph glyph-name="k" unicode="k" horiz-adv-x="1282" 
d="M518 0h-395v1548h395v-915h6l295 414h467l-375 -472l383 -575h-471l-299 483h-6v-483z" />
    <glyph glyph-name="l" unicode="l" horiz-adv-x="647" 
d="M524 0h-399v1548h399v-1548z" />
    <glyph glyph-name="m" unicode="m" horiz-adv-x="1937" 
d="M1446 1075q84 0 151 -27t108.5 -70.5t69.5 -101t39 -115t11 -116.5v-645h-393v567q0 93 -28 140t-95 47q-65 0 -102.5 -53.5t-37.5 -137.5v-563h-393v578q0 176 -121 176q-62 0 -100.5 -51t-38.5 -138v-565h-395v811v236h383v-132h4q41 67 120.5 113.5t184.5 46.5
q219 0 307 -164q116 164 326 164z" />
    <glyph glyph-name="n" unicode="n" horiz-adv-x="1304" 
d="M516 0h-395v807v240h383v-132h4q39 68 122 114t183 46q103 0 179.5 -37.5t118.5 -101t61.5 -136t19.5 -155.5v-645h-395v567q0 187 -131 187q-69 0 -109.5 -53.5t-40.5 -135.5v-565z" />
    <glyph glyph-name="o" unicode="o" horiz-adv-x="1320" 
d="M659 -37q-118 0 -224 39.5t-186.5 110.5t-127.5 178t-47 235q0 169 81 296.5t213 192t291 64.5t291.5 -64.5t214.5 -192.5t82 -296q0 -170 -82 -300t-214.5 -196.5t-291.5 -66.5zM662 297q96 0 154 67.5t58 161.5q0 91 -59.5 158.5t-155.5 67.5q-97 0 -155 -67.5
t-58 -158.5q0 -94 59.5 -161.5t156.5 -67.5z" />
    <glyph glyph-name="p" unicode="p" horiz-adv-x="1376" 
d="M514 -492h-393v1539h373v-117h4q55 66 138.5 105.5t180.5 39.5q112 0 205 -45.5t153.5 -122t94 -174.5t33.5 -205q0 -109 -33 -208.5t-93 -177.5t-153.5 -124.5t-206.5 -46.5q-90 0 -171 34.5t-128 94.5h-4v-592zM717 297q101 0 157 67t56 164q0 94 -56.5 161t-156.5 67
q-96 0 -157.5 -69.5t-61.5 -160.5q0 -93 61 -161t158 -68z" />
    <glyph glyph-name="q" unicode="q" horiz-adv-x="1376" 
d="M1253 -492h-389v592h-4q-49 -60 -130 -94.5t-169 -34.5q-114 0 -208 46.5t-154 124.5t-92.5 177.5t-32.5 208.5q0 144 56 267t168.5 201.5t260.5 78.5q97 0 181 -40t139 -105h6v117h368v-1539zM659 297q98 0 160 68t62 161q0 91 -62.5 160.5t-159.5 69.5
q-99 0 -157 -67.5t-58 -160.5q0 -96 57.5 -163.5t157.5 -67.5z" />
    <glyph glyph-name="r" unicode="r" horiz-adv-x="851" 
d="M514 0h-393v770v277h379v-138h4q38 75 109.5 120.5t162.5 45.5q57 0 78 -8l-23 -340q-46 12 -92 12q-56 0 -100.5 -20t-71 -52t-40 -68.5t-13.5 -72.5v-526z" />
    <glyph glyph-name="s" unicode="s" horiz-adv-x="1001" 
d="M487 -37q-133 0 -259 41.5t-212 116.5l207 227q47 -48 113.5 -78t134.5 -30q40 0 69 16t29 51q0 38 -40.5 58t-149.5 45q-299 72 -299 309q0 93 41.5 165t108.5 113t142 61.5t152 20.5q121 0 236 -36.5t198 -104.5l-198 -221q-101 84 -211 84q-47 0 -78 -17t-31 -51
q0 -32 32.5 -47.5t135.5 -38.5q332 -72 332 -321q0 -78 -27.5 -141t-72.5 -103.5t-105 -68t-122 -39t-126 -11.5z" />
    <glyph glyph-name="t" unicode="t" horiz-adv-x="802" 
d="M551 -27q-203 0 -296 95t-93 276v416h-160v287h158v256h383v-256h237v-287h-237v-350q0 -74 30 -107t97 -33q54 0 92 15l4 -279q-97 -33 -215 -33z" />
    <glyph glyph-name="u" unicode="u" horiz-adv-x="1298" 
d="M485 -29q-83 0 -149 25t-107.5 66.5t-69.5 98.5t-39 116.5t-11 125.5v644h395v-564q0 -90 30 -138t101 -48q69 0 109 53t40 135v562h394v-852v-195h-381v131h-4q-39 -67 -123 -113.5t-185 -46.5z" />
    <glyph glyph-name="v" unicode="v" horiz-adv-x="1222" 
d="M823 0h-426l-405 1047h434l190 -631h7l188 631h420z" />
    <glyph glyph-name="w" unicode="w" horiz-adv-x="1871" 
d="M748 0h-394l-358 1047h422l160 -611h6l164 611h387l172 -611h6l157 611h406l-363 -1047h-393l-186 604h-4z" />
    <glyph glyph-name="x" unicode="x" horiz-adv-x="1286" 
d="M438 0h-448l411 545l-376 502h450l176 -254l176 254h439l-375 -502l405 -545h-456l-197 287z" />
    <glyph glyph-name="y" unicode="y" horiz-adv-x="1222" 
d="M283 -492q-105 0 -220 27l46 328q67 -23 118 -23q73 0 110.5 31.5t61.5 95.5l23 60l-430 1020h436l199 -621h8l176 621h420l-453 -1164q-36 -93 -76.5 -159t-98.5 -116.5t-137.5 -75t-182.5 -24.5z" />
    <glyph glyph-name="z" unicode="z" horiz-adv-x="1087" 
d="M1018 0h-948v291l446 461h-432v295h915v-275l-469 -475h488v-297z" />
    <glyph glyph-name="braceleft" unicode="{" horiz-adv-x="716" 
d="M614 -319h-180q-138 0 -214.5 90t-76.5 233v311q0 84 -36.5 116t-98.5 32v254q62 0 98.5 31t36.5 112v316q0 143 76.5 233t214.5 90h180v-242h-86q-98 0 -98 -122v-316q0 -57 -19 -101.5t-49 -69.5t-59 -39t-57 -17v-4q28 -3 57 -16t59 -38t49 -71.5t19 -106.5v-311
q0 -123 98 -123h86v-241z" />
    <glyph glyph-name="bar" unicode="|" horiz-adv-x="518" 
d="M412 -512h-303v2060h303v-2060z" />
    <glyph glyph-name="braceright" unicode="}" horiz-adv-x="716" 
d="M283 -319h-181v241h86q97 0 97 123v311q0 60 19 106.5t49 71.5t59 38t57 16v4q-28 3 -57 17t-59 39t-49 69.5t-19 101.5v316q0 122 -97 122h-86v242h181q137 0 213.5 -90t76.5 -233v-316q0 -81 36.5 -112t99.5 -31v-254q-63 0 -99.5 -32t-36.5 -116v-311
q0 -143 -76.5 -233t-213.5 -90z" />
    <glyph glyph-name="asciitilde" unicode="~" horiz-adv-x="1363" 
d="M926 371q-65 0 -118.5 18t-119.5 60q-69 42 -114.5 57.5t-92.5 15.5q-54 0 -103 -36.5t-83 -102.5l-143 240q58 103 140 155.5t173 52.5q70 0 123 -17t123 -60q78 -44 119.5 -61t78.5 -17q90 0 176 143l142 -239q-127 -209 -301 -209z" />
    <glyph glyph-name="uni00A0" unicode="&#xa0;" horiz-adv-x="512" 
 />
    <glyph glyph-name="exclamdown" unicode="&#xa1;" horiz-adv-x="808" 
d="M403 653q-92 0 -156.5 63.5t-64.5 151.5q0 92 65 154.5t156 62.5q93 0 158.5 -63.5t65.5 -153.5q0 -89 -66 -152t-158 -63zM606 -391h-405v946h405v-946z" />
    <glyph glyph-name="cent" unicode="&#xa2;" horiz-adv-x="1370" 
d="M862 -152h-190v129q-221 29 -351.5 176t-130.5 369q0 223 132 369.5t350 179.5v131h190v-125q205 -18 316 -121l-207 -278q-30 35 -77 54.5t-95 19.5q-90 0 -155.5 -61t-65.5 -165t64.5 -165.5t158.5 -61.5q109 0 172 72l207 -273q-111 -105 -318 -127v-123z" />
    <glyph glyph-name="sterling" unicode="&#xa3;" horiz-adv-x="1370" 
d="M1262 0h-1108v334h192v264h-192v276h192v97q0 73 20 144.5t64 139.5t107 119.5t156.5 83t205.5 31.5q272 0 434 -152l-229 -260q-30 33 -76 52.5t-96 19.5q-55 0 -94.5 -18t-60 -49.5t-29.5 -65.5t-9 -74v-68h310v-276h-310v-264h523v-334z" />
    <glyph glyph-name="currency" unicode="&#xa4;" horiz-adv-x="1370" 
d="M430 160l-176 -178l-180 180l174 174q-68 112 -68 266q0 146 64 256l-168 168l178 176l170 -168q127 70 264 70q140 0 262 -66l164 164l180 -176l-164 -164q68 -107 68 -260q0 -72 -19 -145t-53 -127l168 -166l-178 -182l-172 174q-110 -64 -256 -64q-134 0 -258 68z
M688 375q95 0 154 65.5t59 161.5q0 92 -59.5 157.5t-153.5 65.5t-154.5 -65.5t-60.5 -157.5q0 -96 60 -161.5t155 -65.5z" />
    <glyph glyph-name="yen" unicode="&#xa5;" horiz-adv-x="1370" 
d="M874 0h-372v285h-369v243h369v117h-369v244h238l-353 561h437l241 -496l238 496h426l-348 -561h233v-244h-371v-117h371v-243h-371v-285z" />
    <glyph glyph-name="brokenbar" unicode="&#xa6;" horiz-adv-x="518" 
d="M412 641h-303v778h303v-778zM412 -385h-303v778h303v-778z" />
    <glyph glyph-name="section" unicode="&#xa7;" horiz-adv-x="1280" 
d="M606 -309q-162 0 -314.5 68t-234.5 190l279 215q49 -77 129 -115.5t156 -38.5q45 0 81.5 22t36.5 58q0 48 -45.5 75.5t-179.5 72.5l-31 8q-94 31 -156 59.5t-116 70t-79.5 98.5t-25.5 132q0 176 164 273q-98 79 -98 229q0 78 31.5 143.5t82.5 108t117 72t133.5 42.5
t133.5 13q171 0 302.5 -60.5t201.5 -173.5l-281 -198q-33 54 -90 86.5t-113 32.5q-49 0 -85 -20.5t-36 -57.5q0 -40 44.5 -67.5t162.5 -65.5l31 -11q91 -31 155 -63t118 -77t81 -105t27 -136q0 -79 -39 -145.5t-107 -106.5q99 -69 99 -219q0 -87 -33 -158.5t-86.5 -117
t-124.5 -76.5t-143.5 -44t-147.5 -13zM612 522l181 -67q23 10 36 32.5t13 49.5q0 48 -40 77.5t-118 59.5l-172 67q-28 -11 -45.5 -34t-17.5 -54q0 -25 10 -44t36 -35t43.5 -23.5t60.5 -23.5q9 -3 13 -5z" />
    <glyph glyph-name="dieresis" unicode="&#xa8;" horiz-adv-x="665" 
d="M98 1184q-77 0 -131.5 52.5t-54.5 127.5q0 74 55 128t131 54q75 0 130 -53.5t55 -128.5t-55 -127.5t-130 -52.5zM571 1184q-77 0 -130.5 52.5t-53.5 127.5q0 74 54 128t130 54q74 0 129.5 -54t55.5 -128t-55.5 -127t-129.5 -53z" />
    <glyph glyph-name="copyright" unicode="&#xa9;" horiz-adv-x="1638" 
d="M821 -45q-159 0 -303 60.5t-248.5 162.5t-166.5 244.5t-62 300.5t62 301.5t166.5 246.5t248.5 163.5t303 60.5q158 0 301.5 -60.5t247.5 -163.5t165.5 -246.5t61.5 -301.5t-61.5 -300.5t-165.5 -244.5t-247.5 -162.5t-301.5 -60.5zM815 70q177 0 329 87.5t241.5 238
t89.5 327.5q0 178 -88 329.5t-238.5 239.5t-327.5 88q-133 0 -255 -52t-210 -140t-140 -210t-52 -255t51 -253.5t138 -208t208 -139.5t254 -52zM860 244q-138 0 -249 54.5t-178.5 164.5t-67.5 258q0 143 67.5 253t179.5 167t248 57q104 0 198 -39.5t150 -109.5l-176 -152
q-29 37 -76 57.5t-100 20.5q-102 0 -161.5 -75t-59.5 -177t62 -177t171 -75q114 0 172 70l166 -166q-62 -62 -153 -96.5t-193 -34.5z" />
    <glyph glyph-name="ordfeminine" unicode="&#xaa;" horiz-adv-x="792" 
d="M307 868q-55 0 -102.5 17.5t-82 60.5t-34.5 105q0 198 373 198h4v6q0 31 -24.5 47.5t-65.5 16.5q-78 0 -137 -55l-123 118q53 49 127.5 75t154.5 26q84 0 143.5 -21.5t91 -61.5t45 -87t13.5 -107v-239v-84h-217v51h-2q-21 -32 -66 -49t-98 -17zM373 1014q47 0 74.5 26
t27.5 66v22h-20q-152 0 -152 -65q0 -24 21.5 -36.5t48.5 -12.5z" />
    <glyph glyph-name="guillemotleft" unicode="&#xab;" horiz-adv-x="1142" 
d="M614 195l-227 -146l-342 488l342 489l225 -145l-235 -344zM1081 195l-227 -146l-344 488l344 489l225 -145l-235 -344z" />
    <glyph glyph-name="logicalnot" unicode="&#xac;" horiz-adv-x="1363" 
d="M1241 295h-291v364h-858v271h1149v-635z" />
    <glyph glyph-name="uni00AD" unicode="&#xad;" horiz-adv-x="675" 
d="M608 406h-538v301h538v-301z" />
    <glyph glyph-name="registered" unicode="&#xae;" horiz-adv-x="1228" 
d="M616 547q-127 0 -235 61t-171 167t-63 233q0 193 137.5 329t331.5 136q192 0 328.5 -136t136.5 -329q0 -127 -62.5 -233t-169.5 -167t-233 -61zM616 614q162 0 277 116t115 278q0 163 -114.5 278t-277.5 115q-164 0 -279.5 -115t-115.5 -278q0 -162 115.5 -278
t279.5 -116zM571 748h-180v544h234q47 0 88.5 -8.5t78.5 -27.5t58.5 -55t21.5 -85q0 -112 -98 -151l125 -217h-205l-90 192h-33v-192zM571 1151v-84h54q25 0 41 13.5t16 33.5q0 17 -17 27t-40 10h-54z" />
    <glyph glyph-name="macron" unicode="&#xaf;" horiz-adv-x="665" 
d="M688 1239h-711v184h711v-184z" />
    <glyph glyph-name="degree" unicode="&#xb0;" horiz-adv-x="872" 
d="M436 786q-150 0 -252 102t-102 251q0 151 101.5 251.5t252.5 100.5t253 -101t102 -251q0 -149 -102 -251t-253 -102zM436 952q78 0 133.5 54.5t55.5 132.5t-55.5 133t-133.5 55t-133 -55t-55 -133t55 -132.5t133 -54.5z" />
    <glyph glyph-name="plusminus" unicode="&#xb1;" horiz-adv-x="1363" 
d="M838 418h-297v262h-441v281h441v262h297v-262h440v-281h-440v-262zM1278 63h-1178v281h1178v-281z" />
    <glyph glyph-name="two.sups" unicode="&#xb2;" horiz-adv-x="886" 
d="M801 907h-690v209l358 311q51 44 51 97q0 32 -21.5 51.5t-60.5 19.5q-42 0 -69.5 -31.5t-30.5 -84.5l-254 30q14 151 120.5 235.5t250.5 84.5q67 0 127 -16.5t110 -50t79.5 -89.5t29.5 -129q0 -49 -12.5 -90.5t-39 -76t-51 -58t-63.5 -55.5l-160 -131h326v-226z" />
    <glyph glyph-name="three.sups" unicode="&#xb3;" horiz-adv-x="886" 
d="M459 887q-137 0 -241.5 65t-139.5 197l241 61q11 -43 43 -72.5t80 -29.5q41 0 71 20.5t30 61.5q0 48 -39.5 66t-108.5 18h-76v188h84q121 0 121 82q0 30 -23 50t-61 20q-34 0 -62.5 -25.5t-35.5 -66.5l-240 55q23 84 81.5 142.5t129.5 84t150 25.5q85 0 156 -25
t120 -83.5t49 -143.5q0 -139 -116 -197v-4q66 -23 100.5 -76.5t34.5 -125.5q0 -73 -30.5 -130t-81 -90t-110.5 -50t-126 -17z" />
    <glyph glyph-name="acute" unicode="&#xb4;" horiz-adv-x="665" 
d="M438 1182h-293l220 295h378z" />
    <glyph glyph-name="uni00B5" unicode="&#xb5;" horiz-adv-x="1445" 
d="M1378 287l4 -283q-85 -29 -198 -29q-200 0 -256 156q-31 -61 -93 -110.5t-145 -49.5q-97 0 -143 49h-4v-487h-402v1514h402v-558q0 -89 29 -140.5t104 -51.5q74 0 112.5 58.5t38.5 138.5v553h402v-672q0 -56 21 -77.5t67 -21.5q24 0 61 11z" />
    <glyph glyph-name="paragraph" unicode="&#xb6;" horiz-adv-x="1290" 
d="M748 -268h-271v950q-202 8 -320 108.5t-118 268.5q0 391 514 391h610v-1718h-270v1478h-145v-1478z" />
    <glyph glyph-name="periodcentered" unicode="&#xb7;" horiz-adv-x="665" 
d="M336 367q-98 0 -167 65.5t-69 161.5q0 94 69.5 161.5t166.5 67.5q94 0 161.5 -67t67.5 -162t-67.5 -161t-161.5 -66z" />
    <glyph glyph-name="cedilla" unicode="&#xb8;" horiz-adv-x="665" 
d="M297 -492q-62 0 -133 14t-123 36l61 139q73 -37 174 -37q95 0 95 57q0 50 -88 50q-43 0 -84 -13l-74 64l143 182h199l-98 -117q12 2 34 2q40 0 74 -7.5t66.5 -25.5t51.5 -53.5t19 -85.5q0 -58 -30 -100t-79.5 -63.5t-101 -31.5t-106.5 -10z" />
    <glyph glyph-name="one.sups" unicode="&#xb9;" horiz-adv-x="886" 
d="M653 907h-268v611l-152 -113l-133 190l310 213h243v-901z" />
    <glyph glyph-name="ordmasculine" unicode="&#xba;" horiz-adv-x="792" 
d="M395 866q-134 0 -227.5 86.5t-93.5 225.5q0 138 93 222.5t228 84.5q138 0 232 -84t94 -223t-94.5 -225.5t-231.5 -86.5zM397 1061q51 0 81 34t30 83q0 47 -31 80.5t-82 33.5q-49 0 -78.5 -33t-29.5 -81q0 -49 29.5 -83t80.5 -34z" />
    <glyph glyph-name="guillemotright" unicode="&#xbb;" horiz-adv-x="1142" 
d="M635 537l-342 -488l-227 146l235 342l-235 344l227 145zM1100 537l-340 -488l-228 146l236 342l-238 344l230 145z" />
    <glyph glyph-name="onequarter" unicode="&#xbc;" horiz-adv-x="1976" 
d="M514 20l760 1493l188 -88l-760 -1484zM653 549h-268v610l-154 -112l-131 190l308 213h245v-901zM1759 0h-243v166h-422v215l352 520h313v-522h119v-213h-119v-166zM1516 635l-170 -256h172v256h-2z" />
    <glyph glyph-name="onehalf" unicode="&#xbd;" horiz-adv-x="1976" 
d="M1274 1513l188 -88l-760 -1484l-188 79zM653 549h-268v610l-154 -112l-131 190l308 213h245v-901zM1901 0h-691v209l359 313q51 42 51 94q0 33 -21.5 53.5t-58.5 20.5q-43 0 -71 -32.5t-31 -86.5l-254 31q10 103 64.5 177t133.5 108.5t172 34.5q67 0 127 -16.5t110.5 -49
t80 -89t29.5 -128.5q0 -49 -12.5 -90.5t-39 -76.5t-51 -58.5t-63.5 -55.5l-160 -131h326v-227z" />
    <glyph glyph-name="threequarters" unicode="&#xbe;" horiz-adv-x="1976" 
d="M702 -59l-188 82l760 1493l188 -89zM459 530q-137 0 -241.5 65.5t-139.5 199.5l241 61q11 -44 43 -73t80 -29q42 0 71.5 19.5t29.5 60.5q0 48 -39.5 66t-108.5 18h-76v188h84q121 0 121 84q0 30 -23 48.5t-61 18.5q-35 0 -63 -25t-35 -67l-240 58q23 84 81.5 142.5
t129.5 84t150 25.5q62 0 118.5 -15t103.5 -44.5t75 -79.5t28 -113q0 -138 -114 -197v-4q64 -23 98.5 -77.5t34.5 -125.5q0 -73 -30.5 -130.5t-81 -91t-111 -50.5t-125.5 -17zM1757 0h-244v166h-421v215l354 520h311v-522h121v-213h-121v-166zM1513 635l-170 -256h173v256h-3
z" />
    <glyph glyph-name="questiondown" unicode="&#xbf;" horiz-adv-x="1153" 
d="M551 653q-91 0 -157 63t-66 152q0 91 65.5 154t157.5 63q93 0 158 -62.5t65 -154.5q0 -88 -65 -151.5t-158 -63.5zM539 -430q-76 0 -148 14.5t-138.5 47t-116 80t-79.5 118.5t-30 158q0 128 59.5 211t187.5 170q55 39 75 71t20 80v53h368v-75q0 -104 -42 -171t-136 -143
l-55 -47q-39 -32 -58.5 -59.5t-19.5 -61.5q0 -56 34 -87t91 -31q73 0 113.5 52.5t40.5 127.5l374 -45q-12 -117 -60 -207.5t-121.5 -145.5t-164 -82.5t-194.5 -27.5z" />
    <glyph glyph-name="Agrave" unicode="&#xc0;" horiz-adv-x="1533" 
d="M733 1860l219 -295h-293l-307 295h381zM563 1450h414l586 -1450h-447l-98 254h-518l-92 -254h-439zM764 1016l-158 -443h312z" />
    <glyph glyph-name="Aacute" unicode="&#xc1;" horiz-adv-x="1533" 
d="M807 1860h381l-305 -295h-295zM563 1450h414l586 -1450h-447l-98 254h-518l-92 -254h-439zM764 1016l-158 -443h312z" />
    <glyph glyph-name="Acircumflex" unicode="&#xc2;" horiz-adv-x="1533" 
d="M907 1565l-137 155l-139 -155h-283l264 295h322l260 -295h-287zM563 1450h414l586 -1450h-447l-98 254h-518l-92 -254h-439zM764 1016l-158 -443h312z" />
    <glyph glyph-name="Atilde" unicode="&#xc3;" horiz-adv-x="1533" 
d="M625 1655q-63 0 -82 -80h-154q11 119 69.5 195.5t162.5 76.5q79 0 167 -45q87 -43 134 -43q33 0 51 21.5t28 62.5h152q-10 -122 -68.5 -199t-162.5 -77q-83 0 -168 45q-77 43 -129 43zM563 1450h414l586 -1450h-447l-98 254h-518l-92 -254h-439zM764 1016l-158 -443h312z
" />
    <glyph glyph-name="Adieresis" unicode="&#xc4;" horiz-adv-x="1533" 
d="M535 1567q-77 0 -131 52.5t-54 127.5q0 74 54.5 128t130.5 54q75 0 129.5 -53.5t54.5 -128.5t-54.5 -127.5t-129.5 -52.5zM1008 1567q-77 0 -132 52.5t-55 127.5q0 74 55.5 128t131.5 54q75 0 129.5 -53.5t54.5 -128.5t-54.5 -127.5t-129.5 -52.5zM563 1450h414
l586 -1450h-447l-98 254h-518l-92 -254h-439zM764 1016l-158 -443h312z" />
    <glyph glyph-name="Aring" unicode="&#xc5;" horiz-adv-x="1533" 
d="M770 1530q-95 0 -161 63.5t-66 159.5t66 160.5t161 64.5t162 -64.5t67 -160.5q0 -95 -67 -159t-162 -64zM770 1874q-51 0 -86 -35t-35 -86t35 -85t86 -34t87 34t36 85t-36 86t-87 35zM563 1450h414l586 -1450h-447l-98 254h-518l-92 -254h-439zM764 1016l-158 -443h312z
" />
    <glyph glyph-name="AE" unicode="&#xc6;" horiz-adv-x="2099" 
d="M461 0h-465l797 1450h1194v-342h-572v-211h539v-322h-539v-231h608v-344h-989v272h-428zM1018 1108l-268 -516h284v516h-16z" />
    <glyph glyph-name="Ccedilla" unicode="&#xc7;" horiz-adv-x="1425" 
d="M791 -492q-62 0 -133 14t-123 36l61 139q73 -37 174 -37q92 0 92 57q0 50 -86 50q-43 0 -84 -13l-74 64l119 151q-190 25 -339 125.5t-234.5 265t-85.5 367.5q0 227 105 402t283 267.5t398 92.5q161 0 310 -54.5t243 -152.5l-264 -289q-43 60 -115.5 91.5t-154.5 31.5
q-158 0 -261.5 -109t-103.5 -280q0 -173 103 -281t260 -108q90 0 162.5 37t115.5 98l266 -283q-184 -206 -497 -227l-68 -80q14 2 37 2q39 0 73 -8t66 -25.5t51 -53t19 -85.5q0 -58 -30 -100t-79.5 -63.5t-100.5 -31.5t-105 -10z" />
    <glyph glyph-name="Egrave" unicode="&#xc8;" horiz-adv-x="1239" 
d="M854 1565h-293l-307 295h381zM1163 0h-1020v1450h985v-342h-596v-211h562v-322h-562v-231h631v-344z" />
    <glyph glyph-name="Eacute" unicode="&#xc9;" horiz-adv-x="1239" 
d="M735 1565h-293l220 295h378zM1163 0h-1020v1450h985v-342h-596v-211h562v-322h-562v-231h631v-344z" />
    <glyph glyph-name="Ecircumflex" unicode="&#xca;" horiz-adv-x="1239" 
d="M502 1565h-283l266 295h320l260 -295h-287l-137 155zM1163 0h-1020v1450h985v-342h-596v-211h562v-322h-562v-231h631v-344z" />
    <glyph glyph-name="Edieresis" unicode="&#xcb;" horiz-adv-x="1239" 
d="M408 1567q-78 0 -132.5 52.5t-54.5 127.5q0 74 55 128t132 54q74 0 128 -53.5t54 -128.5q0 -74 -54 -127t-128 -53zM879 1567q-75 0 -130 52.5t-55 127.5q0 74 55 128t130 54t130.5 -53.5t55.5 -128.5q0 -74 -55 -127t-131 -53zM1163 0h-1020v1450h985v-342h-596v-211
h562v-322h-562v-231h631v-344z" />
    <glyph glyph-name="Igrave" unicode="&#xcc;" horiz-adv-x="698" 
d="M553 1565h-293l-305 295h381zM553 0h-410v1450h410v-1450z" />
    <glyph glyph-name="Iacute" unicode="&#xcd;" horiz-adv-x="698" 
d="M436 1565h-293l219 295h381zM553 0h-410v1450h410v-1450z" />
    <glyph glyph-name="Icircumflex" unicode="&#xce;" horiz-adv-x="698" 
d="M209 1565h-283l264 295h322l260 -295h-287l-137 155zM553 0h-410v1450h410v-1450z" />
    <glyph glyph-name="Idieresis" unicode="&#xcf;" horiz-adv-x="698" 
d="M115 1567q-77 0 -131 52.5t-54 127.5q0 74 54.5 128t130.5 54q75 0 129.5 -53.5t54.5 -128.5t-54.5 -127.5t-129.5 -52.5zM588 1567q-77 0 -131 52.5t-54 127.5q0 74 54.5 128t130.5 54q75 0 129.5 -53.5t54.5 -128.5t-54.5 -127.5t-129.5 -52.5zM553 0h-410v1450h410
v-1450z" />
    <glyph glyph-name="Eth" unicode="&#xd0;" horiz-adv-x="1597" 
d="M713 0h-568v612h-118v250h118v588h551q134 0 251 -23t223.5 -77t182.5 -135.5t120.5 -205t44.5 -278.5q0 -147 -45.5 -269.5t-122.5 -207t-180.5 -142.5t-218.5 -85t-238 -27zM541 612v-258h125q205 0 321.5 92.5t116.5 286.5q0 178 -111.5 272.5t-300.5 94.5h-151v-238
h323v-250h-323z" />
    <glyph glyph-name="Ntilde" unicode="&#xd1;" horiz-adv-x="1617" 
d="M590 1575h-154q11 119 69.5 195.5t162.5 76.5q80 0 168 -45q87 -43 133 -43q33 0 51.5 21.5t28.5 62.5h151q-10 -122 -68.5 -199t-162.5 -77q-83 0 -168 45q-77 43 -129 43q-63 0 -82 -80zM535 0h-392v1450h437l510 -858h8l-15 858h392v-1450h-439l-508 842h-6z" />
    <glyph glyph-name="Ograve" unicode="&#xd2;" horiz-adv-x="1746" 
d="M1090 1565h-293l-305 295h378zM872 -39q-226 0 -406.5 95.5t-284 272t-103.5 402.5q0 171 60 314t166 240t252 150.5t316 53.5q228 0 408.5 -91.5t284.5 -265t104 -401.5q0 -170 -60.5 -314.5t-166.5 -244t-253 -155.5t-317 -56zM872 334q158 0 260.5 112t102.5 285
q0 170 -102.5 279.5t-260.5 109.5q-159 0 -259.5 -109t-100.5 -280q0 -174 101 -285.5t259 -111.5z" />
    <glyph glyph-name="Oacute" unicode="&#xd3;" horiz-adv-x="1746" 
d="M967 1565h-295l219 295h381zM872 -39q-226 0 -406.5 95.5t-284 272t-103.5 402.5q0 171 60 314t166 240t252 150.5t316 53.5q228 0 408.5 -91.5t284.5 -265t104 -401.5q0 -170 -60.5 -314.5t-166.5 -244t-253 -155.5t-317 -56zM872 334q158 0 260.5 112t102.5 285
q0 170 -102.5 279.5t-260.5 109.5q-159 0 -259.5 -109t-100.5 -280q0 -174 101 -285.5t259 -111.5z" />
    <glyph glyph-name="Ocircumflex" unicode="&#xd4;" horiz-adv-x="1746" 
d="M733 1565h-282l264 295h321l260 -295h-286l-140 155zM872 -39q-226 0 -406.5 95.5t-284 272t-103.5 402.5q0 171 60 314t166 240t252 150.5t316 53.5q228 0 408.5 -91.5t284.5 -265t104 -401.5q0 -170 -60.5 -314.5t-166.5 -244t-253 -155.5t-317 -56zM872 334
q158 0 260.5 112t102.5 285q0 170 -102.5 279.5t-260.5 109.5q-159 0 -259.5 -109t-100.5 -280q0 -174 101 -285.5t259 -111.5z" />
    <glyph glyph-name="Otilde" unicode="&#xd5;" horiz-adv-x="1746" 
d="M647 1575h-153q11 120 69 196t162 76q80 0 168 -45q87 -43 133 -43q33 0 51.5 21.5t28.5 62.5h151q-10 -122 -68.5 -199t-162.5 -77q-83 0 -168 45q-77 43 -129 43q-63 0 -82 -80zM872 -39q-226 0 -406.5 95.5t-284 272t-103.5 402.5q0 171 60 314t166 240t252 150.5
t316 53.5q228 0 408.5 -91.5t284.5 -265t104 -401.5q0 -170 -60.5 -314.5t-166.5 -244t-253 -155.5t-317 -56zM872 334q158 0 260.5 112t102.5 285q0 170 -102.5 279.5t-260.5 109.5q-159 0 -259.5 -109t-100.5 -280q0 -174 101 -285.5t259 -111.5z" />
    <glyph glyph-name="Odieresis" unicode="&#xd6;" horiz-adv-x="1746" 
d="M639 1567q-78 0 -132 52.5t-54 127.5q0 74 54.5 128t131.5 54q75 0 128.5 -53.5t53.5 -128.5t-53.5 -127.5t-128.5 -52.5zM1110 1567q-75 0 -129.5 52.5t-54.5 127.5q0 74 54.5 128t129.5 54t130.5 -53.5t55.5 -128.5q0 -74 -55 -127t-131 -53zM872 -39
q-226 0 -406.5 95.5t-284 272t-103.5 402.5q0 171 60 314t166 240t252 150.5t316 53.5q228 0 408.5 -91.5t284.5 -265t104 -401.5q0 -170 -60.5 -314.5t-166.5 -244t-253 -155.5t-317 -56zM872 334q158 0 260.5 112t102.5 285q0 170 -102.5 279.5t-260.5 109.5
q-159 0 -259.5 -109t-100.5 -280q0 -174 101 -285.5t259 -111.5z" />
    <glyph glyph-name="multiply" unicode="&#xd7;" horiz-adv-x="1363" 
d="M682 416l-354 -346l-207 194l354 352l-358 347l211 204l356 -346l350 344l205 -192l-350 -348l360 -349l-209 -206z" />
    <glyph glyph-name="Oslash" unicode="&#xd8;" horiz-adv-x="1746" 
d="M416 94l-187 -198l-159 137l184 200q-86 93 -131 221.5t-45 276.5q0 171 60 314t166 240t252 150.5t316 53.5q249 0 443 -115l180 203l160 -139l-178 -193q192 -201 192 -514q0 -226 -104.5 -402t-286 -271.5t-408.5 -96.5q-276 0 -454 133zM535 530l518 566
q-68 41 -181 41q-119 0 -207.5 -56.5t-132 -148.5t-43.5 -205q0 -121 46 -197zM868 319q176 0 279.5 117.5t103.5 292.5q0 132 -53 211l-520 -569q77 -52 190 -52z" />
    <glyph glyph-name="Ugrave" unicode="&#xd9;" horiz-adv-x="1542" 
d="M987 1565h-293l-305 295h379zM768 -39q-302 0 -471.5 164.5t-169.5 431.5v893h405v-854q0 -119 60.5 -193.5t179.5 -74.5q120 0 180 74t60 194v854h405v-893q0 -266 -173.5 -431t-475.5 -165z" />
    <glyph glyph-name="Uacute" unicode="&#xda;" horiz-adv-x="1542" 
d="M858 1565h-293l219 295h379zM768 -39q-302 0 -471.5 164.5t-169.5 431.5v893h405v-854q0 -119 60.5 -193.5t179.5 -74.5q120 0 180 74t60 194v854h405v-893q0 -266 -173.5 -431t-475.5 -165z" />
    <glyph glyph-name="Ucircumflex" unicode="&#xdb;" horiz-adv-x="1542" 
d="M633 1565h-283l266 295h322l260 -295h-287l-139 155zM768 -39q-302 0 -471.5 164.5t-169.5 431.5v893h405v-854q0 -119 60.5 -193.5t179.5 -74.5q120 0 180 74t60 194v854h405v-893q0 -266 -173.5 -431t-475.5 -165z" />
    <glyph glyph-name="Udieresis" unicode="&#xdc;" horiz-adv-x="1542" 
d="M539 1567q-77 0 -131 52.5t-54 127.5q0 74 54.5 128t130.5 54q75 0 129.5 -53.5t54.5 -128.5t-54.5 -127.5t-129.5 -52.5zM1012 1567q-77 0 -132 52.5t-55 127.5q0 74 55.5 128t131.5 54q75 0 129.5 -53.5t54.5 -128.5t-54.5 -127.5t-129.5 -52.5zM768 -39
q-302 0 -471.5 164.5t-169.5 431.5v893h405v-854q0 -119 60.5 -193.5t179.5 -74.5q120 0 180 74t60 194v854h405v-893q0 -266 -173.5 -431t-475.5 -165z" />
    <glyph glyph-name="Yacute" unicode="&#xdd;" horiz-adv-x="1429" 
d="M788 1860h381l-305 -295h-295zM723 961l272 489h478l-564 -844v-606h-407v606l-547 844h494z" />
    <glyph glyph-name="Thorn" unicode="&#xde;" horiz-adv-x="1347" 
d="M551 0h-408v1450h408v-231h162q96 0 179 -14t158 -48t127.5 -86.5t83.5 -132.5t31 -182q0 -101 -32 -182t-86 -134.5t-129 -89.5t-158.5 -51.5t-177.5 -15.5h-158v-283zM551 897v-297h127q59 0 103.5 13.5t75 49t30.5 91.5q0 43 -16.5 73t-47.5 44.5t-64.5 20t-76.5 5.5
h-131z" />
    <glyph glyph-name="germandbls" unicode="&#xdf;" horiz-adv-x="1417" 
d="M807 -29q-92 0 -207 27v311q64 -22 135 -22q97 0 155 45.5t58 142.5q0 103 -70 154t-182 51h-53v299h53q26 0 51 6.5t51 21t42 45t16 72.5q0 62 -41 102t-110 40q-99 0 -145 -69.5t-46 -172.5v-1024h-393v1020q0 124 37 225t110 174.5t188.5 113.5t264.5 40
q145 0 263.5 -46t193.5 -142t75 -226q0 -115 -58 -196.5t-148 -112.5v-2q134 -30 215 -133.5t81 -259.5q0 -230 -146.5 -357t-389.5 -127z" />
    <glyph glyph-name="agrave" unicode="&#xe0;" horiz-adv-x="1179" 
d="M807 1182h-293l-307 295h381zM434 -27q-52 0 -102 10.5t-100 35.5t-87.5 62t-60.5 94.5t-23 129.5q0 350 639 350h5v13q0 62 -43 93.5t-115 31.5q-65 0 -129.5 -28t-112.5 -71l-199 203q92 88 219 135t261 47q137 0 232.5 -36t151.5 -107.5t80.5 -168.5t24.5 -230v-385
v-152h-356v98h-6q-37 -59 -114.5 -92t-164.5 -33zM539 223q86 0 135 51t49 136v34h-35q-60 0 -106 -5t-87.5 -18t-64 -39t-22.5 -63q0 -48 40.5 -72t90.5 -24z" />
    <glyph glyph-name="aacute" unicode="&#xe1;" horiz-adv-x="1179" 
d="M680 1182h-293l219 295h381zM434 -27q-52 0 -102 10.5t-100 35.5t-87.5 62t-60.5 94.5t-23 129.5q0 350 639 350h5v13q0 62 -43 93.5t-115 31.5q-65 0 -129.5 -28t-112.5 -71l-199 203q92 88 219 135t261 47q137 0 232.5 -36t151.5 -107.5t80.5 -168.5t24.5 -230v-385
v-152h-356v98h-6q-37 -59 -114.5 -92t-164.5 -33zM539 223q86 0 135 51t49 136v34h-35q-60 0 -106 -5t-87.5 -18t-64 -39t-22.5 -63q0 -48 40.5 -72t90.5 -24z" />
    <glyph glyph-name="acircumflex" unicode="&#xe2;" horiz-adv-x="1179" 
d="M457 1182h-283l266 295h320l260 -295h-287l-137 155zM434 -27q-52 0 -102 10.5t-100 35.5t-87.5 62t-60.5 94.5t-23 129.5q0 350 639 350h5v13q0 62 -43 93.5t-115 31.5q-65 0 -129.5 -28t-112.5 -71l-199 203q92 88 219 135t261 47q137 0 232.5 -36t151.5 -107.5
t80.5 -168.5t24.5 -230v-385v-152h-356v98h-6q-37 -59 -114.5 -92t-164.5 -33zM539 223q86 0 135 51t49 136v34h-35q-60 0 -106 -5t-87.5 -18t-64 -39t-22.5 -63q0 -48 40.5 -72t90.5 -24z" />
    <glyph glyph-name="atilde" unicode="&#xe3;" horiz-adv-x="1179" 
d="M373 1192h-154q11 119 70 195.5t162 76.5q79 0 167 -45q90 -43 134 -43q63 0 79 84h154q-11 -122 -69.5 -199t-163.5 -77q-73 0 -168 45q-82 43 -129 43q-60 0 -82 -80zM434 -27q-52 0 -102 10.5t-100 35.5t-87.5 62t-60.5 94.5t-23 129.5q0 350 639 350h5v13
q0 62 -43 93.5t-115 31.5q-65 0 -129.5 -28t-112.5 -71l-199 203q92 88 219 135t261 47q137 0 232.5 -36t151.5 -107.5t80.5 -168.5t24.5 -230v-385v-152h-356v98h-6q-37 -59 -114.5 -92t-164.5 -33zM539 223q86 0 135 51t49 136v34h-35q-60 0 -106 -5t-87.5 -18t-64 -39
t-22.5 -63q0 -48 40.5 -72t90.5 -24z" />
    <glyph glyph-name="adieresis" unicode="&#xe4;" horiz-adv-x="1179" 
d="M360 1184q-75 0 -129.5 52.5t-54.5 127.5q0 74 54.5 128t129.5 54t131 -53.5t56 -128.5q0 -74 -55.5 -127t-131.5 -53zM836 1184q-78 0 -132.5 52.5t-54.5 127.5q0 74 55 128t132 54q74 0 128 -53.5t54 -128.5q0 -74 -54 -127t-128 -53zM434 -27q-52 0 -102 10.5
t-100 35.5t-87.5 62t-60.5 94.5t-23 129.5q0 350 639 350h5v13q0 62 -43 93.5t-115 31.5q-65 0 -129.5 -28t-112.5 -71l-199 203q92 88 219 135t261 47q137 0 232.5 -36t151.5 -107.5t80.5 -168.5t24.5 -230v-385v-152h-356v98h-6q-37 -59 -114.5 -92t-164.5 -33zM539 223
q86 0 135 51t49 136v34h-35q-60 0 -106 -5t-87.5 -18t-64 -39t-22.5 -63q0 -48 40.5 -72t90.5 -24z" />
    <glyph glyph-name="aring" unicode="&#xe5;" horiz-adv-x="1179" 
d="M600 1147q-95 0 -162 64t-67 159q0 96 66.5 160.5t162.5 64.5q95 0 161 -64.5t66 -160.5t-66 -159.5t-161 -63.5zM600 1251q51 0 86 34t35 85t-35 86t-86 35q-52 0 -87.5 -35t-35.5 -86t36 -85t87 -34zM434 -27q-52 0 -102 10.5t-100 35.5t-87.5 62t-60.5 94.5t-23 129.5
q0 350 639 350h5v13q0 62 -43 93.5t-115 31.5q-65 0 -129.5 -28t-112.5 -71l-199 203q92 88 219 135t261 47q137 0 232.5 -36t151.5 -107.5t80.5 -168.5t24.5 -230v-385v-152h-356v98h-6q-37 -59 -114.5 -92t-164.5 -33zM539 223q86 0 135 51t49 136v34h-35q-60 0 -106 -5
t-87.5 -18t-64 -39t-22.5 -63q0 -48 40.5 -72t90.5 -24z" />
    <glyph glyph-name="ae" unicode="&#xe6;" horiz-adv-x="1855" 
d="M465 -27q-72 0 -140.5 18.5t-129 55.5t-97.5 104t-37 154q0 70 25 125.5t72 92t105 62t133 38.5t146.5 18.5t155.5 5.5h7v10q0 68 -41.5 102t-116.5 34q-64 0 -129.5 -28t-112.5 -71l-196 203q91 88 217 135t260 47q118 0 200.5 -39t126.5 -100q58 63 146 101t192 38
q238 0 386.5 -155.5t148.5 -413.5q0 -38 -4 -88h-731q7 -72 71 -118t146 -46q137 0 205 94l274 -157q-72 -109 -198 -170.5t-289 -61.5q-115 0 -217 47.5t-162 130.5q-120 -168 -416 -168zM1047 649h389q0 73 -49 120.5t-134 47.5q-86 0 -143 -50t-63 -118zM539 225
q85 0 134.5 47.5t49.5 124.5v35h-37q-136 0 -205 -24.5t-69 -88.5q0 -47 38.5 -70.5t88.5 -23.5z" />
    <glyph glyph-name="ccedilla" unicode="&#xe7;" horiz-adv-x="1050" 
d="M580 -492q-62 0 -133 14t-123 36l61 139q73 -37 174 -37q92 0 92 57q0 50 -86 50q-43 0 -84 -13l-73 64l124 159q-206 38 -332 182.5t-126 362.5q0 166 79.5 294t214.5 195.5t302 67.5q110 0 217.5 -35.5t167.5 -91.5l-211 -274q-27 33 -73 53.5t-91 20.5
q-90 0 -151.5 -65.5t-61.5 -164.5t61 -162t154 -63q48 0 93.5 18t72.5 50l209 -271q-59 -53 -148.5 -87.5t-189.5 -41.5l-70 -82q14 2 37 2q39 0 73 -8t66 -25.5t51 -53t19 -85.5q0 -58 -30 -100t-79.5 -63.5t-100.5 -31.5t-105 -10z" />
    <glyph glyph-name="egrave" unicode="&#xe8;" horiz-adv-x="1249" 
d="M854 1182h-293l-305 295h379zM655 -37q-117 0 -221.5 37t-185 106t-127.5 176t-47 238q0 167 77 295.5t206 196t288 67.5q239 0 387 -155.5t148 -413.5q0 -63 -2 -88h-734q6 -70 72 -117t148 -47q132 0 204 94l277 -157q-73 -109 -200 -170.5t-290 -61.5zM442 649h387
q0 73 -47.5 120.5t-132.5 47.5q-86 0 -143.5 -50t-63.5 -118z" />
    <glyph glyph-name="eacute" unicode="&#xe9;" horiz-adv-x="1249" 
d="M727 1182h-293l219 295h381zM655 -37q-117 0 -221.5 37t-185 106t-127.5 176t-47 238q0 167 77 295.5t206 196t288 67.5q239 0 387 -155.5t148 -413.5q0 -63 -2 -88h-734q6 -70 72 -117t148 -47q132 0 204 94l277 -157q-73 -109 -200 -170.5t-290 -61.5zM442 649h387
q0 73 -47.5 120.5t-132.5 47.5q-86 0 -143.5 -50t-63.5 -118z" />
    <glyph glyph-name="ecircumflex" unicode="&#xea;" horiz-adv-x="1249" 
d="M518 1182h-282l266 295h321l260 -295h-286l-140 155zM655 -37q-117 0 -221.5 37t-185 106t-127.5 176t-47 238q0 167 77 295.5t206 196t288 67.5q239 0 387 -155.5t148 -413.5q0 -63 -2 -88h-734q6 -70 72 -117t148 -47q132 0 204 94l277 -157q-73 -109 -200 -170.5
t-290 -61.5zM442 649h387q0 73 -47.5 120.5t-132.5 47.5q-86 0 -143.5 -50t-63.5 -118z" />
    <glyph glyph-name="edieresis" unicode="&#xeb;" horiz-adv-x="1249" 
d="M420 1184q-77 0 -132 52.5t-55 127.5q0 74 55.5 128t131.5 54q75 0 129.5 -53.5t54.5 -128.5t-54.5 -127.5t-129.5 -52.5zM893 1184q-77 0 -130.5 52.5t-53.5 127.5q0 74 54 128t130 54q75 0 129.5 -53.5t54.5 -128.5t-54.5 -127.5t-129.5 -52.5zM655 -37
q-117 0 -221.5 37t-185 106t-127.5 176t-47 238q0 167 77 295.5t206 196t288 67.5q239 0 387 -155.5t148 -413.5q0 -63 -2 -88h-734q6 -70 72 -117t148 -47q132 0 204 94l277 -157q-73 -109 -200 -170.5t-290 -61.5zM442 649h387q0 73 -47.5 120.5t-132.5 47.5
q-86 0 -143.5 -50t-63.5 -118z" />
    <glyph glyph-name="igrave" unicode="&#xec;" horiz-adv-x="643" 
d="M514 1182h-293l-305 295h379zM518 0h-393v1047h393v-1047z" />
    <glyph glyph-name="iacute" unicode="&#xed;" horiz-adv-x="643" 
d="M426 1182h-293l219 295h379zM518 0h-393v1047h393v-1047z" />
    <glyph glyph-name="icircumflex" unicode="&#xee;" horiz-adv-x="643" 
d="M188 1182h-282l264 295h322l260 -295h-287l-139 155zM518 0h-393v1047h393v-1047z" />
    <glyph glyph-name="idieresis" unicode="&#xef;" horiz-adv-x="643" 
d="M90 1184q-77 0 -131.5 52.5t-54.5 127.5q0 74 55 128t131 54q75 0 129.5 -53.5t54.5 -128.5t-54.5 -127.5t-129.5 -52.5zM563 1184q-77 0 -130.5 52.5t-53.5 127.5q0 74 54 128t130 54q75 0 130 -53.5t55 -128.5t-55 -127.5t-130 -52.5zM518 0h-393v1047h393v-1047z" />
    <glyph glyph-name="eth" unicode="&#xf0;" horiz-adv-x="1320" 
d="M659 -37q-119 0 -225 39t-186 109.5t-127 177.5t-47 235q0 124 43.5 226.5t118.5 171t176 106t217 37.5q72 0 129 -33l4 2q-91 118 -164 178l-221 -94l-189 160l222 92q-45 45 -150 113l303 166q44 -33 174 -144l232 97l207 -164l-254 -105q156 -166 240.5 -347
t84.5 -396q0 -148 -45 -267.5t-124 -197.5t-186 -120t-233 -42zM662 297q96 0 155.5 67t59.5 160q0 91 -60.5 159.5t-157.5 68.5t-156 -68.5t-59 -159.5q0 -93 60 -160t158 -67z" />
    <glyph glyph-name="ntilde" unicode="&#xf1;" horiz-adv-x="1304" 
d="M428 1192h-154q10 119 69 195.5t163 76.5q80 0 168 -45q87 -43 133 -43q33 0 51.5 21.5t28.5 62.5h151q-10 -122 -68.5 -199t-162.5 -77q-73 0 -168 45q-82 43 -129 43q-63 0 -82 -80zM516 0h-395v807v240h383v-132h4q39 68 122 114t183 46q103 0 179.5 -37.5t118.5 -101
t61.5 -136t19.5 -155.5v-645h-395v567q0 187 -131 187q-69 0 -109.5 -53.5t-40.5 -135.5v-565z" />
    <glyph glyph-name="ograve" unicode="&#xf2;" horiz-adv-x="1320" 
d="M852 1182h-293l-307 295h381zM659 -37q-118 0 -224 39.5t-186.5 110.5t-127.5 178t-47 235q0 169 81 296.5t213 192t291 64.5t291.5 -64.5t214.5 -192.5t82 -296q0 -170 -82 -300t-214.5 -196.5t-291.5 -66.5zM662 297q96 0 154 67.5t58 161.5q0 91 -59.5 158.5
t-155.5 67.5q-97 0 -155 -67.5t-58 -158.5q0 -94 59.5 -161.5t156.5 -67.5z" />
    <glyph glyph-name="oacute" unicode="&#xf3;" horiz-adv-x="1320" 
d="M760 1182h-293l217 295h381zM659 -37q-118 0 -224 39.5t-186.5 110.5t-127.5 178t-47 235q0 169 81 296.5t213 192t291 64.5t291.5 -64.5t214.5 -192.5t82 -296q0 -170 -82 -300t-214.5 -196.5t-291.5 -66.5zM662 297q96 0 154 67.5t58 161.5q0 91 -59.5 158.5
t-155.5 67.5q-97 0 -155 -67.5t-58 -158.5q0 -94 59.5 -161.5t156.5 -67.5z" />
    <glyph glyph-name="ocircumflex" unicode="&#xf4;" horiz-adv-x="1320" 
d="M526 1186h-282l266 295h321l261 -295h-287l-139 155zM659 -37q-118 0 -224 39.5t-186.5 110.5t-127.5 178t-47 235q0 169 81 296.5t213 192t291 64.5t291.5 -64.5t214.5 -192.5t82 -296q0 -170 -82 -300t-214.5 -196.5t-291.5 -66.5zM662 297q96 0 154 67.5t58 161.5
q0 91 -59.5 158.5t-155.5 67.5q-97 0 -155 -67.5t-58 -158.5q0 -94 59.5 -161.5t156.5 -67.5z" />
    <glyph glyph-name="otilde" unicode="&#xf5;" horiz-adv-x="1320" 
d="M434 1192h-153q11 120 69 196t162 76q80 0 168 -45q87 -43 133 -43q33 0 51.5 21.5t28.5 62.5h151q-10 -122 -68.5 -199t-162.5 -77q-73 0 -168 45q-82 43 -129 43q-63 0 -82 -80zM659 -37q-118 0 -224 39.5t-186.5 110.5t-127.5 178t-47 235q0 169 81 296.5t213 192
t291 64.5t291.5 -64.5t214.5 -192.5t82 -296q0 -170 -82 -300t-214.5 -196.5t-291.5 -66.5zM662 297q96 0 154 67.5t58 161.5q0 91 -59.5 158.5t-155.5 67.5q-97 0 -155 -67.5t-58 -158.5q0 -94 59.5 -161.5t156.5 -67.5z" />
    <glyph glyph-name="odieresis" unicode="&#xf6;" horiz-adv-x="1320" 
d="M424 1184q-77 0 -131.5 52.5t-54.5 127.5q0 74 55 128t131 54q75 0 129.5 -53.5t54.5 -128.5t-54.5 -127.5t-129.5 -52.5zM897 1184q-77 0 -130.5 52.5t-53.5 127.5q0 74 54 128t130 54q75 0 129.5 -53.5t54.5 -128.5t-54.5 -127.5t-129.5 -52.5zM659 -37
q-118 0 -224 39.5t-186.5 110.5t-127.5 178t-47 235q0 169 81 296.5t213 192t291 64.5t291.5 -64.5t214.5 -192.5t82 -296q0 -170 -82 -300t-214.5 -196.5t-291.5 -66.5zM662 297q96 0 154 67.5t58 161.5q0 91 -59.5 158.5t-155.5 67.5q-97 0 -155 -67.5t-58 -158.5
q0 -94 59.5 -161.5t156.5 -67.5z" />
    <glyph glyph-name="divide" unicode="&#xf7;" horiz-adv-x="1363" 
d="M682 823q-76 0 -132 54.5t-56 130.5q0 73 56 125.5t132 52.5q77 0 131.5 -52.5t54.5 -125.5q0 -76 -54.5 -130.5t-131.5 -54.5zM1200 483h-1038v277h1038v-277zM682 51q-75 0 -131.5 55t-56.5 130q0 73 56 125.5t132 52.5q77 0 131.5 -52.5t54.5 -125.5q0 -75 -55 -130
t-131 -55z" />
    <glyph glyph-name="oslash" unicode="&#xf8;" horiz-adv-x="1320" 
d="M340 57l-160 -157l-143 141l151 149q-54 61 -84 148t-30 186q0 166 79.5 294t212 195.5t293.5 67.5q195 0 326 -96l148 148l147 -142l-143 -139q110 -128 110 -328q0 -165 -80 -294t-213.5 -198t-294.5 -69q-191 0 -319 94zM449 455l290 293q-40 24 -88 24
q-100 0 -160.5 -68t-60.5 -165q0 -50 19 -84zM664 287q101 0 159 66.5t58 164.5q0 50 -19 86l-291 -291q29 -26 93 -26z" />
    <glyph glyph-name="ugrave" unicode="&#xf9;" horiz-adv-x="1298" 
d="M856 1182h-293l-305 295h381zM485 -29q-83 0 -149 25t-107.5 66.5t-69.5 98.5t-39 116.5t-11 125.5v644h395v-564q0 -90 30 -138t101 -48q69 0 109 53t40 135v562h394v-852v-195h-381v131h-4q-39 -67 -123 -113.5t-185 -46.5z" />
    <glyph glyph-name="uacute" unicode="&#xfa;" horiz-adv-x="1298" 
d="M754 1182h-295l219 295h381zM485 -29q-83 0 -149 25t-107.5 66.5t-69.5 98.5t-39 116.5t-11 125.5v644h395v-564q0 -90 30 -138t101 -48q69 0 109 53t40 135v562h394v-852v-195h-381v131h-4q-39 -67 -123 -113.5t-185 -46.5z" />
    <glyph glyph-name="ucircumflex" unicode="&#xfb;" horiz-adv-x="1298" 
d="M508 1182h-283l264 295h322l260 -295h-287l-139 155zM485 -29q-83 0 -149 25t-107.5 66.5t-69.5 98.5t-39 116.5t-11 125.5v644h395v-564q0 -90 30 -138t101 -48q69 0 109 53t40 135v562h394v-852v-195h-381v131h-4q-39 -67 -123 -113.5t-185 -46.5z" />
    <glyph glyph-name="udieresis" unicode="&#xfc;" horiz-adv-x="1298" 
d="M412 1184q-77 0 -132 52.5t-55 127.5q0 74 55.5 128t131.5 54q74 0 129 -54t55 -128t-55 -127t-129 -53zM885 1184q-77 0 -132 52.5t-55 127.5q0 74 55.5 128t131.5 54q74 0 129 -54t55 -128t-55 -127t-129 -53zM485 -29q-83 0 -149 25t-107.5 66.5t-69.5 98.5t-39 116.5
t-11 125.5v644h395v-564q0 -90 30 -138t101 -48q69 0 109 53t40 135v562h394v-852v-195h-381v131h-4q-39 -67 -123 -113.5t-185 -46.5z" />
    <glyph glyph-name="yacute" unicode="&#xfd;" horiz-adv-x="1222" 
d="M758 1182h-295l219 295h381zM283 -492q-105 0 -220 27l46 328q67 -23 118 -23q73 0 110.5 31.5t61.5 95.5l23 60l-430 1020h436l199 -621h8l176 621h420l-453 -1164q-36 -93 -76.5 -159t-98.5 -116.5t-137.5 -75t-182.5 -24.5z" />
    <glyph glyph-name="thorn" unicode="&#xfe;" horiz-adv-x="1380" 
d="M514 -492h-389v2040h389v-602h6q47 56 125.5 91.5t173.5 35.5q112 0 205 -46t153.5 -122.5t94 -174.5t33.5 -204q0 -108 -32.5 -207t-92.5 -177t-154.5 -124.5t-208.5 -46.5q-89 0 -171.5 35.5t-127.5 95.5h-4v-594zM719 297q100 0 157.5 66.5t57.5 162.5q0 92 -58 159
t-157 67q-97 0 -159 -68.5t-62 -159.5q0 -93 61.5 -160t159.5 -67z" />
    <glyph glyph-name="ydieresis" unicode="&#xff;" horiz-adv-x="1222" 
d="M393 1184q-77 0 -131.5 52.5t-54.5 127.5q0 74 55 128t131 54q75 0 130 -53.5t55 -128.5t-55 -127.5t-130 -52.5zM866 1184q-77 0 -130.5 52.5t-53.5 127.5q0 74 54 128t130 54q75 0 130 -53.5t55 -128.5t-55 -127.5t-130 -52.5zM283 -492q-105 0 -220 27l46 328
q67 -23 118 -23q73 0 110.5 31.5t61.5 95.5l23 60l-430 1020h436l199 -621h8l176 621h420l-453 -1164q-36 -93 -76.5 -159t-98.5 -116.5t-137.5 -75t-182.5 -24.5z" />
    <glyph glyph-name="Amacron" unicode="&#x100;" horiz-adv-x="1533" 
d="M410 1806h708v-184h-708v184zM563 1450h414l586 -1450h-447l-98 254h-518l-92 -254h-439zM764 1016l-158 -443h312z" />
    <glyph glyph-name="amacron" unicode="&#x101;" horiz-adv-x="1179" 
d="M954 1239h-708v184h708v-184zM434 -27q-52 0 -102 10.5t-100 35.5t-87.5 62t-60.5 94.5t-23 129.5q0 350 639 350h5v13q0 62 -43 93.5t-115 31.5q-65 0 -129.5 -28t-112.5 -71l-199 203q92 88 219 135t261 47q137 0 232.5 -36t151.5 -107.5t80.5 -168.5t24.5 -230v-385
v-152h-356v98h-6q-37 -59 -114.5 -92t-164.5 -33zM539 223q86 0 135 51t49 136v34h-35q-60 0 -106 -5t-87.5 -18t-64 -39t-22.5 -63q0 -48 40.5 -72t90.5 -24z" />
    <glyph glyph-name="Abreve" unicode="&#x102;" horiz-adv-x="1533" 
d="M762 1565q-72 0 -132.5 15.5t-111 48.5t-81.5 92t-36 139h195q12 -99 166 -99q44 0 76 6.5t58.5 29.5t33.5 63h194q-7 -80 -37.5 -139t-81 -92t-110.5 -48.5t-133 -15.5zM563 1450h414l586 -1450h-447l-98 254h-518l-92 -254h-439zM764 1016l-158 -443h312z" />
    <glyph glyph-name="abreve" unicode="&#x103;" horiz-adv-x="1179" 
d="M600 1182q-71 0 -131 15.5t-110.5 48.5t-81.5 92t-37 139h194q17 -99 168 -99q44 0 76 6.5t58.5 29.5t33.5 63h193q-6 -80 -37 -139t-81.5 -92t-111 -48.5t-133.5 -15.5zM434 -27q-52 0 -102 10.5t-100 35.5t-87.5 62t-60.5 94.5t-23 129.5q0 350 639 350h5v13
q0 62 -43 93.5t-115 31.5q-65 0 -129.5 -28t-112.5 -71l-199 203q92 88 219 135t261 47q137 0 232.5 -36t151.5 -107.5t80.5 -168.5t24.5 -230v-385v-152h-356v98h-6q-37 -59 -114.5 -92t-164.5 -33zM539 223q86 0 135 51t49 136v34h-35q-60 0 -106 -5t-87.5 -18t-64 -39
t-22.5 -63q0 -48 40.5 -72t90.5 -24z" />
    <glyph glyph-name="Aogonek" unicode="&#x104;" horiz-adv-x="1533" 
d="M1219 -291q53 0 112 41l78 -149q-125 -84 -260 -84q-60 0 -112.5 16.5t-92 61t-39.5 110.5q0 142 228 295h-17l-98 254h-518l-92 -254h-439l594 1450h414l586 -1450h-197q-114 -86 -161.5 -138t-47.5 -95q0 -27 17 -42.5t45 -15.5zM764 1016l-158 -443h312z" />
    <glyph glyph-name="aogonek" unicode="&#x105;" horiz-adv-x="1179" 
d="M1047 -250l77 -149q-125 -84 -260 -84q-44 0 -84.5 10t-77.5 31t-59 59t-22 88q0 45 20 88t56 81t71 67t80 59h-129v98h-6q-37 -59 -114.5 -92t-164.5 -33q-52 0 -102 10.5t-100 35.5t-87.5 62t-60.5 94.5t-23 129.5q0 350 639 350h5v13q0 62 -43 93.5t-115 31.5
q-65 0 -129.5 -28t-112.5 -71l-199 203q92 88 219 135t261 47q137 0 232.5 -36t151.5 -107.5t80.5 -168.5t24.5 -230v-385v-152h6q-114 -86 -161.5 -138t-47.5 -95q0 -27 17 -42.5t45 -15.5q54 0 113 41zM723 410v34h-35q-60 0 -106 -5t-87.5 -18t-64 -39t-22.5 -63
q0 -48 40.5 -72t90.5 -24q86 0 135 51t49 136z" />
    <glyph glyph-name="Cacute" unicode="&#x106;" horiz-adv-x="1425" 
d="M954 1565h-292l219 295h381zM860 -39q-164 0 -308.5 56t-248.5 155t-164.5 243t-60.5 312q0 227 105 402t283 267.5t398 92.5q161 0 310 -54.5t243 -152.5l-264 -289q-43 60 -115.5 91.5t-154.5 31.5q-158 0 -261.5 -109t-103.5 -280q0 -173 103 -281t260 -108
q90 0 162.5 37t115.5 98l266 -283q-98 -109 -242 -169t-323 -60z" />
    <glyph glyph-name="cacute" unicode="&#x107;" horiz-adv-x="1050" 
d="M770 1182h-293l219 295h379zM670 -37q-127 0 -236.5 39.5t-189 110.5t-125 176.5t-45.5 232.5q0 166 79.5 294t214.5 195.5t302 67.5q110 0 217.5 -35.5t167.5 -91.5l-211 -274q-27 33 -73 53.5t-91 20.5q-90 0 -151.5 -65.5t-61.5 -164.5t61 -162t154 -63q48 0 93.5 18
t72.5 50l209 -271q-65 -59 -169.5 -95t-217.5 -36z" />
    <glyph glyph-name="Ccircumflex" unicode="&#x108;" horiz-adv-x="1425" 
d="M741 1565h-282l264 295h321l261 -295h-287l-139 155zM860 -39q-164 0 -308.5 56t-248.5 155t-164.5 243t-60.5 312q0 227 105 402t283 267.5t398 92.5q161 0 310 -54.5t243 -152.5l-264 -289q-43 60 -115.5 91.5t-154.5 31.5q-158 0 -261.5 -109t-103.5 -280
q0 -173 103 -281t260 -108q90 0 162.5 37t115.5 98l266 -283q-98 -109 -242 -169t-323 -60z" />
    <glyph glyph-name="ccircumflex" unicode="&#x109;" horiz-adv-x="1050" 
d="M530 1182h-282l266 295h320l260 -295h-287l-137 155zM670 -37q-127 0 -236.5 39.5t-189 110.5t-125 176.5t-45.5 232.5q0 166 79.5 294t214.5 195.5t302 67.5q110 0 217.5 -35.5t167.5 -91.5l-211 -274q-27 33 -73 53.5t-91 20.5q-90 0 -151.5 -65.5t-61.5 -164.5
t61 -162t154 -63q48 0 93.5 18t72.5 50l209 -271q-65 -59 -169.5 -95t-217.5 -36z" />
    <glyph glyph-name="Cdotaccent" unicode="&#x10a;" horiz-adv-x="1425" 
d="M874 1554q-84 0 -142 56.5t-58 136.5q0 79 58 135.5t142 56.5q80 0 138.5 -56.5t58.5 -135.5q0 -81 -58.5 -137t-138.5 -56zM860 -39q-164 0 -308.5 56t-248.5 155t-164.5 243t-60.5 312q0 227 105 402t283 267.5t398 92.5q161 0 310 -54.5t243 -152.5l-264 -289
q-43 60 -115.5 91.5t-154.5 31.5q-158 0 -261.5 -109t-103.5 -280q0 -173 103 -281t260 -108q90 0 162.5 37t115.5 98l266 -283q-98 -109 -242 -169t-323 -60z" />
    <glyph glyph-name="cdotaccent" unicode="&#x10b;" horiz-adv-x="1050" 
d="M674 1171q-83 0 -142 56.5t-59 136.5q0 78 59 135t142 57t140.5 -56t57.5 -136q0 -82 -57.5 -137.5t-140.5 -55.5zM670 -37q-127 0 -236.5 39.5t-189 110.5t-125 176.5t-45.5 232.5q0 166 79.5 294t214.5 195.5t302 67.5q110 0 217.5 -35.5t167.5 -91.5l-211 -274
q-27 33 -73 53.5t-91 20.5q-90 0 -151.5 -65.5t-61.5 -164.5t61 -162t154 -63q48 0 93.5 18t72.5 50l209 -271q-65 -59 -169.5 -95t-217.5 -36z" />
    <glyph glyph-name="Ccaron" unicode="&#x10c;" horiz-adv-x="1425" 
d="M1042 1565h-319l-266 295h286l138 -156l139 156h285zM860 -39q-164 0 -308.5 56t-248.5 155t-164.5 243t-60.5 312q0 227 105 402t283 267.5t398 92.5q161 0 310 -54.5t243 -152.5l-264 -289q-43 60 -115.5 91.5t-154.5 31.5q-158 0 -261.5 -109t-103.5 -280
q0 -173 103 -281t260 -108q90 0 162.5 37t115.5 98l266 -283q-98 -109 -242 -169t-323 -60z" />
    <glyph glyph-name="ccaron" unicode="&#x10d;" horiz-adv-x="1050" 
d="M831 1182h-321l-264 295h284l140 -156l137 156h285zM670 -37q-127 0 -236.5 39.5t-189 110.5t-125 176.5t-45.5 232.5q0 166 79.5 294t214.5 195.5t302 67.5q110 0 217.5 -35.5t167.5 -91.5l-211 -274q-27 33 -73 53.5t-91 20.5q-90 0 -151.5 -65.5t-61.5 -164.5t61 -162
t154 -63q48 0 93.5 18t72.5 50l209 -271q-65 -59 -169.5 -95t-217.5 -36z" />
    <glyph glyph-name="Dcaron" unicode="&#x10e;" horiz-adv-x="1597" 
d="M897 1565h-319l-267 295h285l139 -156l137 156h285zM700 0h-557v1450h531q96 0 183.5 -10.5t173 -35.5t158 -63t134.5 -95.5t105 -130.5t67.5 -171t24.5 -213q0 -148 -45.5 -271t-123.5 -207t-183.5 -142t-223 -84.5t-244.5 -26.5zM539 1104v-754h135q93 0 168.5 20.5
t135 64.5t92 119.5t32.5 178.5q0 97 -33 170t-91 116t-131.5 64t-160.5 21h-147z" />
    <glyph glyph-name="dcaron" unicode="&#x10f;" horiz-adv-x="1697" 
d="M561 -29q-114 0 -207.5 46.5t-154 124.5t-93 177t-32.5 207q0 143 56 266t168.5 202t260.5 79q94 0 173 -36t126 -93h4v604h391v-1548h-356v125h-4q-47 -71 -138 -112.5t-194 -41.5zM1593 1067h-290l133 383h336zM659 297q98 0 160 67t62 160q0 90 -62.5 159t-159.5 69
q-99 0 -157 -67t-58 -159q0 -96 57.5 -162.5t157.5 -66.5z" />
    <glyph glyph-name="Dcroat" unicode="&#x110;" horiz-adv-x="1597" 
d="M713 0h-568v612h-118v250h118v588h551q134 0 251 -23t223.5 -77t182.5 -135.5t120.5 -205t44.5 -278.5q0 -147 -45.5 -269.5t-122.5 -207t-180.5 -142.5t-218.5 -85t-238 -27zM541 612v-258h125q205 0 321.5 92.5t116.5 286.5q0 178 -111.5 272.5t-300.5 94.5h-151v-238
h323v-250h-323z" />
    <glyph glyph-name="dcroat" unicode="&#x111;" horiz-adv-x="1378" 
d="M561 -29q-114 0 -207.5 46.5t-154 124.5t-93 177t-32.5 207q0 143 56 266t168.5 202t260.5 79q94 0 173 -36t126 -93h4v223h-278v201h278v180h391v-180h84v-201h-84v-1167h-356v125h-4q-47 -71 -138 -112.5t-194 -41.5zM659 297q98 0 160 67t62 160q0 90 -62.5 159
t-159.5 69q-99 0 -157 -67t-58 -159q0 -96 57.5 -162.5t157.5 -66.5z" />
    <glyph glyph-name="Emacron" unicode="&#x112;" horiz-adv-x="1239" 
d="M985 1622h-709v184h709v-184zM1163 0h-1020v1450h985v-342h-596v-211h562v-322h-562v-231h631v-344z" />
    <glyph glyph-name="emacron" unicode="&#x113;" horiz-adv-x="1249" 
d="M1010 1239h-709v184h709v-184zM655 -37q-117 0 -221.5 37t-185 106t-127.5 176t-47 238q0 167 77 295.5t206 196t288 67.5q239 0 387 -155.5t148 -413.5q0 -63 -2 -88h-734q6 -70 72 -117t148 -47q132 0 204 94l277 -157q-73 -109 -200 -170.5t-290 -61.5zM442 649h387
q0 73 -47.5 120.5t-132.5 47.5q-86 0 -143.5 -50t-63.5 -118z" />
    <glyph glyph-name="Ebreve" unicode="&#x114;" horiz-adv-x="1239" 
d="M637 1565q-72 0 -132.5 15.5t-111 48.5t-81.5 92t-36 139h195q12 -99 166 -99q44 0 76 6.5t58.5 29.5t33.5 63h194q-7 -80 -37.5 -139t-81 -92t-110.5 -48.5t-133 -15.5zM1163 0h-1020v1450h985v-342h-596v-211h562v-322h-562v-231h631v-344z" />
    <glyph glyph-name="ebreve" unicode="&#x115;" horiz-adv-x="1249" 
d="M653 1182q-72 0 -132 15.5t-110.5 48.5t-81.5 92t-36 139h194q14 -99 168 -99q152 0 166 99h195q-7 -80 -38 -139t-81 -92t-110.5 -48.5t-133.5 -15.5zM655 -37q-117 0 -221.5 37t-185 106t-127.5 176t-47 238q0 167 77 295.5t206 196t288 67.5q239 0 387 -155.5
t148 -413.5q0 -63 -2 -88h-734q6 -70 72 -117t148 -47q132 0 204 94l277 -157q-73 -109 -200 -170.5t-290 -61.5zM442 649h387q0 73 -47.5 120.5t-132.5 47.5q-86 0 -143.5 -50t-63.5 -118z" />
    <glyph glyph-name="Edotaccent" unicode="&#x116;" horiz-adv-x="1239" 
d="M643 1554q-85 0 -143 56.5t-58 136.5q0 79 58 135.5t143 56.5q80 0 138.5 -56.5t58.5 -135.5q0 -81 -58.5 -137t-138.5 -56zM1163 0h-1020v1450h985v-342h-596v-211h562v-322h-562v-231h631v-344z" />
    <glyph glyph-name="edotaccent" unicode="&#x117;" horiz-adv-x="1249" 
d="M655 1171q-84 0 -142 56.5t-58 136.5q0 79 58 135.5t142 56.5q82 0 140.5 -56.5t58.5 -135.5q0 -81 -58.5 -137t-140.5 -56zM655 -37q-117 0 -221.5 37t-185 106t-127.5 176t-47 238q0 167 77 295.5t206 196t288 67.5q239 0 387 -155.5t148 -413.5q0 -63 -2 -88h-734
q6 -70 72 -117t148 -47q132 0 204 94l277 -157q-73 -109 -200 -170.5t-290 -61.5zM442 649h387q0 73 -47.5 120.5t-132.5 47.5q-86 0 -143.5 -50t-63.5 -118z" />
    <glyph glyph-name="Eogonek" unicode="&#x118;" horiz-adv-x="1239" 
d="M918 -487q-44 0 -85 10t-78 31t-59 59.5t-22 89.5q0 141 223 297h-754v1450h985v-342h-596v-211h562v-322h-562v-231h631v-344h-39q-202 -151 -202 -238q0 -28 17 -43.5t46 -15.5q55 0 113 39l76 -143q-119 -86 -256 -86z" />
    <glyph glyph-name="eogonek" unicode="&#x119;" horiz-adv-x="1249" 
d="M641 -487q-44 0 -85 10t-78 31t-59 59.5t-22 89.5q0 125 181 266q-105 11 -195.5 52.5t-160 109.5t-109 168.5t-39.5 220.5q0 167 77 295.5t206 196t288 67.5q239 0 387 -155.5t148 -413.5q0 -63 -2 -88h-734q6 -70 72 -117t148 -47q132 0 204 94l277 -157
q-108 -164 -320 -211q-180 -139 -180 -222q0 -28 17.5 -43.5t46.5 -15.5q54 0 112 39l76 -143q-119 -86 -256 -86zM442 649h387q0 73 -47.5 120.5t-132.5 47.5q-86 0 -143.5 -50t-63.5 -118z" />
    <glyph glyph-name="Ecaron" unicode="&#x11a;" horiz-adv-x="1239" 
d="M801 1565h-320l-266 295h285l139 -156l139 156h283zM1163 0h-1020v1450h985v-342h-596v-211h562v-322h-562v-231h631v-344z" />
    <glyph glyph-name="ecaron" unicode="&#x11b;" horiz-adv-x="1249" 
d="M817 1182h-319l-267 295h287l137 -156l140 156h284zM655 -37q-117 0 -221.5 37t-185 106t-127.5 176t-47 238q0 167 77 295.5t206 196t288 67.5q239 0 387 -155.5t148 -413.5q0 -63 -2 -88h-734q6 -70 72 -117t148 -47q132 0 204 94l277 -157q-73 -109 -200 -170.5
t-290 -61.5zM442 649h387q0 73 -47.5 120.5t-132.5 47.5q-86 0 -143.5 -50t-63.5 -118z" />
    <glyph glyph-name="Gcircumflex" unicode="&#x11c;" horiz-adv-x="1568" 
d="M743 1565h-282l264 295h322l260 -295h-287l-137 155zM877 -37q-229 0 -410.5 94t-285 269t-103.5 401q0 227 105 402t283 267.5t398 92.5q168 0 319.5 -53t243.5 -144l-247 -291q-49 59 -125.5 93t-171.5 34q-160 0 -269.5 -113t-109.5 -288q0 -186 103 -298t294 -112
q104 0 174 31v201h-258v323h627v-778q-109 -59 -258 -95t-309 -36z" />
    <glyph glyph-name="gcircumflex" unicode="&#x11d;" horiz-adv-x="1380" 
d="M551 1182h-283l264 295h322l260 -295h-287l-139 155zM625 -492q-145 0 -293.5 42.5t-253.5 117.5l184 271q73 -61 161 -93t173 -32q128 0 201 68t73 184v55h-6q-45 -56 -125 -91.5t-176 -35.5q-116 0 -210.5 43t-154.5 116.5t-92 169.5t-32 205q0 107 32.5 204.5t93 174
t154 122.5t207.5 46q96 0 182 -38t136 -111h6v121h368v-945q0 -126 -32 -226.5t-88 -168.5t-136 -113.5t-172 -65.5t-200 -20zM659 299q99 0 160.5 67t61.5 164q0 94 -62 160t-160 66t-155.5 -65t-57.5 -161q0 -97 57.5 -164t155.5 -67z" />
    <glyph glyph-name="Gbreve" unicode="&#x11e;" horiz-adv-x="1568" 
d="M879 1565q-57 0 -106.5 9.5t-94.5 31t-78.5 55t-55 84.5t-26.5 115h195q7 -54 55 -76.5t113 -22.5q70 0 114 21t52 78h194q-5 -65 -26.5 -115.5t-54.5 -84t-78 -55t-95 -31t-108 -9.5zM877 -37q-229 0 -410.5 94t-285 269t-103.5 401q0 227 105 402t283 267.5t398 92.5
q168 0 319.5 -53t243.5 -144l-247 -291q-49 59 -125.5 93t-171.5 34q-160 0 -269.5 -113t-109.5 -288q0 -186 103 -298t294 -112q104 0 174 31v201h-258v323h627v-778q-109 -59 -258 -95t-309 -36z" />
    <glyph glyph-name="gbreve" unicode="&#x11f;" horiz-adv-x="1380" 
d="M686 1182q-72 0 -132 15.5t-110.5 48.5t-81.5 92t-36 139h194q14 -99 168 -99q152 0 166 99h195q-7 -80 -38 -139t-81 -92t-110.5 -48.5t-133.5 -15.5zM625 -492q-145 0 -293.5 42.5t-253.5 117.5l184 271q73 -61 161 -93t173 -32q128 0 201 68t73 184v55h-6
q-45 -56 -125 -91.5t-176 -35.5q-116 0 -210.5 43t-154.5 116.5t-92 169.5t-32 205q0 107 32.5 204.5t93 174t154 122.5t207.5 46q96 0 182 -38t136 -111h6v121h368v-945q0 -126 -32 -226.5t-88 -168.5t-136 -113.5t-172 -65.5t-200 -20zM659 299q99 0 160.5 67t61.5 164
q0 94 -62 160t-160 66t-155.5 -65t-57.5 -161q0 -97 57.5 -164t155.5 -67z" />
    <glyph glyph-name="Gdotaccent" unicode="&#x120;" horiz-adv-x="1568" 
d="M874 1554q-85 0 -142.5 56.5t-57.5 136.5q0 79 57.5 135.5t142.5 56.5q80 0 138.5 -56.5t58.5 -135.5q0 -81 -58.5 -137t-138.5 -56zM877 -37q-229 0 -410.5 94t-285 269t-103.5 401q0 227 105 402t283 267.5t398 92.5q168 0 319.5 -53t243.5 -144l-247 -291
q-49 59 -125.5 93t-171.5 34q-160 0 -269.5 -113t-109.5 -288q0 -186 103 -298t294 -112q104 0 174 31v201h-258v323h627v-778q-109 -59 -258 -95t-309 -36z" />
    <glyph glyph-name="gdotaccent" unicode="&#x121;" horiz-adv-x="1380" 
d="M692 1171q-84 0 -142 56.5t-58 136.5q0 79 58 135.5t142 56.5q82 0 140.5 -56.5t58.5 -135.5q0 -81 -58.5 -137t-140.5 -56zM625 -492q-145 0 -293.5 42.5t-253.5 117.5l184 271q73 -61 161 -93t173 -32q128 0 201 68t73 184v55h-6q-45 -56 -125 -91.5t-176 -35.5
q-116 0 -210.5 43t-154.5 116.5t-92 169.5t-32 205q0 107 32.5 204.5t93 174t154 122.5t207.5 46q96 0 182 -38t136 -111h6v121h368v-945q0 -126 -32 -226.5t-88 -168.5t-136 -113.5t-172 -65.5t-200 -20zM659 299q99 0 160.5 67t61.5 164q0 94 -62 160t-160 66t-155.5 -65
t-57.5 -161q0 -97 57.5 -164t155.5 -67z" />
    <glyph glyph-name="uni0122" unicode="&#x122;" horiz-adv-x="1568" 
d="M877 -37q-229 0 -410.5 94t-285 269t-103.5 401q0 227 105 402t283 267.5t398 92.5q168 0 319.5 -53t243.5 -144l-247 -291q-49 59 -125.5 93t-171.5 34q-160 0 -269.5 -113t-109.5 -288q0 -186 103 -298t294 -112q104 0 174 31v201h-258v323h627v-778q-109 -59 -258 -95
t-309 -36zM872 -492h-290l137 400h336z" />
    <glyph glyph-name="uni0123" unicode="&#x123;" horiz-adv-x="1380" 
d="M829 1182h-335l182 399h291zM625 -492q-145 0 -293.5 42.5t-253.5 117.5l184 271q73 -61 161 -93t173 -32q128 0 201 68t73 184v55h-6q-45 -56 -125 -91.5t-176 -35.5q-116 0 -210.5 43t-154.5 116.5t-92 169.5t-32 205q0 107 32.5 204.5t93 174t154 122.5t207.5 46
q96 0 182 -38t136 -111h6v121h368v-945q0 -126 -32 -226.5t-88 -168.5t-136 -113.5t-172 -65.5t-200 -20zM659 299q99 0 160.5 67t61.5 164q0 94 -62 160t-160 66t-155.5 -65t-57.5 -161q0 -97 57.5 -164t155.5 -67z" />
    <glyph glyph-name="Hcircumflex" unicode="&#x124;" horiz-adv-x="1597" 
d="M664 1565h-283l264 295h322l260 -295h-287l-139 155zM551 0h-408v1450h408v-524h493v524h410v-1450h-407v584h-496v-584z" />
    <glyph glyph-name="hcircumflex" unicode="&#x125;" horiz-adv-x="1304" 
d="M522 1630h-282l266 295h319l260 -295h-286l-137 156zM518 0h-393v1548h393v-628h4q38 65 116 109t177 44q103 0 179 -37.5t117.5 -101t61 -137t19.5 -156.5v-641h-393v561q0 187 -131 187q-68 0 -109 -51.5t-41 -137.5v-559z" />
    <glyph glyph-name="Hbar" unicode="&#x126;" horiz-adv-x="1597" 
d="M551 0h-408v1450h408v-209h493v209h410v-1450h-407v584h-496v-584zM551 1040v-114h493v114h-493z" />
    <glyph glyph-name="hbar" unicode="&#x127;" horiz-adv-x="1304" 
d="M518 0h-393v1167h-84v201h84v180h393v-180h277v-201h-277v-247h4q38 65 116 109t177 44q103 0 179 -37.5t117.5 -101t61 -137t19.5 -156.5v-641h-393v561q0 187 -131 187q-68 0 -109 -51.5t-41 -137.5v-559z" />
    <glyph glyph-name="Itilde" unicode="&#x128;" horiz-adv-x="698" 
d="M123 1575h-156q11 119 70 195.5t162 76.5q78 0 170 -45q87 -43 133 -43q33 0 51.5 21.5t28.5 62.5h151q-10 -122 -68.5 -199t-162.5 -77q-83 0 -168 45q-77 43 -129 43q-63 0 -82 -80zM553 0h-410v1450h410v-1450z" />
    <glyph glyph-name="itilde" unicode="&#x129;" horiz-adv-x="643" 
d="M96 1192h-153q11 119 69.5 195.5t161.5 76.5q80 0 168 -45q87 -43 133 -43q64 0 80 84h154q-11 -122 -70 -199t-164 -77q-73 0 -168 45q-82 43 -129 43q-63 0 -82 -80zM518 0h-393v1047h393v-1047z" />
    <glyph glyph-name="Imacron" unicode="&#x12a;" horiz-adv-x="698" 
d="M702 1622h-708v184h708v-184zM553 0h-410v1450h410v-1450z" />
    <glyph glyph-name="imacron" unicode="&#x12b;" horiz-adv-x="643" 
d="M680 1239h-709v184h709v-184zM518 0h-393v1047h393v-1047z" />
    <glyph glyph-name="Ibreve" unicode="&#x12c;" horiz-adv-x="698" 
d="M348 1565q-57 0 -107 9.5t-95 31t-78 55t-54.5 84t-25.5 115.5h194q12 -99 166 -99q44 0 76 6.5t58.5 29.5t33.5 63h195q-7 -80 -38 -139t-81 -92t-110.5 -48.5t-133.5 -15.5zM553 0h-410v1450h410v-1450z" />
    <glyph glyph-name="ibreve" unicode="&#x12d;" horiz-adv-x="643" 
d="M322 1182q-72 0 -132.5 15.5t-111 48.5t-81.5 92t-36 139h195q14 -99 166 -99q69 0 113 21t54 78h195q-7 -80 -37.5 -139t-81 -92t-110.5 -48.5t-133 -15.5zM518 0h-393v1047h393v-1047z" />
    <glyph glyph-name="Iogonek" unicode="&#x12e;" horiz-adv-x="698" 
d="M516 -250l78 -149q-125 -84 -260 -84q-60 0 -112.5 16.5t-92 61t-39.5 110.5q0 45 20 88t56 81t71 67t80 59h-174v1450h410v-1450h-2q-114 -86 -161.5 -138t-47.5 -95q0 -27 16.5 -42.5t44.5 -15.5q54 0 113 41z" />
    <glyph glyph-name="iogonek" unicode="&#x12f;" horiz-adv-x="643" 
d="M324 1157q-91 0 -154.5 60.5t-63.5 146.5q0 84 64 145.5t154 61.5q87 0 150 -60.5t63 -146.5q0 -87 -63 -147t-150 -60zM481 -250l78 -149q-125 -84 -260 -84q-60 0 -112.5 16.5t-92 61t-39.5 110.5q0 142 228 295h-158v1047h393v-1047h-2q-114 -86 -161.5 -138
t-47.5 -95q0 -27 17 -42.5t45 -15.5q53 0 112 41z" />
    <glyph glyph-name="Idotaccent" unicode="&#x130;" horiz-adv-x="698" 
d="M352 1554q-84 0 -142 56.5t-58 136.5q0 79 58 135.5t142 56.5q80 0 138.5 -56.5t58.5 -135.5q0 -81 -58.5 -137t-138.5 -56zM553 0h-410v1450h410v-1450z" />
    <glyph glyph-name="dotlessi" unicode="&#x131;" horiz-adv-x="643" 
d="M518 0h-393v1047h393v-1047z" />
    <glyph glyph-name="IJ" unicode="&#x132;" horiz-adv-x="1800" 
d="M553 0h-410v1450h410v-1450zM1163 -39q-186 0 -321.5 97.5t-177.5 252.5l354 129q11 -49 43 -79.5t78 -30.5q65 0 90.5 45t25.5 129v946h410v-938q0 -80 -12 -151t-46 -146.5t-88 -130t-145.5 -89t-210.5 -34.5z" />
    <glyph glyph-name="ij" unicode="&#x133;" horiz-adv-x="1280" 
d="M324 1157q-91 0 -154.5 60.5t-63.5 146.5q0 84 64 145.5t154 61.5q87 0 150 -60.5t63 -146.5q0 -87 -63 -147t-150 -60zM958 1157q-89 0 -152 60.5t-63 146.5q0 84 63 145.5t152 61.5q88 0 152 -60.5t64 -146.5q0 -87 -63.5 -147t-152.5 -60zM518 0h-393v1047h393v-1047z
M715 -492q-101 0 -166 21l22 324q37 -11 74 -11q62 0 89.5 40t27.5 118v1047h393v-1053q0 -83 -11.5 -151.5t-42 -132.5t-79 -107t-126.5 -69t-181 -26z" />
    <glyph glyph-name="Jcircumflex" unicode="&#x134;" horiz-adv-x="1120" 
d="M639 1565h-283l265 295h321l260 -295h-287l-137 155zM483 -39q-186 0 -321.5 97.5t-177.5 252.5l354 129q11 -49 43 -79.5t78 -30.5q66 0 91 44.5t25 129.5v946h410v-938q0 -80 -12 -151t-46 -146.5t-88 -130t-145.5 -89t-210.5 -34.5z" />
    <glyph glyph-name="jcircumflex" unicode="&#x135;" horiz-adv-x="653" 
d="M190 1182h-282l266 295h322l260 -295h-287l-139 155zM88 -492q-101 0 -168 21l25 324q37 -11 73 -11q62 0 89.5 40t27.5 118v1047h393v-1053q0 -83 -11.5 -151.5t-42 -132.5t-79 -107t-126.5 -69t-181 -26z" />
    <glyph glyph-name="uni0136" unicode="&#x136;" horiz-adv-x="1501" 
d="M543 0h-400v1450h398v-567h6l463 567h495l-592 -666l625 -784h-516l-475 631h-4v-631zM782 -492h-290l137 400h336z" />
    <glyph glyph-name="uni0137" unicode="&#x137;" horiz-adv-x="1282" 
d="M518 0h-395v1548h395v-915h6l295 414h467l-375 -472l383 -575h-471l-299 483h-6v-483zM668 -492h-291l137 400h336z" />
    <glyph glyph-name="kgreenlandic" unicode="&#x138;" horiz-adv-x="1282" 
d="M518 0h-395v1047h395v-414h6l295 414h467l-375 -472l383 -575h-471l-299 483h-6v-483z" />
    <glyph glyph-name="Lacute" unicode="&#x139;" horiz-adv-x="1097" 
d="M489 1565h-292l219 295h381zM1081 0h-938v1450h410v-1098h528v-352z" />
    <glyph glyph-name="lacute" unicode="&#x13a;" horiz-adv-x="647" 
d="M418 1622h-293l219 295h379zM524 0h-399v1548h399v-1548z" />
    <glyph glyph-name="uni013B" unicode="&#x13b;" horiz-adv-x="1097" 
d="M1081 0h-938v1450h410v-1098h528v-352zM604 -492h-291l138 400h335z" />
    <glyph glyph-name="uni013C" unicode="&#x13c;" horiz-adv-x="647" 
d="M524 0h-399v1548h399v-1548zM309 -492h-293l140 400h336z" />
    <glyph glyph-name="Lcaron" unicode="&#x13d;" horiz-adv-x="1097" 
d="M1081 0h-938v1450h410v-1098h528v-352zM903 1067h-291l133 383h336z" />
    <glyph glyph-name="lcaron" unicode="&#x13e;" horiz-adv-x="968" 
d="M524 0h-399v1548h399v-1548zM864 1067h-291l134 383h333z" />
    <glyph glyph-name="Ldot" unicode="&#x13f;" horiz-adv-x="1097" 
d="M1081 0h-938v1450h410v-1098h528v-352zM854 721q-84 0 -142.5 56t-58.5 136q0 79 58.5 136t142.5 57q80 0 138.5 -57t58.5 -136q0 -81 -58 -136.5t-139 -55.5z" />
    <glyph glyph-name="ldot" unicode="&#x140;" horiz-adv-x="991" 
d="M524 0h-399v1548h399v-1548zM795 662q-84 0 -142.5 56t-58.5 136q0 79 58.5 136t142.5 57q82 0 140 -56.5t58 -136.5q0 -81 -58 -136.5t-140 -55.5z" />
    <glyph glyph-name="Lslash" unicode="&#x141;" horiz-adv-x="1097" 
d="M1081 0h-938v332l-123 -107v332l123 107v786h410v-487l375 323v-330l-375 -321v-283h528v-352z" />
    <glyph glyph-name="lslash" unicode="&#x142;" horiz-adv-x="647" 
d="M524 0h-399v508l-105 -100v337l105 101v702h399v-395l105 100v-333l-105 -101v-819z" />
    <glyph glyph-name="Nacute" unicode="&#x143;" horiz-adv-x="1617" 
d="M920 1565h-293l217 295h381zM535 0h-392v1450h437l510 -858h8l-15 858h392v-1450h-439l-508 842h-6z" />
    <glyph glyph-name="nacute" unicode="&#x144;" horiz-adv-x="1304" 
d="M739 1182h-293l220 295h378zM516 0h-395v807v240h383v-132h4q39 68 122 114t183 46q103 0 179.5 -37.5t118.5 -101t61.5 -136t19.5 -155.5v-645h-395v567q0 187 -131 187q-69 0 -109.5 -53.5t-40.5 -135.5v-565z" />
    <glyph glyph-name="uni0145" unicode="&#x145;" horiz-adv-x="1617" 
d="M535 0h-392v1450h437l510 -858h8l-15 858h392v-1450h-439l-508 842h-6zM803 -492h-291l137 400h336z" />
    <glyph glyph-name="uni0146" unicode="&#x146;" horiz-adv-x="1304" 
d="M516 0h-395v807v240h383v-132h4q39 68 122 114t183 46q103 0 179.5 -37.5t118.5 -101t61.5 -136t19.5 -155.5v-645h-395v567q0 187 -131 187q-69 0 -109.5 -53.5t-40.5 -135.5v-565zM643 -492h-291l137 400h336z" />
    <glyph glyph-name="Ncaron" unicode="&#x147;" horiz-adv-x="1617" 
d="M977 1565h-320l-266 295h287l137 -156l139 156h285zM535 0h-392v1450h437l510 -858h8l-15 858h392v-1450h-439l-508 842h-6z" />
    <glyph glyph-name="ncaron" unicode="&#x148;" horiz-adv-x="1304" 
d="M817 1182h-319l-267 295h287l137 -156l140 156h284zM516 0h-395v807v240h383v-132h4q39 68 122 114t183 46q103 0 179.5 -37.5t118.5 -101t61.5 -136t19.5 -155.5v-645h-395v567q0 187 -131 187q-69 0 -109.5 -53.5t-40.5 -135.5v-565z" />
    <glyph glyph-name="napostrophe" unicode="&#x149;" horiz-adv-x="1552" 
d="M285 1075h-291l149 563h334zM764 0h-393v807v240h381v-132h4q39 68 122.5 114t184.5 46q102 0 178 -37.5t118 -101t61.5 -136t19.5 -155.5v-645h-396v567q0 187 -131 187q-69 0 -109 -53.5t-40 -135.5v-565z" />
    <glyph glyph-name="Eng" unicode="&#x14a;" horiz-adv-x="1617" 
d="M1098 633l-15 817h392v-1466q0 -476 -439 -476q-101 0 -168 21l25 324q34 -11 72 -11q60 0 86.5 34.5t31.5 107.5l-555 858h-6l13 -842h-392v1450h437l510 -817h8z" />
    <glyph glyph-name="eng" unicode="&#x14b;" horiz-adv-x="1304" 
d="M752 -492q-102 0 -166 21l22 324q37 -11 74 -11q62 0 88.5 39t26.5 113v573q0 187 -131 187q-69 0 -109.5 -53.5t-40.5 -135.5v-565h-395v838v209h383v-132h4q39 68 122 114t183 46q103 0 179.5 -37.5t118.5 -101t61.5 -136t19.5 -155.5v-661q0 -476 -440 -476z" />
    <glyph glyph-name="Omacron" unicode="&#x14c;" horiz-adv-x="1746" 
d="M1225 1622h-709v184h709v-184zM872 -39q-226 0 -406.5 95.5t-284 272t-103.5 402.5q0 171 60 314t166 240t252 150.5t316 53.5q228 0 408.5 -91.5t284.5 -265t104 -401.5q0 -170 -60.5 -314.5t-166.5 -244t-253 -155.5t-317 -56zM872 334q158 0 260.5 112t102.5 285
q0 170 -102.5 279.5t-260.5 109.5q-159 0 -259.5 -109t-100.5 -280q0 -174 101 -285.5t259 -111.5z" />
    <glyph glyph-name="omacron" unicode="&#x14d;" horiz-adv-x="1320" 
d="M1016 1239h-709v184h709v-184zM659 -37q-118 0 -224 39.5t-186.5 110.5t-127.5 178t-47 235q0 169 81 296.5t213 192t291 64.5t291.5 -64.5t214.5 -192.5t82 -296q0 -170 -82 -300t-214.5 -196.5t-291.5 -66.5zM662 297q96 0 154 67.5t58 161.5q0 91 -59.5 158.5
t-155.5 67.5q-97 0 -155 -67.5t-58 -158.5q0 -94 59.5 -161.5t156.5 -67.5z" />
    </font>
</defs>
</svg>
